<?xml version="1.0" encoding="utf-8" standalone="no"?>
<!DOCTYPE svg PUBLIC "-//W3C//DTD SVG 1.1//EN"
  "http://www.w3.org/Graphics/SVG/1.1/DTD/svg11.dtd">
<!-- Created with matplotlib (https://matplotlib.org/) -->
<svg height="648pt" version="1.1" viewBox="0 0 648 648" width="648pt" xmlns="http://www.w3.org/2000/svg" xmlns:xlink="http://www.w3.org/1999/xlink">
 <metadata>
  <rdf:RDF xmlns:cc="http://creativecommons.org/ns#" xmlns:dc="http://purl.org/dc/elements/1.1/" xmlns:rdf="http://www.w3.org/1999/02/22-rdf-syntax-ns#">
   <cc:Work>
    <dc:type rdf:resource="http://purl.org/dc/dcmitype/StillImage"/>
    <dc:date>2020-12-05T14:38:23.914255</dc:date>
    <dc:format>image/svg+xml</dc:format>
    <dc:creator>
     <cc:Agent>
      <dc:title>Matplotlib v3.3.2, https://matplotlib.org/</dc:title>
     </cc:Agent>
    </dc:creator>
   </cc:Work>
  </rdf:RDF>
 </metadata>
 <defs>
  <style type="text/css">*{stroke-linecap:butt;stroke-linejoin:round;}</style>
 </defs>
 <g id="figure_1">
  <g id="patch_1">
   <path d="M 0 648 
L 648 648 
L 648 0 
L 0 0 
z
"/>
  </g>
  <g id="axes_1">
   <g id="patch_2">
    <path d="M 81 567 
L 583.2 567 
L 583.2 77.76 
L 81 77.76 
z
"/>
   </g>
   <g id="matplotlib.axis_1">
    <g id="xtick_1">
     <g id="text_1">
      <!-- 0 -->
      <g style="fill:#ffffff;" transform="translate(101.602898 579.72625)scale(0.08 -0.08)">
       <defs>
        <path d="M 4.15625 35.296875 
Q 4.15625 48 6.765625 55.734375 
Q 9.375 63.484375 14.515625 67.671875 
Q 19.671875 71.875 27.484375 71.875 
Q 33.25 71.875 37.59375 69.546875 
Q 41.9375 67.234375 44.765625 62.859375 
Q 47.609375 58.5 49.21875 52.21875 
Q 50.828125 45.953125 50.828125 35.296875 
Q 50.828125 22.703125 48.234375 14.96875 
Q 45.65625 7.234375 40.5 3 
Q 35.359375 -1.21875 27.484375 -1.21875 
Q 17.140625 -1.21875 11.234375 6.203125 
Q 4.15625 15.140625 4.15625 35.296875 
z
M 13.1875 35.296875 
Q 13.1875 17.671875 17.3125 11.828125 
Q 21.4375 6 27.484375 6 
Q 33.546875 6 37.671875 11.859375 
Q 41.796875 17.71875 41.796875 35.296875 
Q 41.796875 52.984375 37.671875 58.78125 
Q 33.546875 64.59375 27.390625 64.59375 
Q 21.34375 64.59375 17.71875 59.46875 
Q 13.1875 52.9375 13.1875 35.296875 
z
" id="ArialMT-48"/>
       </defs>
       <use xlink:href="#ArialMT-48"/>
      </g>
     </g>
    </g>
    <g id="xtick_2">
     <g id="text_2">
      <!-- 50 -->
      <g style="fill:#ffffff;" transform="translate(169.928332 579.72625)scale(0.08 -0.08)">
       <defs>
        <path d="M 4.15625 18.75 
L 13.375 19.53125 
Q 14.40625 12.796875 18.140625 9.390625 
Q 21.875 6 27.15625 6 
Q 33.5 6 37.890625 10.78125 
Q 42.28125 15.578125 42.28125 23.484375 
Q 42.28125 31 38.0625 35.34375 
Q 33.84375 39.703125 27 39.703125 
Q 22.75 39.703125 19.328125 37.765625 
Q 15.921875 35.84375 13.96875 32.765625 
L 5.71875 33.84375 
L 12.640625 70.609375 
L 48.25 70.609375 
L 48.25 62.203125 
L 19.671875 62.203125 
L 15.828125 42.96875 
Q 22.265625 47.46875 29.34375 47.46875 
Q 38.71875 47.46875 45.15625 40.96875 
Q 51.609375 34.46875 51.609375 24.265625 
Q 51.609375 14.546875 45.953125 7.46875 
Q 39.0625 -1.21875 27.15625 -1.21875 
Q 17.390625 -1.21875 11.203125 4.25 
Q 5.03125 9.71875 4.15625 18.75 
z
" id="ArialMT-53"/>
       </defs>
       <use xlink:href="#ArialMT-53"/>
       <use x="55.615234" xlink:href="#ArialMT-48"/>
      </g>
     </g>
    </g>
    <g id="xtick_3">
     <g id="text_3">
      <!-- 100 -->
      <g style="fill:#ffffff;" transform="translate(238.253767 579.72625)scale(0.08 -0.08)">
       <defs>
        <path d="M 37.25 0 
L 28.46875 0 
L 28.46875 56 
Q 25.296875 52.984375 20.140625 49.953125 
Q 14.984375 46.921875 10.890625 45.40625 
L 10.890625 53.90625 
Q 18.265625 57.375 23.78125 62.296875 
Q 29.296875 67.234375 31.59375 71.875 
L 37.25 71.875 
z
" id="ArialMT-49"/>
       </defs>
       <use xlink:href="#ArialMT-49"/>
       <use x="55.615234" xlink:href="#ArialMT-48"/>
       <use x="111.230469" xlink:href="#ArialMT-48"/>
      </g>
     </g>
    </g>
    <g id="xtick_4">
     <g id="text_4">
      <!-- 150 -->
      <g style="fill:#ffffff;" transform="translate(308.803576 579.72625)scale(0.08 -0.08)">
       <use xlink:href="#ArialMT-49"/>
       <use x="55.615234" xlink:href="#ArialMT-53"/>
       <use x="111.230469" xlink:href="#ArialMT-48"/>
      </g>
     </g>
    </g>
    <g id="xtick_5">
     <g id="text_5">
      <!-- 200 -->
      <g style="fill:#ffffff;" transform="translate(379.353386 579.72625)scale(0.08 -0.08)">
       <defs>
        <path d="M 50.34375 8.453125 
L 50.34375 0 
L 3.03125 0 
Q 2.9375 3.171875 4.046875 6.109375 
Q 5.859375 10.9375 9.828125 15.625 
Q 13.8125 20.3125 21.34375 26.46875 
Q 33.015625 36.03125 37.109375 41.625 
Q 41.21875 47.21875 41.21875 52.203125 
Q 41.21875 57.421875 37.46875 61 
Q 33.734375 64.59375 27.734375 64.59375 
Q 21.390625 64.59375 17.578125 60.78125 
Q 13.765625 56.984375 13.71875 50.25 
L 4.6875 51.171875 
Q 5.609375 61.28125 11.65625 66.578125 
Q 17.71875 71.875 27.9375 71.875 
Q 38.234375 71.875 44.234375 66.15625 
Q 50.25 60.453125 50.25 52 
Q 50.25 47.703125 48.484375 43.546875 
Q 46.734375 39.40625 42.65625 34.8125 
Q 38.578125 30.21875 29.109375 22.21875 
Q 21.1875 15.578125 18.9375 13.203125 
Q 16.703125 10.84375 15.234375 8.453125 
z
" id="ArialMT-50"/>
       </defs>
       <use xlink:href="#ArialMT-50"/>
       <use x="55.615234" xlink:href="#ArialMT-48"/>
       <use x="111.230469" xlink:href="#ArialMT-48"/>
      </g>
     </g>
    </g>
    <g id="xtick_6">
     <g id="text_6">
      <!-- 250 -->
      <g style="fill:#ffffff;" transform="translate(449.903195 579.72625)scale(0.08 -0.08)">
       <use xlink:href="#ArialMT-50"/>
       <use x="55.615234" xlink:href="#ArialMT-53"/>
       <use x="111.230469" xlink:href="#ArialMT-48"/>
      </g>
     </g>
    </g>
    <g id="xtick_7">
     <g id="text_7">
      <!-- 300 -->
      <g style="fill:#ffffff;" transform="translate(520.453005 579.72625)scale(0.08 -0.08)">
       <defs>
        <path d="M 4.203125 18.890625 
L 12.984375 20.0625 
Q 14.5 12.59375 18.140625 9.296875 
Q 21.78125 6 27 6 
Q 33.203125 6 37.46875 10.296875 
Q 41.75 14.59375 41.75 20.953125 
Q 41.75 27 37.796875 30.921875 
Q 33.84375 34.859375 27.734375 34.859375 
Q 25.25 34.859375 21.53125 33.890625 
L 22.515625 41.609375 
Q 23.390625 41.5 23.921875 41.5 
Q 29.546875 41.5 34.03125 44.421875 
Q 38.53125 47.359375 38.53125 53.46875 
Q 38.53125 58.296875 35.25 61.46875 
Q 31.984375 64.65625 26.8125 64.65625 
Q 21.6875 64.65625 18.265625 61.421875 
Q 14.84375 58.203125 13.875 51.765625 
L 5.078125 53.328125 
Q 6.6875 62.15625 12.390625 67.015625 
Q 18.109375 71.875 26.609375 71.875 
Q 32.46875 71.875 37.390625 69.359375 
Q 42.328125 66.84375 44.9375 62.5 
Q 47.5625 58.15625 47.5625 53.265625 
Q 47.5625 48.640625 45.0625 44.828125 
Q 42.578125 41.015625 37.703125 38.765625 
Q 44.046875 37.3125 47.5625 32.6875 
Q 51.078125 28.078125 51.078125 21.140625 
Q 51.078125 11.765625 44.234375 5.25 
Q 37.40625 -1.265625 26.953125 -1.265625 
Q 17.53125 -1.265625 11.296875 4.34375 
Q 5.078125 9.96875 4.203125 18.890625 
z
" id="ArialMT-51"/>
       </defs>
       <use xlink:href="#ArialMT-51"/>
       <use x="55.615234" xlink:href="#ArialMT-48"/>
       <use x="111.230469" xlink:href="#ArialMT-48"/>
      </g>
     </g>
    </g>
    <g id="text_8">
     <!--  -->
     <g style="fill:#ffffff;" transform="translate(332.1 592.474062)scale(0.1 -0.1)"/>
     <!--  Per Game Average Passing Offense (in yards) -->
     <g style="fill:#ffffff;" transform="translate(228.066406 603.204687)scale(0.1 -0.1)">
      <defs>
       <path id="ArialMT-32"/>
       <path d="M 7.71875 0 
L 7.71875 71.578125 
L 34.71875 71.578125 
Q 41.84375 71.578125 45.609375 70.90625 
Q 50.875 70.015625 54.4375 67.546875 
Q 58.015625 65.09375 60.1875 60.640625 
Q 62.359375 56.203125 62.359375 50.875 
Q 62.359375 41.75 56.546875 35.421875 
Q 50.734375 29.109375 35.546875 29.109375 
L 17.1875 29.109375 
L 17.1875 0 
z
M 17.1875 37.546875 
L 35.6875 37.546875 
Q 44.875 37.546875 48.734375 40.96875 
Q 52.59375 44.390625 52.59375 50.59375 
Q 52.59375 55.078125 50.3125 58.265625 
Q 48.046875 61.46875 44.34375 62.5 
Q 41.9375 63.140625 35.5 63.140625 
L 17.1875 63.140625 
z
" id="ArialMT-80"/>
       <path d="M 42.09375 16.703125 
L 51.171875 15.578125 
Q 49.03125 7.625 43.21875 3.21875 
Q 37.40625 -1.171875 28.375 -1.171875 
Q 17 -1.171875 10.328125 5.828125 
Q 3.65625 12.84375 3.65625 25.484375 
Q 3.65625 38.578125 10.390625 45.796875 
Q 17.140625 53.03125 27.875 53.03125 
Q 38.28125 53.03125 44.875 45.953125 
Q 51.46875 38.875 51.46875 26.03125 
Q 51.46875 25.25 51.421875 23.6875 
L 12.75 23.6875 
Q 13.234375 15.140625 17.578125 10.59375 
Q 21.921875 6.0625 28.421875 6.0625 
Q 33.25 6.0625 36.671875 8.59375 
Q 40.09375 11.140625 42.09375 16.703125 
z
M 13.234375 30.90625 
L 42.1875 30.90625 
Q 41.609375 37.453125 38.875 40.71875 
Q 34.671875 45.796875 27.984375 45.796875 
Q 21.921875 45.796875 17.796875 41.75 
Q 13.671875 37.703125 13.234375 30.90625 
z
" id="ArialMT-101"/>
       <path d="M 6.5 0 
L 6.5 51.859375 
L 14.40625 51.859375 
L 14.40625 44 
Q 17.4375 49.515625 20 51.265625 
Q 22.5625 53.03125 25.640625 53.03125 
Q 30.078125 53.03125 34.671875 50.203125 
L 31.640625 42.046875 
Q 28.421875 43.953125 25.203125 43.953125 
Q 22.3125 43.953125 20.015625 42.21875 
Q 17.71875 40.484375 16.75 37.40625 
Q 15.28125 32.71875 15.28125 27.15625 
L 15.28125 0 
z
" id="ArialMT-114"/>
       <path d="M 41.21875 28.078125 
L 41.21875 36.46875 
L 71.53125 36.53125 
L 71.53125 9.96875 
Q 64.546875 4.390625 57.125 1.578125 
Q 49.703125 -1.21875 41.890625 -1.21875 
Q 31.34375 -1.21875 22.71875 3.296875 
Q 14.109375 7.8125 9.71875 16.359375 
Q 5.328125 24.90625 5.328125 35.453125 
Q 5.328125 45.90625 9.6875 54.953125 
Q 14.0625 64.015625 22.265625 68.40625 
Q 30.46875 72.796875 41.15625 72.796875 
Q 48.921875 72.796875 55.1875 70.28125 
Q 61.46875 67.78125 65.03125 63.28125 
Q 68.609375 58.796875 70.453125 51.5625 
L 61.921875 49.21875 
Q 60.296875 54.6875 57.90625 57.8125 
Q 55.515625 60.9375 51.0625 62.8125 
Q 46.625 64.703125 41.21875 64.703125 
Q 34.71875 64.703125 29.984375 62.71875 
Q 25.25 60.75 22.34375 57.515625 
Q 19.4375 54.296875 17.828125 50.4375 
Q 15.09375 43.796875 15.09375 36.03125 
Q 15.09375 26.46875 18.390625 20.015625 
Q 21.6875 13.578125 27.984375 10.453125 
Q 34.28125 7.328125 41.359375 7.328125 
Q 47.515625 7.328125 53.375 9.6875 
Q 59.234375 12.0625 62.25 14.75 
L 62.25 28.078125 
z
" id="ArialMT-71"/>
       <path d="M 40.4375 6.390625 
Q 35.546875 2.25 31.03125 0.53125 
Q 26.515625 -1.171875 21.34375 -1.171875 
Q 12.796875 -1.171875 8.203125 3 
Q 3.609375 7.171875 3.609375 13.671875 
Q 3.609375 17.484375 5.34375 20.625 
Q 7.078125 23.78125 9.890625 25.6875 
Q 12.703125 27.59375 16.21875 28.5625 
Q 18.796875 29.25 24.03125 29.890625 
Q 34.671875 31.15625 39.703125 32.90625 
Q 39.75 34.71875 39.75 35.203125 
Q 39.75 40.578125 37.25 42.78125 
Q 33.890625 45.75 27.25 45.75 
Q 21.046875 45.75 18.09375 43.578125 
Q 15.140625 41.40625 13.71875 35.890625 
L 5.125 37.0625 
Q 6.296875 42.578125 8.984375 45.96875 
Q 11.671875 49.359375 16.75 51.1875 
Q 21.828125 53.03125 28.515625 53.03125 
Q 35.15625 53.03125 39.296875 51.46875 
Q 43.453125 49.90625 45.40625 47.53125 
Q 47.359375 45.171875 48.140625 41.546875 
Q 48.578125 39.3125 48.578125 33.453125 
L 48.578125 21.734375 
Q 48.578125 9.46875 49.140625 6.21875 
Q 49.703125 2.984375 51.375 0 
L 42.1875 0 
Q 40.828125 2.734375 40.4375 6.390625 
z
M 39.703125 26.03125 
Q 34.90625 24.078125 25.34375 22.703125 
Q 19.921875 21.921875 17.671875 20.9375 
Q 15.4375 19.96875 14.203125 18.09375 
Q 12.984375 16.21875 12.984375 13.921875 
Q 12.984375 10.40625 15.640625 8.0625 
Q 18.3125 5.71875 23.4375 5.71875 
Q 28.515625 5.71875 32.46875 7.9375 
Q 36.421875 10.15625 38.28125 14.015625 
Q 39.703125 17 39.703125 22.796875 
z
" id="ArialMT-97"/>
       <path d="M 6.59375 0 
L 6.59375 51.859375 
L 14.453125 51.859375 
L 14.453125 44.578125 
Q 16.890625 48.390625 20.9375 50.703125 
Q 25 53.03125 30.171875 53.03125 
Q 35.9375 53.03125 39.625 50.640625 
Q 43.3125 48.25 44.828125 43.953125 
Q 50.984375 53.03125 60.84375 53.03125 
Q 68.5625 53.03125 72.703125 48.75 
Q 76.859375 44.484375 76.859375 35.59375 
L 76.859375 0 
L 68.109375 0 
L 68.109375 32.671875 
Q 68.109375 37.9375 67.25 40.25 
Q 66.40625 42.578125 64.15625 43.984375 
Q 61.921875 45.40625 58.890625 45.40625 
Q 53.421875 45.40625 49.796875 41.765625 
Q 46.1875 38.140625 46.1875 30.125 
L 46.1875 0 
L 37.40625 0 
L 37.40625 33.6875 
Q 37.40625 39.546875 35.25 42.46875 
Q 33.109375 45.40625 28.21875 45.40625 
Q 24.515625 45.40625 21.359375 43.453125 
Q 18.21875 41.5 16.796875 37.734375 
Q 15.375 33.984375 15.375 26.90625 
L 15.375 0 
z
" id="ArialMT-109"/>
       <path d="M -0.140625 0 
L 27.34375 71.578125 
L 37.546875 71.578125 
L 66.84375 0 
L 56.0625 0 
L 47.703125 21.6875 
L 17.78125 21.6875 
L 9.90625 0 
z
M 20.515625 29.390625 
L 44.78125 29.390625 
L 37.3125 49.21875 
Q 33.890625 58.25 32.234375 64.0625 
Q 30.859375 57.171875 28.375 50.390625 
z
" id="ArialMT-65"/>
       <path d="M 21 0 
L 1.265625 51.859375 
L 10.546875 51.859375 
L 21.6875 20.796875 
Q 23.484375 15.765625 25 10.359375 
Q 26.171875 14.453125 28.265625 20.21875 
L 39.796875 51.859375 
L 48.828125 51.859375 
L 29.203125 0 
z
" id="ArialMT-118"/>
       <path d="M 4.984375 -4.296875 
L 13.53125 -5.5625 
Q 14.0625 -9.515625 16.5 -11.328125 
Q 19.78125 -13.765625 25.4375 -13.765625 
Q 31.546875 -13.765625 34.859375 -11.328125 
Q 38.1875 -8.890625 39.359375 -4.5 
Q 40.046875 -1.8125 39.984375 6.78125 
Q 34.234375 0 25.640625 0 
Q 14.9375 0 9.078125 7.71875 
Q 3.21875 15.4375 3.21875 26.21875 
Q 3.21875 33.640625 5.90625 39.90625 
Q 8.59375 46.1875 13.6875 49.609375 
Q 18.796875 53.03125 25.6875 53.03125 
Q 34.859375 53.03125 40.828125 45.609375 
L 40.828125 51.859375 
L 48.921875 51.859375 
L 48.921875 7.03125 
Q 48.921875 -5.078125 46.453125 -10.125 
Q 44 -15.1875 38.640625 -18.109375 
Q 33.296875 -21.046875 25.484375 -21.046875 
Q 16.21875 -21.046875 10.5 -16.875 
Q 4.78125 -12.703125 4.984375 -4.296875 
z
M 12.25 26.859375 
Q 12.25 16.65625 16.296875 11.96875 
Q 20.359375 7.28125 26.46875 7.28125 
Q 32.515625 7.28125 36.609375 11.9375 
Q 40.71875 16.609375 40.71875 26.5625 
Q 40.71875 36.078125 36.5 40.90625 
Q 32.28125 45.75 26.3125 45.75 
Q 20.453125 45.75 16.34375 40.984375 
Q 12.25 36.234375 12.25 26.859375 
z
" id="ArialMT-103"/>
       <path d="M 3.078125 15.484375 
L 11.765625 16.84375 
Q 12.5 11.625 15.84375 8.84375 
Q 19.1875 6.0625 25.203125 6.0625 
Q 31.25 6.0625 34.171875 8.515625 
Q 37.109375 10.984375 37.109375 14.3125 
Q 37.109375 17.28125 34.515625 19 
Q 32.71875 20.171875 25.53125 21.96875 
Q 15.875 24.421875 12.140625 26.203125 
Q 8.40625 27.984375 6.46875 31.125 
Q 4.546875 34.28125 4.546875 38.09375 
Q 4.546875 41.546875 6.125 44.5 
Q 7.71875 47.46875 10.453125 49.421875 
Q 12.5 50.921875 16.03125 51.96875 
Q 19.578125 53.03125 23.640625 53.03125 
Q 29.734375 53.03125 34.34375 51.265625 
Q 38.96875 49.515625 41.15625 46.5 
Q 43.359375 43.5 44.1875 38.484375 
L 35.59375 37.3125 
Q 35.015625 41.3125 32.203125 43.546875 
Q 29.390625 45.796875 24.265625 45.796875 
Q 18.21875 45.796875 15.625 43.796875 
Q 13.03125 41.796875 13.03125 39.109375 
Q 13.03125 37.40625 14.109375 36.03125 
Q 15.1875 34.625 17.484375 33.6875 
Q 18.796875 33.203125 25.25 31.453125 
Q 34.578125 28.953125 38.25 27.359375 
Q 41.9375 25.78125 44.03125 22.75 
Q 46.140625 19.734375 46.140625 15.234375 
Q 46.140625 10.84375 43.578125 6.953125 
Q 41.015625 3.078125 36.171875 0.953125 
Q 31.34375 -1.171875 25.25 -1.171875 
Q 15.140625 -1.171875 9.84375 3.03125 
Q 4.546875 7.234375 3.078125 15.484375 
z
" id="ArialMT-115"/>
       <path d="M 6.640625 61.46875 
L 6.640625 71.578125 
L 15.4375 71.578125 
L 15.4375 61.46875 
z
M 6.640625 0 
L 6.640625 51.859375 
L 15.4375 51.859375 
L 15.4375 0 
z
" id="ArialMT-105"/>
       <path d="M 6.59375 0 
L 6.59375 51.859375 
L 14.5 51.859375 
L 14.5 44.484375 
Q 20.21875 53.03125 31 53.03125 
Q 35.6875 53.03125 39.625 51.34375 
Q 43.5625 49.65625 45.515625 46.921875 
Q 47.46875 44.1875 48.25 40.4375 
Q 48.734375 37.984375 48.734375 31.890625 
L 48.734375 0 
L 39.9375 0 
L 39.9375 31.546875 
Q 39.9375 36.921875 38.90625 39.578125 
Q 37.890625 42.234375 35.28125 43.8125 
Q 32.671875 45.40625 29.15625 45.40625 
Q 23.53125 45.40625 19.453125 41.84375 
Q 15.375 38.28125 15.375 28.328125 
L 15.375 0 
z
" id="ArialMT-110"/>
       <path d="M 4.828125 34.859375 
Q 4.828125 52.6875 14.390625 62.765625 
Q 23.96875 72.859375 39.109375 72.859375 
Q 49.03125 72.859375 56.984375 68.109375 
Q 64.9375 63.375 69.109375 54.90625 
Q 73.296875 46.4375 73.296875 35.6875 
Q 73.296875 24.8125 68.890625 16.21875 
Q 64.5 7.625 56.4375 3.203125 
Q 48.390625 -1.21875 39.0625 -1.21875 
Q 28.953125 -1.21875 20.984375 3.65625 
Q 13.03125 8.546875 8.921875 16.984375 
Q 4.828125 25.4375 4.828125 34.859375 
z
M 14.59375 34.71875 
Q 14.59375 21.78125 21.546875 14.328125 
Q 28.515625 6.890625 39.015625 6.890625 
Q 49.703125 6.890625 56.609375 14.40625 
Q 63.53125 21.921875 63.53125 35.75 
Q 63.53125 44.484375 60.578125 51 
Q 57.625 57.515625 51.921875 61.109375 
Q 46.234375 64.703125 39.15625 64.703125 
Q 29.109375 64.703125 21.84375 57.78125 
Q 14.59375 50.875 14.59375 34.71875 
z
" id="ArialMT-79"/>
       <path d="M 8.6875 0 
L 8.6875 45.015625 
L 0.921875 45.015625 
L 0.921875 51.859375 
L 8.6875 51.859375 
L 8.6875 57.375 
Q 8.6875 62.59375 9.625 65.140625 
Q 10.890625 68.5625 14.078125 70.671875 
Q 17.28125 72.796875 23.046875 72.796875 
Q 26.765625 72.796875 31.25 71.921875 
L 29.9375 64.265625 
Q 27.203125 64.75 24.75 64.75 
Q 20.75 64.75 19.09375 63.03125 
Q 17.4375 61.328125 17.4375 56.640625 
L 17.4375 51.859375 
L 27.546875 51.859375 
L 27.546875 45.015625 
L 17.4375 45.015625 
L 17.4375 0 
z
" id="ArialMT-102"/>
       <path d="M 23.390625 -21.046875 
Q 16.109375 -11.859375 11.078125 0.4375 
Q 6.0625 12.75 6.0625 25.921875 
Q 6.0625 37.546875 9.8125 48.1875 
Q 14.203125 60.546875 23.390625 72.796875 
L 29.6875 72.796875 
Q 23.78125 62.640625 21.875 58.296875 
Q 18.890625 51.5625 17.1875 44.234375 
Q 15.09375 35.109375 15.09375 25.875 
Q 15.09375 2.390625 29.6875 -21.046875 
z
" id="ArialMT-40"/>
       <path d="M 6.203125 -19.96875 
L 5.21875 -11.71875 
Q 8.109375 -12.5 10.25 -12.5 
Q 13.1875 -12.5 14.9375 -11.515625 
Q 16.703125 -10.546875 17.828125 -8.796875 
Q 18.65625 -7.46875 20.515625 -2.25 
Q 20.75 -1.515625 21.296875 -0.09375 
L 1.609375 51.859375 
L 11.078125 51.859375 
L 21.875 21.828125 
Q 23.96875 16.109375 25.640625 9.8125 
Q 27.15625 15.875 29.25 21.625 
L 40.328125 51.859375 
L 49.125 51.859375 
L 29.390625 -0.875 
Q 26.21875 -9.421875 24.46875 -12.640625 
Q 22.125 -17 19.09375 -19.015625 
Q 16.0625 -21.046875 11.859375 -21.046875 
Q 9.328125 -21.046875 6.203125 -19.96875 
z
" id="ArialMT-121"/>
       <path d="M 40.234375 0 
L 40.234375 6.546875 
Q 35.296875 -1.171875 25.734375 -1.171875 
Q 19.53125 -1.171875 14.328125 2.25 
Q 9.125 5.671875 6.265625 11.796875 
Q 3.421875 17.921875 3.421875 25.875 
Q 3.421875 33.640625 6 39.96875 
Q 8.59375 46.296875 13.765625 49.65625 
Q 18.953125 53.03125 25.34375 53.03125 
Q 30.03125 53.03125 33.6875 51.046875 
Q 37.359375 49.078125 39.65625 45.90625 
L 39.65625 71.578125 
L 48.390625 71.578125 
L 48.390625 0 
z
M 12.453125 25.875 
Q 12.453125 15.921875 16.640625 10.984375 
Q 20.84375 6.0625 26.5625 6.0625 
Q 32.328125 6.0625 36.34375 10.765625 
Q 40.375 15.484375 40.375 25.140625 
Q 40.375 35.796875 36.265625 40.765625 
Q 32.171875 45.75 26.171875 45.75 
Q 20.3125 45.75 16.375 40.96875 
Q 12.453125 36.1875 12.453125 25.875 
z
" id="ArialMT-100"/>
       <path d="M 12.359375 -21.046875 
L 6.0625 -21.046875 
Q 20.65625 2.390625 20.65625 25.875 
Q 20.65625 35.0625 18.5625 44.09375 
Q 16.890625 51.421875 13.921875 58.15625 
Q 12.015625 62.546875 6.0625 72.796875 
L 12.359375 72.796875 
Q 21.53125 60.546875 25.921875 48.1875 
Q 29.6875 37.546875 29.6875 25.921875 
Q 29.6875 12.75 24.625 0.4375 
Q 19.578125 -11.859375 12.359375 -21.046875 
z
" id="ArialMT-41"/>
      </defs>
      <use xlink:href="#ArialMT-32"/>
      <use x="27.783203" xlink:href="#ArialMT-80"/>
      <use x="94.482422" xlink:href="#ArialMT-101"/>
      <use x="150.097656" xlink:href="#ArialMT-114"/>
      <use x="183.398438" xlink:href="#ArialMT-32"/>
      <use x="211.181641" xlink:href="#ArialMT-71"/>
      <use x="288.964844" xlink:href="#ArialMT-97"/>
      <use x="344.580078" xlink:href="#ArialMT-109"/>
      <use x="427.880859" xlink:href="#ArialMT-101"/>
      <use x="483.496094" xlink:href="#ArialMT-32"/>
      <use x="505.779297" xlink:href="#ArialMT-65"/>
      <use x="570.728516" xlink:href="#ArialMT-118"/>
      <use x="620.728516" xlink:href="#ArialMT-101"/>
      <use x="676.34375" xlink:href="#ArialMT-114"/>
      <use x="709.644531" xlink:href="#ArialMT-97"/>
      <use x="765.259766" xlink:href="#ArialMT-103"/>
      <use x="820.875" xlink:href="#ArialMT-101"/>
      <use x="876.490234" xlink:href="#ArialMT-32"/>
      <use x="904.273438" xlink:href="#ArialMT-80"/>
      <use x="970.972656" xlink:href="#ArialMT-97"/>
      <use x="1026.587891" xlink:href="#ArialMT-115"/>
      <use x="1076.587891" xlink:href="#ArialMT-115"/>
      <use x="1126.587891" xlink:href="#ArialMT-105"/>
      <use x="1148.804688" xlink:href="#ArialMT-110"/>
      <use x="1204.419922" xlink:href="#ArialMT-103"/>
      <use x="1260.035156" xlink:href="#ArialMT-32"/>
      <use x="1287.818359" xlink:href="#ArialMT-79"/>
      <use x="1365.601562" xlink:href="#ArialMT-102"/>
      <use x="1391.634766" xlink:href="#ArialMT-102"/>
      <use x="1419.417969" xlink:href="#ArialMT-101"/>
      <use x="1475.033203" xlink:href="#ArialMT-110"/>
      <use x="1530.648438" xlink:href="#ArialMT-115"/>
      <use x="1580.648438" xlink:href="#ArialMT-101"/>
      <use x="1636.263672" xlink:href="#ArialMT-32"/>
      <use x="1664.046875" xlink:href="#ArialMT-40"/>
      <use x="1697.347656" xlink:href="#ArialMT-105"/>
      <use x="1719.564453" xlink:href="#ArialMT-110"/>
      <use x="1775.179688" xlink:href="#ArialMT-32"/>
      <use x="1802.962891" xlink:href="#ArialMT-121"/>
      <use x="1852.962891" xlink:href="#ArialMT-97"/>
      <use x="1908.578125" xlink:href="#ArialMT-114"/>
      <use x="1941.878906" xlink:href="#ArialMT-100"/>
      <use x="1997.494141" xlink:href="#ArialMT-115"/>
      <use x="2047.494141" xlink:href="#ArialMT-41"/>
     </g>
    </g>
   </g>
   <g id="matplotlib.axis_2">
    <g id="ytick_1">
     <g id="text_9">
      <!-- ARI -->
      <g style="fill:#ffffff;" transform="translate(60.66375 547.624943)scale(0.08 -0.08)">
       <defs>
        <path d="M 7.859375 0 
L 7.859375 71.578125 
L 39.59375 71.578125 
Q 49.171875 71.578125 54.140625 69.640625 
Q 59.125 67.71875 62.109375 62.828125 
Q 65.09375 57.953125 65.09375 52.046875 
Q 65.09375 44.4375 60.15625 39.203125 
Q 55.21875 33.984375 44.921875 32.5625 
Q 48.6875 30.765625 50.640625 29 
Q 54.78125 25.203125 58.5 19.484375 
L 70.953125 0 
L 59.03125 0 
L 49.5625 14.890625 
Q 45.40625 21.34375 42.71875 24.75 
Q 40.046875 28.171875 37.921875 29.53125 
Q 35.796875 30.90625 33.59375 31.453125 
Q 31.984375 31.78125 28.328125 31.78125 
L 17.328125 31.78125 
L 17.328125 0 
z
M 17.328125 39.984375 
L 37.703125 39.984375 
Q 44.1875 39.984375 47.84375 41.328125 
Q 51.515625 42.671875 53.421875 45.625 
Q 55.328125 48.578125 55.328125 52.046875 
Q 55.328125 57.125 51.640625 60.390625 
Q 47.953125 63.671875 39.984375 63.671875 
L 17.328125 63.671875 
z
" id="ArialMT-82"/>
        <path d="M 9.328125 0 
L 9.328125 71.578125 
L 18.796875 71.578125 
L 18.796875 0 
z
" id="ArialMT-73"/>
       </defs>
       <use xlink:href="#ArialMT-65"/>
       <use x="66.699219" xlink:href="#ArialMT-82"/>
       <use x="138.916016" xlink:href="#ArialMT-73"/>
      </g>
     </g>
    </g>
    <g id="ytick_2">
     <g id="text_10">
      <!-- BUF -->
      <g style="fill:#ffffff;" transform="translate(58 533.277729)scale(0.08 -0.08)">
       <defs>
        <path d="M 7.328125 0 
L 7.328125 71.578125 
L 34.1875 71.578125 
Q 42.390625 71.578125 47.34375 69.40625 
Q 52.296875 67.234375 55.09375 62.71875 
Q 57.90625 58.203125 57.90625 53.265625 
Q 57.90625 48.6875 55.421875 44.625 
Q 52.9375 40.578125 47.90625 38.09375 
Q 54.390625 36.1875 57.875 31.59375 
Q 61.375 27 61.375 20.75 
Q 61.375 15.71875 59.25 11.390625 
Q 57.125 7.078125 54 4.734375 
Q 50.875 2.390625 46.15625 1.1875 
Q 41.453125 0 34.625 0 
z
M 16.796875 41.5 
L 32.28125 41.5 
Q 38.578125 41.5 41.3125 42.328125 
Q 44.921875 43.40625 46.75 45.890625 
Q 48.578125 48.390625 48.578125 52.15625 
Q 48.578125 55.71875 46.875 58.421875 
Q 45.171875 61.140625 41.984375 62.140625 
Q 38.8125 63.140625 31.109375 63.140625 
L 16.796875 63.140625 
z
M 16.796875 8.453125 
L 34.625 8.453125 
Q 39.203125 8.453125 41.0625 8.796875 
Q 44.34375 9.375 46.53125 10.734375 
Q 48.734375 12.109375 50.140625 14.71875 
Q 51.5625 17.328125 51.5625 20.75 
Q 51.5625 24.75 49.515625 27.703125 
Q 47.46875 30.671875 43.828125 31.859375 
Q 40.1875 33.0625 33.34375 33.0625 
L 16.796875 33.0625 
z
" id="ArialMT-66"/>
        <path d="M 54.6875 71.578125 
L 64.15625 71.578125 
L 64.15625 30.21875 
Q 64.15625 19.4375 61.71875 13.078125 
Q 59.28125 6.734375 52.90625 2.75 
Q 46.53125 -1.21875 36.1875 -1.21875 
Q 26.125 -1.21875 19.71875 2.25 
Q 13.328125 5.71875 10.59375 12.28125 
Q 7.859375 18.84375 7.859375 30.21875 
L 7.859375 71.578125 
L 17.328125 71.578125 
L 17.328125 30.28125 
Q 17.328125 20.953125 19.0625 16.53125 
Q 20.796875 12.109375 25.015625 9.71875 
Q 29.25 7.328125 35.359375 7.328125 
Q 45.796875 7.328125 50.234375 12.0625 
Q 54.6875 16.796875 54.6875 30.28125 
z
" id="ArialMT-85"/>
        <path d="M 8.203125 0 
L 8.203125 71.578125 
L 56.5 71.578125 
L 56.5 63.140625 
L 17.671875 63.140625 
L 17.671875 40.96875 
L 51.265625 40.96875 
L 51.265625 32.515625 
L 17.671875 32.515625 
L 17.671875 0 
z
" id="ArialMT-70"/>
       </defs>
       <use xlink:href="#ArialMT-66"/>
       <use x="66.699219" xlink:href="#ArialMT-85"/>
       <use x="138.916016" xlink:href="#ArialMT-70"/>
      </g>
     </g>
    </g>
    <g id="ytick_3">
     <g id="text_11">
      <!-- SEA -->
      <g style="fill:#ffffff;" transform="translate(57.99125 518.930515)scale(0.08 -0.08)">
       <defs>
        <path d="M 4.5 23 
L 13.421875 23.78125 
Q 14.0625 18.40625 16.375 14.96875 
Q 18.703125 11.53125 23.578125 9.40625 
Q 28.46875 7.28125 34.578125 7.28125 
Q 39.984375 7.28125 44.140625 8.890625 
Q 48.296875 10.5 50.3125 13.296875 
Q 52.34375 16.109375 52.34375 19.4375 
Q 52.34375 22.796875 50.390625 25.3125 
Q 48.4375 27.828125 43.953125 29.546875 
Q 41.0625 30.671875 31.203125 33.03125 
Q 21.34375 35.40625 17.390625 37.5 
Q 12.25 40.1875 9.734375 44.15625 
Q 7.234375 48.140625 7.234375 53.078125 
Q 7.234375 58.5 10.296875 63.203125 
Q 13.375 67.921875 19.28125 70.359375 
Q 25.203125 72.796875 32.421875 72.796875 
Q 40.375 72.796875 46.453125 70.234375 
Q 52.546875 67.671875 55.8125 62.6875 
Q 59.078125 57.71875 59.328125 51.421875 
L 50.25 50.734375 
Q 49.515625 57.515625 45.28125 60.984375 
Q 41.0625 64.453125 32.8125 64.453125 
Q 24.21875 64.453125 20.28125 61.296875 
Q 16.359375 58.15625 16.359375 53.71875 
Q 16.359375 49.859375 19.140625 47.359375 
Q 21.875 44.875 33.421875 42.265625 
Q 44.96875 39.65625 49.265625 37.703125 
Q 55.515625 34.8125 58.484375 30.390625 
Q 61.46875 25.984375 61.46875 20.21875 
Q 61.46875 14.5 58.203125 9.4375 
Q 54.9375 4.390625 48.796875 1.578125 
Q 42.671875 -1.21875 35.015625 -1.21875 
Q 25.296875 -1.21875 18.71875 1.609375 
Q 12.15625 4.4375 8.421875 10.125 
Q 4.6875 15.828125 4.5 23 
z
" id="ArialMT-83"/>
        <path d="M 7.90625 0 
L 7.90625 71.578125 
L 59.671875 71.578125 
L 59.671875 63.140625 
L 17.390625 63.140625 
L 17.390625 41.21875 
L 56.984375 41.21875 
L 56.984375 32.8125 
L 17.390625 32.8125 
L 17.390625 8.453125 
L 61.328125 8.453125 
L 61.328125 0 
z
" id="ArialMT-69"/>
       </defs>
       <use xlink:href="#ArialMT-83"/>
       <use x="66.699219" xlink:href="#ArialMT-69"/>
       <use x="133.398438" xlink:href="#ArialMT-65"/>
      </g>
     </g>
    </g>
    <g id="ytick_4">
     <g id="text_12">
      <!-- MIA -->
      <g style="fill:#ffffff;" transform="translate(59.7775 504.583301)scale(0.08 -0.08)">
       <defs>
        <path d="M 7.421875 0 
L 7.421875 71.578125 
L 21.6875 71.578125 
L 38.625 20.90625 
Q 40.96875 13.8125 42.046875 10.296875 
Q 43.265625 14.203125 45.84375 21.78125 
L 62.984375 71.578125 
L 75.734375 71.578125 
L 75.734375 0 
L 66.609375 0 
L 66.609375 59.90625 
L 45.796875 0 
L 37.25 0 
L 16.546875 60.9375 
L 16.546875 0 
z
" id="ArialMT-77"/>
       </defs>
       <use xlink:href="#ArialMT-77"/>
       <use x="83.300781" xlink:href="#ArialMT-73"/>
       <use x="111.083984" xlink:href="#ArialMT-65"/>
      </g>
     </g>
    </g>
    <g id="ytick_5">
     <g id="text_13">
      <!-- TEN -->
      <g style="fill:#ffffff;" transform="translate(58 490.236087)scale(0.08 -0.08)">
       <defs>
        <path d="M 25.921875 0 
L 25.921875 63.140625 
L 2.34375 63.140625 
L 2.34375 71.578125 
L 59.078125 71.578125 
L 59.078125 63.140625 
L 35.40625 63.140625 
L 35.40625 0 
z
" id="ArialMT-84"/>
        <path d="M 7.625 0 
L 7.625 71.578125 
L 17.328125 71.578125 
L 54.9375 15.375 
L 54.9375 71.578125 
L 64.015625 71.578125 
L 64.015625 0 
L 54.296875 0 
L 16.703125 56.25 
L 16.703125 0 
z
" id="ArialMT-78"/>
       </defs>
       <use xlink:href="#ArialMT-84"/>
       <use x="61.083984" xlink:href="#ArialMT-69"/>
       <use x="127.783203" xlink:href="#ArialMT-78"/>
      </g>
     </g>
    </g>
    <g id="ytick_6">
     <g id="text_14">
      <!-- WAS -->
      <g style="fill:#ffffff;" transform="translate(56.07625 475.888873)scale(0.08 -0.08)">
       <defs>
        <path d="M 20.21875 0 
L 1.21875 71.578125 
L 10.9375 71.578125 
L 21.828125 24.65625 
Q 23.578125 17.28125 24.859375 10.015625 
Q 27.59375 21.484375 28.078125 23.25 
L 41.703125 71.578125 
L 53.125 71.578125 
L 63.375 35.359375 
Q 67.234375 21.875 68.953125 10.015625 
Q 70.3125 16.796875 72.515625 25.59375 
L 83.734375 71.578125 
L 93.265625 71.578125 
L 73.640625 0 
L 64.5 0 
L 49.421875 54.546875 
Q 47.515625 61.375 47.171875 62.9375 
Q 46.046875 58.015625 45.0625 54.546875 
L 29.890625 0 
z
" id="ArialMT-87"/>
       </defs>
       <use xlink:href="#ArialMT-87"/>
       <use x="90.634766" xlink:href="#ArialMT-65"/>
       <use x="157.333984" xlink:href="#ArialMT-83"/>
      </g>
     </g>
    </g>
    <g id="ytick_7">
     <g id="text_15">
      <!-- JAX -->
      <g style="fill:#ffffff;" transform="translate(59.3275 461.541659)scale(0.08 -0.08)">
       <defs>
        <path d="M 2.875 20.3125 
L 11.421875 21.484375 
Q 11.765625 13.28125 14.5 10.25 
Q 17.234375 7.234375 22.078125 7.234375 
Q 25.640625 7.234375 28.21875 8.859375 
Q 30.8125 10.5 31.78125 13.296875 
Q 32.765625 16.109375 32.765625 22.265625 
L 32.765625 71.578125 
L 42.234375 71.578125 
L 42.234375 22.796875 
Q 42.234375 13.8125 40.0625 8.875 
Q 37.890625 3.953125 33.171875 1.359375 
Q 28.46875 -1.21875 22.125 -1.21875 
Q 12.703125 -1.21875 7.6875 4.203125 
Q 2.6875 9.625 2.875 20.3125 
z
" id="ArialMT-74"/>
        <path d="M 0.4375 0 
L 28.125 37.3125 
L 3.71875 71.578125 
L 14.984375 71.578125 
L 27.984375 53.21875 
Q 32.03125 47.515625 33.734375 44.4375 
Q 36.140625 48.34375 39.40625 52.59375 
L 53.8125 71.578125 
L 64.109375 71.578125 
L 38.96875 37.84375 
L 66.0625 0 
L 54.34375 0 
L 36.328125 25.53125 
Q 34.8125 27.734375 33.203125 30.328125 
Q 30.8125 26.421875 29.78125 24.953125 
L 11.8125 0 
z
" id="ArialMT-88"/>
       </defs>
       <use xlink:href="#ArialMT-74"/>
       <use x="50" xlink:href="#ArialMT-65"/>
       <use x="116.699219" xlink:href="#ArialMT-88"/>
      </g>
     </g>
    </g>
    <g id="ytick_8">
     <g id="text_16">
      <!-- NYJ -->
      <g style="fill:#ffffff;" transform="translate(58.88625 447.194445)scale(0.08 -0.08)">
       <defs>
        <path d="M 27.875 0 
L 27.875 30.328125 
L 0.296875 71.578125 
L 11.8125 71.578125 
L 25.921875 50 
Q 29.828125 43.953125 33.203125 37.890625 
Q 36.421875 43.5 41.015625 50.53125 
L 54.890625 71.578125 
L 65.921875 71.578125 
L 37.359375 30.328125 
L 37.359375 0 
z
" id="ArialMT-89"/>
       </defs>
       <use xlink:href="#ArialMT-78"/>
       <use x="72.216797" xlink:href="#ArialMT-89"/>
       <use x="138.916016" xlink:href="#ArialMT-74"/>
      </g>
     </g>
    </g>
    <g id="ytick_9">
     <g id="text_17">
      <!-- CIN -->
      <g style="fill:#ffffff;" transform="translate(60.2225 432.847231)scale(0.08 -0.08)">
       <defs>
        <path d="M 58.796875 25.09375 
L 68.265625 22.703125 
Q 65.28125 11.03125 57.546875 4.90625 
Q 49.8125 -1.21875 38.625 -1.21875 
Q 27.046875 -1.21875 19.796875 3.484375 
Q 12.546875 8.203125 8.765625 17.140625 
Q 4.984375 26.078125 4.984375 36.328125 
Q 4.984375 47.515625 9.25 55.828125 
Q 13.53125 64.15625 21.40625 68.46875 
Q 29.296875 72.796875 38.765625 72.796875 
Q 49.515625 72.796875 56.828125 67.328125 
Q 64.15625 61.859375 67.046875 51.953125 
L 57.71875 49.75 
Q 55.21875 57.5625 50.484375 61.125 
Q 45.75 64.703125 38.578125 64.703125 
Q 30.328125 64.703125 24.78125 60.734375 
Q 19.234375 56.78125 16.984375 50.109375 
Q 14.75 43.453125 14.75 36.375 
Q 14.75 27.25 17.40625 20.4375 
Q 20.0625 13.625 25.671875 10.25 
Q 31.296875 6.890625 37.84375 6.890625 
Q 45.796875 6.890625 51.3125 11.46875 
Q 56.84375 16.0625 58.796875 25.09375 
z
" id="ArialMT-67"/>
       </defs>
       <use xlink:href="#ArialMT-67"/>
       <use x="72.216797" xlink:href="#ArialMT-73"/>
       <use x="100" xlink:href="#ArialMT-78"/>
      </g>
     </g>
    </g>
    <g id="ytick_10">
     <g id="text_18">
      <!-- DEN -->
      <g style="fill:#ffffff;" transform="translate(57.10875 418.500016)scale(0.08 -0.08)">
       <defs>
        <path d="M 7.71875 0 
L 7.71875 71.578125 
L 32.375 71.578125 
Q 40.71875 71.578125 45.125 70.5625 
Q 51.265625 69.140625 55.609375 65.4375 
Q 61.28125 60.640625 64.078125 53.1875 
Q 66.890625 45.75 66.890625 36.1875 
Q 66.890625 28.03125 64.984375 21.734375 
Q 63.09375 15.4375 60.109375 11.296875 
Q 57.125 7.171875 53.578125 4.796875 
Q 50.046875 2.4375 45.046875 1.21875 
Q 40.046875 0 33.546875 0 
z
M 17.1875 8.453125 
L 32.46875 8.453125 
Q 39.546875 8.453125 43.578125 9.765625 
Q 47.609375 11.078125 50 13.484375 
Q 53.375 16.84375 55.25 22.53125 
Q 57.125 28.21875 57.125 36.328125 
Q 57.125 47.5625 53.4375 53.59375 
Q 49.75 59.625 44.484375 61.671875 
Q 40.671875 63.140625 32.234375 63.140625 
L 17.1875 63.140625 
z
" id="ArialMT-68"/>
       </defs>
       <use xlink:href="#ArialMT-68"/>
       <use x="72.216797" xlink:href="#ArialMT-69"/>
       <use x="138.916016" xlink:href="#ArialMT-78"/>
      </g>
     </g>
    </g>
    <g id="ytick_11">
     <g id="text_19">
      <!-- CHI -->
      <g style="fill:#ffffff;" transform="translate(60.2225 404.152802)scale(0.08 -0.08)">
       <defs>
        <path d="M 8.015625 0 
L 8.015625 71.578125 
L 17.484375 71.578125 
L 17.484375 42.1875 
L 54.6875 42.1875 
L 54.6875 71.578125 
L 64.15625 71.578125 
L 64.15625 0 
L 54.6875 0 
L 54.6875 33.734375 
L 17.484375 33.734375 
L 17.484375 0 
z
" id="ArialMT-72"/>
       </defs>
       <use xlink:href="#ArialMT-67"/>
       <use x="72.216797" xlink:href="#ArialMT-72"/>
       <use x="144.433594" xlink:href="#ArialMT-73"/>
      </g>
     </g>
    </g>
    <g id="ytick_12">
     <g id="text_20">
      <!-- DAL -->
      <g style="fill:#ffffff;" transform="translate(58.4375 389.805588)scale(0.08 -0.08)">
       <defs>
        <path d="M 7.328125 0 
L 7.328125 71.578125 
L 16.796875 71.578125 
L 16.796875 8.453125 
L 52.046875 8.453125 
L 52.046875 0 
z
" id="ArialMT-76"/>
       </defs>
       <use xlink:href="#ArialMT-68"/>
       <use x="72.216797" xlink:href="#ArialMT-65"/>
       <use x="138.916016" xlink:href="#ArialMT-76"/>
      </g>
     </g>
    </g>
    <g id="ytick_13">
     <g id="text_21">
      <!-- BAL -->
      <g style="fill:#ffffff;" transform="translate(58.87875 375.458374)scale(0.08 -0.08)">
       <use xlink:href="#ArialMT-66"/>
       <use x="66.699219" xlink:href="#ArialMT-65"/>
       <use x="133.398438" xlink:href="#ArialMT-76"/>
      </g>
     </g>
    </g>
    <g id="ytick_14">
     <g id="text_22">
      <!-- SF -->
      <g style="fill:#ffffff;" transform="translate(63.7775 361.11116)scale(0.08 -0.08)">
       <use xlink:href="#ArialMT-83"/>
       <use x="66.699219" xlink:href="#ArialMT-70"/>
      </g>
     </g>
    </g>
    <g id="ytick_15">
     <g id="text_23">
      <!-- DET -->
      <g style="fill:#ffffff;" transform="translate(58 346.763946)scale(0.08 -0.08)">
       <use xlink:href="#ArialMT-68"/>
       <use x="72.216797" xlink:href="#ArialMT-69"/>
       <use x="138.916016" xlink:href="#ArialMT-84"/>
      </g>
     </g>
    </g>
    <g id="ytick_16">
     <g id="text_24">
      <!-- LAC -->
      <g style="fill:#ffffff;" transform="translate(58.4375 332.416732)scale(0.08 -0.08)">
       <use xlink:href="#ArialMT-76"/>
       <use x="55.615234" xlink:href="#ArialMT-65"/>
       <use x="122.314453" xlink:href="#ArialMT-67"/>
      </g>
     </g>
    </g>
    <g id="ytick_17">
     <g id="text_25">
      <!-- OAK -->
      <g style="fill:#ffffff;" transform="translate(57.105 318.069518)scale(0.08 -0.08)">
       <defs>
        <path d="M 7.328125 0 
L 7.328125 71.578125 
L 16.796875 71.578125 
L 16.796875 36.078125 
L 52.34375 71.578125 
L 65.1875 71.578125 
L 35.15625 42.578125 
L 66.5 0 
L 54 0 
L 28.515625 36.234375 
L 16.796875 24.8125 
L 16.796875 0 
z
" id="ArialMT-75"/>
       </defs>
       <use xlink:href="#ArialMT-79"/>
       <use x="77.783203" xlink:href="#ArialMT-65"/>
       <use x="144.482422" xlink:href="#ArialMT-75"/>
      </g>
     </g>
    </g>
    <g id="ytick_18">
     <g id="text_26">
      <!-- CAR -->
      <g style="fill:#ffffff;" transform="translate(57.10875 303.722304)scale(0.08 -0.08)">
       <use xlink:href="#ArialMT-67"/>
       <use x="72.216797" xlink:href="#ArialMT-65"/>
       <use x="138.916016" xlink:href="#ArialMT-82"/>
      </g>
     </g>
    </g>
    <g id="ytick_19">
     <g id="text_27">
      <!-- MIN -->
      <g style="fill:#ffffff;" transform="translate(59.33625 289.37509)scale(0.08 -0.08)">
       <use xlink:href="#ArialMT-77"/>
       <use x="83.300781" xlink:href="#ArialMT-73"/>
       <use x="111.083984" xlink:href="#ArialMT-78"/>
      </g>
     </g>
    </g>
    <g id="ytick_20">
     <g id="text_28">
      <!-- HOU -->
      <g style="fill:#ffffff;" transform="translate(56.2225 275.027876)scale(0.08 -0.08)">
       <use xlink:href="#ArialMT-72"/>
       <use x="72.216797" xlink:href="#ArialMT-79"/>
       <use x="150" xlink:href="#ArialMT-85"/>
      </g>
     </g>
    </g>
    <g id="ytick_21">
     <g id="text_29">
      <!-- NO -->
      <g style="fill:#ffffff;" transform="translate(62 260.680662)scale(0.08 -0.08)">
       <use xlink:href="#ArialMT-78"/>
       <use x="72.216797" xlink:href="#ArialMT-79"/>
      </g>
     </g>
    </g>
    <g id="ytick_22">
     <g id="text_30">
      <!-- CLE -->
      <g style="fill:#ffffff;" transform="translate(58.4375 246.333448)scale(0.08 -0.08)">
       <use xlink:href="#ArialMT-67"/>
       <use x="72.216797" xlink:href="#ArialMT-76"/>
       <use x="127.832031" xlink:href="#ArialMT-69"/>
      </g>
     </g>
    </g>
    <g id="ytick_23">
     <g id="text_31">
      <!-- NYG -->
      <g style="fill:#ffffff;" transform="translate(56.66375 231.986234)scale(0.08 -0.08)">
       <use xlink:href="#ArialMT-78"/>
       <use x="72.216797" xlink:href="#ArialMT-89"/>
       <use x="138.916016" xlink:href="#ArialMT-71"/>
      </g>
     </g>
    </g>
    <g id="ytick_24">
     <g id="text_32">
      <!-- GB -->
      <g style="fill:#ffffff;" transform="translate(62.44125 217.639019)scale(0.08 -0.08)">
       <use xlink:href="#ArialMT-71"/>
       <use x="77.783203" xlink:href="#ArialMT-66"/>
      </g>
     </g>
    </g>
    <g id="ytick_25">
     <g id="text_33">
      <!-- NE -->
      <g style="fill:#ffffff;" transform="translate(62.88625 203.291805)scale(0.08 -0.08)">
       <use xlink:href="#ArialMT-78"/>
       <use x="72.216797" xlink:href="#ArialMT-69"/>
      </g>
     </g>
    </g>
    <g id="ytick_26">
     <g id="text_34">
      <!-- PHI -->
      <g style="fill:#ffffff;" transform="translate(60.66375 188.944591)scale(0.08 -0.08)">
       <use xlink:href="#ArialMT-80"/>
       <use x="66.699219" xlink:href="#ArialMT-72"/>
       <use x="138.916016" xlink:href="#ArialMT-73"/>
      </g>
     </g>
    </g>
    <g id="ytick_27">
     <g id="text_35">
      <!-- IND -->
      <g style="fill:#ffffff;" transform="translate(60.2225 174.597377)scale(0.08 -0.08)">
       <use xlink:href="#ArialMT-73"/>
       <use x="27.783203" xlink:href="#ArialMT-78"/>
       <use x="100" xlink:href="#ArialMT-68"/>
      </g>
     </g>
    </g>
    <g id="ytick_28">
     <g id="text_36">
      <!-- LA -->
      <g style="fill:#ffffff;" transform="translate(64.215 160.250163)scale(0.08 -0.08)">
       <use xlink:href="#ArialMT-76"/>
       <use x="55.615234" xlink:href="#ArialMT-65"/>
      </g>
     </g>
    </g>
    <g id="ytick_29">
     <g id="text_37">
      <!-- ATL -->
      <g style="fill:#ffffff;" transform="translate(59.91875 145.902949)scale(0.08 -0.08)">
       <use xlink:href="#ArialMT-65"/>
       <use x="59.324219" xlink:href="#ArialMT-84"/>
       <use x="120.408203" xlink:href="#ArialMT-76"/>
      </g>
     </g>
    </g>
    <g id="ytick_30">
     <g id="text_38">
      <!-- KC -->
      <g style="fill:#ffffff;" transform="translate(62.88625 131.555735)scale(0.08 -0.08)">
       <use xlink:href="#ArialMT-75"/>
       <use x="66.699219" xlink:href="#ArialMT-67"/>
      </g>
     </g>
    </g>
    <g id="ytick_31">
     <g id="text_39">
      <!-- PIT -->
      <g style="fill:#ffffff;" transform="translate(61.555 117.208521)scale(0.08 -0.08)">
       <use xlink:href="#ArialMT-80"/>
       <use x="66.699219" xlink:href="#ArialMT-73"/>
       <use x="94.482422" xlink:href="#ArialMT-84"/>
      </g>
     </g>
    </g>
    <g id="ytick_32">
     <g id="text_40">
      <!-- TB -->
      <g style="fill:#ffffff;" transform="translate(63.7775 102.861307)scale(0.08 -0.08)">
       <use xlink:href="#ArialMT-84"/>
       <use x="61.083984" xlink:href="#ArialMT-66"/>
      </g>
     </g>
    </g>
   </g>
   <g id="PathCollection_1">
    <path clip-path="url(#pc83ba0ed05)" d="M 327.029232 547.500431 
C 327.755521 547.500431 328.452161 547.211873 328.965724 546.69831 
C 329.479288 546.184746 329.767845 545.488107 329.767845 544.761818 
C 329.767845 544.03553 329.479288 543.33889 328.965724 542.825327 
C 328.452161 542.311763 327.755521 542.023205 327.029232 542.023205 
C 326.302944 542.023205 325.606304 542.311763 325.092741 542.825327 
C 324.579177 543.33889 324.29062 544.03553 324.29062 544.761818 
C 324.29062 545.488107 324.579177 546.184746 325.092741 546.69831 
C 325.606304 547.211873 326.302944 547.500431 327.029232 547.500431 
z
" style="fill:#87ceeb;stroke:#87ceeb;stroke-width:0.3;"/>
    <path clip-path="url(#pc83ba0ed05)" d="M 351.545291 533.153217 
C 352.27158 533.153217 352.968219 532.864659 353.481783 532.351096 
C 353.995347 531.837532 354.283904 531.140893 354.283904 530.414604 
C 354.283904 529.688316 353.995347 528.991676 353.481783 528.478112 
C 352.968219 527.964549 352.27158 527.675991 351.545291 527.675991 
C 350.819003 527.675991 350.122363 527.964549 349.6088 528.478112 
C 349.095236 528.991676 348.806678 529.688316 348.806678 530.414604 
C 348.806678 531.140893 349.095236 531.837532 349.6088 532.351096 
C 350.122363 532.864659 350.819003 533.153217 351.545291 533.153217 
z
" style="fill:#87ceeb;stroke:#87ceeb;stroke-width:0.3;"/>
    <path clip-path="url(#pc83ba0ed05)" d="M 354.102722 518.806003 
C 354.82901 518.806003 355.52565 518.517445 356.039214 518.003882 
C 356.552777 517.490318 356.841335 516.793679 356.841335 516.06739 
C 356.841335 515.341101 356.552777 514.644462 356.039214 514.130898 
C 355.52565 513.617335 354.82901 513.328777 354.102722 513.328777 
C 353.376433 513.328777 352.679794 513.617335 352.16623 514.130898 
C 351.652667 514.644462 351.364109 515.341101 351.364109 516.06739 
C 351.364109 516.793679 351.652667 517.490318 352.16623 518.003882 
C 352.679794 518.517445 353.376433 518.806003 354.102722 518.806003 
z
" style="fill:#87ceeb;stroke:#87ceeb;stroke-width:0.3;"/>
    <path clip-path="url(#pc83ba0ed05)" d="M 363.18601 504.458789 
C 363.912298 504.458789 364.608938 504.170231 365.122501 503.656668 
C 365.636065 503.143104 365.924623 502.446465 365.924623 501.720176 
C 365.924623 500.993887 365.636065 500.297248 365.122501 499.783684 
C 364.608938 499.270121 363.912298 498.981563 363.18601 498.981563 
C 362.459721 498.981563 361.763082 499.270121 361.249518 499.783684 
C 360.735955 500.297248 360.447397 500.993887 360.447397 501.720176 
C 360.447397 502.446465 360.735955 503.143104 361.249518 503.656668 
C 361.763082 504.170231 362.459721 504.458789 363.18601 504.458789 
z
" style="fill:#87ceeb;stroke:#87ceeb;stroke-width:0.3;"/>
    <path clip-path="url(#pc83ba0ed05)" d="M 366.7135 490.111575 
C 367.439789 490.111575 368.136428 489.823017 368.649992 489.309454 
C 369.163556 488.79589 369.452113 488.09925 369.452113 487.372962 
C 369.452113 486.646673 369.163556 485.950034 368.649992 485.43647 
C 368.136428 484.922907 367.439789 484.634349 366.7135 484.634349 
C 365.987212 484.634349 365.290572 484.922907 364.777009 485.43647 
C 364.263445 485.950034 363.974887 486.646673 363.974887 487.372962 
C 363.974887 488.09925 364.263445 488.79589 364.777009 489.309454 
C 365.290572 489.823017 365.987212 490.111575 366.7135 490.111575 
z
" style="fill:#87ceeb;stroke:#87ceeb;stroke-width:0.3;"/>
    <path clip-path="url(#pc83ba0ed05)" d="M 374.297605 475.764361 
C 375.023893 475.764361 375.720533 475.475803 376.234096 474.962239 
C 376.74766 474.448676 377.036218 473.752036 377.036218 473.025748 
C 377.036218 472.299459 376.74766 471.60282 376.234096 471.089256 
C 375.720533 470.575693 375.023893 470.287135 374.297605 470.287135 
C 373.571316 470.287135 372.874677 470.575693 372.361113 471.089256 
C 371.84755 471.60282 371.558992 472.299459 371.558992 473.025748 
C 371.558992 473.752036 371.84755 474.448676 372.361113 474.962239 
C 372.874677 475.475803 373.571316 475.764361 374.297605 475.764361 
z
" style="fill:#87ceeb;stroke:#87ceeb;stroke-width:0.3;"/>
    <path clip-path="url(#pc83ba0ed05)" d="M 380.029777 461.417147 
C 380.756065 461.417147 381.452705 461.128589 381.966268 460.615025 
C 382.479832 460.101462 382.76839 459.404822 382.76839 458.678534 
C 382.76839 457.952245 382.479832 457.255606 381.966268 456.742042 
C 381.452705 456.228478 380.756065 455.939921 380.029777 455.939921 
C 379.303488 455.939921 378.606849 456.228478 378.093285 456.742042 
C 377.579722 457.255606 377.291164 457.952245 377.291164 458.678534 
C 377.291164 459.404822 377.579722 460.101462 378.093285 460.615025 
C 378.606849 461.128589 379.303488 461.417147 380.029777 461.417147 
z
" style="fill:#87ceeb;stroke:#87ceeb;stroke-width:0.3;"/>
    <path clip-path="url(#pc83ba0ed05)" d="M 381.881709 447.069932 
C 382.607998 447.069932 383.304637 446.781375 383.818201 446.267811 
C 384.331765 445.754248 384.620322 445.057608 384.620322 444.33132 
C 384.620322 443.605031 384.331765 442.908392 383.818201 442.394828 
C 383.304637 441.881264 382.607998 441.592707 381.881709 441.592707 
C 381.155421 441.592707 380.458781 441.881264 379.945218 442.394828 
C 379.431654 442.908392 379.143097 443.605031 379.143097 444.33132 
C 379.143097 445.057608 379.431654 445.754248 379.945218 446.267811 
C 380.458781 446.781375 381.155421 447.069932 381.881709 447.069932 
z
" style="fill:#87ceeb;stroke:#87ceeb;stroke-width:0.3;"/>
    <path clip-path="url(#pc83ba0ed05)" d="M 395.37436 432.722718 
C 396.100649 432.722718 396.797288 432.434161 397.310852 431.920597 
C 397.824416 431.407034 398.112973 430.710394 398.112973 429.984106 
C 398.112973 429.257817 397.824416 428.561177 397.310852 428.047614 
C 396.797288 427.53405 396.100649 427.245493 395.37436 427.245493 
C 394.648072 427.245493 393.951432 427.53405 393.437869 428.047614 
C 392.924305 428.561177 392.635748 429.257817 392.635748 429.984106 
C 392.635748 430.710394 392.924305 431.407034 393.437869 431.920597 
C 393.951432 432.434161 394.648072 432.722718 395.37436 432.722718 
z
" style="fill:#87ceeb;stroke:#87ceeb;stroke-width:0.3;"/>
    <path clip-path="url(#pc83ba0ed05)" d="M 430.237725 418.375504 
C 430.964013 418.375504 431.660653 418.086947 432.174216 417.573383 
C 432.68778 417.05982 432.976337 416.36318 432.976337 415.636891 
C 432.976337 414.910603 432.68778 414.213963 432.174216 413.7004 
C 431.660653 413.186836 430.964013 412.898279 430.237725 412.898279 
C 429.511436 412.898279 428.814796 413.186836 428.301233 413.7004 
C 427.787669 414.213963 427.499112 414.910603 427.499112 415.636891 
C 427.499112 416.36318 427.787669 417.05982 428.301233 417.573383 
C 428.814796 418.086947 429.511436 418.375504 430.237725 418.375504 
z
" style="fill:#87ceeb;stroke:#87ceeb;stroke-width:0.3;"/>
    <path clip-path="url(#pc83ba0ed05)" d="M 413.893685 404.02829 
C 414.619974 404.02829 415.316613 403.739733 415.830177 403.226169 
C 416.343741 402.712605 416.632298 402.015966 416.632298 401.289677 
C 416.632298 400.563389 416.343741 399.866749 415.830177 399.353186 
C 415.316613 398.839622 414.619974 398.551065 413.893685 398.551065 
C 413.167397 398.551065 412.470757 398.839622 411.957194 399.353186 
C 411.44363 399.866749 411.155073 400.563389 411.155073 401.289677 
C 411.155073 402.015966 411.44363 402.712605 411.957194 403.226169 
C 412.470757 403.739733 413.167397 404.02829 413.893685 404.02829 
z
" style="fill:#87ceeb;stroke:#87ceeb;stroke-width:0.3;"/>
    <path clip-path="url(#pc83ba0ed05)" d="M 418.214861 389.681076 
C 418.94115 389.681076 419.637789 389.392519 420.151353 388.878955 
C 420.664916 388.365391 420.953474 387.668752 420.953474 386.942463 
C 420.953474 386.216175 420.664916 385.519535 420.151353 385.005972 
C 419.637789 384.492408 418.94115 384.203851 418.214861 384.203851 
C 417.488573 384.203851 416.791933 384.492408 416.27837 385.005972 
C 415.764806 385.519535 415.476248 386.216175 415.476248 386.942463 
C 415.476248 387.668752 415.764806 388.365391 416.27837 388.878955 
C 416.791933 389.392519 417.488573 389.681076 418.214861 389.681076 
z
" style="fill:#87ceeb;stroke:#87ceeb;stroke-width:0.3;"/>
    <path clip-path="url(#pc83ba0ed05)" d="M 420.243168 375.333862 
C 420.969457 375.333862 421.666096 375.045305 422.17966 374.531741 
C 422.693223 374.018177 422.981781 373.321538 422.981781 372.595249 
C 422.981781 371.868961 422.693223 371.172321 422.17966 370.658758 
C 421.666096 370.145194 420.969457 369.856636 420.243168 369.856636 
C 419.51688 369.856636 418.82024 370.145194 418.306677 370.658758 
C 417.793113 371.172321 417.504555 371.868961 417.504555 372.595249 
C 417.504555 373.321538 417.793113 374.018177 418.306677 374.531741 
C 418.82024 375.045305 419.51688 375.333862 420.243168 375.333862 
z
" style="fill:#87ceeb;stroke:#87ceeb;stroke-width:0.3;"/>
    <path clip-path="url(#pc83ba0ed05)" d="M 427.298149 360.986648 
C 428.024438 360.986648 428.721077 360.69809 429.234641 360.184527 
C 429.748204 359.670963 430.036762 358.974324 430.036762 358.248035 
C 430.036762 357.521747 429.748204 356.825107 429.234641 356.311544 
C 428.721077 355.79798 428.024438 355.509422 427.298149 355.509422 
C 426.571861 355.509422 425.875221 355.79798 425.361657 356.311544 
C 424.848094 356.825107 424.559536 357.521747 424.559536 358.248035 
C 424.559536 358.974324 424.848094 359.670963 425.361657 360.184527 
C 425.875221 360.69809 426.571861 360.986648 427.298149 360.986648 
z
" style="fill:#87ceeb;stroke:#87ceeb;stroke-width:0.3;"/>
    <path clip-path="url(#pc83ba0ed05)" d="M 427.298149 346.639434 
C 428.024438 346.639434 428.721077 346.350876 429.234641 345.837313 
C 429.748204 345.323749 430.036762 344.62711 430.036762 343.900821 
C 430.036762 343.174533 429.748204 342.477893 429.234641 341.964329 
C 428.721077 341.450766 428.024438 341.162208 427.298149 341.162208 
C 426.571861 341.162208 425.875221 341.450766 425.361657 341.964329 
C 424.848094 342.477893 424.559536 343.174533 424.559536 343.900821 
C 424.559536 344.62711 424.848094 345.323749 425.361657 345.837313 
C 425.875221 346.350876 426.571861 346.639434 427.298149 346.639434 
z
" style="fill:#87ceeb;stroke:#87ceeb;stroke-width:0.3;"/>
    <path clip-path="url(#pc83ba0ed05)" d="M 449.145073 332.29222 
C 449.871362 332.29222 450.568002 332.003662 451.081565 331.490099 
C 451.595129 330.976535 451.883686 330.279896 451.883686 329.553607 
C 451.883686 328.827318 451.595129 328.130679 451.081565 327.617115 
C 450.568002 327.103552 449.871362 326.814994 449.145073 326.814994 
C 448.418785 326.814994 447.722145 327.103552 447.208582 327.617115 
C 446.695018 328.130679 446.406461 328.827318 446.406461 329.553607 
C 446.406461 330.279896 446.695018 330.976535 447.208582 331.490099 
C 447.722145 332.003662 448.418785 332.29222 449.145073 332.29222 
z
" style="fill:#87ceeb;stroke:#87ceeb;stroke-width:0.3;"/>
    <path clip-path="url(#pc83ba0ed05)" d="M 436.822373 317.945006 
C 437.548662 317.945006 438.245302 317.656448 438.758865 317.142885 
C 439.272429 316.629321 439.560986 315.932682 439.560986 315.206393 
C 439.560986 314.480104 439.272429 313.783465 438.758865 313.269901 
C 438.245302 312.756338 437.548662 312.46778 436.822373 312.46778 
C 436.096085 312.46778 435.399445 312.756338 434.885882 313.269901 
C 434.372318 313.783465 434.083761 314.480104 434.083761 315.206393 
C 434.083761 315.932682 434.372318 316.629321 434.885882 317.142885 
C 435.399445 317.656448 436.096085 317.945006 436.822373 317.945006 
z
" style="fill:#87ceeb;stroke:#87ceeb;stroke-width:0.3;"/>
    <path clip-path="url(#pc83ba0ed05)" d="M 460.903375 303.597792 
C 461.629664 303.597792 462.326303 303.309234 462.839867 302.795671 
C 463.35343 302.282107 463.641988 301.585467 463.641988 300.859179 
C 463.641988 300.13289 463.35343 299.436251 462.839867 298.922687 
C 462.326303 298.409124 461.629664 298.120566 460.903375 298.120566 
C 460.177086 298.120566 459.480447 298.409124 458.966883 298.922687 
C 458.45332 299.436251 458.164762 300.13289 458.164762 300.859179 
C 458.164762 301.585467 458.45332 302.282107 458.966883 302.795671 
C 459.480447 303.309234 460.177086 303.597792 460.903375 303.597792 
z
" style="fill:#87ceeb;stroke:#87ceeb;stroke-width:0.3;"/>
    <path clip-path="url(#pc83ba0ed05)" d="M 440.878987 289.250578 
C 441.605276 289.250578 442.301916 288.96202 442.815479 288.448456 
C 443.329043 287.934893 443.6176 287.238253 443.6176 286.511965 
C 443.6176 285.785676 443.329043 285.089037 442.815479 284.575473 
C 442.301916 284.06191 441.605276 283.773352 440.878987 283.773352 
C 440.152699 283.773352 439.456059 284.06191 438.942496 284.575473 
C 438.428932 285.089037 438.140375 285.785676 438.140375 286.511965 
C 438.140375 287.238253 438.428932 287.934893 438.942496 288.448456 
C 439.456059 288.96202 440.152699 289.250578 440.878987 289.250578 
z
" style="fill:#87ceeb;stroke:#87ceeb;stroke-width:0.3;"/>
    <path clip-path="url(#pc83ba0ed05)" d="M 464.007567 274.903364 
C 464.733855 274.903364 465.430495 274.614806 465.944058 274.101242 
C 466.457622 273.587679 466.746179 272.891039 466.746179 272.164751 
C 466.746179 271.438462 466.457622 270.741823 465.944058 270.228259 
C 465.430495 269.714695 464.733855 269.426138 464.007567 269.426138 
C 463.281278 269.426138 462.584639 269.714695 462.071075 270.228259 
C 461.557511 270.741823 461.268954 271.438462 461.268954 272.164751 
C 461.268954 272.891039 461.557511 273.587679 462.071075 274.101242 
C 462.584639 274.614806 463.281278 274.903364 464.007567 274.903364 
z
" style="fill:#87ceeb;stroke:#87ceeb;stroke-width:0.3;"/>
    <path clip-path="url(#pc83ba0ed05)" d="M 460.015623 260.556149 
C 460.741912 260.556149 461.438551 260.267592 461.952115 259.754028 
C 462.465679 259.240465 462.754236 258.543825 462.754236 257.817537 
C 462.754236 257.091248 462.465679 256.394609 461.952115 255.881045 
C 461.438551 255.367481 460.741912 255.078924 460.015623 255.078924 
C 459.289335 255.078924 458.592695 255.367481 458.079132 255.881045 
C 457.565568 256.394609 457.277011 257.091248 457.277011 257.817537 
C 457.277011 258.543825 457.565568 259.240465 458.079132 259.754028 
C 458.592695 260.267592 459.289335 260.556149 460.015623 260.556149 
z
" style="fill:#87ceeb;stroke:#87ceeb;stroke-width:0.3;"/>
    <path clip-path="url(#pc83ba0ed05)" d="M 461.602994 246.208935 
C 462.329283 246.208935 463.025922 245.920378 463.539486 245.406814 
C 464.053049 244.893251 464.341607 244.196611 464.341607 243.470323 
C 464.341607 242.744034 464.053049 242.047395 463.539486 241.533831 
C 463.025922 241.020267 462.329283 240.73171 461.602994 240.73171 
C 460.876705 240.73171 460.180066 241.020267 459.666502 241.533831 
C 459.152939 242.047395 458.864381 242.744034 458.864381 243.470323 
C 458.864381 244.196611 459.152939 244.893251 459.666502 245.406814 
C 460.180066 245.920378 460.876705 246.208935 461.602994 246.208935 
z
" style="fill:#87ceeb;stroke:#87ceeb;stroke-width:0.3;"/>
    <path clip-path="url(#pc83ba0ed05)" d="M 461.691181 231.861721 
C 462.41747 231.861721 463.114109 231.573164 463.627673 231.0596 
C 464.141237 230.546037 464.429794 229.849397 464.429794 229.123109 
C 464.429794 228.39682 464.141237 227.70018 463.627673 227.186617 
C 463.114109 226.673053 462.41747 226.384496 461.691181 226.384496 
C 460.964893 226.384496 460.268253 226.673053 459.75469 227.186617 
C 459.241126 227.70018 458.952568 228.39682 458.952568 229.123109 
C 458.952568 229.849397 459.241126 230.546037 459.75469 231.0596 
C 460.268253 231.573164 460.964893 231.861721 461.691181 231.861721 
z
" style="fill:#87ceeb;stroke:#87ceeb;stroke-width:0.3;"/>
    <path clip-path="url(#pc83ba0ed05)" d="M 476.065705 217.514507 
C 476.791994 217.514507 477.488633 217.22595 478.002197 216.712386 
C 478.51576 216.198823 478.804318 215.502183 478.804318 214.775894 
C 478.804318 214.049606 478.51576 213.352966 478.002197 212.839403 
C 477.488633 212.325839 476.791994 212.037282 476.065705 212.037282 
C 475.339416 212.037282 474.642777 212.325839 474.129213 212.839403 
C 473.61565 213.352966 473.327092 214.049606 473.327092 214.775894 
C 473.327092 215.502183 473.61565 216.198823 474.129213 216.712386 
C 474.642777 217.22595 475.339416 217.514507 476.065705 217.514507 
z
" style="fill:#87ceeb;stroke:#87ceeb;stroke-width:0.3;"/>
    <path clip-path="url(#pc83ba0ed05)" d="M 485.325367 203.167293 
C 486.051656 203.167293 486.748296 202.878736 487.261859 202.365172 
C 487.775423 201.851608 488.06398 201.154969 488.06398 200.42868 
C 488.06398 199.702392 487.775423 199.005752 487.261859 198.492189 
C 486.748296 197.978625 486.051656 197.690068 485.325367 197.690068 
C 484.599079 197.690068 483.902439 197.978625 483.388876 198.492189 
C 482.875312 199.005752 482.586755 199.702392 482.586755 200.42868 
C 482.586755 201.154969 482.875312 201.851608 483.388876 202.365172 
C 483.902439 202.878736 484.599079 203.167293 485.325367 203.167293 
z
" style="fill:#87ceeb;stroke:#87ceeb;stroke-width:0.3;"/>
    <path clip-path="url(#pc83ba0ed05)" d="M 489.822918 188.820079 
C 490.549206 188.820079 491.245846 188.531522 491.759409 188.017958 
C 492.272973 187.504394 492.561531 186.807755 492.561531 186.081466 
C 492.561531 185.355178 492.272973 184.658538 491.759409 184.144975 
C 491.245846 183.631411 490.549206 183.342853 489.822918 183.342853 
C 489.096629 183.342853 488.39999 183.631411 487.886426 184.144975 
C 487.372863 184.658538 487.084305 185.355178 487.084305 186.081466 
C 487.084305 186.807755 487.372863 187.504394 487.886426 188.017958 
C 488.39999 188.531522 489.096629 188.820079 489.822918 188.820079 
z
" style="fill:#87ceeb;stroke:#87ceeb;stroke-width:0.3;"/>
    <path clip-path="url(#pc83ba0ed05)" d="M 499.170768 174.472865 
C 499.897056 174.472865 500.593696 174.184307 501.107259 173.670744 
C 501.620823 173.15718 501.90938 172.460541 501.90938 171.734252 
C 501.90938 171.007964 501.620823 170.311324 501.107259 169.797761 
C 500.593696 169.284197 499.897056 168.995639 499.170768 168.995639 
C 498.444479 168.995639 497.747839 169.284197 497.234276 169.797761 
C 496.720712 170.311324 496.432155 171.007964 496.432155 171.734252 
C 496.432155 172.460541 496.720712 173.15718 497.234276 173.670744 
C 497.747839 174.184307 498.444479 174.472865 499.170768 174.472865 
z
" style="fill:#87ceeb;stroke:#87ceeb;stroke-width:0.3;"/>
    <path clip-path="url(#pc83ba0ed05)" d="M 531.170985 160.125651 
C 531.897274 160.125651 532.593913 159.837093 533.107477 159.32353 
C 533.621041 158.809966 533.909598 158.113327 533.909598 157.387038 
C 533.909598 156.66075 533.621041 155.96411 533.107477 155.450546 
C 532.593913 154.936983 531.897274 154.648425 531.170985 154.648425 
C 530.444697 154.648425 529.748057 154.936983 529.234494 155.450546 
C 528.72093 155.96411 528.432373 156.66075 528.432373 157.387038 
C 528.432373 158.113327 528.72093 158.809966 529.234494 159.32353 
C 529.748057 159.837093 530.444697 160.125651 531.170985 160.125651 
z
" style="fill:#87ceeb;stroke:#87ceeb;stroke-width:0.3;"/>
    <path clip-path="url(#pc83ba0ed05)" d="M 538.225966 145.778437 
C 538.952255 145.778437 539.648894 145.489879 540.162458 144.976316 
C 540.676022 144.462752 540.964579 143.766113 540.964579 143.039824 
C 540.964579 142.313535 540.676022 141.616896 540.162458 141.103332 
C 539.648894 140.589769 538.952255 140.301211 538.225966 140.301211 
C 537.499678 140.301211 536.803038 140.589769 536.289475 141.103332 
C 535.775911 141.616896 535.487353 142.313535 535.487353 143.039824 
C 535.487353 143.766113 535.775911 144.462752 536.289475 144.976316 
C 536.803038 145.489879 537.499678 145.778437 538.225966 145.778437 
z
" style="fill:#ffa500;stroke:#ffa500;stroke-width:0.3;"/>
    <path clip-path="url(#pc83ba0ed05)" d="M 521.834894 131.431223 
C 522.561182 131.431223 523.257822 131.142665 523.771386 130.629102 
C 524.284949 130.115538 524.573507 129.418899 524.573507 128.69261 
C 524.573507 127.966321 524.284949 127.269682 523.771386 126.756118 
C 523.257822 126.242555 522.561182 125.953997 521.834894 125.953997 
C 521.108605 125.953997 520.411966 126.242555 519.898402 126.756118 
C 519.384839 127.269682 519.096281 127.966321 519.096281 128.69261 
C 519.096281 129.418899 519.384839 130.115538 519.898402 130.629102 
C 520.411966 131.142665 521.108605 131.431223 521.834894 131.431223 
z
" style="fill:#87ceeb;stroke:#87ceeb;stroke-width:0.3;"/>
    <path clip-path="url(#pc83ba0ed05)" d="M 548.555634 117.084009 
C 549.281923 117.084009 549.978562 116.795451 550.492126 116.281888 
C 551.005689 115.768324 551.294247 115.071684 551.294247 114.345396 
C 551.294247 113.619107 551.005689 112.922468 550.492126 112.408904 
C 549.978562 111.895341 549.281923 111.606783 548.555634 111.606783 
C 547.829346 111.606783 547.132706 111.895341 546.619143 112.408904 
C 546.105579 112.922468 545.817021 113.619107 545.817021 114.345396 
C 545.817021 115.071684 546.105579 115.768324 546.619143 116.281888 
C 547.132706 116.795451 547.829346 117.084009 548.555634 117.084009 
z
" style="fill:#ffa500;stroke:#ffa500;stroke-width:0.3;"/>
    <path clip-path="url(#pc83ba0ed05)" d="M 560.372727 102.736795 
C 561.099016 102.736795 561.795655 102.448237 562.309219 101.934673 
C 562.822783 101.42111 563.11134 100.72447 563.11134 99.998182 
C 563.11134 99.271893 562.822783 98.575254 562.309219 98.06169 
C 561.795655 97.548127 561.099016 97.259569 560.372727 97.259569 
C 559.646439 97.259569 558.949799 97.548127 558.436236 98.06169 
C 557.922672 98.575254 557.634114 99.271893 557.634114 99.998182 
C 557.634114 100.72447 557.922672 101.42111 558.436236 101.934673 
C 558.949799 102.448237 559.646439 102.736795 560.372727 102.736795 
z
" style="fill:#ffa500;stroke:#ffa500;stroke-width:0.3;"/>
   </g>
   <g id="LineCollection_1">
    <path clip-path="url(#pc83ba0ed05)" d="M 103.827273 544.761818 
L 327.029232 544.761818 
" style="fill:none;stroke:#87ceeb;stroke-opacity:0.4;stroke-width:1.75;"/>
    <path clip-path="url(#pc83ba0ed05)" d="M 103.827273 530.414604 
L 351.545291 530.414604 
" style="fill:none;stroke:#87ceeb;stroke-opacity:0.4;stroke-width:1.75;"/>
    <path clip-path="url(#pc83ba0ed05)" d="M 103.827273 516.06739 
L 354.102722 516.06739 
" style="fill:none;stroke:#87ceeb;stroke-opacity:0.4;stroke-width:1.75;"/>
    <path clip-path="url(#pc83ba0ed05)" d="M 103.827273 501.720176 
L 363.18601 501.720176 
" style="fill:none;stroke:#87ceeb;stroke-opacity:0.4;stroke-width:1.75;"/>
    <path clip-path="url(#pc83ba0ed05)" d="M 103.827273 487.372962 
L 366.7135 487.372962 
" style="fill:none;stroke:#87ceeb;stroke-opacity:0.4;stroke-width:1.75;"/>
    <path clip-path="url(#pc83ba0ed05)" d="M 103.827273 473.025748 
L 374.297605 473.025748 
" style="fill:none;stroke:#87ceeb;stroke-opacity:0.4;stroke-width:1.75;"/>
    <path clip-path="url(#pc83ba0ed05)" d="M 103.827273 458.678534 
L 380.029777 458.678534 
" style="fill:none;stroke:#87ceeb;stroke-opacity:0.4;stroke-width:1.75;"/>
    <path clip-path="url(#pc83ba0ed05)" d="M 103.827273 444.33132 
L 381.881709 444.33132 
" style="fill:none;stroke:#87ceeb;stroke-opacity:0.4;stroke-width:1.75;"/>
    <path clip-path="url(#pc83ba0ed05)" d="M 103.827273 429.984106 
L 395.37436 429.984106 
" style="fill:none;stroke:#87ceeb;stroke-opacity:0.4;stroke-width:1.75;"/>
    <path clip-path="url(#pc83ba0ed05)" d="M 103.827273 415.636891 
L 430.237725 415.636891 
" style="fill:none;stroke:#87ceeb;stroke-opacity:0.4;stroke-width:1.75;"/>
    <path clip-path="url(#pc83ba0ed05)" d="M 103.827273 401.289677 
L 413.893685 401.289677 
" style="fill:none;stroke:#87ceeb;stroke-opacity:0.4;stroke-width:1.75;"/>
    <path clip-path="url(#pc83ba0ed05)" d="M 103.827273 386.942463 
L 418.214861 386.942463 
" style="fill:none;stroke:#87ceeb;stroke-opacity:0.4;stroke-width:1.75;"/>
    <path clip-path="url(#pc83ba0ed05)" d="M 103.827273 372.595249 
L 420.243168 372.595249 
" style="fill:none;stroke:#87ceeb;stroke-opacity:0.4;stroke-width:1.75;"/>
    <path clip-path="url(#pc83ba0ed05)" d="M 103.827273 358.248035 
L 427.298149 358.248035 
" style="fill:none;stroke:#87ceeb;stroke-opacity:0.4;stroke-width:1.75;"/>
    <path clip-path="url(#pc83ba0ed05)" d="M 103.827273 343.900821 
L 427.298149 343.900821 
" style="fill:none;stroke:#87ceeb;stroke-opacity:0.4;stroke-width:1.75;"/>
    <path clip-path="url(#pc83ba0ed05)" d="M 103.827273 329.553607 
L 449.145073 329.553607 
" style="fill:none;stroke:#87ceeb;stroke-opacity:0.4;stroke-width:1.75;"/>
    <path clip-path="url(#pc83ba0ed05)" d="M 103.827273 315.206393 
L 436.822373 315.206393 
" style="fill:none;stroke:#87ceeb;stroke-opacity:0.4;stroke-width:1.75;"/>
    <path clip-path="url(#pc83ba0ed05)" d="M 103.827273 300.859179 
L 460.903375 300.859179 
" style="fill:none;stroke:#87ceeb;stroke-opacity:0.4;stroke-width:1.75;"/>
    <path clip-path="url(#pc83ba0ed05)" d="M 103.827273 286.511965 
L 440.878987 286.511965 
" style="fill:none;stroke:#87ceeb;stroke-opacity:0.4;stroke-width:1.75;"/>
    <path clip-path="url(#pc83ba0ed05)" d="M 103.827273 272.164751 
L 464.007567 272.164751 
" style="fill:none;stroke:#87ceeb;stroke-opacity:0.4;stroke-width:1.75;"/>
    <path clip-path="url(#pc83ba0ed05)" d="M 103.827273 257.817537 
L 460.015623 257.817537 
" style="fill:none;stroke:#87ceeb;stroke-opacity:0.4;stroke-width:1.75;"/>
    <path clip-path="url(#pc83ba0ed05)" d="M 103.827273 243.470323 
L 461.602994 243.470323 
" style="fill:none;stroke:#87ceeb;stroke-opacity:0.4;stroke-width:1.75;"/>
    <path clip-path="url(#pc83ba0ed05)" d="M 103.827273 229.123109 
L 461.691181 229.123109 
" style="fill:none;stroke:#87ceeb;stroke-opacity:0.4;stroke-width:1.75;"/>
    <path clip-path="url(#pc83ba0ed05)" d="M 103.827273 214.775894 
L 476.065705 214.775894 
" style="fill:none;stroke:#87ceeb;stroke-opacity:0.4;stroke-width:1.75;"/>
    <path clip-path="url(#pc83ba0ed05)" d="M 103.827273 200.42868 
L 485.325367 200.42868 
" style="fill:none;stroke:#87ceeb;stroke-opacity:0.4;stroke-width:1.75;"/>
    <path clip-path="url(#pc83ba0ed05)" d="M 103.827273 186.081466 
L 489.822918 186.081466 
" style="fill:none;stroke:#87ceeb;stroke-opacity:0.4;stroke-width:1.75;"/>
    <path clip-path="url(#pc83ba0ed05)" d="M 103.827273 171.734252 
L 499.170768 171.734252 
" style="fill:none;stroke:#87ceeb;stroke-opacity:0.4;stroke-width:1.75;"/>
    <path clip-path="url(#pc83ba0ed05)" d="M 103.827273 157.387038 
L 531.170985 157.387038 
" style="fill:none;stroke:#87ceeb;stroke-opacity:0.4;stroke-width:1.75;"/>
    <path clip-path="url(#pc83ba0ed05)" d="M 103.827273 143.039824 
L 538.225966 143.039824 
" style="fill:none;stroke:#ffa500;stroke-opacity:0.4;stroke-width:1.75;"/>
    <path clip-path="url(#pc83ba0ed05)" d="M 103.827273 128.69261 
L 521.834894 128.69261 
" style="fill:none;stroke:#87ceeb;stroke-opacity:0.4;stroke-width:1.75;"/>
    <path clip-path="url(#pc83ba0ed05)" d="M 103.827273 114.345396 
L 548.555634 114.345396 
" style="fill:none;stroke:#ffa500;stroke-opacity:0.4;stroke-width:1.75;"/>
    <path clip-path="url(#pc83ba0ed05)" d="M 103.827273 99.998182 
L 560.372727 99.998182 
" style="fill:none;stroke:#ffa500;stroke-opacity:0.4;stroke-width:1.75;"/>
   </g>
   <g id="line2d_1">
    <path clip-path="url(#pc83ba0ed05)" d="M 527.12613 562.1076 
L 527.12613 165.8232 
" style="fill:none;stroke:#d3d3d3;stroke-dasharray:1.48,0.64;stroke-dashoffset:0;stroke-width:0.4;"/>
   </g>
   <g id="line2d_2">
    <path clip-path="url(#pc83ba0ed05)" d="M 456.57632 562.1076 
L 456.57632 307.7028 
" style="fill:none;stroke:#d3d3d3;stroke-dasharray:1.48,0.64;stroke-dashoffset:0;stroke-width:0.4;"/>
   </g>
   <g id="line2d_3">
    <path clip-path="url(#pc83ba0ed05)" d="M 386.026511 562.1076 
L 386.026511 434.9052 
" style="fill:none;stroke:#d3d3d3;stroke-dasharray:1.48,0.64;stroke-dashoffset:0;stroke-width:0.4;"/>
   </g>
   <g id="line2d_4">
    <path clip-path="url(#pc83ba0ed05)" d="M 315.476701 562.1076 
L 315.476701 547.4304 
" style="fill:none;stroke:#d3d3d3;stroke-dasharray:1.48,0.64;stroke-dashoffset:0;stroke-width:0.4;"/>
   </g>
   <g id="text_41">
    <!-- Avg passing yds per game in ranked order is actually TB, PIT, ATL, LA, and then KC... -->
    <g style="fill:#ffffff;" transform="translate(104.250572 81.346804)scale(0.085 -0.085)">
     <defs>
      <path d="M 6.59375 -19.875 
L 6.59375 51.859375 
L 14.59375 51.859375 
L 14.59375 45.125 
Q 17.4375 49.078125 21 51.046875 
Q 24.5625 53.03125 29.640625 53.03125 
Q 36.28125 53.03125 41.359375 49.609375 
Q 46.4375 46.1875 49.015625 39.953125 
Q 51.609375 33.734375 51.609375 26.3125 
Q 51.609375 18.359375 48.75 11.984375 
Q 45.90625 5.609375 40.453125 2.21875 
Q 35.015625 -1.171875 29 -1.171875 
Q 24.609375 -1.171875 21.109375 0.6875 
Q 17.625 2.546875 15.375 5.375 
L 15.375 -19.875 
z
M 14.546875 25.640625 
Q 14.546875 15.625 18.59375 10.84375 
Q 22.65625 6.0625 28.421875 6.0625 
Q 34.28125 6.0625 38.453125 11.015625 
Q 42.625 15.96875 42.625 26.375 
Q 42.625 36.28125 38.546875 41.203125 
Q 34.46875 46.140625 28.8125 46.140625 
Q 23.1875 46.140625 18.859375 40.890625 
Q 14.546875 35.640625 14.546875 25.640625 
z
" id="ArialMT-112"/>
      <path d="M 6.640625 0 
L 6.640625 71.578125 
L 15.4375 71.578125 
L 15.4375 30.765625 
L 36.234375 51.859375 
L 47.609375 51.859375 
L 27.78125 32.625 
L 49.609375 0 
L 38.765625 0 
L 21.625 26.515625 
L 15.4375 20.5625 
L 15.4375 0 
z
" id="ArialMT-107"/>
      <path d="M 3.328125 25.921875 
Q 3.328125 40.328125 11.328125 47.265625 
Q 18.015625 53.03125 27.640625 53.03125 
Q 38.328125 53.03125 45.109375 46.015625 
Q 51.90625 39.015625 51.90625 26.65625 
Q 51.90625 16.65625 48.90625 10.90625 
Q 45.90625 5.171875 40.15625 2 
Q 34.421875 -1.171875 27.640625 -1.171875 
Q 16.75 -1.171875 10.03125 5.8125 
Q 3.328125 12.796875 3.328125 25.921875 
z
M 12.359375 25.921875 
Q 12.359375 15.96875 16.703125 11.015625 
Q 21.046875 6.0625 27.640625 6.0625 
Q 34.1875 6.0625 38.53125 11.03125 
Q 42.875 16.015625 42.875 26.21875 
Q 42.875 35.84375 38.5 40.796875 
Q 34.125 45.75 27.640625 45.75 
Q 21.046875 45.75 16.703125 40.8125 
Q 12.359375 35.890625 12.359375 25.921875 
z
" id="ArialMT-111"/>
      <path d="M 40.4375 19 
L 49.078125 17.875 
Q 47.65625 8.9375 41.8125 3.875 
Q 35.984375 -1.171875 27.484375 -1.171875 
Q 16.84375 -1.171875 10.375 5.78125 
Q 3.90625 12.75 3.90625 25.734375 
Q 3.90625 34.125 6.6875 40.421875 
Q 9.46875 46.734375 15.15625 49.875 
Q 20.84375 53.03125 27.546875 53.03125 
Q 35.984375 53.03125 41.359375 48.75 
Q 46.734375 44.484375 48.25 36.625 
L 39.703125 35.296875 
Q 38.484375 40.53125 35.375 43.15625 
Q 32.28125 45.796875 27.875 45.796875 
Q 21.234375 45.796875 17.078125 41.03125 
Q 12.9375 36.28125 12.9375 25.984375 
Q 12.9375 15.53125 16.9375 10.796875 
Q 20.953125 6.0625 27.390625 6.0625 
Q 32.5625 6.0625 36.03125 9.234375 
Q 39.5 12.40625 40.4375 19 
z
" id="ArialMT-99"/>
      <path d="M 25.78125 7.859375 
L 27.046875 0.09375 
Q 23.34375 -0.6875 20.40625 -0.6875 
Q 15.625 -0.6875 12.984375 0.828125 
Q 10.359375 2.34375 9.28125 4.8125 
Q 8.203125 7.28125 8.203125 15.1875 
L 8.203125 45.015625 
L 1.765625 45.015625 
L 1.765625 51.859375 
L 8.203125 51.859375 
L 8.203125 64.703125 
L 16.9375 69.96875 
L 16.9375 51.859375 
L 25.78125 51.859375 
L 25.78125 45.015625 
L 16.9375 45.015625 
L 16.9375 14.703125 
Q 16.9375 10.9375 17.40625 9.859375 
Q 17.875 8.796875 18.921875 8.15625 
Q 19.96875 7.515625 21.921875 7.515625 
Q 23.390625 7.515625 25.78125 7.859375 
z
" id="ArialMT-116"/>
      <path d="M 40.578125 0 
L 40.578125 7.625 
Q 34.515625 -1.171875 24.125 -1.171875 
Q 19.53125 -1.171875 15.546875 0.578125 
Q 11.578125 2.34375 9.640625 5 
Q 7.71875 7.671875 6.9375 11.53125 
Q 6.390625 14.109375 6.390625 19.734375 
L 6.390625 51.859375 
L 15.1875 51.859375 
L 15.1875 23.09375 
Q 15.1875 16.21875 15.71875 13.8125 
Q 16.546875 10.359375 19.234375 8.375 
Q 21.921875 6.390625 25.875 6.390625 
Q 29.828125 6.390625 33.296875 8.421875 
Q 36.765625 10.453125 38.203125 13.9375 
Q 39.65625 17.4375 39.65625 24.078125 
L 39.65625 51.859375 
L 48.4375 51.859375 
L 48.4375 0 
z
" id="ArialMT-117"/>
      <path d="M 6.390625 0 
L 6.390625 71.578125 
L 15.1875 71.578125 
L 15.1875 0 
z
" id="ArialMT-108"/>
      <path d="M 8.890625 0 
L 8.890625 10.015625 
L 18.890625 10.015625 
L 18.890625 0 
Q 18.890625 -5.515625 16.9375 -8.90625 
Q 14.984375 -12.3125 10.75 -14.15625 
L 8.296875 -10.40625 
Q 11.078125 -9.1875 12.390625 -6.8125 
Q 13.71875 -4.4375 13.875 0 
z
" id="ArialMT-44"/>
      <path d="M 6.59375 0 
L 6.59375 71.578125 
L 15.375 71.578125 
L 15.375 45.90625 
Q 21.53125 53.03125 30.90625 53.03125 
Q 36.671875 53.03125 40.921875 50.75 
Q 45.171875 48.484375 47 44.484375 
Q 48.828125 40.484375 48.828125 32.859375 
L 48.828125 0 
L 40.046875 0 
L 40.046875 32.859375 
Q 40.046875 39.453125 37.1875 42.453125 
Q 34.328125 45.453125 29.109375 45.453125 
Q 25.203125 45.453125 21.75 43.421875 
Q 18.3125 41.40625 16.84375 37.9375 
Q 15.375 34.46875 15.375 28.375 
L 15.375 0 
z
" id="ArialMT-104"/>
      <path d="M 9.078125 0 
L 9.078125 10.015625 
L 19.09375 10.015625 
L 19.09375 0 
z
" id="ArialMT-46"/>
     </defs>
     <use xlink:href="#ArialMT-65"/>
     <use x="64.949219" xlink:href="#ArialMT-118"/>
     <use x="114.949219" xlink:href="#ArialMT-103"/>
     <use x="170.564453" xlink:href="#ArialMT-32"/>
     <use x="198.347656" xlink:href="#ArialMT-112"/>
     <use x="253.962891" xlink:href="#ArialMT-97"/>
     <use x="309.578125" xlink:href="#ArialMT-115"/>
     <use x="359.578125" xlink:href="#ArialMT-115"/>
     <use x="409.578125" xlink:href="#ArialMT-105"/>
     <use x="431.794922" xlink:href="#ArialMT-110"/>
     <use x="487.410156" xlink:href="#ArialMT-103"/>
     <use x="543.025391" xlink:href="#ArialMT-32"/>
     <use x="570.808594" xlink:href="#ArialMT-121"/>
     <use x="620.808594" xlink:href="#ArialMT-100"/>
     <use x="676.423828" xlink:href="#ArialMT-115"/>
     <use x="726.423828" xlink:href="#ArialMT-32"/>
     <use x="754.207031" xlink:href="#ArialMT-112"/>
     <use x="809.822266" xlink:href="#ArialMT-101"/>
     <use x="865.4375" xlink:href="#ArialMT-114"/>
     <use x="898.738281" xlink:href="#ArialMT-32"/>
     <use x="926.521484" xlink:href="#ArialMT-103"/>
     <use x="982.136719" xlink:href="#ArialMT-97"/>
     <use x="1037.751953" xlink:href="#ArialMT-109"/>
     <use x="1121.052734" xlink:href="#ArialMT-101"/>
     <use x="1176.667969" xlink:href="#ArialMT-32"/>
     <use x="1204.451172" xlink:href="#ArialMT-105"/>
     <use x="1226.667969" xlink:href="#ArialMT-110"/>
     <use x="1282.283203" xlink:href="#ArialMT-32"/>
     <use x="1310.066406" xlink:href="#ArialMT-114"/>
     <use x="1343.367188" xlink:href="#ArialMT-97"/>
     <use x="1398.982422" xlink:href="#ArialMT-110"/>
     <use x="1454.597656" xlink:href="#ArialMT-107"/>
     <use x="1504.597656" xlink:href="#ArialMT-101"/>
     <use x="1560.212891" xlink:href="#ArialMT-100"/>
     <use x="1615.828125" xlink:href="#ArialMT-32"/>
     <use x="1643.611328" xlink:href="#ArialMT-111"/>
     <use x="1699.226562" xlink:href="#ArialMT-114"/>
     <use x="1732.527344" xlink:href="#ArialMT-100"/>
     <use x="1788.142578" xlink:href="#ArialMT-101"/>
     <use x="1843.757812" xlink:href="#ArialMT-114"/>
     <use x="1877.058594" xlink:href="#ArialMT-32"/>
     <use x="1904.841797" xlink:href="#ArialMT-105"/>
     <use x="1927.058594" xlink:href="#ArialMT-115"/>
     <use x="1977.058594" xlink:href="#ArialMT-32"/>
     <use x="2004.841797" xlink:href="#ArialMT-97"/>
     <use x="2060.457031" xlink:href="#ArialMT-99"/>
     <use x="2110.457031" xlink:href="#ArialMT-116"/>
     <use x="2138.240234" xlink:href="#ArialMT-117"/>
     <use x="2193.855469" xlink:href="#ArialMT-97"/>
     <use x="2249.470703" xlink:href="#ArialMT-108"/>
     <use x="2271.6875" xlink:href="#ArialMT-108"/>
     <use x="2293.904297" xlink:href="#ArialMT-121"/>
     <use x="2343.904297" xlink:href="#ArialMT-32"/>
     <use x="2369.9375" xlink:href="#ArialMT-84"/>
     <use x="2431.021484" xlink:href="#ArialMT-66"/>
     <use x="2497.720703" xlink:href="#ArialMT-44"/>
     <use x="2525.503906" xlink:href="#ArialMT-32"/>
     <use x="2553.287109" xlink:href="#ArialMT-80"/>
     <use x="2619.986328" xlink:href="#ArialMT-73"/>
     <use x="2647.769531" xlink:href="#ArialMT-84"/>
     <use x="2697.728516" xlink:href="#ArialMT-44"/>
     <use x="2725.511719" xlink:href="#ArialMT-32"/>
     <use x="2747.794922" xlink:href="#ArialMT-65"/>
     <use x="2807.119141" xlink:href="#ArialMT-84"/>
     <use x="2868.203125" xlink:href="#ArialMT-76"/>
     <use x="2923.818359" xlink:href="#ArialMT-44"/>
     <use x="2951.601562" xlink:href="#ArialMT-32"/>
     <use x="2979.384766" xlink:href="#ArialMT-76"/>
     <use x="3035" xlink:href="#ArialMT-65"/>
     <use x="3101.699219" xlink:href="#ArialMT-44"/>
     <use x="3129.482422" xlink:href="#ArialMT-32"/>
     <use x="3157.265625" xlink:href="#ArialMT-97"/>
     <use x="3212.880859" xlink:href="#ArialMT-110"/>
     <use x="3268.496094" xlink:href="#ArialMT-100"/>
     <use x="3324.111328" xlink:href="#ArialMT-32"/>
     <use x="3351.894531" xlink:href="#ArialMT-116"/>
     <use x="3379.677734" xlink:href="#ArialMT-104"/>
     <use x="3435.292969" xlink:href="#ArialMT-101"/>
     <use x="3490.908203" xlink:href="#ArialMT-110"/>
     <use x="3546.523438" xlink:href="#ArialMT-32"/>
     <use x="3574.306641" xlink:href="#ArialMT-75"/>
     <use x="3641.005859" xlink:href="#ArialMT-67"/>
     <use x="3713.222656" xlink:href="#ArialMT-46"/>
     <use x="3741.005859" xlink:href="#ArialMT-46"/>
     <use x="3768.789062" xlink:href="#ArialMT-46"/>
    </g>
   </g>
   <g id="text_42">
    <!--  -->
    <g style="fill:#ffffff;" transform="translate(81 43.917656)scale(0.13 -0.13)"/>
    <!-- Average Passing Yards per Game per Team  -->
    <g style="fill:#ffffff;" transform="translate(81 57.857719)scale(0.13 -0.13)">
     <use xlink:href="#ArialMT-65"/>
     <use x="64.949219" xlink:href="#ArialMT-118"/>
     <use x="114.949219" xlink:href="#ArialMT-101"/>
     <use x="170.564453" xlink:href="#ArialMT-114"/>
     <use x="203.865234" xlink:href="#ArialMT-97"/>
     <use x="259.480469" xlink:href="#ArialMT-103"/>
     <use x="315.095703" xlink:href="#ArialMT-101"/>
     <use x="370.710938" xlink:href="#ArialMT-32"/>
     <use x="398.494141" xlink:href="#ArialMT-80"/>
     <use x="465.193359" xlink:href="#ArialMT-97"/>
     <use x="520.808594" xlink:href="#ArialMT-115"/>
     <use x="570.808594" xlink:href="#ArialMT-115"/>
     <use x="620.808594" xlink:href="#ArialMT-105"/>
     <use x="643.025391" xlink:href="#ArialMT-110"/>
     <use x="698.640625" xlink:href="#ArialMT-103"/>
     <use x="754.255859" xlink:href="#ArialMT-32"/>
     <use x="780.289062" xlink:href="#ArialMT-89"/>
     <use x="839.613281" xlink:href="#ArialMT-97"/>
     <use x="895.228516" xlink:href="#ArialMT-114"/>
     <use x="928.529297" xlink:href="#ArialMT-100"/>
     <use x="984.144531" xlink:href="#ArialMT-115"/>
     <use x="1034.144531" xlink:href="#ArialMT-32"/>
     <use x="1061.927734" xlink:href="#ArialMT-112"/>
     <use x="1117.542969" xlink:href="#ArialMT-101"/>
     <use x="1173.158203" xlink:href="#ArialMT-114"/>
     <use x="1206.458984" xlink:href="#ArialMT-32"/>
     <use x="1234.242188" xlink:href="#ArialMT-71"/>
     <use x="1312.025391" xlink:href="#ArialMT-97"/>
     <use x="1367.640625" xlink:href="#ArialMT-109"/>
     <use x="1450.941406" xlink:href="#ArialMT-101"/>
     <use x="1506.556641" xlink:href="#ArialMT-32"/>
     <use x="1534.339844" xlink:href="#ArialMT-112"/>
     <use x="1589.955078" xlink:href="#ArialMT-101"/>
     <use x="1645.570312" xlink:href="#ArialMT-114"/>
     <use x="1678.871094" xlink:href="#ArialMT-32"/>
     <use x="1704.904297" xlink:href="#ArialMT-84"/>
     <use x="1754.863281" xlink:href="#ArialMT-101"/>
     <use x="1810.478516" xlink:href="#ArialMT-97"/>
     <use x="1866.09375" xlink:href="#ArialMT-109"/>
     <use x="1949.394531" xlink:href="#ArialMT-32"/>
    </g>
    <!--  -->
    <g style="fill:#ffffff;" transform="translate(81 71.76)scale(0.13 -0.13)"/>
   </g>
  </g>
 </g>
 <defs>
  <clipPath id="pc83ba0ed05">
   <rect height="489.24" width="502.2" x="81" y="77.76"/>
  </clipPath>
 </defs>
</svg>
