<svg xmlns="http://www.w3.org/2000/svg" xmlns:xlink="http://www.w3.org/1999/xlink" version="1.1" class="marks" width="568" height="860" viewBox="0 0 568 860"><rect width="568" height="860" fill="#333"/><g fill="none" stroke-miterlimit="10" transform="translate(50,23)"><g class="mark-group role-frame root" role="graphics-object" aria-roledescription="group mark container"><g transform="translate(0,0)"><path class="background" aria-hidden="true" d="M0.5,0.5h500v800h-500Z" stroke="#ddd" stroke-opacity="0"/><g><g class="mark-group role-axis" role="graphics-symbol" aria-roledescription="axis" aria-label="X-axis titled '&#xA;TOTAL  PASS  ATTEMPTS' for a linear scale with values from 0 to 700"><g transform="translate(0.5,800.5)"><path class="background" aria-hidden="true" d="M0,0h0v0h0Z" pointer-events="none"/><g><g class="mark-rule role-axis-tick" pointer-events="none"><line transform="translate(0,0)" x2="0" y2="5" stroke="#fff" stroke-width="1" opacity="1"/><line transform="translate(36,0)" x2="0" y2="5" stroke="#fff" stroke-width="1" opacity="1"/><line transform="translate(71,0)" x2="0" y2="5" stroke="#fff" stroke-width="1" opacity="1"/><line transform="translate(107,0)" x2="0" y2="5" stroke="#fff" stroke-width="1" opacity="1"/><line transform="translate(143,0)" x2="0" y2="5" stroke="#fff" stroke-width="1" opacity="1"/><line transform="translate(179,0)" x2="0" y2="5" stroke="#fff" stroke-width="1" opacity="1"/><line transform="translate(214,0)" x2="0" y2="5" stroke="#fff" stroke-width="1" opacity="1"/><line transform="translate(250,0)" x2="0" y2="5" stroke="#fff" stroke-width="1" opacity="1"/><line transform="translate(286,0)" x2="0" y2="5" stroke="#fff" stroke-width="1" opacity="1"/><line transform="translate(321,0)" x2="0" y2="5" stroke="#fff" stroke-width="1" opacity="1"/><line transform="translate(357,0)" x2="0" y2="5" stroke="#fff" stroke-width="1" opacity="1"/><line transform="translate(393,0)" x2="0" y2="5" stroke="#fff" stroke-width="1" opacity="1"/><line transform="translate(429,0)" x2="0" y2="5" stroke="#fff" stroke-width="1" opacity="1"/><line transform="translate(464,0)" x2="0" y2="5" stroke="#fff" stroke-width="1" opacity="1"/><line transform="translate(500,0)" x2="0" y2="5" stroke="#fff" stroke-width="1" opacity="1"/></g><g class="mark-text role-axis-label" pointer-events="none"><text text-anchor="start" transform="translate(0,15)" font-family="sans-serif" font-size="10px" fill="grey" opacity="1">0</text><text text-anchor="middle" transform="translate(35.714285714285715,15)" font-family="sans-serif" font-size="10px" fill="grey" opacity="1">50</text><text text-anchor="middle" transform="translate(71.42857142857143,15)" font-family="sans-serif" font-size="10px" fill="grey" opacity="1">100</text><text text-anchor="middle" transform="translate(107.14285714285714,15)" font-family="sans-serif" font-size="10px" fill="grey" opacity="1">150</text><text text-anchor="middle" transform="translate(142.85714285714286,15)" font-family="sans-serif" font-size="10px" fill="grey" opacity="1">200</text><text text-anchor="middle" transform="translate(178.57142857142858,15)" font-family="sans-serif" font-size="10px" fill="grey" opacity="1">250</text><text text-anchor="middle" transform="translate(214.28571428571428,15)" font-family="sans-serif" font-size="10px" fill="grey" opacity="1">300</text><text text-anchor="middle" transform="translate(250,15)" font-family="sans-serif" font-size="10px" fill="grey" opacity="1">350</text><text text-anchor="middle" transform="translate(285.7142857142857,15)" font-family="sans-serif" font-size="10px" fill="grey" opacity="1">400</text><text text-anchor="middle" transform="translate(321.42857142857144,15)" font-family="sans-serif" font-size="10px" fill="grey" opacity="1">450</text><text text-anchor="middle" transform="translate(357.14285714285717,15)" font-family="sans-serif" font-size="10px" fill="grey" opacity="1">500</text><text text-anchor="middle" transform="translate(392.85714285714283,15)" font-family="sans-serif" font-size="10px" fill="grey" opacity="1">550</text><text text-anchor="middle" transform="translate(428.57142857142856,15)" font-family="sans-serif" font-size="10px" fill="grey" opacity="1">600</text><text text-anchor="middle" transform="translate(464.2857142857143,15)" font-family="sans-serif" font-size="10px" fill="grey" opacity="1">650</text><text text-anchor="end" transform="translate(500,15)" font-family="sans-serif" font-size="10px" fill="grey" opacity="1">700</text></g><g class="mark-rule role-axis-domain" pointer-events="none"><line transform="translate(0,0)" x2="500" y2="0" stroke="#fff" stroke-width="1" opacity="1"/></g><g class="mark-text role-axis-title" pointer-events="none"><text text-anchor="middle" transform="translate(250,30)" font-family="sans-serif" font-size="11px" font-weight="bold" fill="#0071BC" opacity="1">TOTAL  PASS  ATTEMPTS</text></g></g><path class="foreground" aria-hidden="true" d="" pointer-events="none" display="none"/></g></g><g class="mark-group role-axis" role="graphics-symbol" aria-roledescription="axis" aria-label="Y-axis titled 'NFL Team' for a discrete scale with 32 values: PIT, IND, GB, TB, ATL, ending with SEA"><g transform="translate(0.5,0.5)"><path class="background" aria-hidden="true" d="M0,0h0v0h0Z" pointer-events="none"/><g><g class="mark-rule role-axis-tick" pointer-events="none"><line transform="translate(0,12)" x2="-5" y2="0" stroke="#fff" stroke-width="1" opacity="1"/><line transform="translate(0,37)" x2="-5" y2="0" stroke="#fff" stroke-width="1" opacity="1"/><line transform="translate(0,62)" x2="-5" y2="0" stroke="#fff" stroke-width="1" opacity="1"/><line transform="translate(0,87)" x2="-5" y2="0" stroke="#fff" stroke-width="1" opacity="1"/><line transform="translate(0,112)" x2="-5" y2="0" stroke="#fff" stroke-width="1" opacity="1"/><line transform="translate(0,137)" x2="-5" y2="0" stroke="#fff" stroke-width="1" opacity="1"/><line transform="translate(0,162)" x2="-5" y2="0" stroke="#fff" stroke-width="1" opacity="1"/><line transform="translate(0,187)" x2="-5" y2="0" stroke="#fff" stroke-width="1" opacity="1"/><line transform="translate(0,212)" x2="-5" y2="0" stroke="#fff" stroke-width="1" opacity="1"/><line transform="translate(0,237)" x2="-5" y2="0" stroke="#fff" stroke-width="1" opacity="1"/><line transform="translate(0,262)" x2="-5" y2="0" stroke="#fff" stroke-width="1" opacity="1"/><line transform="translate(0,287)" x2="-5" y2="0" stroke="#fff" stroke-width="1" opacity="1"/><line transform="translate(0,312)" x2="-5" y2="0" stroke="#fff" stroke-width="1" opacity="1"/><line transform="translate(0,337)" x2="-5" y2="0" stroke="#fff" stroke-width="1" opacity="1"/><line transform="translate(0,362)" x2="-5" y2="0" stroke="#fff" stroke-width="1" opacity="1"/><line transform="translate(0,387)" x2="-5" y2="0" stroke="#fff" stroke-width="1" opacity="1"/><line transform="translate(0,412)" x2="-5" y2="0" stroke="#fff" stroke-width="1" opacity="1"/><line transform="translate(0,437)" x2="-5" y2="0" stroke="#fff" stroke-width="1" opacity="1"/><line transform="translate(0,462)" x2="-5" y2="0" stroke="#fff" stroke-width="1" opacity="1"/><line transform="translate(0,487)" x2="-5" y2="0" stroke="#fff" stroke-width="1" opacity="1"/><line transform="translate(0,512)" x2="-5" y2="0" stroke="#fff" stroke-width="1" opacity="1"/><line transform="translate(0,537)" x2="-5" y2="0" stroke="#fff" stroke-width="1" opacity="1"/><line transform="translate(0,562)" x2="-5" y2="0" stroke="#fff" stroke-width="1" opacity="1"/><line transform="translate(0,587)" x2="-5" y2="0" stroke="#fff" stroke-width="1" opacity="1"/><line transform="translate(0,612)" x2="-5" y2="0" stroke="#fff" stroke-width="1" opacity="1"/><line transform="translate(0,637)" x2="-5" y2="0" stroke="#fff" stroke-width="1" opacity="1"/><line transform="translate(0,662)" x2="-5" y2="0" stroke="#fff" stroke-width="1" opacity="1"/><line transform="translate(0,687)" x2="-5" y2="0" stroke="#fff" stroke-width="1" opacity="1"/><line transform="translate(0,712)" x2="-5" y2="0" stroke="#fff" stroke-width="1" opacity="1"/><line transform="translate(0,737)" x2="-5" y2="0" stroke="#fff" stroke-width="1" opacity="1"/><line transform="translate(0,762)" x2="-5" y2="0" stroke="#fff" stroke-width="1" opacity="1"/><line transform="translate(0,787)" x2="-5" y2="0" stroke="#fff" stroke-width="1" opacity="1"/></g><g class="mark-text role-axis-label" pointer-events="none"><text text-anchor="end" transform="translate(-7,15)" font-family="sans-serif" font-size="10px" fill="grey" opacity="1">PIT</text><text text-anchor="end" transform="translate(-7,40)" font-family="sans-serif" font-size="10px" fill="grey" opacity="1">IND</text><text text-anchor="end" transform="translate(-7,65)" font-family="sans-serif" font-size="10px" fill="grey" opacity="1">GB</text><text text-anchor="end" transform="translate(-7,90)" font-family="sans-serif" font-size="10px" fill="grey" opacity="1">TB</text><text text-anchor="end" transform="translate(-7,115)" font-family="sans-serif" font-size="10px" fill="grey" opacity="1">ATL</text><text text-anchor="end" transform="translate(-7,140)" font-family="sans-serif" font-size="10px" fill="grey" opacity="1">PHI</text><text text-anchor="end" transform="translate(-7,165)" font-family="sans-serif" font-size="10px" fill="grey" opacity="1">NYG</text><text text-anchor="end" transform="translate(-7,190)" font-family="sans-serif" font-size="10px" fill="grey" opacity="1">NE</text><text text-anchor="end" transform="translate(-7,215)" font-family="sans-serif" font-size="10px" fill="grey" opacity="1">CLE</text><text text-anchor="end" transform="translate(-7,240)" font-family="sans-serif" font-size="10px" fill="grey" opacity="1">DET</text><text text-anchor="end" transform="translate(-7,265)" font-family="sans-serif" font-size="10px" fill="grey" opacity="1">MIN</text><text text-anchor="end" transform="translate(-7,290)" font-family="sans-serif" font-size="10px" fill="grey" opacity="1">LA</text><text text-anchor="end" transform="translate(-7,315)" font-family="sans-serif" font-size="10px" fill="grey" opacity="1">CAR</text><text text-anchor="end" transform="translate(-7,340)" font-family="sans-serif" font-size="10px" fill="grey" opacity="1">KC</text><text text-anchor="end" transform="translate(-7,365)" font-family="sans-serif" font-size="10px" fill="grey" opacity="1">BAL</text><text text-anchor="end" transform="translate(-7,390)" font-family="sans-serif" font-size="10px" fill="grey" opacity="1">OAK</text><text text-anchor="end" transform="translate(-7,415)" font-family="sans-serif" font-size="10px" fill="grey" opacity="1">DEN</text><text text-anchor="end" transform="translate(-7,440)" font-family="sans-serif" font-size="10px" fill="grey" opacity="1">CIN</text><text text-anchor="end" transform="translate(-7,465)" font-family="sans-serif" font-size="10px" fill="grey" opacity="1">JAX</text><text text-anchor="end" transform="translate(-7,490)" font-family="sans-serif" font-size="10px" fill="grey" opacity="1">DAL</text><text text-anchor="end" transform="translate(-7,515)" font-family="sans-serif" font-size="10px" fill="grey" opacity="1">NYJ</text><text text-anchor="end" transform="translate(-7,540)" font-family="sans-serif" font-size="10px" fill="grey" opacity="1">NO</text><text text-anchor="end" transform="translate(-7,565)" font-family="sans-serif" font-size="10px" fill="grey" opacity="1">WAS</text><text text-anchor="end" transform="translate(-7,590)" font-family="sans-serif" font-size="10px" fill="grey" opacity="1">HOU</text><text text-anchor="end" transform="translate(-7,615)" font-family="sans-serif" font-size="10px" fill="grey" opacity="1">BUF</text><text text-anchor="end" transform="translate(-7,640)" font-family="sans-serif" font-size="10px" fill="grey" opacity="1">SF</text><text text-anchor="end" transform="translate(-7,665)" font-family="sans-serif" font-size="10px" fill="grey" opacity="1">ARI</text><text text-anchor="end" transform="translate(-7,690)" font-family="sans-serif" font-size="10px" fill="grey" opacity="1">CHI</text><text text-anchor="end" transform="translate(-7,715)" font-family="sans-serif" font-size="10px" fill="grey" opacity="1">LAC</text><text text-anchor="end" transform="translate(-7,740)" font-family="sans-serif" font-size="10px" fill="grey" opacity="1">MIA</text><text text-anchor="end" transform="translate(-7,765)" font-family="sans-serif" font-size="10px" fill="grey" opacity="1">TEN</text><text text-anchor="end" transform="translate(-7,790)" font-family="sans-serif" font-size="10px" fill="grey" opacity="1">SEA</text></g><g class="mark-rule role-axis-domain" pointer-events="none"><line transform="translate(0,0)" x2="0" y2="800" stroke="#fff" stroke-width="1" opacity="1"/></g><g class="mark-text role-axis-title" pointer-events="none"><text text-anchor="middle" transform="translate(-33.4072265625,400) rotate(-90) translate(0,-2)" font-family="sans-serif" font-size="11px" font-weight="bold" fill="grey" opacity="1">NFL Team</text></g></g><path class="foreground" aria-hidden="true" d="" pointer-events="none" display="none"/></g></g><g class="mark-rect role-mark layer_0_marks" role="graphics-symbol" aria-roledescription="rect mark container"><path d="M0,10h490.7142857142857v5h-490.7142857142857Z" fill="#0071BC" opacity="0.99"/><path d="M0,35h458.57142857142856v5h-458.57142857142856Z" fill="#0071BC" opacity="0.99"/><path d="M0,60h452.85714285714283v5h-452.85714285714283Z" fill="#0071BC" opacity="0.99"/><path d="M0,85h446.42857142857144v5h-446.42857142857144Z" fill="#0071BC" opacity="0.99"/><path d="M0,110h437.14285714285717v5h-437.14285714285717Z" fill="#0071BC" opacity="0.99"/><path d="M0,135h426.42857142857144v5h-426.42857142857144Z" fill="#0071BC" opacity="0.99"/><path d="M0,160h415.7142857142857v5h-415.7142857142857Z" fill="#0071BC" opacity="0.99"/><path d="M0,185h409.28571428571433v5h-409.28571428571433Z" fill="#0071BC" opacity="0.99"/><path d="M0,210h408.5714285714286v5h-408.5714285714286Z" fill="#0071BC" opacity="0.99"/><path d="M0,235h407.8571428571429v5h-407.8571428571429Z" fill="#0071BC" opacity="0.99"/><path d="M0,260h407.14285714285717v5h-407.14285714285717Z" fill="#0071BC" opacity="0.99"/><path d="M0,285h404.2857142857143v5h-404.2857142857143Z" fill="#0071BC" opacity="0.99"/><path d="M0,310h397.1428571428571v5h-397.1428571428571Z" fill="#0071BC" opacity="0.99"/><path d="M0,335h395.7142857142857v5h-395.7142857142857Z" fill="#0071BC" opacity="0.99"/><path d="M0,360h393.57142857142856v5h-393.57142857142856Z" fill="#0071BC" opacity="0.99"/><path d="M0,385h392.85714285714283v5h-392.85714285714283Z" fill="#0071BC" opacity="0.99"/><path d="M0,410h388.57142857142856v5h-388.57142857142856Z" fill="#0071BC" opacity="0.99"/><path d="M0,435h387.1428571428571v5h-387.1428571428571Z" fill="#0071BC" opacity="0.99"/><path d="M0,460h381.42857142857144v5h-381.42857142857144Z" fill="#0071BC" opacity="0.99"/><path d="M0,485h376.42857142857144v5h-376.42857142857144Z" fill="#0071BC" opacity="0.99"/><path d="M0,510h372.14285714285717v5h-372.14285714285717Z" fill="#0071BC" opacity="0.99"/><path d="M0,535h367.14285714285717v5h-367.14285714285717Z" fill="#0071BC" opacity="0.99"/><path d="M0,560h363.57142857142856v5h-363.57142857142856Z" fill="#0071BC" opacity="0.99"/><path d="M0,585h360.7142857142857v5h-360.7142857142857Z" fill="#0071BC" opacity="0.99"/><path d="M0,610h355.7142857142857v5h-355.7142857142857Z" fill="#0071BC" opacity="0.99"/><path d="M0,635h354.2857142857143v5h-354.2857142857143Z" fill="#0071BC" opacity="0.99"/><path d="M0,660h350v5h-350Z" fill="#0071BC" opacity="0.99"/><path d="M0,685h345.7142857142857v5h-345.7142857142857Z" fill="#0071BC" opacity="0.99"/><path d="M0,710h328.57142857142856v5h-328.57142857142856Z" fill="#0071BC" opacity="0.99"/><path d="M0,735h322.1428571428571v5h-322.1428571428571Z" fill="#0071BC" opacity="0.99"/><path d="M0,760h311.42857142857144v5h-311.42857142857144Z" fill="#0071BC" opacity="0.99"/><path d="M0,785h280.71428571428567v5h-280.71428571428567Z" fill="#0071BC" opacity="0.99"/></g><g class="mark-text role-mark layer_1_marks" role="graphics-object" aria-roledescription="text mark container"><text text-anchor="start" transform="translate(493.7142857142857,15.5)" font-family="sans-serif" font-size="11px" fill="#eda02a">687</text><text text-anchor="start" transform="translate(461.57142857142856,40.5)" font-family="sans-serif" font-size="11px" fill="#eda02a">642</text><text text-anchor="start" transform="translate(455.85714285714283,65.5)" font-family="sans-serif" font-size="11px" fill="#eda02a">634</text><text text-anchor="start" transform="translate(449.42857142857144,90.5)" font-family="sans-serif" font-size="11px" fill="#eda02a">625</text><text text-anchor="start" transform="translate(440.14285714285717,115.5)" font-family="sans-serif" font-size="11px" fill="#eda02a">612</text><text text-anchor="start" transform="translate(429.42857142857144,140.5)" font-family="sans-serif" font-size="11px" fill="#eda02a">597</text><text text-anchor="start" transform="translate(418.7142857142857,165.5)" font-family="sans-serif" font-size="11px" fill="#eda02a">582</text><text text-anchor="start" transform="translate(412.28571428571433,190.5)" font-family="sans-serif" font-size="11px" fill="#eda02a">573</text><text text-anchor="start" transform="translate(411.5714285714286,215.5)" font-family="sans-serif" font-size="11px" fill="#eda02a">572</text><text text-anchor="start" transform="translate(410.8571428571429,240.5)" font-family="sans-serif" font-size="11px" fill="#eda02a">571</text><text text-anchor="start" transform="translate(410.14285714285717,265.5)" font-family="sans-serif" font-size="11px" fill="#eda02a">570</text><text text-anchor="start" transform="translate(407.2857142857143,290.5)" font-family="sans-serif" font-size="11px" fill="#eda02a">566</text><text text-anchor="start" transform="translate(400.1428571428571,315.5)" font-family="sans-serif" font-size="11px" fill="#eda02a">556</text><text text-anchor="start" transform="translate(398.7142857142857,340.5)" font-family="sans-serif" font-size="11px" fill="#eda02a">554</text><text text-anchor="start" transform="translate(396.57142857142856,365.5)" font-family="sans-serif" font-size="11px" fill="#eda02a">551</text><text text-anchor="start" transform="translate(395.85714285714283,390.5)" font-family="sans-serif" font-size="11px" fill="#eda02a">550</text><text text-anchor="start" transform="translate(391.57142857142856,415.5)" font-family="sans-serif" font-size="11px" fill="#eda02a">544</text><text text-anchor="start" transform="translate(390.1428571428571,440.5)" font-family="sans-serif" font-size="11px" fill="#eda02a">542</text><text text-anchor="start" transform="translate(384.42857142857144,465.5)" font-family="sans-serif" font-size="11px" fill="#eda02a">534</text><text text-anchor="start" transform="translate(379.42857142857144,490.5)" font-family="sans-serif" font-size="11px" fill="#eda02a">527</text><text text-anchor="start" transform="translate(375.14285714285717,515.5)" font-family="sans-serif" font-size="11px" fill="#eda02a">521</text><text text-anchor="start" transform="translate(370.14285714285717,540.5)" font-family="sans-serif" font-size="11px" fill="#eda02a">514</text><text text-anchor="start" transform="translate(366.57142857142856,565.5)" font-family="sans-serif" font-size="11px" fill="#eda02a">509</text><text text-anchor="start" transform="translate(363.7142857142857,590.5)" font-family="sans-serif" font-size="11px" fill="#eda02a">505</text><text text-anchor="start" transform="translate(358.7142857142857,615.5)" font-family="sans-serif" font-size="11px" fill="#eda02a">498</text><text text-anchor="start" transform="translate(357.2857142857143,640.5)" font-family="sans-serif" font-size="11px" fill="#eda02a">496</text><text text-anchor="start" transform="translate(353,665.5)" font-family="sans-serif" font-size="11px" fill="#eda02a">490</text><text text-anchor="start" transform="translate(348.7142857142857,690.5)" font-family="sans-serif" font-size="11px" fill="#eda02a">484</text><text text-anchor="start" transform="translate(331.57142857142856,715.5)" font-family="sans-serif" font-size="11px" fill="#eda02a">460</text><text text-anchor="start" transform="translate(325.1428571428571,740.5)" font-family="sans-serif" font-size="11px" fill="#eda02a">451</text><text text-anchor="start" transform="translate(314.42857142857144,765.5)" font-family="sans-serif" font-size="11px" fill="#eda02a">436</text><text text-anchor="start" transform="translate(283.71428571428567,790.5)" font-family="sans-serif" font-size="11px" fill="#eda02a">393</text></g><g class="mark-group role-title"><g transform="translate(-44.4072265625,-18)"><path class="background" aria-hidden="true" d="M0,0h0v0h0Z" pointer-events="none"/><g><g class="mark-text role-title-text" role="graphics-symbol" aria-roledescription="title" aria-label="Title text 'Pass Attempts by NFL Team'" pointer-events="none"><text text-anchor="start" transform="translate(0,11)" font-family="Arial" font-size="14px" font-weight="bold" fill="gray" opacity="1">Pass Attempts by NFL Team</text></g></g><path class="foreground" aria-hidden="true" d="" pointer-events="none" display="none"/></g></g></g><path class="foreground" aria-hidden="true" d="" display="none"/></g></g></g></svg>