<svg xmlns="http://www.w3.org/2000/svg" xmlns:xlink="http://www.w3.org/1999/xlink" version="1.1" class="marks" width="556" height="860" viewBox="0 0 556 860"><rect width="556" height="860" fill="#333"/><g fill="none" stroke-miterlimit="10" transform="translate(50,23)"><g class="mark-group role-frame root" role="graphics-object" aria-roledescription="group mark container"><g transform="translate(0,0)"><path class="background" aria-hidden="true" d="M0.5,0.5h500v800h-500Z" stroke="#ddd" stroke-opacity="0"/><g><g class="mark-group role-axis" role="graphics-symbol" aria-roledescription="axis" aria-label="X-axis titled '&#xA;TOTAL  PASS  ATTEMPTS' for a linear scale with values from 0 to 800"><g transform="translate(0.5,800.5)"><path class="background" aria-hidden="true" d="M0,0h0v0h0Z" pointer-events="none"/><g><g class="mark-rule role-axis-tick" pointer-events="none"><line transform="translate(0,0)" x2="0" y2="5" stroke="#fff" stroke-width="1" opacity="1"/><line transform="translate(31,0)" x2="0" y2="5" stroke="#fff" stroke-width="1" opacity="1"/><line transform="translate(63,0)" x2="0" y2="5" stroke="#fff" stroke-width="1" opacity="1"/><line transform="translate(94,0)" x2="0" y2="5" stroke="#fff" stroke-width="1" opacity="1"/><line transform="translate(125,0)" x2="0" y2="5" stroke="#fff" stroke-width="1" opacity="1"/><line transform="translate(156,0)" x2="0" y2="5" stroke="#fff" stroke-width="1" opacity="1"/><line transform="translate(188,0)" x2="0" y2="5" stroke="#fff" stroke-width="1" opacity="1"/><line transform="translate(219,0)" x2="0" y2="5" stroke="#fff" stroke-width="1" opacity="1"/><line transform="translate(250,0)" x2="0" y2="5" stroke="#fff" stroke-width="1" opacity="1"/><line transform="translate(281,0)" x2="0" y2="5" stroke="#fff" stroke-width="1" opacity="1"/><line transform="translate(313,0)" x2="0" y2="5" stroke="#fff" stroke-width="1" opacity="1"/><line transform="translate(344,0)" x2="0" y2="5" stroke="#fff" stroke-width="1" opacity="1"/><line transform="translate(375,0)" x2="0" y2="5" stroke="#fff" stroke-width="1" opacity="1"/><line transform="translate(406,0)" x2="0" y2="5" stroke="#fff" stroke-width="1" opacity="1"/><line transform="translate(438,0)" x2="0" y2="5" stroke="#fff" stroke-width="1" opacity="1"/><line transform="translate(469,0)" x2="0" y2="5" stroke="#fff" stroke-width="1" opacity="1"/><line transform="translate(500,0)" x2="0" y2="5" stroke="#fff" stroke-width="1" opacity="1"/></g><g class="mark-text role-axis-label" pointer-events="none"><text text-anchor="start" transform="translate(0,15)" font-family="sans-serif" font-size="10px" fill="grey" opacity="1">0</text><text text-anchor="middle" transform="translate(31.25,15)" font-family="sans-serif" font-size="10px" fill="grey" opacity="1">50</text><text text-anchor="middle" transform="translate(62.5,15)" font-family="sans-serif" font-size="10px" fill="grey" opacity="1">100</text><text text-anchor="middle" transform="translate(93.75,15)" font-family="sans-serif" font-size="10px" fill="grey" opacity="1">150</text><text text-anchor="middle" transform="translate(125,15)" font-family="sans-serif" font-size="10px" fill="grey" opacity="1">200</text><text text-anchor="middle" transform="translate(156.25,15)" font-family="sans-serif" font-size="10px" fill="grey" opacity="1">250</text><text text-anchor="middle" transform="translate(187.5,15)" font-family="sans-serif" font-size="10px" fill="grey" opacity="1">300</text><text text-anchor="middle" transform="translate(218.75,15)" font-family="sans-serif" font-size="10px" fill="grey" opacity="1">350</text><text text-anchor="middle" transform="translate(250,15)" font-family="sans-serif" font-size="10px" fill="grey" opacity="1">400</text><text text-anchor="middle" transform="translate(281.25,15)" font-family="sans-serif" font-size="10px" fill="grey" opacity="1">450</text><text text-anchor="middle" transform="translate(312.5,15)" font-family="sans-serif" font-size="10px" fill="grey" opacity="1">500</text><text text-anchor="middle" transform="translate(343.75,15)" font-family="sans-serif" font-size="10px" fill="grey" opacity="1">550</text><text text-anchor="middle" transform="translate(375,15)" font-family="sans-serif" font-size="10px" fill="grey" opacity="1">600</text><text text-anchor="middle" transform="translate(406.25,15)" font-family="sans-serif" font-size="10px" fill="grey" opacity="1">650</text><text text-anchor="middle" transform="translate(437.5,15)" font-family="sans-serif" font-size="10px" fill="grey" opacity="1">700</text><text text-anchor="middle" transform="translate(468.75,15)" font-family="sans-serif" font-size="10px" fill="grey" opacity="1">750</text><text text-anchor="end" transform="translate(500,15)" font-family="sans-serif" font-size="10px" fill="grey" opacity="1">800</text></g><g class="mark-rule role-axis-domain" pointer-events="none"><line transform="translate(0,0)" x2="500" y2="0" stroke="#fff" stroke-width="1" opacity="1"/></g><g class="mark-text role-axis-title" pointer-events="none"><text text-anchor="middle" transform="translate(250,30)" font-family="sans-serif" font-size="11px" font-weight="bold" fill="#0071BC" opacity="1">TOTAL  PASS  ATTEMPTS</text></g></g><path class="foreground" aria-hidden="true" d="" pointer-events="none" display="none"/></g></g><g class="mark-group role-axis" role="graphics-symbol" aria-roledescription="axis" aria-label="Y-axis titled 'NFL Team' for a discrete scale with 32 values: PIT, GB, TB, IND, ATL, ending with SEA"><g transform="translate(0.5,0.5)"><path class="background" aria-hidden="true" d="M0,0h0v0h0Z" pointer-events="none"/><g><g class="mark-rule role-axis-tick" pointer-events="none"><line transform="translate(0,12)" x2="-5" y2="0" stroke="#fff" stroke-width="1" opacity="1"/><line transform="translate(0,37)" x2="-5" y2="0" stroke="#fff" stroke-width="1" opacity="1"/><line transform="translate(0,62)" x2="-5" y2="0" stroke="#fff" stroke-width="1" opacity="1"/><line transform="translate(0,87)" x2="-5" y2="0" stroke="#fff" stroke-width="1" opacity="1"/><line transform="translate(0,112)" x2="-5" y2="0" stroke="#fff" stroke-width="1" opacity="1"/><line transform="translate(0,137)" x2="-5" y2="0" stroke="#fff" stroke-width="1" opacity="1"/><line transform="translate(0,162)" x2="-5" y2="0" stroke="#fff" stroke-width="1" opacity="1"/><line transform="translate(0,187)" x2="-5" y2="0" stroke="#fff" stroke-width="1" opacity="1"/><line transform="translate(0,212)" x2="-5" y2="0" stroke="#fff" stroke-width="1" opacity="1"/><line transform="translate(0,237)" x2="-5" y2="0" stroke="#fff" stroke-width="1" opacity="1"/><line transform="translate(0,262)" x2="-5" y2="0" stroke="#fff" stroke-width="1" opacity="1"/><line transform="translate(0,287)" x2="-5" y2="0" stroke="#fff" stroke-width="1" opacity="1"/><line transform="translate(0,312)" x2="-5" y2="0" stroke="#fff" stroke-width="1" opacity="1"/><line transform="translate(0,337)" x2="-5" y2="0" stroke="#fff" stroke-width="1" opacity="1"/><line transform="translate(0,362)" x2="-5" y2="0" stroke="#fff" stroke-width="1" opacity="1"/><line transform="translate(0,387)" x2="-5" y2="0" stroke="#fff" stroke-width="1" opacity="1"/><line transform="translate(0,412)" x2="-5" y2="0" stroke="#fff" stroke-width="1" opacity="1"/><line transform="translate(0,437)" x2="-5" y2="0" stroke="#fff" stroke-width="1" opacity="1"/><line transform="translate(0,462)" x2="-5" y2="0" stroke="#fff" stroke-width="1" opacity="1"/><line transform="translate(0,487)" x2="-5" y2="0" stroke="#fff" stroke-width="1" opacity="1"/><line transform="translate(0,512)" x2="-5" y2="0" stroke="#fff" stroke-width="1" opacity="1"/><line transform="translate(0,537)" x2="-5" y2="0" stroke="#fff" stroke-width="1" opacity="1"/><line transform="translate(0,562)" x2="-5" y2="0" stroke="#fff" stroke-width="1" opacity="1"/><line transform="translate(0,587)" x2="-5" y2="0" stroke="#fff" stroke-width="1" opacity="1"/><line transform="translate(0,612)" x2="-5" y2="0" stroke="#fff" stroke-width="1" opacity="1"/><line transform="translate(0,637)" x2="-5" y2="0" stroke="#fff" stroke-width="1" opacity="1"/><line transform="translate(0,662)" x2="-5" y2="0" stroke="#fff" stroke-width="1" opacity="1"/><line transform="translate(0,687)" x2="-5" y2="0" stroke="#fff" stroke-width="1" opacity="1"/><line transform="translate(0,712)" x2="-5" y2="0" stroke="#fff" stroke-width="1" opacity="1"/><line transform="translate(0,737)" x2="-5" y2="0" stroke="#fff" stroke-width="1" opacity="1"/><line transform="translate(0,762)" x2="-5" y2="0" stroke="#fff" stroke-width="1" opacity="1"/><line transform="translate(0,787)" x2="-5" y2="0" stroke="#fff" stroke-width="1" opacity="1"/></g><g class="mark-text role-axis-label" pointer-events="none"><text text-anchor="end" transform="translate(-7,15)" font-family="sans-serif" font-size="10px" fill="grey" opacity="1">PIT</text><text text-anchor="end" transform="translate(-7,40)" font-family="sans-serif" font-size="10px" fill="grey" opacity="1">GB</text><text text-anchor="end" transform="translate(-7,65)" font-family="sans-serif" font-size="10px" fill="grey" opacity="1">TB</text><text text-anchor="end" transform="translate(-7,90)" font-family="sans-serif" font-size="10px" fill="grey" opacity="1">IND</text><text text-anchor="end" transform="translate(-7,115)" font-family="sans-serif" font-size="10px" fill="grey" opacity="1">ATL</text><text text-anchor="end" transform="translate(-7,140)" font-family="sans-serif" font-size="10px" fill="grey" opacity="1">PHI</text><text text-anchor="end" transform="translate(-7,165)" font-family="sans-serif" font-size="10px" fill="grey" opacity="1">NYG</text><text text-anchor="end" transform="translate(-7,190)" font-family="sans-serif" font-size="10px" fill="grey" opacity="1">DET</text><text text-anchor="end" transform="translate(-7,215)" font-family="sans-serif" font-size="10px" fill="grey" opacity="1">CLE</text><text text-anchor="end" transform="translate(-7,240)" font-family="sans-serif" font-size="10px" fill="grey" opacity="1">MIN</text><text text-anchor="end" transform="translate(-7,265)" font-family="sans-serif" font-size="10px" fill="grey" opacity="1">LA</text><text text-anchor="end" transform="translate(-7,290)" font-family="sans-serif" font-size="10px" fill="grey" opacity="1">OAK</text><text text-anchor="end" transform="translate(-7,315)" font-family="sans-serif" font-size="10px" fill="grey" opacity="1">NE</text><text text-anchor="end" transform="translate(-7,340)" font-family="sans-serif" font-size="10px" fill="grey" opacity="1">BAL</text><text text-anchor="end" transform="translate(-7,365)" font-family="sans-serif" font-size="10px" fill="grey" opacity="1">CAR</text><text text-anchor="end" transform="translate(-7,390)" font-family="sans-serif" font-size="10px" fill="grey" opacity="1">DAL</text><text text-anchor="end" transform="translate(-7,415)" font-family="sans-serif" font-size="10px" fill="grey" opacity="1">CIN</text><text text-anchor="end" transform="translate(-7,440)" font-family="sans-serif" font-size="10px" fill="grey" opacity="1">DEN</text><text text-anchor="end" transform="translate(-7,465)" font-family="sans-serif" font-size="10px" fill="grey" opacity="1">JAX</text><text text-anchor="end" transform="translate(-7,490)" font-family="sans-serif" font-size="10px" fill="grey" opacity="1">KC</text><text text-anchor="end" transform="translate(-7,515)" font-family="sans-serif" font-size="10px" fill="grey" opacity="1">HOU</text><text text-anchor="end" transform="translate(-7,540)" font-family="sans-serif" font-size="10px" fill="grey" opacity="1">WAS</text><text text-anchor="end" transform="translate(-7,565)" font-family="sans-serif" font-size="10px" fill="grey" opacity="1">SF</text><text text-anchor="end" transform="translate(-7,590)" font-family="sans-serif" font-size="10px" fill="grey" opacity="1">NYJ</text><text text-anchor="end" transform="translate(-7,615)" font-family="sans-serif" font-size="10px" fill="grey" opacity="1">ARI</text><text text-anchor="end" transform="translate(-7,640)" font-family="sans-serif" font-size="10px" fill="grey" opacity="1">NO</text><text text-anchor="end" transform="translate(-7,665)" font-family="sans-serif" font-size="10px" fill="grey" opacity="1">BUF</text><text text-anchor="end" transform="translate(-7,690)" font-family="sans-serif" font-size="10px" fill="grey" opacity="1">CHI</text><text text-anchor="end" transform="translate(-7,715)" font-family="sans-serif" font-size="10px" fill="grey" opacity="1">MIA</text><text text-anchor="end" transform="translate(-7,740)" font-family="sans-serif" font-size="10px" fill="grey" opacity="1">LAC</text><text text-anchor="end" transform="translate(-7,765)" font-family="sans-serif" font-size="10px" fill="grey" opacity="1">TEN</text><text text-anchor="end" transform="translate(-7,790)" font-family="sans-serif" font-size="10px" fill="grey" opacity="1">SEA</text></g><g class="mark-rule role-axis-domain" pointer-events="none"><line transform="translate(0,0)" x2="0" y2="800" stroke="#fff" stroke-width="1" opacity="1"/></g><g class="mark-text role-axis-title" pointer-events="none"><text text-anchor="middle" transform="translate(-33.4072265625,400) rotate(-90) translate(0,-2)" font-family="sans-serif" font-size="11px" font-weight="bold" fill="grey" opacity="1">NFL Team</text></g></g><path class="foreground" aria-hidden="true" d="" pointer-events="none" display="none"/></g></g><g class="mark-rect role-mark layer_0_marks" role="graphics-symbol" aria-roledescription="rect mark container"><path d="M0,10h461.25v5h-461.25Z" fill="#0071BC" opacity="0.99"/><path d="M0,35h440.625v5h-440.625Z" fill="#0071BC" opacity="0.99"/><path d="M0,60h433.125v5h-433.125Z" fill="#0071BC" opacity="0.99"/><path d="M0,85h428.75v5h-428.75Z" fill="#0071BC" opacity="0.99"/><path d="M0,110h417.5v5h-417.5Z" fill="#0071BC" opacity="0.99"/><path d="M0,135h413.75v5h-413.75Z" fill="#0071BC" opacity="0.99"/><path d="M0,160h402.5v5h-402.5Z" fill="#0071BC" opacity="0.99"/><path d="M0,185h400v5h-400Z" fill="#0071BC" opacity="0.99"/><path d="M0,210h396.25v5h-396.25Z" fill="#0071BC" opacity="0.99"/><path d="M0,235h388.75v5h-388.75Z" fill="#0071BC" opacity="0.99"/><path d="M0,260h386.875v5h-386.875Z" fill="#0071BC" opacity="0.99"/><path d="M0,285h385.625v5h-385.625Z" fill="#0071BC" opacity="0.99"/><path d="M0,310h384.375v5h-384.375Z" fill="#0071BC" opacity="0.99"/><path d="M0,335h379.375v5h-379.375Z" fill="#0071BC" opacity="0.99"/><path d="M0,360h377.5v5h-377.5Z" fill="#0071BC" opacity="0.99"/><path d="M0,385h376.25v5h-376.25Z" fill="#0071BC" opacity="0.99"/><path d="M0,410h374.375v5h-374.375Z" fill="#0071BC" opacity="0.99"/><path d="M0,435h373.75v5h-373.75Z" fill="#0071BC" opacity="0.99"/><path d="M0,460h373.75v5h-373.75Z" fill="#0071BC" opacity="0.99"/><path d="M0,485h371.875v5h-371.875Z" fill="#0071BC" opacity="0.99"/><path d="M0,510h368.75v5h-368.75Z" fill="#0071BC" opacity="0.99"/><path d="M0,535h356.25v5h-356.25Z" fill="#0071BC" opacity="0.99"/><path d="M0,560h354.375v5h-354.375Z" fill="#0071BC" opacity="0.99"/><path d="M0,585h353.75v5h-353.75Z" fill="#0071BC" opacity="0.99"/><path d="M0,610h347.5v5h-347.5Z" fill="#0071BC" opacity="0.99"/><path d="M0,635h346.875v5h-346.875Z" fill="#0071BC" opacity="0.99"/><path d="M0,660h345.625v5h-345.625Z" fill="#0071BC" opacity="0.99"/><path d="M0,685h340.625v5h-340.625Z" fill="#0071BC" opacity="0.99"/><path d="M0,710h329.375v5h-329.375Z" fill="#0071BC" opacity="0.99"/><path d="M0,735h316.25v5h-316.25Z" fill="#0071BC" opacity="0.99"/><path d="M0,760h310v5h-310Z" fill="#0071BC" opacity="0.99"/><path d="M0,785h288.75v5h-288.75Z" fill="#0071BC" opacity="0.99"/></g><g class="mark-text role-mark layer_1_marks" role="graphics-object" aria-roledescription="text mark container"><text text-anchor="start" transform="translate(464.25,15.5)" font-family="sans-serif" font-size="11px" fill="#eda02a">738</text><text text-anchor="start" transform="translate(443.625,40.5)" font-family="sans-serif" font-size="11px" fill="#eda02a">705</text><text text-anchor="start" transform="translate(436.125,65.5)" font-family="sans-serif" font-size="11px" fill="#eda02a">693</text><text text-anchor="start" transform="translate(431.75,90.5)" font-family="sans-serif" font-size="11px" fill="#eda02a">686</text><text text-anchor="start" transform="translate(420.5,115.5)" font-family="sans-serif" font-size="11px" fill="#eda02a">668</text><text text-anchor="start" transform="translate(416.75,140.5)" font-family="sans-serif" font-size="11px" fill="#eda02a">662</text><text text-anchor="start" transform="translate(405.5,165.5)" font-family="sans-serif" font-size="11px" fill="#eda02a">644</text><text text-anchor="start" transform="translate(403,190.5)" font-family="sans-serif" font-size="11px" fill="#eda02a">640</text><text text-anchor="start" transform="translate(399.25,215.5)" font-family="sans-serif" font-size="11px" fill="#eda02a">634</text><text text-anchor="start" transform="translate(391.75,240.5)" font-family="sans-serif" font-size="11px" fill="#eda02a">622</text><text text-anchor="start" transform="translate(389.875,265.5)" font-family="sans-serif" font-size="11px" fill="#eda02a">619</text><text text-anchor="start" transform="translate(388.625,290.5)" font-family="sans-serif" font-size="11px" fill="#eda02a">617</text><text text-anchor="start" transform="translate(387.375,315.5)" font-family="sans-serif" font-size="11px" fill="#eda02a">615</text><text text-anchor="start" transform="translate(382.375,340.5)" font-family="sans-serif" font-size="11px" fill="#eda02a">607</text><text text-anchor="start" transform="translate(380.5,365.5)" font-family="sans-serif" font-size="11px" fill="#eda02a">604</text><text text-anchor="start" transform="translate(379.25,390.5)" font-family="sans-serif" font-size="11px" fill="#eda02a">602</text><text text-anchor="start" transform="translate(377.375,415.5)" font-family="sans-serif" font-size="11px" fill="#eda02a">599</text><text text-anchor="start" transform="translate(376.75,440.5)" font-family="sans-serif" font-size="11px" fill="#eda02a">598</text><text text-anchor="start" transform="translate(376.75,465.5)" font-family="sans-serif" font-size="11px" fill="#eda02a">598</text><text text-anchor="start" transform="translate(374.875,490.5)" font-family="sans-serif" font-size="11px" fill="#eda02a">595</text><text text-anchor="start" transform="translate(371.75,515.5)" font-family="sans-serif" font-size="11px" fill="#eda02a">590</text><text text-anchor="start" transform="translate(359.25,540.5)" font-family="sans-serif" font-size="11px" fill="#eda02a">570</text><text text-anchor="start" transform="translate(357.375,565.5)" font-family="sans-serif" font-size="11px" fill="#eda02a">567</text><text text-anchor="start" transform="translate(356.75,590.5)" font-family="sans-serif" font-size="11px" fill="#eda02a">566</text><text text-anchor="start" transform="translate(350.5,615.5)" font-family="sans-serif" font-size="11px" fill="#eda02a">556</text><text text-anchor="start" transform="translate(349.875,640.5)" font-family="sans-serif" font-size="11px" fill="#eda02a">555</text><text text-anchor="start" transform="translate(348.625,665.5)" font-family="sans-serif" font-size="11px" fill="#eda02a">553</text><text text-anchor="start" transform="translate(343.625,690.5)" font-family="sans-serif" font-size="11px" fill="#eda02a">545</text><text text-anchor="start" transform="translate(332.375,715.5)" font-family="sans-serif" font-size="11px" fill="#eda02a">527</text><text text-anchor="start" transform="translate(319.25,740.5)" font-family="sans-serif" font-size="11px" fill="#eda02a">506</text><text text-anchor="start" transform="translate(313,765.5)" font-family="sans-serif" font-size="11px" fill="#eda02a">496</text><text text-anchor="start" transform="translate(291.75,790.5)" font-family="sans-serif" font-size="11px" fill="#eda02a">462</text></g><g class="mark-group role-title"><g transform="translate(-44.4072265625,-18)"><path class="background" aria-hidden="true" d="M0,0h0v0h0Z" pointer-events="none"/><g><g class="mark-text role-title-text" role="graphics-symbol" aria-roledescription="title" aria-label="Title text 'Pass Attempts by NFL Team'" pointer-events="none"><text text-anchor="start" transform="translate(0,11)" font-family="Arial" font-size="14px" font-weight="bold" fill="gray" opacity="1">Pass Attempts by NFL Team</text></g></g><path class="foreground" aria-hidden="true" d="" pointer-events="none" display="none"/></g></g></g><path class="foreground" aria-hidden="true" d="" display="none"/></g></g></g></svg>