<?xml version="1.0" encoding="utf-8" standalone="no"?>
<!DOCTYPE svg PUBLIC "-//W3C//DTD SVG 1.1//EN"
  "http://www.w3.org/Graphics/SVG/1.1/DTD/svg11.dtd">
<!-- Created with matplotlib (https://matplotlib.org/) -->
<svg height="648pt" version="1.1" viewBox="0 0 648 648" width="648pt" xmlns="http://www.w3.org/2000/svg" xmlns:xlink="http://www.w3.org/1999/xlink">
 <defs>
  <style type="text/css">
*{stroke-linecap:butt;stroke-linejoin:round;}
  </style>
 </defs>
 <g id="figure_1">
  <g id="patch_1">
   <path d="M 0 648 
L 648 648 
L 648 0 
L 0 0 
z
"/>
  </g>
  <g id="axes_1">
   <g id="patch_2">
    <path d="M 81 567 
L 583.2 567 
L 583.2 77.76 
L 81 77.76 
z
"/>
   </g>
   <g id="matplotlib.axis_1">
    <g id="xtick_1">
     <g id="text_1">
      <!-- 0 -->
      <defs>
       <path d="M 31.78125 66.40625 
Q 24.171875 66.40625 20.328125 58.90625 
Q 16.5 51.421875 16.5 36.375 
Q 16.5 21.390625 20.328125 13.890625 
Q 24.171875 6.390625 31.78125 6.390625 
Q 39.453125 6.390625 43.28125 13.890625 
Q 47.125 21.390625 47.125 36.375 
Q 47.125 51.421875 43.28125 58.90625 
Q 39.453125 66.40625 31.78125 66.40625 
z
M 31.78125 74.21875 
Q 44.046875 74.21875 50.515625 64.515625 
Q 56.984375 54.828125 56.984375 36.375 
Q 56.984375 17.96875 50.515625 8.265625 
Q 44.046875 -1.421875 31.78125 -1.421875 
Q 19.53125 -1.421875 13.0625 8.265625 
Q 6.59375 17.96875 6.59375 36.375 
Q 6.59375 54.828125 13.0625 64.515625 
Q 19.53125 74.21875 31.78125 74.21875 
z
" id="DejaVuSans-48"/>
      </defs>
      <g style="fill:#ffffff;" transform="translate(101.282273 580.07875)scale(0.08 -0.08)">
       <use xlink:href="#DejaVuSans-48"/>
      </g>
     </g>
    </g>
    <g id="xtick_2">
     <g id="text_2">
      <!-- 1000 -->
      <defs>
       <path d="M 12.40625 8.296875 
L 28.515625 8.296875 
L 28.515625 63.921875 
L 10.984375 60.40625 
L 10.984375 69.390625 
L 28.421875 72.90625 
L 38.28125 72.90625 
L 38.28125 8.296875 
L 54.390625 8.296875 
L 54.390625 0 
L 12.40625 0 
z
" id="DejaVuSans-49"/>
      </defs>
      <g style="fill:#ffffff;" transform="translate(181.834535 580.07875)scale(0.08 -0.08)">
       <use xlink:href="#DejaVuSans-49"/>
       <use x="63.623047" xlink:href="#DejaVuSans-48"/>
       <use x="127.246094" xlink:href="#DejaVuSans-48"/>
       <use x="190.869141" xlink:href="#DejaVuSans-48"/>
      </g>
     </g>
    </g>
    <g id="xtick_3">
     <g id="text_3">
      <!-- 2000 -->
      <defs>
       <path d="M 19.1875 8.296875 
L 53.609375 8.296875 
L 53.609375 0 
L 7.328125 0 
L 7.328125 8.296875 
Q 12.9375 14.109375 22.625 23.890625 
Q 32.328125 33.6875 34.8125 36.53125 
Q 39.546875 41.84375 41.421875 45.53125 
Q 43.3125 49.21875 43.3125 52.78125 
Q 43.3125 58.59375 39.234375 62.25 
Q 35.15625 65.921875 28.609375 65.921875 
Q 23.96875 65.921875 18.8125 64.3125 
Q 13.671875 62.703125 7.8125 59.421875 
L 7.8125 69.390625 
Q 13.765625 71.78125 18.9375 73 
Q 24.125 74.21875 28.421875 74.21875 
Q 39.75 74.21875 46.484375 68.546875 
Q 53.21875 62.890625 53.21875 53.421875 
Q 53.21875 48.921875 51.53125 44.890625 
Q 49.859375 40.875 45.40625 35.40625 
Q 44.1875 33.984375 37.640625 27.21875 
Q 31.109375 20.453125 19.1875 8.296875 
z
" id="DejaVuSans-50"/>
      </defs>
      <g style="fill:#ffffff;" transform="translate(270.021796 580.07875)scale(0.08 -0.08)">
       <use xlink:href="#DejaVuSans-50"/>
       <use x="63.623047" xlink:href="#DejaVuSans-48"/>
       <use x="127.246094" xlink:href="#DejaVuSans-48"/>
       <use x="190.869141" xlink:href="#DejaVuSans-48"/>
      </g>
     </g>
    </g>
    <g id="xtick_4">
     <g id="text_4">
      <!-- 3000 -->
      <defs>
       <path d="M 40.578125 39.3125 
Q 47.65625 37.796875 51.625 33 
Q 55.609375 28.21875 55.609375 21.1875 
Q 55.609375 10.40625 48.1875 4.484375 
Q 40.765625 -1.421875 27.09375 -1.421875 
Q 22.515625 -1.421875 17.65625 -0.515625 
Q 12.796875 0.390625 7.625 2.203125 
L 7.625 11.71875 
Q 11.71875 9.328125 16.59375 8.109375 
Q 21.484375 6.890625 26.8125 6.890625 
Q 36.078125 6.890625 40.9375 10.546875 
Q 45.796875 14.203125 45.796875 21.1875 
Q 45.796875 27.640625 41.28125 31.265625 
Q 36.765625 34.90625 28.71875 34.90625 
L 20.21875 34.90625 
L 20.21875 43.015625 
L 29.109375 43.015625 
Q 36.375 43.015625 40.234375 45.921875 
Q 44.09375 48.828125 44.09375 54.296875 
Q 44.09375 59.90625 40.109375 62.90625 
Q 36.140625 65.921875 28.71875 65.921875 
Q 24.65625 65.921875 20.015625 65.03125 
Q 15.375 64.15625 9.8125 62.3125 
L 9.8125 71.09375 
Q 15.4375 72.65625 20.34375 73.4375 
Q 25.25 74.21875 29.59375 74.21875 
Q 40.828125 74.21875 47.359375 69.109375 
Q 53.90625 64.015625 53.90625 55.328125 
Q 53.90625 49.265625 50.4375 45.09375 
Q 46.96875 40.921875 40.578125 39.3125 
z
" id="DejaVuSans-51"/>
      </defs>
      <g style="fill:#ffffff;" transform="translate(358.209058 580.07875)scale(0.08 -0.08)">
       <use xlink:href="#DejaVuSans-51"/>
       <use x="63.623047" xlink:href="#DejaVuSans-48"/>
       <use x="127.246094" xlink:href="#DejaVuSans-48"/>
       <use x="190.869141" xlink:href="#DejaVuSans-48"/>
      </g>
     </g>
    </g>
    <g id="xtick_5">
     <g id="text_5">
      <!-- 4000 -->
      <defs>
       <path d="M 37.796875 64.3125 
L 12.890625 25.390625 
L 37.796875 25.390625 
z
M 35.203125 72.90625 
L 47.609375 72.90625 
L 47.609375 25.390625 
L 58.015625 25.390625 
L 58.015625 17.1875 
L 47.609375 17.1875 
L 47.609375 0 
L 37.796875 0 
L 37.796875 17.1875 
L 4.890625 17.1875 
L 4.890625 26.703125 
z
" id="DejaVuSans-52"/>
      </defs>
      <g style="fill:#ffffff;" transform="translate(446.39632 580.07875)scale(0.08 -0.08)">
       <use xlink:href="#DejaVuSans-52"/>
       <use x="63.623047" xlink:href="#DejaVuSans-48"/>
       <use x="127.246094" xlink:href="#DejaVuSans-48"/>
       <use x="190.869141" xlink:href="#DejaVuSans-48"/>
      </g>
     </g>
    </g>
    <g id="xtick_6">
     <g id="text_6">
      <!-- 5000 -->
      <defs>
       <path d="M 10.796875 72.90625 
L 49.515625 72.90625 
L 49.515625 64.59375 
L 19.828125 64.59375 
L 19.828125 46.734375 
Q 21.96875 47.46875 24.109375 47.828125 
Q 26.265625 48.1875 28.421875 48.1875 
Q 40.625 48.1875 47.75 41.5 
Q 54.890625 34.8125 54.890625 23.390625 
Q 54.890625 11.625 47.5625 5.09375 
Q 40.234375 -1.421875 26.90625 -1.421875 
Q 22.3125 -1.421875 17.546875 -0.640625 
Q 12.796875 0.140625 7.71875 1.703125 
L 7.71875 11.625 
Q 12.109375 9.234375 16.796875 8.0625 
Q 21.484375 6.890625 26.703125 6.890625 
Q 35.15625 6.890625 40.078125 11.328125 
Q 45.015625 15.765625 45.015625 23.390625 
Q 45.015625 31 40.078125 35.4375 
Q 35.15625 39.890625 26.703125 39.890625 
Q 22.75 39.890625 18.8125 39.015625 
Q 14.890625 38.140625 10.796875 36.28125 
z
" id="DejaVuSans-53"/>
      </defs>
      <g style="fill:#ffffff;" transform="translate(534.583582 580.07875)scale(0.08 -0.08)">
       <use xlink:href="#DejaVuSans-53"/>
       <use x="63.623047" xlink:href="#DejaVuSans-48"/>
       <use x="127.246094" xlink:href="#DejaVuSans-48"/>
       <use x="190.869141" xlink:href="#DejaVuSans-48"/>
      </g>
     </g>
    </g>
    <g id="text_7">
     <!--  -->
     <g style="fill:#ffffff;" transform="translate(332.1 593.340937)scale(0.1 -0.1)"/>
     <!--  Total Passing Offense (in yards) -->
     <defs>
      <path id="DejaVuSans-32"/>
      <path d="M -0.296875 72.90625 
L 61.375 72.90625 
L 61.375 64.59375 
L 35.5 64.59375 
L 35.5 0 
L 25.59375 0 
L 25.59375 64.59375 
L -0.296875 64.59375 
z
" id="DejaVuSans-84"/>
      <path d="M 30.609375 48.390625 
Q 23.390625 48.390625 19.1875 42.75 
Q 14.984375 37.109375 14.984375 27.296875 
Q 14.984375 17.484375 19.15625 11.84375 
Q 23.34375 6.203125 30.609375 6.203125 
Q 37.796875 6.203125 41.984375 11.859375 
Q 46.1875 17.53125 46.1875 27.296875 
Q 46.1875 37.015625 41.984375 42.703125 
Q 37.796875 48.390625 30.609375 48.390625 
z
M 30.609375 56 
Q 42.328125 56 49.015625 48.375 
Q 55.71875 40.765625 55.71875 27.296875 
Q 55.71875 13.875 49.015625 6.21875 
Q 42.328125 -1.421875 30.609375 -1.421875 
Q 18.84375 -1.421875 12.171875 6.21875 
Q 5.515625 13.875 5.515625 27.296875 
Q 5.515625 40.765625 12.171875 48.375 
Q 18.84375 56 30.609375 56 
z
" id="DejaVuSans-111"/>
      <path d="M 18.3125 70.21875 
L 18.3125 54.6875 
L 36.8125 54.6875 
L 36.8125 47.703125 
L 18.3125 47.703125 
L 18.3125 18.015625 
Q 18.3125 11.328125 20.140625 9.421875 
Q 21.96875 7.515625 27.59375 7.515625 
L 36.8125 7.515625 
L 36.8125 0 
L 27.59375 0 
Q 17.1875 0 13.234375 3.875 
Q 9.28125 7.765625 9.28125 18.015625 
L 9.28125 47.703125 
L 2.6875 47.703125 
L 2.6875 54.6875 
L 9.28125 54.6875 
L 9.28125 70.21875 
z
" id="DejaVuSans-116"/>
      <path d="M 34.28125 27.484375 
Q 23.390625 27.484375 19.1875 25 
Q 14.984375 22.515625 14.984375 16.5 
Q 14.984375 11.71875 18.140625 8.90625 
Q 21.296875 6.109375 26.703125 6.109375 
Q 34.1875 6.109375 38.703125 11.40625 
Q 43.21875 16.703125 43.21875 25.484375 
L 43.21875 27.484375 
z
M 52.203125 31.203125 
L 52.203125 0 
L 43.21875 0 
L 43.21875 8.296875 
Q 40.140625 3.328125 35.546875 0.953125 
Q 30.953125 -1.421875 24.3125 -1.421875 
Q 15.921875 -1.421875 10.953125 3.296875 
Q 6 8.015625 6 15.921875 
Q 6 25.140625 12.171875 29.828125 
Q 18.359375 34.515625 30.609375 34.515625 
L 43.21875 34.515625 
L 43.21875 35.40625 
Q 43.21875 41.609375 39.140625 45 
Q 35.0625 48.390625 27.6875 48.390625 
Q 23 48.390625 18.546875 47.265625 
Q 14.109375 46.140625 10.015625 43.890625 
L 10.015625 52.203125 
Q 14.9375 54.109375 19.578125 55.046875 
Q 24.21875 56 28.609375 56 
Q 40.484375 56 46.34375 49.84375 
Q 52.203125 43.703125 52.203125 31.203125 
z
" id="DejaVuSans-97"/>
      <path d="M 9.421875 75.984375 
L 18.40625 75.984375 
L 18.40625 0 
L 9.421875 0 
z
" id="DejaVuSans-108"/>
      <path d="M 19.671875 64.796875 
L 19.671875 37.40625 
L 32.078125 37.40625 
Q 38.96875 37.40625 42.71875 40.96875 
Q 46.484375 44.53125 46.484375 51.125 
Q 46.484375 57.671875 42.71875 61.234375 
Q 38.96875 64.796875 32.078125 64.796875 
z
M 9.8125 72.90625 
L 32.078125 72.90625 
Q 44.34375 72.90625 50.609375 67.359375 
Q 56.890625 61.8125 56.890625 51.125 
Q 56.890625 40.328125 50.609375 34.8125 
Q 44.34375 29.296875 32.078125 29.296875 
L 19.671875 29.296875 
L 19.671875 0 
L 9.8125 0 
z
" id="DejaVuSans-80"/>
      <path d="M 44.28125 53.078125 
L 44.28125 44.578125 
Q 40.484375 46.53125 36.375 47.5 
Q 32.28125 48.484375 27.875 48.484375 
Q 21.1875 48.484375 17.84375 46.4375 
Q 14.5 44.390625 14.5 40.28125 
Q 14.5 37.15625 16.890625 35.375 
Q 19.28125 33.59375 26.515625 31.984375 
L 29.59375 31.296875 
Q 39.15625 29.25 43.1875 25.515625 
Q 47.21875 21.78125 47.21875 15.09375 
Q 47.21875 7.46875 41.1875 3.015625 
Q 35.15625 -1.421875 24.609375 -1.421875 
Q 20.21875 -1.421875 15.453125 -0.5625 
Q 10.6875 0.296875 5.421875 2 
L 5.421875 11.28125 
Q 10.40625 8.6875 15.234375 7.390625 
Q 20.0625 6.109375 24.8125 6.109375 
Q 31.15625 6.109375 34.5625 8.28125 
Q 37.984375 10.453125 37.984375 14.40625 
Q 37.984375 18.0625 35.515625 20.015625 
Q 33.0625 21.96875 24.703125 23.78125 
L 21.578125 24.515625 
Q 13.234375 26.265625 9.515625 29.90625 
Q 5.8125 33.546875 5.8125 39.890625 
Q 5.8125 47.609375 11.28125 51.796875 
Q 16.75 56 26.8125 56 
Q 31.78125 56 36.171875 55.265625 
Q 40.578125 54.546875 44.28125 53.078125 
z
" id="DejaVuSans-115"/>
      <path d="M 9.421875 54.6875 
L 18.40625 54.6875 
L 18.40625 0 
L 9.421875 0 
z
M 9.421875 75.984375 
L 18.40625 75.984375 
L 18.40625 64.59375 
L 9.421875 64.59375 
z
" id="DejaVuSans-105"/>
      <path d="M 54.890625 33.015625 
L 54.890625 0 
L 45.90625 0 
L 45.90625 32.71875 
Q 45.90625 40.484375 42.875 44.328125 
Q 39.84375 48.1875 33.796875 48.1875 
Q 26.515625 48.1875 22.3125 43.546875 
Q 18.109375 38.921875 18.109375 30.90625 
L 18.109375 0 
L 9.078125 0 
L 9.078125 54.6875 
L 18.109375 54.6875 
L 18.109375 46.1875 
Q 21.34375 51.125 25.703125 53.5625 
Q 30.078125 56 35.796875 56 
Q 45.21875 56 50.046875 50.171875 
Q 54.890625 44.34375 54.890625 33.015625 
z
" id="DejaVuSans-110"/>
      <path d="M 45.40625 27.984375 
Q 45.40625 37.75 41.375 43.109375 
Q 37.359375 48.484375 30.078125 48.484375 
Q 22.859375 48.484375 18.828125 43.109375 
Q 14.796875 37.75 14.796875 27.984375 
Q 14.796875 18.265625 18.828125 12.890625 
Q 22.859375 7.515625 30.078125 7.515625 
Q 37.359375 7.515625 41.375 12.890625 
Q 45.40625 18.265625 45.40625 27.984375 
z
M 54.390625 6.78125 
Q 54.390625 -7.171875 48.1875 -13.984375 
Q 42 -20.796875 29.203125 -20.796875 
Q 24.46875 -20.796875 20.265625 -20.09375 
Q 16.0625 -19.390625 12.109375 -17.921875 
L 12.109375 -9.1875 
Q 16.0625 -11.328125 19.921875 -12.34375 
Q 23.78125 -13.375 27.78125 -13.375 
Q 36.625 -13.375 41.015625 -8.765625 
Q 45.40625 -4.15625 45.40625 5.171875 
L 45.40625 9.625 
Q 42.625 4.78125 38.28125 2.390625 
Q 33.9375 0 27.875 0 
Q 17.828125 0 11.671875 7.65625 
Q 5.515625 15.328125 5.515625 27.984375 
Q 5.515625 40.671875 11.671875 48.328125 
Q 17.828125 56 27.875 56 
Q 33.9375 56 38.28125 53.609375 
Q 42.625 51.21875 45.40625 46.390625 
L 45.40625 54.6875 
L 54.390625 54.6875 
z
" id="DejaVuSans-103"/>
      <path d="M 39.40625 66.21875 
Q 28.65625 66.21875 22.328125 58.203125 
Q 16.015625 50.203125 16.015625 36.375 
Q 16.015625 22.609375 22.328125 14.59375 
Q 28.65625 6.59375 39.40625 6.59375 
Q 50.140625 6.59375 56.421875 14.59375 
Q 62.703125 22.609375 62.703125 36.375 
Q 62.703125 50.203125 56.421875 58.203125 
Q 50.140625 66.21875 39.40625 66.21875 
z
M 39.40625 74.21875 
Q 54.734375 74.21875 63.90625 63.9375 
Q 73.09375 53.65625 73.09375 36.375 
Q 73.09375 19.140625 63.90625 8.859375 
Q 54.734375 -1.421875 39.40625 -1.421875 
Q 24.03125 -1.421875 14.8125 8.828125 
Q 5.609375 19.09375 5.609375 36.375 
Q 5.609375 53.65625 14.8125 63.9375 
Q 24.03125 74.21875 39.40625 74.21875 
z
" id="DejaVuSans-79"/>
      <path d="M 37.109375 75.984375 
L 37.109375 68.5 
L 28.515625 68.5 
Q 23.6875 68.5 21.796875 66.546875 
Q 19.921875 64.59375 19.921875 59.515625 
L 19.921875 54.6875 
L 34.71875 54.6875 
L 34.71875 47.703125 
L 19.921875 47.703125 
L 19.921875 0 
L 10.890625 0 
L 10.890625 47.703125 
L 2.296875 47.703125 
L 2.296875 54.6875 
L 10.890625 54.6875 
L 10.890625 58.5 
Q 10.890625 67.625 15.140625 71.796875 
Q 19.390625 75.984375 28.609375 75.984375 
z
" id="DejaVuSans-102"/>
      <path d="M 56.203125 29.59375 
L 56.203125 25.203125 
L 14.890625 25.203125 
Q 15.484375 15.921875 20.484375 11.0625 
Q 25.484375 6.203125 34.421875 6.203125 
Q 39.59375 6.203125 44.453125 7.46875 
Q 49.3125 8.734375 54.109375 11.28125 
L 54.109375 2.78125 
Q 49.265625 0.734375 44.1875 -0.34375 
Q 39.109375 -1.421875 33.890625 -1.421875 
Q 20.796875 -1.421875 13.15625 6.1875 
Q 5.515625 13.8125 5.515625 26.8125 
Q 5.515625 40.234375 12.765625 48.109375 
Q 20.015625 56 32.328125 56 
Q 43.359375 56 49.78125 48.890625 
Q 56.203125 41.796875 56.203125 29.59375 
z
M 47.21875 32.234375 
Q 47.125 39.59375 43.09375 43.984375 
Q 39.0625 48.390625 32.421875 48.390625 
Q 24.90625 48.390625 20.390625 44.140625 
Q 15.875 39.890625 15.1875 32.171875 
z
" id="DejaVuSans-101"/>
      <path d="M 31 75.875 
Q 24.46875 64.65625 21.28125 53.65625 
Q 18.109375 42.671875 18.109375 31.390625 
Q 18.109375 20.125 21.3125 9.0625 
Q 24.515625 -2 31 -13.1875 
L 23.1875 -13.1875 
Q 15.875 -1.703125 12.234375 9.375 
Q 8.59375 20.453125 8.59375 31.390625 
Q 8.59375 42.28125 12.203125 53.3125 
Q 15.828125 64.359375 23.1875 75.875 
z
" id="DejaVuSans-40"/>
      <path d="M 32.171875 -5.078125 
Q 28.375 -14.84375 24.75 -17.8125 
Q 21.140625 -20.796875 15.09375 -20.796875 
L 7.90625 -20.796875 
L 7.90625 -13.28125 
L 13.1875 -13.28125 
Q 16.890625 -13.28125 18.9375 -11.515625 
Q 21 -9.765625 23.484375 -3.21875 
L 25.09375 0.875 
L 2.984375 54.6875 
L 12.5 54.6875 
L 29.59375 11.921875 
L 46.6875 54.6875 
L 56.203125 54.6875 
z
" id="DejaVuSans-121"/>
      <path d="M 41.109375 46.296875 
Q 39.59375 47.171875 37.8125 47.578125 
Q 36.03125 48 33.890625 48 
Q 26.265625 48 22.1875 43.046875 
Q 18.109375 38.09375 18.109375 28.8125 
L 18.109375 0 
L 9.078125 0 
L 9.078125 54.6875 
L 18.109375 54.6875 
L 18.109375 46.1875 
Q 20.953125 51.171875 25.484375 53.578125 
Q 30.03125 56 36.53125 56 
Q 37.453125 56 38.578125 55.875 
Q 39.703125 55.765625 41.0625 55.515625 
z
" id="DejaVuSans-114"/>
      <path d="M 45.40625 46.390625 
L 45.40625 75.984375 
L 54.390625 75.984375 
L 54.390625 0 
L 45.40625 0 
L 45.40625 8.203125 
Q 42.578125 3.328125 38.25 0.953125 
Q 33.9375 -1.421875 27.875 -1.421875 
Q 17.96875 -1.421875 11.734375 6.484375 
Q 5.515625 14.40625 5.515625 27.296875 
Q 5.515625 40.1875 11.734375 48.09375 
Q 17.96875 56 27.875 56 
Q 33.9375 56 38.25 53.625 
Q 42.578125 51.265625 45.40625 46.390625 
z
M 14.796875 27.296875 
Q 14.796875 17.390625 18.875 11.75 
Q 22.953125 6.109375 30.078125 6.109375 
Q 37.203125 6.109375 41.296875 11.75 
Q 45.40625 17.390625 45.40625 27.296875 
Q 45.40625 37.203125 41.296875 42.84375 
Q 37.203125 48.484375 30.078125 48.484375 
Q 22.953125 48.484375 18.875 42.84375 
Q 14.796875 37.203125 14.796875 27.296875 
z
" id="DejaVuSans-100"/>
      <path d="M 8.015625 75.875 
L 15.828125 75.875 
Q 23.140625 64.359375 26.78125 53.3125 
Q 30.421875 42.28125 30.421875 31.390625 
Q 30.421875 20.453125 26.78125 9.375 
Q 23.140625 -1.703125 15.828125 -13.1875 
L 8.015625 -13.1875 
Q 14.5 -2 17.703125 9.0625 
Q 20.90625 20.125 20.90625 31.390625 
Q 20.90625 42.671875 17.703125 53.65625 
Q 14.5 64.65625 8.015625 75.875 
z
" id="DejaVuSans-41"/>
     </defs>
     <g style="fill:#ffffff;" transform="translate(252.070312 604.53875)scale(0.1 -0.1)">
      <use xlink:href="#DejaVuSans-32"/>
      <use x="31.787109" xlink:href="#DejaVuSans-84"/>
      <use x="75.871094" xlink:href="#DejaVuSans-111"/>
      <use x="137.052734" xlink:href="#DejaVuSans-116"/>
      <use x="176.261719" xlink:href="#DejaVuSans-97"/>
      <use x="237.541016" xlink:href="#DejaVuSans-108"/>
      <use x="265.324219" xlink:href="#DejaVuSans-32"/>
      <use x="297.111328" xlink:href="#DejaVuSans-80"/>
      <use x="352.914062" xlink:href="#DejaVuSans-97"/>
      <use x="414.193359" xlink:href="#DejaVuSans-115"/>
      <use x="466.292969" xlink:href="#DejaVuSans-115"/>
      <use x="518.392578" xlink:href="#DejaVuSans-105"/>
      <use x="546.175781" xlink:href="#DejaVuSans-110"/>
      <use x="609.554688" xlink:href="#DejaVuSans-103"/>
      <use x="673.03125" xlink:href="#DejaVuSans-32"/>
      <use x="704.818359" xlink:href="#DejaVuSans-79"/>
      <use x="783.529297" xlink:href="#DejaVuSans-102"/>
      <use x="818.734375" xlink:href="#DejaVuSans-102"/>
      <use x="853.939453" xlink:href="#DejaVuSans-101"/>
      <use x="915.462891" xlink:href="#DejaVuSans-110"/>
      <use x="978.841797" xlink:href="#DejaVuSans-115"/>
      <use x="1030.941406" xlink:href="#DejaVuSans-101"/>
      <use x="1092.464844" xlink:href="#DejaVuSans-32"/>
      <use x="1124.251953" xlink:href="#DejaVuSans-40"/>
      <use x="1163.265625" xlink:href="#DejaVuSans-105"/>
      <use x="1191.048828" xlink:href="#DejaVuSans-110"/>
      <use x="1254.427734" xlink:href="#DejaVuSans-32"/>
      <use x="1286.214844" xlink:href="#DejaVuSans-121"/>
      <use x="1345.394531" xlink:href="#DejaVuSans-97"/>
      <use x="1406.673828" xlink:href="#DejaVuSans-114"/>
      <use x="1446.037109" xlink:href="#DejaVuSans-100"/>
      <use x="1509.513672" xlink:href="#DejaVuSans-115"/>
      <use x="1561.613281" xlink:href="#DejaVuSans-41"/>
     </g>
    </g>
   </g>
   <g id="matplotlib.axis_2">
    <g id="ytick_1">
     <g id="text_8">
      <!-- ARI -->
      <defs>
       <path d="M 34.1875 63.1875 
L 20.796875 26.90625 
L 47.609375 26.90625 
z
M 28.609375 72.90625 
L 39.796875 72.90625 
L 67.578125 0 
L 57.328125 0 
L 50.6875 18.703125 
L 17.828125 18.703125 
L 11.1875 0 
L 0.78125 0 
z
" id="DejaVuSans-65"/>
       <path d="M 44.390625 34.1875 
Q 47.5625 33.109375 50.5625 29.59375 
Q 53.5625 26.078125 56.59375 19.921875 
L 66.609375 0 
L 56 0 
L 46.6875 18.703125 
Q 43.0625 26.03125 39.671875 28.421875 
Q 36.28125 30.8125 30.421875 30.8125 
L 19.671875 30.8125 
L 19.671875 0 
L 9.8125 0 
L 9.8125 72.90625 
L 32.078125 72.90625 
Q 44.578125 72.90625 50.734375 67.671875 
Q 56.890625 62.453125 56.890625 51.90625 
Q 56.890625 45.015625 53.6875 40.46875 
Q 50.484375 35.9375 44.390625 34.1875 
z
M 19.671875 64.796875 
L 19.671875 38.921875 
L 32.078125 38.921875 
Q 39.203125 38.921875 42.84375 42.21875 
Q 46.484375 45.515625 46.484375 51.90625 
Q 46.484375 58.296875 42.84375 61.546875 
Q 39.203125 64.796875 32.078125 64.796875 
z
" id="DejaVuSans-82"/>
       <path d="M 9.8125 72.90625 
L 19.671875 72.90625 
L 19.671875 0 
L 9.8125 0 
z
" id="DejaVuSans-73"/>
      </defs>
      <g style="fill:#ffffff;" transform="translate(60.60875 547.801193)scale(0.08 -0.08)">
       <use xlink:href="#DejaVuSans-65"/>
       <use x="68.408203" xlink:href="#DejaVuSans-82"/>
       <use x="137.890625" xlink:href="#DejaVuSans-73"/>
      </g>
     </g>
    </g>
    <g id="ytick_2">
     <g id="text_9">
      <!-- BUF -->
      <defs>
       <path d="M 19.671875 34.8125 
L 19.671875 8.109375 
L 35.5 8.109375 
Q 43.453125 8.109375 47.28125 11.40625 
Q 51.125 14.703125 51.125 21.484375 
Q 51.125 28.328125 47.28125 31.5625 
Q 43.453125 34.8125 35.5 34.8125 
z
M 19.671875 64.796875 
L 19.671875 42.828125 
L 34.28125 42.828125 
Q 41.5 42.828125 45.03125 45.53125 
Q 48.578125 48.25 48.578125 53.8125 
Q 48.578125 59.328125 45.03125 62.0625 
Q 41.5 64.796875 34.28125 64.796875 
z
M 9.8125 72.90625 
L 35.015625 72.90625 
Q 46.296875 72.90625 52.390625 68.21875 
Q 58.5 63.53125 58.5 54.890625 
Q 58.5 48.1875 55.375 44.234375 
Q 52.25 40.28125 46.1875 39.3125 
Q 53.46875 37.75 57.5 32.78125 
Q 61.53125 27.828125 61.53125 20.40625 
Q 61.53125 10.640625 54.890625 5.3125 
Q 48.25 0 35.984375 0 
L 9.8125 0 
z
" id="DejaVuSans-66"/>
       <path d="M 8.6875 72.90625 
L 18.609375 72.90625 
L 18.609375 28.609375 
Q 18.609375 16.890625 22.84375 11.734375 
Q 27.09375 6.59375 36.625 6.59375 
Q 46.09375 6.59375 50.34375 11.734375 
Q 54.59375 16.890625 54.59375 28.609375 
L 54.59375 72.90625 
L 64.5 72.90625 
L 64.5 27.390625 
Q 64.5 13.140625 57.4375 5.859375 
Q 50.390625 -1.421875 36.625 -1.421875 
Q 22.796875 -1.421875 15.734375 5.859375 
Q 8.6875 13.140625 8.6875 27.390625 
z
" id="DejaVuSans-85"/>
       <path d="M 9.8125 72.90625 
L 51.703125 72.90625 
L 51.703125 64.59375 
L 19.671875 64.59375 
L 19.671875 43.109375 
L 48.578125 43.109375 
L 48.578125 34.8125 
L 19.671875 34.8125 
L 19.671875 0 
L 9.8125 0 
z
" id="DejaVuSans-70"/>
      </defs>
      <g style="fill:#ffffff;" transform="translate(58.055 533.453979)scale(0.08 -0.08)">
       <use xlink:href="#DejaVuSans-66"/>
       <use x="68.603516" xlink:href="#DejaVuSans-85"/>
       <use x="141.796875" xlink:href="#DejaVuSans-70"/>
      </g>
     </g>
    </g>
    <g id="ytick_3">
     <g id="text_10">
      <!-- SEA -->
      <defs>
       <path d="M 53.515625 70.515625 
L 53.515625 60.890625 
Q 47.90625 63.578125 42.921875 64.890625 
Q 37.9375 66.21875 33.296875 66.21875 
Q 25.25 66.21875 20.875 63.09375 
Q 16.5 59.96875 16.5 54.203125 
Q 16.5 49.359375 19.40625 46.890625 
Q 22.3125 44.4375 30.421875 42.921875 
L 36.375 41.703125 
Q 47.40625 39.59375 52.65625 34.296875 
Q 57.90625 29 57.90625 20.125 
Q 57.90625 9.515625 50.796875 4.046875 
Q 43.703125 -1.421875 29.984375 -1.421875 
Q 24.8125 -1.421875 18.96875 -0.25 
Q 13.140625 0.921875 6.890625 3.21875 
L 6.890625 13.375 
Q 12.890625 10.015625 18.65625 8.296875 
Q 24.421875 6.59375 29.984375 6.59375 
Q 38.421875 6.59375 43.015625 9.90625 
Q 47.609375 13.234375 47.609375 19.390625 
Q 47.609375 24.75 44.3125 27.78125 
Q 41.015625 30.8125 33.5 32.328125 
L 27.484375 33.5 
Q 16.453125 35.6875 11.515625 40.375 
Q 6.59375 45.0625 6.59375 53.421875 
Q 6.59375 63.09375 13.40625 68.65625 
Q 20.21875 74.21875 32.171875 74.21875 
Q 37.3125 74.21875 42.625 73.28125 
Q 47.953125 72.359375 53.515625 70.515625 
z
" id="DejaVuSans-83"/>
       <path d="M 9.8125 72.90625 
L 55.90625 72.90625 
L 55.90625 64.59375 
L 19.671875 64.59375 
L 19.671875 43.015625 
L 54.390625 43.015625 
L 54.390625 34.71875 
L 19.671875 34.71875 
L 19.671875 8.296875 
L 56.78125 8.296875 
L 56.78125 0 
L 9.8125 0 
z
" id="DejaVuSans-69"/>
      </defs>
      <g style="fill:#ffffff;" transform="translate(58.39375 519.106765)scale(0.08 -0.08)">
       <use xlink:href="#DejaVuSans-83"/>
       <use x="63.476562" xlink:href="#DejaVuSans-69"/>
       <use x="126.660156" xlink:href="#DejaVuSans-65"/>
      </g>
     </g>
    </g>
    <g id="ytick_4">
     <g id="text_11">
      <!-- MIA -->
      <defs>
       <path d="M 9.8125 72.90625 
L 24.515625 72.90625 
L 43.109375 23.296875 
L 61.8125 72.90625 
L 76.515625 72.90625 
L 76.515625 0 
L 66.890625 0 
L 66.890625 64.015625 
L 48.09375 14.015625 
L 38.1875 14.015625 
L 19.390625 64.015625 
L 19.390625 0 
L 9.8125 0 
z
" id="DejaVuSans-77"/>
      </defs>
      <g style="fill:#ffffff;" transform="translate(59.265 504.759551)scale(0.08 -0.08)">
       <use xlink:href="#DejaVuSans-77"/>
       <use x="86.279297" xlink:href="#DejaVuSans-73"/>
       <use x="115.771484" xlink:href="#DejaVuSans-65"/>
      </g>
     </g>
    </g>
    <g id="ytick_5">
     <g id="text_12">
      <!-- TEN -->
      <defs>
       <path d="M 9.8125 72.90625 
L 23.09375 72.90625 
L 55.421875 11.921875 
L 55.421875 72.90625 
L 64.984375 72.90625 
L 64.984375 0 
L 51.703125 0 
L 19.390625 60.984375 
L 19.390625 0 
L 9.8125 0 
z
" id="DejaVuSans-78"/>
      </defs>
      <g style="fill:#ffffff;" transform="translate(58.07375 490.412337)scale(0.08 -0.08)">
       <use xlink:href="#DejaVuSans-84"/>
       <use x="61.083984" xlink:href="#DejaVuSans-69"/>
       <use x="124.267578" xlink:href="#DejaVuSans-78"/>
      </g>
     </g>
    </g>
    <g id="ytick_6">
     <g id="text_13">
      <!-- WAS -->
      <defs>
       <path d="M 3.328125 72.90625 
L 13.28125 72.90625 
L 28.609375 11.28125 
L 43.890625 72.90625 
L 54.984375 72.90625 
L 70.3125 11.28125 
L 85.59375 72.90625 
L 95.609375 72.90625 
L 77.296875 0 
L 64.890625 0 
L 49.515625 63.28125 
L 33.984375 0 
L 21.578125 0 
z
" id="DejaVuSans-87"/>
      </defs>
      <g style="fill:#ffffff;" transform="translate(55.97875 476.065123)scale(0.08 -0.08)">
       <use xlink:href="#DejaVuSans-87"/>
       <use x="93.376953" xlink:href="#DejaVuSans-65"/>
       <use x="161.785156" xlink:href="#DejaVuSans-83"/>
      </g>
     </g>
    </g>
    <g id="ytick_7">
     <g id="text_14">
      <!-- JAX -->
      <defs>
       <path d="M 9.8125 72.90625 
L 19.671875 72.90625 
L 19.671875 5.078125 
Q 19.671875 -8.109375 14.671875 -14.0625 
Q 9.671875 -20.015625 -1.421875 -20.015625 
L -5.171875 -20.015625 
L -5.171875 -11.71875 
L -2.09375 -11.71875 
Q 4.4375 -11.71875 7.125 -8.046875 
Q 9.8125 -4.390625 9.8125 5.078125 
z
" id="DejaVuSans-74"/>
       <path d="M 6.296875 72.90625 
L 16.890625 72.90625 
L 35.015625 45.796875 
L 53.21875 72.90625 
L 63.8125 72.90625 
L 40.375 37.890625 
L 65.375 0 
L 54.78125 0 
L 34.28125 31 
L 13.625 0 
L 2.984375 0 
L 29 38.921875 
z
" id="DejaVuSans-88"/>
      </defs>
      <g style="fill:#ffffff;" transform="translate(60.8275 461.717909)scale(0.08 -0.08)">
       <use xlink:href="#DejaVuSans-74"/>
       <use x="27.742188" xlink:href="#DejaVuSans-65"/>
       <use x="96.150391" xlink:href="#DejaVuSans-88"/>
      </g>
     </g>
    </g>
    <g id="ytick_8">
     <g id="text_15">
      <!-- NYJ -->
      <defs>
       <path d="M -0.203125 72.90625 
L 10.40625 72.90625 
L 30.609375 42.921875 
L 50.6875 72.90625 
L 61.28125 72.90625 
L 35.5 34.71875 
L 35.5 0 
L 25.59375 0 
L 25.59375 34.71875 
z
" id="DejaVuSans-89"/>
      </defs>
      <g style="fill:#ffffff;" transform="translate(60.76875 447.370695)scale(0.08 -0.08)">
       <use xlink:href="#DejaVuSans-78"/>
       <use x="74.804688" xlink:href="#DejaVuSans-89"/>
       <use x="135.888672" xlink:href="#DejaVuSans-74"/>
      </g>
     </g>
    </g>
    <g id="ytick_9">
     <g id="text_16">
      <!-- CIN -->
      <defs>
       <path d="M 64.40625 67.28125 
L 64.40625 56.890625 
Q 59.421875 61.53125 53.78125 63.8125 
Q 48.140625 66.109375 41.796875 66.109375 
Q 29.296875 66.109375 22.65625 58.46875 
Q 16.015625 50.828125 16.015625 36.375 
Q 16.015625 21.96875 22.65625 14.328125 
Q 29.296875 6.6875 41.796875 6.6875 
Q 48.140625 6.6875 53.78125 8.984375 
Q 59.421875 11.28125 64.40625 15.921875 
L 64.40625 5.609375 
Q 59.234375 2.09375 53.4375 0.328125 
Q 47.65625 -1.421875 41.21875 -1.421875 
Q 24.65625 -1.421875 15.125 8.703125 
Q 5.609375 18.84375 5.609375 36.375 
Q 5.609375 53.953125 15.125 64.078125 
Q 24.65625 74.21875 41.21875 74.21875 
Q 47.75 74.21875 53.53125 72.484375 
Q 59.328125 70.75 64.40625 67.28125 
z
" id="DejaVuSans-67"/>
      </defs>
      <g style="fill:#ffffff;" transform="translate(60.06875 433.023481)scale(0.08 -0.08)">
       <use xlink:href="#DejaVuSans-67"/>
       <use x="69.824219" xlink:href="#DejaVuSans-73"/>
       <use x="99.316406" xlink:href="#DejaVuSans-78"/>
      </g>
     </g>
    </g>
    <g id="ytick_10">
     <g id="text_17">
      <!-- DEN -->
      <defs>
       <path d="M 19.671875 64.796875 
L 19.671875 8.109375 
L 31.59375 8.109375 
Q 46.6875 8.109375 53.6875 14.9375 
Q 60.6875 21.78125 60.6875 36.53125 
Q 60.6875 51.171875 53.6875 57.984375 
Q 46.6875 64.796875 31.59375 64.796875 
z
M 9.8125 72.90625 
L 30.078125 72.90625 
Q 51.265625 72.90625 61.171875 64.09375 
Q 71.09375 55.28125 71.09375 36.53125 
Q 71.09375 17.671875 61.125 8.828125 
Q 51.171875 0 30.078125 0 
L 9.8125 0 
z
" id="DejaVuSans-68"/>
      </defs>
      <g style="fill:#ffffff;" transform="translate(56.8 418.676266)scale(0.08 -0.08)">
       <use xlink:href="#DejaVuSans-68"/>
       <use x="77.001953" xlink:href="#DejaVuSans-69"/>
       <use x="140.185547" xlink:href="#DejaVuSans-78"/>
      </g>
     </g>
    </g>
    <g id="ytick_11">
     <g id="text_18">
      <!-- CHI -->
      <defs>
       <path d="M 9.8125 72.90625 
L 19.671875 72.90625 
L 19.671875 43.015625 
L 55.515625 43.015625 
L 55.515625 72.90625 
L 65.375 72.90625 
L 65.375 0 
L 55.515625 0 
L 55.515625 34.71875 
L 19.671875 34.71875 
L 19.671875 0 
L 9.8125 0 
z
" id="DejaVuSans-72"/>
      </defs>
      <g style="fill:#ffffff;" transform="translate(60.0375 404.329052)scale(0.08 -0.08)">
       <use xlink:href="#DejaVuSans-67"/>
       <use x="69.824219" xlink:href="#DejaVuSans-72"/>
       <use x="145.019531" xlink:href="#DejaVuSans-73"/>
      </g>
     </g>
    </g>
    <g id="ytick_12">
     <g id="text_19">
      <!-- DAL -->
      <defs>
       <path d="M 9.8125 72.90625 
L 19.671875 72.90625 
L 19.671875 8.296875 
L 55.171875 8.296875 
L 55.171875 0 
L 9.8125 0 
z
" id="DejaVuSans-76"/>
      </defs>
      <g style="fill:#ffffff;" transform="translate(58.05 389.981838)scale(0.08 -0.08)">
       <use xlink:href="#DejaVuSans-68"/>
       <use x="75.251953" xlink:href="#DejaVuSans-65"/>
       <use x="143.660156" xlink:href="#DejaVuSans-76"/>
      </g>
     </g>
    </g>
    <g id="ytick_13">
     <g id="text_20">
      <!-- BAL -->
      <g style="fill:#ffffff;" transform="translate(58.58125 375.634624)scale(0.08 -0.08)">
       <use xlink:href="#DejaVuSans-66"/>
       <use x="68.603516" xlink:href="#DejaVuSans-65"/>
       <use x="137.011719" xlink:href="#DejaVuSans-76"/>
      </g>
     </g>
    </g>
    <g id="ytick_14">
     <g id="text_21">
      <!-- SF -->
      <g style="fill:#ffffff;" transform="translate(64.32 361.28741)scale(0.08 -0.08)">
       <use xlink:href="#DejaVuSans-83"/>
       <use x="63.476562" xlink:href="#DejaVuSans-70"/>
      </g>
     </g>
    </g>
    <g id="ytick_15">
     <g id="text_22">
      <!-- DET -->
      <g style="fill:#ffffff;" transform="translate(57.89875 346.940196)scale(0.08 -0.08)">
       <use xlink:href="#DejaVuSans-68"/>
       <use x="77.001953" xlink:href="#DejaVuSans-69"/>
       <use x="140.185547" xlink:href="#DejaVuSans-84"/>
      </g>
     </g>
    </g>
    <g id="ytick_16">
     <g id="text_23">
      <!-- LAC -->
      <g style="fill:#ffffff;" transform="translate(58.44375 332.592982)scale(0.08 -0.08)">
       <use xlink:href="#DejaVuSans-76"/>
       <use x="57.962891" xlink:href="#DejaVuSans-65"/>
       <use x="124.621094" xlink:href="#DejaVuSans-67"/>
      </g>
     </g>
    </g>
    <g id="ytick_17">
     <g id="text_24">
      <!-- OAK -->
      <defs>
       <path d="M 9.8125 72.90625 
L 19.671875 72.90625 
L 19.671875 42.09375 
L 52.390625 72.90625 
L 65.09375 72.90625 
L 28.90625 38.921875 
L 67.671875 0 
L 54.6875 0 
L 19.671875 35.109375 
L 19.671875 0 
L 9.8125 0 
z
" id="DejaVuSans-75"/>
      </defs>
      <g style="fill:#ffffff;" transform="translate(57.12375 318.245768)scale(0.08 -0.08)">
       <use xlink:href="#DejaVuSans-79"/>
       <use x="76.960938" xlink:href="#DejaVuSans-65"/>
       <use x="145.369141" xlink:href="#DejaVuSans-75"/>
      </g>
     </g>
    </g>
    <g id="ytick_18">
     <g id="text_25">
      <!-- CAR -->
      <g style="fill:#ffffff;" transform="translate(57.3825 303.898554)scale(0.08 -0.08)">
       <use xlink:href="#DejaVuSans-67"/>
       <use x="69.824219" xlink:href="#DejaVuSans-65"/>
       <use x="138.232422" xlink:href="#DejaVuSans-82"/>
      </g>
     </g>
    </g>
    <g id="ytick_19">
     <g id="text_26">
      <!-- MIN -->
      <g style="fill:#ffffff;" transform="translate(58.7525 289.55134)scale(0.08 -0.08)">
       <use xlink:href="#DejaVuSans-77"/>
       <use x="86.279297" xlink:href="#DejaVuSans-73"/>
       <use x="115.771484" xlink:href="#DejaVuSans-78"/>
      </g>
     </g>
    </g>
    <g id="ytick_20">
     <g id="text_27">
      <!-- HOU -->
      <g style="fill:#ffffff;" transform="translate(55.83125 275.204126)scale(0.08 -0.08)">
       <use xlink:href="#DejaVuSans-72"/>
       <use x="75.195312" xlink:href="#DejaVuSans-79"/>
       <use x="153.90625" xlink:href="#DejaVuSans-85"/>
      </g>
     </g>
    </g>
    <g id="ytick_21">
     <g id="text_28">
      <!-- NO -->
      <g style="fill:#ffffff;" transform="translate(61.7175 260.856912)scale(0.08 -0.08)">
       <use xlink:href="#DejaVuSans-78"/>
       <use x="74.804688" xlink:href="#DejaVuSans-79"/>
      </g>
     </g>
    </g>
    <g id="ytick_22">
     <g id="text_29">
      <!-- CLE -->
      <g style="fill:#ffffff;" transform="translate(58.90125 246.509698)scale(0.08 -0.08)">
       <use xlink:href="#DejaVuSans-67"/>
       <use x="69.824219" xlink:href="#DejaVuSans-76"/>
       <use x="125.537109" xlink:href="#DejaVuSans-69"/>
      </g>
     </g>
    </g>
    <g id="ytick_23">
     <g id="text_30">
      <!-- NYG -->
      <defs>
       <path d="M 59.515625 10.40625 
L 59.515625 29.984375 
L 43.40625 29.984375 
L 43.40625 38.09375 
L 69.28125 38.09375 
L 69.28125 6.78125 
Q 63.578125 2.734375 56.6875 0.65625 
Q 49.8125 -1.421875 42 -1.421875 
Q 24.90625 -1.421875 15.25 8.5625 
Q 5.609375 18.5625 5.609375 36.375 
Q 5.609375 54.25 15.25 64.234375 
Q 24.90625 74.21875 42 74.21875 
Q 49.125 74.21875 55.546875 72.453125 
Q 61.96875 70.703125 67.390625 67.28125 
L 67.390625 56.78125 
Q 61.921875 61.421875 55.765625 63.765625 
Q 49.609375 66.109375 42.828125 66.109375 
Q 29.4375 66.109375 22.71875 58.640625 
Q 16.015625 51.171875 16.015625 36.375 
Q 16.015625 21.625 22.71875 14.15625 
Q 29.4375 6.6875 42.828125 6.6875 
Q 48.046875 6.6875 52.140625 7.59375 
Q 56.25 8.5 59.515625 10.40625 
z
" id="DejaVuSans-71"/>
      </defs>
      <g style="fill:#ffffff;" transform="translate(56.93 232.162484)scale(0.08 -0.08)">
       <use xlink:href="#DejaVuSans-78"/>
       <use x="74.804688" xlink:href="#DejaVuSans-89"/>
       <use x="135.888672" xlink:href="#DejaVuSans-71"/>
      </g>
     </g>
    </g>
    <g id="ytick_24">
     <g id="text_31">
      <!-- GB -->
      <g style="fill:#ffffff;" transform="translate(62.3125 217.815269)scale(0.08 -0.08)">
       <use xlink:href="#DejaVuSans-71"/>
       <use x="77.490234" xlink:href="#DejaVuSans-66"/>
      </g>
     </g>
    </g>
    <g id="ytick_25">
     <g id="text_32">
      <!-- NE -->
      <g style="fill:#ffffff;" transform="translate(62.96 203.468055)scale(0.08 -0.08)">
       <use xlink:href="#DejaVuSans-78"/>
       <use x="74.804688" xlink:href="#DejaVuSans-69"/>
      </g>
     </g>
    </g>
    <g id="ytick_26">
     <g id="text_33">
      <!-- PHI -->
      <g style="fill:#ffffff;" transform="translate(60.8 189.120841)scale(0.08 -0.08)">
       <use xlink:href="#DejaVuSans-80"/>
       <use x="60.302734" xlink:href="#DejaVuSans-72"/>
       <use x="135.498047" xlink:href="#DejaVuSans-73"/>
      </g>
     </g>
    </g>
    <g id="ytick_27">
     <g id="text_34">
      <!-- IND -->
      <g style="fill:#ffffff;" transform="translate(59.495 174.773627)scale(0.08 -0.08)">
       <use xlink:href="#DejaVuSans-73"/>
       <use x="29.492188" xlink:href="#DejaVuSans-78"/>
       <use x="104.296875" xlink:href="#DejaVuSans-68"/>
      </g>
     </g>
    </g>
    <g id="ytick_28">
     <g id="text_35">
      <!-- LA -->
      <g style="fill:#ffffff;" transform="translate(63.89 160.426413)scale(0.08 -0.08)">
       <use xlink:href="#DejaVuSans-76"/>
       <use x="57.962891" xlink:href="#DejaVuSans-65"/>
      </g>
     </g>
    </g>
    <g id="ytick_29">
     <g id="text_36">
      <!-- ATL -->
      <g style="fill:#ffffff;" transform="translate(59.80375 146.079199)scale(0.08 -0.08)">
       <use xlink:href="#DejaVuSans-65"/>
       <use x="60.658203" xlink:href="#DejaVuSans-84"/>
       <use x="121.742188" xlink:href="#DejaVuSans-76"/>
      </g>
     </g>
    </g>
    <g id="ytick_30">
     <g id="text_37">
      <!-- KC -->
      <g style="fill:#ffffff;" transform="translate(63.6075 131.731985)scale(0.08 -0.08)">
       <use xlink:href="#DejaVuSans-75"/>
       <use x="60.076172" xlink:href="#DejaVuSans-67"/>
      </g>
     </g>
    </g>
    <g id="ytick_31">
     <g id="text_38">
      <!-- PIT -->
      <g style="fill:#ffffff;" transform="translate(61.93 117.384771)scale(0.08 -0.08)">
       <use xlink:href="#DejaVuSans-80"/>
       <use x="60.302734" xlink:href="#DejaVuSans-73"/>
       <use x="89.794922" xlink:href="#DejaVuSans-84"/>
      </g>
     </g>
    </g>
    <g id="ytick_32">
     <g id="text_39">
      <!-- TB -->
      <g style="fill:#ffffff;" transform="translate(63.625 103.037557)scale(0.08 -0.08)">
       <use xlink:href="#DejaVuSans-84"/>
       <use x="61.083984" xlink:href="#DejaVuSans-66"/>
      </g>
     </g>
    </g>
   </g>
   <g id="PathCollection_1">
    <path clip-path="url(#p894d24ab4a)" d="M 327.029232 547.500431 
C 327.755521 547.500431 328.452161 547.211873 328.965724 546.69831 
C 329.479288 546.184746 329.767845 545.488107 329.767845 544.761818 
C 329.767845 544.03553 329.479288 543.33889 328.965724 542.825327 
C 328.452161 542.311763 327.755521 542.023205 327.029232 542.023205 
C 326.302944 542.023205 325.606304 542.311763 325.092741 542.825327 
C 324.579177 543.33889 324.29062 544.03553 324.29062 544.761818 
C 324.29062 545.488107 324.579177 546.184746 325.092741 546.69831 
C 325.606304 547.211873 326.302944 547.500431 327.029232 547.500431 
z
" style="fill:#87ceeb;stroke:#87ceeb;stroke-width:0.3;"/>
    <path clip-path="url(#p894d24ab4a)" d="M 351.545291 533.153217 
C 352.27158 533.153217 352.968219 532.864659 353.481783 532.351096 
C 353.995347 531.837532 354.283904 531.140893 354.283904 530.414604 
C 354.283904 529.688316 353.995347 528.991676 353.481783 528.478112 
C 352.968219 527.964549 352.27158 527.675991 351.545291 527.675991 
C 350.819003 527.675991 350.122363 527.964549 349.6088 528.478112 
C 349.095236 528.991676 348.806678 529.688316 348.806678 530.414604 
C 348.806678 531.140893 349.095236 531.837532 349.6088 532.351096 
C 350.122363 532.864659 350.819003 533.153217 351.545291 533.153217 
z
" style="fill:#87ceeb;stroke:#87ceeb;stroke-width:0.3;"/>
    <path clip-path="url(#p894d24ab4a)" d="M 354.102722 518.806003 
C 354.82901 518.806003 355.52565 518.517445 356.039214 518.003882 
C 356.552777 517.490318 356.841335 516.793679 356.841335 516.06739 
C 356.841335 515.341101 356.552777 514.644462 356.039214 514.130898 
C 355.52565 513.617335 354.82901 513.328777 354.102722 513.328777 
C 353.376433 513.328777 352.679794 513.617335 352.16623 514.130898 
C 351.652667 514.644462 351.364109 515.341101 351.364109 516.06739 
C 351.364109 516.793679 351.652667 517.490318 352.16623 518.003882 
C 352.679794 518.517445 353.376433 518.806003 354.102722 518.806003 
z
" style="fill:#87ceeb;stroke:#87ceeb;stroke-width:0.3;"/>
    <path clip-path="url(#p894d24ab4a)" d="M 363.18601 504.458789 
C 363.912298 504.458789 364.608938 504.170231 365.122501 503.656668 
C 365.636065 503.143104 365.924623 502.446465 365.924623 501.720176 
C 365.924623 500.993887 365.636065 500.297248 365.122501 499.783684 
C 364.608938 499.270121 363.912298 498.981563 363.18601 498.981563 
C 362.459721 498.981563 361.763082 499.270121 361.249518 499.783684 
C 360.735955 500.297248 360.447397 500.993887 360.447397 501.720176 
C 360.447397 502.446465 360.735955 503.143104 361.249518 503.656668 
C 361.763082 504.170231 362.459721 504.458789 363.18601 504.458789 
z
" style="fill:#87ceeb;stroke:#87ceeb;stroke-width:0.3;"/>
    <path clip-path="url(#p894d24ab4a)" d="M 366.7135 490.111575 
C 367.439789 490.111575 368.136428 489.823017 368.649992 489.309454 
C 369.163556 488.79589 369.452113 488.09925 369.452113 487.372962 
C 369.452113 486.646673 369.163556 485.950034 368.649992 485.43647 
C 368.136428 484.922907 367.439789 484.634349 366.7135 484.634349 
C 365.987212 484.634349 365.290572 484.922907 364.777009 485.43647 
C 364.263445 485.950034 363.974887 486.646673 363.974887 487.372962 
C 363.974887 488.09925 364.263445 488.79589 364.777009 489.309454 
C 365.290572 489.823017 365.987212 490.111575 366.7135 490.111575 
z
" style="fill:#87ceeb;stroke:#87ceeb;stroke-width:0.3;"/>
    <path clip-path="url(#p894d24ab4a)" d="M 374.297605 475.764361 
C 375.023893 475.764361 375.720533 475.475803 376.234096 474.962239 
C 376.74766 474.448676 377.036218 473.752036 377.036218 473.025748 
C 377.036218 472.299459 376.74766 471.60282 376.234096 471.089256 
C 375.720533 470.575693 375.023893 470.287135 374.297605 470.287135 
C 373.571316 470.287135 372.874677 470.575693 372.361113 471.089256 
C 371.84755 471.60282 371.558992 472.299459 371.558992 473.025748 
C 371.558992 473.752036 371.84755 474.448676 372.361113 474.962239 
C 372.874677 475.475803 373.571316 475.764361 374.297605 475.764361 
z
" style="fill:#87ceeb;stroke:#87ceeb;stroke-width:0.3;"/>
    <path clip-path="url(#p894d24ab4a)" d="M 380.029777 461.417147 
C 380.756065 461.417147 381.452705 461.128589 381.966268 460.615025 
C 382.479832 460.101462 382.76839 459.404822 382.76839 458.678534 
C 382.76839 457.952245 382.479832 457.255606 381.966268 456.742042 
C 381.452705 456.228478 380.756065 455.939921 380.029777 455.939921 
C 379.303488 455.939921 378.606849 456.228478 378.093285 456.742042 
C 377.579722 457.255606 377.291164 457.952245 377.291164 458.678534 
C 377.291164 459.404822 377.579722 460.101462 378.093285 460.615025 
C 378.606849 461.128589 379.303488 461.417147 380.029777 461.417147 
z
" style="fill:#87ceeb;stroke:#87ceeb;stroke-width:0.3;"/>
    <path clip-path="url(#p894d24ab4a)" d="M 381.881709 447.069932 
C 382.607998 447.069932 383.304637 446.781375 383.818201 446.267811 
C 384.331765 445.754248 384.620322 445.057608 384.620322 444.33132 
C 384.620322 443.605031 384.331765 442.908392 383.818201 442.394828 
C 383.304637 441.881264 382.607998 441.592707 381.881709 441.592707 
C 381.155421 441.592707 380.458781 441.881264 379.945218 442.394828 
C 379.431654 442.908392 379.143097 443.605031 379.143097 444.33132 
C 379.143097 445.057608 379.431654 445.754248 379.945218 446.267811 
C 380.458781 446.781375 381.155421 447.069932 381.881709 447.069932 
z
" style="fill:#87ceeb;stroke:#87ceeb;stroke-width:0.3;"/>
    <path clip-path="url(#p894d24ab4a)" d="M 395.37436 432.722718 
C 396.100649 432.722718 396.797288 432.434161 397.310852 431.920597 
C 397.824416 431.407034 398.112973 430.710394 398.112973 429.984106 
C 398.112973 429.257817 397.824416 428.561177 397.310852 428.047614 
C 396.797288 427.53405 396.100649 427.245493 395.37436 427.245493 
C 394.648072 427.245493 393.951432 427.53405 393.437869 428.047614 
C 392.924305 428.561177 392.635748 429.257817 392.635748 429.984106 
C 392.635748 430.710394 392.924305 431.407034 393.437869 431.920597 
C 393.951432 432.434161 394.648072 432.722718 395.37436 432.722718 
z
" style="fill:#87ceeb;stroke:#87ceeb;stroke-width:0.3;"/>
    <path clip-path="url(#p894d24ab4a)" d="M 409.837071 418.375504 
C 410.56336 418.375504 411.259999 418.086947 411.773563 417.573383 
C 412.287127 417.05982 412.575684 416.36318 412.575684 415.636891 
C 412.575684 414.910603 412.287127 414.213963 411.773563 413.7004 
C 411.259999 413.186836 410.56336 412.898279 409.837071 412.898279 
C 409.110783 412.898279 408.414143 413.186836 407.90058 413.7004 
C 407.387016 414.213963 407.098459 414.910603 407.098459 415.636891 
C 407.098459 416.36318 407.387016 417.05982 407.90058 417.573383 
C 408.414143 418.086947 409.110783 418.375504 409.837071 418.375504 
z
" style="fill:#87ceeb;stroke:#87ceeb;stroke-width:0.3;"/>
    <path clip-path="url(#p894d24ab4a)" d="M 413.893685 404.02829 
C 414.619974 404.02829 415.316613 403.739733 415.830177 403.226169 
C 416.343741 402.712605 416.632298 402.015966 416.632298 401.289677 
C 416.632298 400.563389 416.343741 399.866749 415.830177 399.353186 
C 415.316613 398.839622 414.619974 398.551065 413.893685 398.551065 
C 413.167397 398.551065 412.470757 398.839622 411.957194 399.353186 
C 411.44363 399.866749 411.155073 400.563389 411.155073 401.289677 
C 411.155073 402.015966 411.44363 402.712605 411.957194 403.226169 
C 412.470757 403.739733 413.167397 404.02829 413.893685 404.02829 
z
" style="fill:#87ceeb;stroke:#87ceeb;stroke-width:0.3;"/>
    <path clip-path="url(#p894d24ab4a)" d="M 418.214861 389.681076 
C 418.94115 389.681076 419.637789 389.392519 420.151353 388.878955 
C 420.664916 388.365391 420.953474 387.668752 420.953474 386.942463 
C 420.953474 386.216175 420.664916 385.519535 420.151353 385.005972 
C 419.637789 384.492408 418.94115 384.203851 418.214861 384.203851 
C 417.488573 384.203851 416.791933 384.492408 416.27837 385.005972 
C 415.764806 385.519535 415.476248 386.216175 415.476248 386.942463 
C 415.476248 387.668752 415.764806 388.365391 416.27837 388.878955 
C 416.791933 389.392519 417.488573 389.681076 418.214861 389.681076 
z
" style="fill:#87ceeb;stroke:#87ceeb;stroke-width:0.3;"/>
    <path clip-path="url(#p894d24ab4a)" d="M 420.243168 375.333862 
C 420.969457 375.333862 421.666096 375.045305 422.17966 374.531741 
C 422.693223 374.018177 422.981781 373.321538 422.981781 372.595249 
C 422.981781 371.868961 422.693223 371.172321 422.17966 370.658758 
C 421.666096 370.145194 420.969457 369.856636 420.243168 369.856636 
C 419.51688 369.856636 418.82024 370.145194 418.306677 370.658758 
C 417.793113 371.172321 417.504555 371.868961 417.504555 372.595249 
C 417.504555 373.321538 417.793113 374.018177 418.306677 374.531741 
C 418.82024 375.045305 419.51688 375.333862 420.243168 375.333862 
z
" style="fill:#87ceeb;stroke:#87ceeb;stroke-width:0.3;"/>
    <path clip-path="url(#p894d24ab4a)" d="M 427.298149 360.986648 
C 428.024438 360.986648 428.721077 360.69809 429.234641 360.184527 
C 429.748204 359.670963 430.036762 358.974324 430.036762 358.248035 
C 430.036762 357.521747 429.748204 356.825107 429.234641 356.311544 
C 428.721077 355.79798 428.024438 355.509422 427.298149 355.509422 
C 426.571861 355.509422 425.875221 355.79798 425.361657 356.311544 
C 424.848094 356.825107 424.559536 357.521747 424.559536 358.248035 
C 424.559536 358.974324 424.848094 359.670963 425.361657 360.184527 
C 425.875221 360.69809 426.571861 360.986648 427.298149 360.986648 
z
" style="fill:#87ceeb;stroke:#87ceeb;stroke-width:0.3;"/>
    <path clip-path="url(#p894d24ab4a)" d="M 427.298149 346.639434 
C 428.024438 346.639434 428.721077 346.350876 429.234641 345.837313 
C 429.748204 345.323749 430.036762 344.62711 430.036762 343.900821 
C 430.036762 343.174533 429.748204 342.477893 429.234641 341.964329 
C 428.721077 341.450766 428.024438 341.162208 427.298149 341.162208 
C 426.571861 341.162208 425.875221 341.450766 425.361657 341.964329 
C 424.848094 342.477893 424.559536 343.174533 424.559536 343.900821 
C 424.559536 344.62711 424.848094 345.323749 425.361657 345.837313 
C 425.875221 346.350876 426.571861 346.639434 427.298149 346.639434 
z
" style="fill:#87ceeb;stroke:#87ceeb;stroke-width:0.3;"/>
    <path clip-path="url(#p894d24ab4a)" d="M 427.562711 332.29222 
C 428.289 332.29222 428.985639 332.003662 429.499203 331.490099 
C 430.012766 330.976535 430.301324 330.279896 430.301324 329.553607 
C 430.301324 328.827318 430.012766 328.130679 429.499203 327.617115 
C 428.985639 327.103552 428.289 326.814994 427.562711 326.814994 
C 426.836422 326.814994 426.139783 327.103552 425.626219 327.617115 
C 425.112656 328.130679 424.824098 328.827318 424.824098 329.553607 
C 424.824098 330.279896 425.112656 330.976535 425.626219 331.490099 
C 426.139783 332.003662 426.836422 332.29222 427.562711 332.29222 
z
" style="fill:#87ceeb;stroke:#87ceeb;stroke-width:0.3;"/>
    <path clip-path="url(#p894d24ab4a)" d="M 436.822373 317.945006 
C 437.548662 317.945006 438.245302 317.656448 438.758865 317.142885 
C 439.272429 316.629321 439.560986 315.932682 439.560986 315.206393 
C 439.560986 314.480104 439.272429 313.783465 438.758865 313.269901 
C 438.245302 312.756338 437.548662 312.46778 436.822373 312.46778 
C 436.096085 312.46778 435.399445 312.756338 434.885882 313.269901 
C 434.372318 313.783465 434.083761 314.480104 434.083761 315.206393 
C 434.083761 315.932682 434.372318 316.629321 434.885882 317.142885 
C 435.399445 317.656448 436.096085 317.945006 436.822373 317.945006 
z
" style="fill:#87ceeb;stroke:#87ceeb;stroke-width:0.3;"/>
    <path clip-path="url(#p894d24ab4a)" d="M 438.586119 303.597792 
C 439.312407 303.597792 440.009047 303.309234 440.52261 302.795671 
C 441.036174 302.282107 441.324731 301.585467 441.324731 300.859179 
C 441.324731 300.13289 441.036174 299.436251 440.52261 298.922687 
C 440.009047 298.409124 439.312407 298.120566 438.586119 298.120566 
C 437.85983 298.120566 437.163191 298.409124 436.649627 298.922687 
C 436.136063 299.436251 435.847506 300.13289 435.847506 300.859179 
C 435.847506 301.585467 436.136063 302.282107 436.649627 302.795671 
C 437.163191 303.309234 437.85983 303.597792 438.586119 303.597792 
z
" style="fill:#87ceeb;stroke:#87ceeb;stroke-width:0.3;"/>
    <path clip-path="url(#p894d24ab4a)" d="M 440.878987 289.250578 
C 441.605276 289.250578 442.301916 288.96202 442.815479 288.448456 
C 443.329043 287.934893 443.6176 287.238253 443.6176 286.511965 
C 443.6176 285.785676 443.329043 285.089037 442.815479 284.575473 
C 442.301916 284.06191 441.605276 283.773352 440.878987 283.773352 
C 440.152699 283.773352 439.456059 284.06191 438.942496 284.575473 
C 438.428932 285.089037 438.140375 285.785676 438.140375 286.511965 
C 438.140375 287.238253 438.428932 287.934893 438.942496 288.448456 
C 439.456059 288.96202 440.152699 289.250578 440.878987 289.250578 
z
" style="fill:#87ceeb;stroke:#87ceeb;stroke-width:0.3;"/>
    <path clip-path="url(#p894d24ab4a)" d="M 441.496298 274.903364 
C 442.222587 274.903364 442.919226 274.614806 443.43279 274.101242 
C 443.946354 273.587679 444.234911 272.891039 444.234911 272.164751 
C 444.234911 271.438462 443.946354 270.741823 443.43279 270.228259 
C 442.919226 269.714695 442.222587 269.426138 441.496298 269.426138 
C 440.77001 269.426138 440.07337 269.714695 439.559807 270.228259 
C 439.046243 270.741823 438.757686 271.438462 438.757686 272.164751 
C 438.757686 272.891039 439.046243 273.587679 439.559807 274.101242 
C 440.07337 274.614806 440.77001 274.903364 441.496298 274.903364 
z
" style="fill:#87ceeb;stroke:#87ceeb;stroke-width:0.3;"/>
    <path clip-path="url(#p894d24ab4a)" d="M 460.015623 260.556149 
C 460.741912 260.556149 461.438551 260.267592 461.952115 259.754028 
C 462.465679 259.240465 462.754236 258.543825 462.754236 257.817537 
C 462.754236 257.091248 462.465679 256.394609 461.952115 255.881045 
C 461.438551 255.367481 460.741912 255.078924 460.015623 255.078924 
C 459.289335 255.078924 458.592695 255.367481 458.079132 255.881045 
C 457.565568 256.394609 457.277011 257.091248 457.277011 257.817537 
C 457.277011 258.543825 457.565568 259.240465 458.079132 259.754028 
C 458.592695 260.267592 459.289335 260.556149 460.015623 260.556149 
z
" style="fill:#87ceeb;stroke:#87ceeb;stroke-width:0.3;"/>
    <path clip-path="url(#p894d24ab4a)" d="M 461.602994 246.208935 
C 462.329283 246.208935 463.025922 245.920378 463.539486 245.406814 
C 464.053049 244.893251 464.341607 244.196611 464.341607 243.470323 
C 464.341607 242.744034 464.053049 242.047395 463.539486 241.533831 
C 463.025922 241.020267 462.329283 240.73171 461.602994 240.73171 
C 460.876705 240.73171 460.180066 241.020267 459.666502 241.533831 
C 459.152939 242.047395 458.864381 242.744034 458.864381 243.470323 
C 458.864381 244.196611 459.152939 244.893251 459.666502 245.406814 
C 460.180066 245.920378 460.876705 246.208935 461.602994 246.208935 
z
" style="fill:#87ceeb;stroke:#87ceeb;stroke-width:0.3;"/>
    <path clip-path="url(#p894d24ab4a)" d="M 461.691181 231.861721 
C 462.41747 231.861721 463.114109 231.573164 463.627673 231.0596 
C 464.141237 230.546037 464.429794 229.849397 464.429794 229.123109 
C 464.429794 228.39682 464.141237 227.70018 463.627673 227.186617 
C 463.114109 226.673053 462.41747 226.384496 461.691181 226.384496 
C 460.964893 226.384496 460.268253 226.673053 459.75469 227.186617 
C 459.241126 227.70018 458.952568 228.39682 458.952568 229.123109 
C 458.952568 229.849397 459.241126 230.546037 459.75469 231.0596 
C 460.268253 231.573164 460.964893 231.861721 461.691181 231.861721 
z
" style="fill:#87ceeb;stroke:#87ceeb;stroke-width:0.3;"/>
    <path clip-path="url(#p894d24ab4a)" d="M 476.065705 217.514507 
C 476.791994 217.514507 477.488633 217.22595 478.002197 216.712386 
C 478.51576 216.198823 478.804318 215.502183 478.804318 214.775894 
C 478.804318 214.049606 478.51576 213.352966 478.002197 212.839403 
C 477.488633 212.325839 476.791994 212.037282 476.065705 212.037282 
C 475.339416 212.037282 474.642777 212.325839 474.129213 212.839403 
C 473.61565 213.352966 473.327092 214.049606 473.327092 214.775894 
C 473.327092 215.502183 473.61565 216.198823 474.129213 216.712386 
C 474.642777 217.22595 475.339416 217.514507 476.065705 217.514507 
z
" style="fill:#87ceeb;stroke:#87ceeb;stroke-width:0.3;"/>
    <path clip-path="url(#p894d24ab4a)" d="M 485.325367 203.167293 
C 486.051656 203.167293 486.748296 202.878736 487.261859 202.365172 
C 487.775423 201.851608 488.06398 201.154969 488.06398 200.42868 
C 488.06398 199.702392 487.775423 199.005752 487.261859 198.492189 
C 486.748296 197.978625 486.051656 197.690068 485.325367 197.690068 
C 484.599079 197.690068 483.902439 197.978625 483.388876 198.492189 
C 482.875312 199.005752 482.586755 199.702392 482.586755 200.42868 
C 482.586755 201.154969 482.875312 201.851608 483.388876 202.365172 
C 483.902439 202.878736 484.599079 203.167293 485.325367 203.167293 
z
" style="fill:#87ceeb;stroke:#87ceeb;stroke-width:0.3;"/>
    <path clip-path="url(#p894d24ab4a)" d="M 489.822918 188.820079 
C 490.549206 188.820079 491.245846 188.531522 491.759409 188.017958 
C 492.272973 187.504394 492.561531 186.807755 492.561531 186.081466 
C 492.561531 185.355178 492.272973 184.658538 491.759409 184.144975 
C 491.245846 183.631411 490.549206 183.342853 489.822918 183.342853 
C 489.096629 183.342853 488.39999 183.631411 487.886426 184.144975 
C 487.372863 184.658538 487.084305 185.355178 487.084305 186.081466 
C 487.084305 186.807755 487.372863 187.504394 487.886426 188.017958 
C 488.39999 188.531522 489.096629 188.820079 489.822918 188.820079 
z
" style="fill:#87ceeb;stroke:#87ceeb;stroke-width:0.3;"/>
    <path clip-path="url(#p894d24ab4a)" d="M 499.170768 174.472865 
C 499.897056 174.472865 500.593696 174.184307 501.107259 173.670744 
C 501.620823 173.15718 501.90938 172.460541 501.90938 171.734252 
C 501.90938 171.007964 501.620823 170.311324 501.107259 169.797761 
C 500.593696 169.284197 499.897056 168.995639 499.170768 168.995639 
C 498.444479 168.995639 497.747839 169.284197 497.234276 169.797761 
C 496.720712 170.311324 496.432155 171.007964 496.432155 171.734252 
C 496.432155 172.460541 496.720712 173.15718 497.234276 173.670744 
C 497.747839 174.184307 498.444479 174.472865 499.170768 174.472865 
z
" style="fill:#87ceeb;stroke:#87ceeb;stroke-width:0.3;"/>
    <path clip-path="url(#p894d24ab4a)" d="M 504.462003 160.125651 
C 505.188292 160.125651 505.884931 159.837093 506.398495 159.32353 
C 506.912059 158.809966 507.200616 158.113327 507.200616 157.387038 
C 507.200616 156.66075 506.912059 155.96411 506.398495 155.450546 
C 505.884931 154.936983 505.188292 154.648425 504.462003 154.648425 
C 503.735715 154.648425 503.039075 154.936983 502.525512 155.450546 
C 502.011948 155.96411 501.72339 156.66075 501.72339 157.387038 
C 501.72339 158.113327 502.011948 158.809966 502.525512 159.32353 
C 503.039075 159.837093 503.735715 160.125651 504.462003 160.125651 
z
" style="fill:#87ceeb;stroke:#87ceeb;stroke-width:0.3;"/>
    <path clip-path="url(#p894d24ab4a)" d="M 511.076048 145.778437 
C 511.802337 145.778437 512.498976 145.489879 513.01254 144.976316 
C 513.526103 144.462752 513.814661 143.766113 513.814661 143.039824 
C 513.814661 142.313535 513.526103 141.616896 513.01254 141.103332 
C 512.498976 140.589769 511.802337 140.301211 511.076048 140.301211 
C 510.349759 140.301211 509.65312 140.589769 509.139556 141.103332 
C 508.625993 141.616896 508.337435 142.313535 508.337435 143.039824 
C 508.337435 143.766113 508.625993 144.462752 509.139556 144.976316 
C 509.65312 145.489879 510.349759 145.778437 511.076048 145.778437 
z
" style="fill:#87ceeb;stroke:#87ceeb;stroke-width:0.3;"/>
    <path clip-path="url(#p894d24ab4a)" d="M 521.834894 131.431223 
C 522.561182 131.431223 523.257822 131.142665 523.771386 130.629102 
C 524.284949 130.115538 524.573507 129.418899 524.573507 128.69261 
C 524.573507 127.966321 524.284949 127.269682 523.771386 126.756118 
C 523.257822 126.242555 522.561182 125.953997 521.834894 125.953997 
C 521.108605 125.953997 520.411966 126.242555 519.898402 126.756118 
C 519.384839 127.269682 519.096281 127.966321 519.096281 128.69261 
C 519.096281 129.418899 519.384839 130.115538 519.898402 130.629102 
C 520.411966 131.142665 521.108605 131.431223 521.834894 131.431223 
z
" style="fill:#ffa500;stroke:#ffa500;stroke-width:0.3;"/>
    <path clip-path="url(#p894d24ab4a)" d="M 548.555634 117.084009 
C 549.281923 117.084009 549.978562 116.795451 550.492126 116.281888 
C 551.005689 115.768324 551.294247 115.071684 551.294247 114.345396 
C 551.294247 113.619107 551.005689 112.922468 550.492126 112.408904 
C 549.978562 111.895341 549.281923 111.606783 548.555634 111.606783 
C 547.829346 111.606783 547.132706 111.895341 546.619143 112.408904 
C 546.105579 112.922468 545.817021 113.619107 545.817021 114.345396 
C 545.817021 115.071684 546.105579 115.768324 546.619143 116.281888 
C 547.132706 116.795451 547.829346 117.084009 548.555634 117.084009 
z
" style="fill:#ffa500;stroke:#ffa500;stroke-width:0.3;"/>
    <path clip-path="url(#p894d24ab4a)" d="M 560.372727 102.736795 
C 561.099016 102.736795 561.795655 102.448237 562.309219 101.934673 
C 562.822783 101.42111 563.11134 100.72447 563.11134 99.998182 
C 563.11134 99.271893 562.822783 98.575254 562.309219 98.06169 
C 561.795655 97.548127 561.099016 97.259569 560.372727 97.259569 
C 559.646439 97.259569 558.949799 97.548127 558.436236 98.06169 
C 557.922672 98.575254 557.634114 99.271893 557.634114 99.998182 
C 557.634114 100.72447 557.922672 101.42111 558.436236 101.934673 
C 558.949799 102.448237 559.646439 102.736795 560.372727 102.736795 
z
" style="fill:#ffa500;stroke:#ffa500;stroke-width:0.3;"/>
   </g>
   <g id="LineCollection_1">
    <path clip-path="url(#p894d24ab4a)" d="M 103.827273 544.761818 
L 327.029232 544.761818 
" style="fill:none;stroke:#87ceeb;stroke-opacity:0.4;stroke-width:1.75;"/>
    <path clip-path="url(#p894d24ab4a)" d="M 103.827273 530.414604 
L 351.545291 530.414604 
" style="fill:none;stroke:#87ceeb;stroke-opacity:0.4;stroke-width:1.75;"/>
    <path clip-path="url(#p894d24ab4a)" d="M 103.827273 516.06739 
L 354.102722 516.06739 
" style="fill:none;stroke:#87ceeb;stroke-opacity:0.4;stroke-width:1.75;"/>
    <path clip-path="url(#p894d24ab4a)" d="M 103.827273 501.720176 
L 363.18601 501.720176 
" style="fill:none;stroke:#87ceeb;stroke-opacity:0.4;stroke-width:1.75;"/>
    <path clip-path="url(#p894d24ab4a)" d="M 103.827273 487.372962 
L 366.7135 487.372962 
" style="fill:none;stroke:#87ceeb;stroke-opacity:0.4;stroke-width:1.75;"/>
    <path clip-path="url(#p894d24ab4a)" d="M 103.827273 473.025748 
L 374.297605 473.025748 
" style="fill:none;stroke:#87ceeb;stroke-opacity:0.4;stroke-width:1.75;"/>
    <path clip-path="url(#p894d24ab4a)" d="M 103.827273 458.678534 
L 380.029777 458.678534 
" style="fill:none;stroke:#87ceeb;stroke-opacity:0.4;stroke-width:1.75;"/>
    <path clip-path="url(#p894d24ab4a)" d="M 103.827273 444.33132 
L 381.881709 444.33132 
" style="fill:none;stroke:#87ceeb;stroke-opacity:0.4;stroke-width:1.75;"/>
    <path clip-path="url(#p894d24ab4a)" d="M 103.827273 429.984106 
L 395.37436 429.984106 
" style="fill:none;stroke:#87ceeb;stroke-opacity:0.4;stroke-width:1.75;"/>
    <path clip-path="url(#p894d24ab4a)" d="M 103.827273 415.636891 
L 409.837071 415.636891 
" style="fill:none;stroke:#87ceeb;stroke-opacity:0.4;stroke-width:1.75;"/>
    <path clip-path="url(#p894d24ab4a)" d="M 103.827273 401.289677 
L 413.893685 401.289677 
" style="fill:none;stroke:#87ceeb;stroke-opacity:0.4;stroke-width:1.75;"/>
    <path clip-path="url(#p894d24ab4a)" d="M 103.827273 386.942463 
L 418.214861 386.942463 
" style="fill:none;stroke:#87ceeb;stroke-opacity:0.4;stroke-width:1.75;"/>
    <path clip-path="url(#p894d24ab4a)" d="M 103.827273 372.595249 
L 420.243168 372.595249 
" style="fill:none;stroke:#87ceeb;stroke-opacity:0.4;stroke-width:1.75;"/>
    <path clip-path="url(#p894d24ab4a)" d="M 103.827273 358.248035 
L 427.298149 358.248035 
" style="fill:none;stroke:#87ceeb;stroke-opacity:0.4;stroke-width:1.75;"/>
    <path clip-path="url(#p894d24ab4a)" d="M 103.827273 343.900821 
L 427.298149 343.900821 
" style="fill:none;stroke:#87ceeb;stroke-opacity:0.4;stroke-width:1.75;"/>
    <path clip-path="url(#p894d24ab4a)" d="M 103.827273 329.553607 
L 427.562711 329.553607 
" style="fill:none;stroke:#87ceeb;stroke-opacity:0.4;stroke-width:1.75;"/>
    <path clip-path="url(#p894d24ab4a)" d="M 103.827273 315.206393 
L 436.822373 315.206393 
" style="fill:none;stroke:#87ceeb;stroke-opacity:0.4;stroke-width:1.75;"/>
    <path clip-path="url(#p894d24ab4a)" d="M 103.827273 300.859179 
L 438.586119 300.859179 
" style="fill:none;stroke:#87ceeb;stroke-opacity:0.4;stroke-width:1.75;"/>
    <path clip-path="url(#p894d24ab4a)" d="M 103.827273 286.511965 
L 440.878987 286.511965 
" style="fill:none;stroke:#87ceeb;stroke-opacity:0.4;stroke-width:1.75;"/>
    <path clip-path="url(#p894d24ab4a)" d="M 103.827273 272.164751 
L 441.496298 272.164751 
" style="fill:none;stroke:#87ceeb;stroke-opacity:0.4;stroke-width:1.75;"/>
    <path clip-path="url(#p894d24ab4a)" d="M 103.827273 257.817537 
L 460.015623 257.817537 
" style="fill:none;stroke:#87ceeb;stroke-opacity:0.4;stroke-width:1.75;"/>
    <path clip-path="url(#p894d24ab4a)" d="M 103.827273 243.470323 
L 461.602994 243.470323 
" style="fill:none;stroke:#87ceeb;stroke-opacity:0.4;stroke-width:1.75;"/>
    <path clip-path="url(#p894d24ab4a)" d="M 103.827273 229.123109 
L 461.691181 229.123109 
" style="fill:none;stroke:#87ceeb;stroke-opacity:0.4;stroke-width:1.75;"/>
    <path clip-path="url(#p894d24ab4a)" d="M 103.827273 214.775894 
L 476.065705 214.775894 
" style="fill:none;stroke:#87ceeb;stroke-opacity:0.4;stroke-width:1.75;"/>
    <path clip-path="url(#p894d24ab4a)" d="M 103.827273 200.42868 
L 485.325367 200.42868 
" style="fill:none;stroke:#87ceeb;stroke-opacity:0.4;stroke-width:1.75;"/>
    <path clip-path="url(#p894d24ab4a)" d="M 103.827273 186.081466 
L 489.822918 186.081466 
" style="fill:none;stroke:#87ceeb;stroke-opacity:0.4;stroke-width:1.75;"/>
    <path clip-path="url(#p894d24ab4a)" d="M 103.827273 171.734252 
L 499.170768 171.734252 
" style="fill:none;stroke:#87ceeb;stroke-opacity:0.4;stroke-width:1.75;"/>
    <path clip-path="url(#p894d24ab4a)" d="M 103.827273 157.387038 
L 504.462003 157.387038 
" style="fill:none;stroke:#87ceeb;stroke-opacity:0.4;stroke-width:1.75;"/>
    <path clip-path="url(#p894d24ab4a)" d="M 103.827273 143.039824 
L 511.076048 143.039824 
" style="fill:none;stroke:#87ceeb;stroke-opacity:0.4;stroke-width:1.75;"/>
    <path clip-path="url(#p894d24ab4a)" d="M 103.827273 128.69261 
L 521.834894 128.69261 
" style="fill:none;stroke:#ffa500;stroke-opacity:0.4;stroke-width:1.75;"/>
    <path clip-path="url(#p894d24ab4a)" d="M 103.827273 114.345396 
L 548.555634 114.345396 
" style="fill:none;stroke:#ffa500;stroke-opacity:0.4;stroke-width:1.75;"/>
    <path clip-path="url(#p894d24ab4a)" d="M 103.827273 99.998182 
L 560.372727 99.998182 
" style="fill:none;stroke:#ffa500;stroke-opacity:0.4;stroke-width:1.75;"/>
   </g>
   <g id="line2d_1">
    <path clip-path="url(#p894d24ab4a)" d="M 544.763582 562.1076 
L 544.763582 121.7916 
" style="fill:none;stroke:#d3d3d3;stroke-dasharray:1.48,0.64;stroke-dashoffset:0;stroke-width:0.4;"/>
   </g>
   <g id="line2d_2">
    <path clip-path="url(#p894d24ab4a)" d="M 500.669951 562.1076 
L 500.669951 180.5004 
" style="fill:none;stroke:#d3d3d3;stroke-dasharray:1.48,0.64;stroke-dashoffset:0;stroke-width:0.4;"/>
   </g>
   <g id="line2d_3">
    <path clip-path="url(#p894d24ab4a)" d="M 456.57632 562.1076 
L 456.57632 268.5636 
" style="fill:none;stroke:#d3d3d3;stroke-dasharray:1.48,0.64;stroke-dashoffset:0;stroke-width:0.4;"/>
   </g>
   <g id="line2d_4">
    <path clip-path="url(#p894d24ab4a)" d="M 412.482689 562.1076 
L 412.482689 425.1204 
" style="fill:none;stroke:#d3d3d3;stroke-dasharray:1.48,0.64;stroke-dashoffset:0;stroke-width:0.4;"/>
   </g>
   <g id="line2d_5">
    <path clip-path="url(#p894d24ab4a)" d="M 368.389058 562.1076 
L 368.389058 508.2912 
" style="fill:none;stroke:#d3d3d3;stroke-dasharray:1.48,0.64;stroke-dashoffset:0;stroke-width:0.4;"/>
   </g>
   <g id="line2d_6">
    <path clip-path="url(#p894d24ab4a)" d="M 324.295427 562.1076 
L 324.295427 552.3228 
" style="fill:none;stroke:#d3d3d3;stroke-dasharray:1.48,0.64;stroke-dashoffset:0;stroke-width:0.4;"/>
   </g>
   <g id="line2d_7">
    <path clip-path="url(#p894d24ab4a)" d="M 280.201796 562.1076 
L 280.201796 562.1076 
" style="fill:none;stroke:#d3d3d3;stroke-dasharray:1.48,0.64;stroke-dashoffset:0;stroke-width:0.4;"/>
   </g>
   <g id="text_40">
    <!-- Top Three:  Tampa Bay Buccaneers and Pittsburg Steelers absolutely dominating the passing game,  -->
    <defs>
     <path d="M 18.109375 8.203125 
L 18.109375 -20.796875 
L 9.078125 -20.796875 
L 9.078125 54.6875 
L 18.109375 54.6875 
L 18.109375 46.390625 
Q 20.953125 51.265625 25.265625 53.625 
Q 29.59375 56 35.59375 56 
Q 45.5625 56 51.78125 48.09375 
Q 58.015625 40.1875 58.015625 27.296875 
Q 58.015625 14.40625 51.78125 6.484375 
Q 45.5625 -1.421875 35.59375 -1.421875 
Q 29.59375 -1.421875 25.265625 0.953125 
Q 20.953125 3.328125 18.109375 8.203125 
z
M 48.6875 27.296875 
Q 48.6875 37.203125 44.609375 42.84375 
Q 40.53125 48.484375 33.40625 48.484375 
Q 26.265625 48.484375 22.1875 42.84375 
Q 18.109375 37.203125 18.109375 27.296875 
Q 18.109375 17.390625 22.1875 11.75 
Q 26.265625 6.109375 33.40625 6.109375 
Q 40.53125 6.109375 44.609375 11.75 
Q 48.6875 17.390625 48.6875 27.296875 
z
" id="DejaVuSans-112"/>
     <path d="M 54.890625 33.015625 
L 54.890625 0 
L 45.90625 0 
L 45.90625 32.71875 
Q 45.90625 40.484375 42.875 44.328125 
Q 39.84375 48.1875 33.796875 48.1875 
Q 26.515625 48.1875 22.3125 43.546875 
Q 18.109375 38.921875 18.109375 30.90625 
L 18.109375 0 
L 9.078125 0 
L 9.078125 75.984375 
L 18.109375 75.984375 
L 18.109375 46.1875 
Q 21.34375 51.125 25.703125 53.5625 
Q 30.078125 56 35.796875 56 
Q 45.21875 56 50.046875 50.171875 
Q 54.890625 44.34375 54.890625 33.015625 
z
" id="DejaVuSans-104"/>
     <path d="M 11.71875 12.40625 
L 22.015625 12.40625 
L 22.015625 0 
L 11.71875 0 
z
M 11.71875 51.703125 
L 22.015625 51.703125 
L 22.015625 39.3125 
L 11.71875 39.3125 
z
" id="DejaVuSans-58"/>
     <path d="M 52 44.1875 
Q 55.375 50.25 60.0625 53.125 
Q 64.75 56 71.09375 56 
Q 79.640625 56 84.28125 50.015625 
Q 88.921875 44.046875 88.921875 33.015625 
L 88.921875 0 
L 79.890625 0 
L 79.890625 32.71875 
Q 79.890625 40.578125 77.09375 44.375 
Q 74.3125 48.1875 68.609375 48.1875 
Q 61.625 48.1875 57.5625 43.546875 
Q 53.515625 38.921875 53.515625 30.90625 
L 53.515625 0 
L 44.484375 0 
L 44.484375 32.71875 
Q 44.484375 40.625 41.703125 44.40625 
Q 38.921875 48.1875 33.109375 48.1875 
Q 26.21875 48.1875 22.15625 43.53125 
Q 18.109375 38.875 18.109375 30.90625 
L 18.109375 0 
L 9.078125 0 
L 9.078125 54.6875 
L 18.109375 54.6875 
L 18.109375 46.1875 
Q 21.1875 51.21875 25.484375 53.609375 
Q 29.78125 56 35.6875 56 
Q 41.65625 56 45.828125 52.96875 
Q 50 49.953125 52 44.1875 
z
" id="DejaVuSans-109"/>
     <path d="M 8.5 21.578125 
L 8.5 54.6875 
L 17.484375 54.6875 
L 17.484375 21.921875 
Q 17.484375 14.15625 20.5 10.265625 
Q 23.53125 6.390625 29.59375 6.390625 
Q 36.859375 6.390625 41.078125 11.03125 
Q 45.3125 15.671875 45.3125 23.6875 
L 45.3125 54.6875 
L 54.296875 54.6875 
L 54.296875 0 
L 45.3125 0 
L 45.3125 8.40625 
Q 42.046875 3.421875 37.71875 1 
Q 33.40625 -1.421875 27.6875 -1.421875 
Q 18.265625 -1.421875 13.375 4.4375 
Q 8.5 10.296875 8.5 21.578125 
z
M 31.109375 56 
z
" id="DejaVuSans-117"/>
     <path d="M 48.78125 52.59375 
L 48.78125 44.1875 
Q 44.96875 46.296875 41.140625 47.34375 
Q 37.3125 48.390625 33.40625 48.390625 
Q 24.65625 48.390625 19.8125 42.84375 
Q 14.984375 37.3125 14.984375 27.296875 
Q 14.984375 17.28125 19.8125 11.734375 
Q 24.65625 6.203125 33.40625 6.203125 
Q 37.3125 6.203125 41.140625 7.25 
Q 44.96875 8.296875 48.78125 10.40625 
L 48.78125 2.09375 
Q 45.015625 0.34375 40.984375 -0.53125 
Q 36.96875 -1.421875 32.421875 -1.421875 
Q 20.0625 -1.421875 12.78125 6.34375 
Q 5.515625 14.109375 5.515625 27.296875 
Q 5.515625 40.671875 12.859375 48.328125 
Q 20.21875 56 33.015625 56 
Q 37.15625 56 41.109375 55.140625 
Q 45.0625 54.296875 48.78125 52.59375 
z
" id="DejaVuSans-99"/>
     <path d="M 48.6875 27.296875 
Q 48.6875 37.203125 44.609375 42.84375 
Q 40.53125 48.484375 33.40625 48.484375 
Q 26.265625 48.484375 22.1875 42.84375 
Q 18.109375 37.203125 18.109375 27.296875 
Q 18.109375 17.390625 22.1875 11.75 
Q 26.265625 6.109375 33.40625 6.109375 
Q 40.53125 6.109375 44.609375 11.75 
Q 48.6875 17.390625 48.6875 27.296875 
z
M 18.109375 46.390625 
Q 20.953125 51.265625 25.265625 53.625 
Q 29.59375 56 35.59375 56 
Q 45.5625 56 51.78125 48.09375 
Q 58.015625 40.1875 58.015625 27.296875 
Q 58.015625 14.40625 51.78125 6.484375 
Q 45.5625 -1.421875 35.59375 -1.421875 
Q 29.59375 -1.421875 25.265625 0.953125 
Q 20.953125 3.328125 18.109375 8.203125 
L 18.109375 0 
L 9.078125 0 
L 9.078125 75.984375 
L 18.109375 75.984375 
z
" id="DejaVuSans-98"/>
     <path d="M 11.71875 12.40625 
L 22.015625 12.40625 
L 22.015625 4 
L 14.015625 -11.625 
L 7.71875 -11.625 
L 11.71875 4 
z
" id="DejaVuSans-44"/>
    </defs>
    <g style="fill:#ffffff;" transform="translate(98.976973 71.828663)scale(0.085 -0.085)">
     <use xlink:href="#DejaVuSans-84"/>
     <use x="44.083984" xlink:href="#DejaVuSans-111"/>
     <use x="105.265625" xlink:href="#DejaVuSans-112"/>
     <use x="168.742188" xlink:href="#DejaVuSans-32"/>
     <use x="200.529297" xlink:href="#DejaVuSans-84"/>
     <use x="261.613281" xlink:href="#DejaVuSans-104"/>
     <use x="324.992188" xlink:href="#DejaVuSans-114"/>
     <use x="363.855469" xlink:href="#DejaVuSans-101"/>
     <use x="425.378906" xlink:href="#DejaVuSans-101"/>
     <use x="486.902344" xlink:href="#DejaVuSans-58"/>
     <use x="520.59375" xlink:href="#DejaVuSans-32"/>
     <use x="552.380859" xlink:href="#DejaVuSans-32"/>
     <use x="584.167969" xlink:href="#DejaVuSans-84"/>
     <use x="628.751953" xlink:href="#DejaVuSans-97"/>
     <use x="690.03125" xlink:href="#DejaVuSans-109"/>
     <use x="787.443359" xlink:href="#DejaVuSans-112"/>
     <use x="850.919922" xlink:href="#DejaVuSans-97"/>
     <use x="912.199219" xlink:href="#DejaVuSans-32"/>
     <use x="943.986328" xlink:href="#DejaVuSans-66"/>
     <use x="1012.589844" xlink:href="#DejaVuSans-97"/>
     <use x="1073.869141" xlink:href="#DejaVuSans-121"/>
     <use x="1133.048828" xlink:href="#DejaVuSans-32"/>
     <use x="1164.835938" xlink:href="#DejaVuSans-66"/>
     <use x="1233.439453" xlink:href="#DejaVuSans-117"/>
     <use x="1296.818359" xlink:href="#DejaVuSans-99"/>
     <use x="1351.798828" xlink:href="#DejaVuSans-99"/>
     <use x="1406.779297" xlink:href="#DejaVuSans-97"/>
     <use x="1468.058594" xlink:href="#DejaVuSans-110"/>
     <use x="1531.4375" xlink:href="#DejaVuSans-101"/>
     <use x="1592.960938" xlink:href="#DejaVuSans-101"/>
     <use x="1654.484375" xlink:href="#DejaVuSans-114"/>
     <use x="1695.597656" xlink:href="#DejaVuSans-115"/>
     <use x="1747.697266" xlink:href="#DejaVuSans-32"/>
     <use x="1779.484375" xlink:href="#DejaVuSans-97"/>
     <use x="1840.763672" xlink:href="#DejaVuSans-110"/>
     <use x="1904.142578" xlink:href="#DejaVuSans-100"/>
     <use x="1967.619141" xlink:href="#DejaVuSans-32"/>
     <use x="1999.40625" xlink:href="#DejaVuSans-80"/>
     <use x="2057.458984" xlink:href="#DejaVuSans-105"/>
     <use x="2085.242188" xlink:href="#DejaVuSans-116"/>
     <use x="2124.451172" xlink:href="#DejaVuSans-116"/>
     <use x="2163.660156" xlink:href="#DejaVuSans-115"/>
     <use x="2215.759766" xlink:href="#DejaVuSans-98"/>
     <use x="2279.236328" xlink:href="#DejaVuSans-117"/>
     <use x="2342.615234" xlink:href="#DejaVuSans-114"/>
     <use x="2381.978516" xlink:href="#DejaVuSans-103"/>
     <use x="2445.455078" xlink:href="#DejaVuSans-32"/>
     <use x="2477.242188" xlink:href="#DejaVuSans-83"/>
     <use x="2540.71875" xlink:href="#DejaVuSans-116"/>
     <use x="2579.927734" xlink:href="#DejaVuSans-101"/>
     <use x="2641.451172" xlink:href="#DejaVuSans-101"/>
     <use x="2702.974609" xlink:href="#DejaVuSans-108"/>
     <use x="2730.757812" xlink:href="#DejaVuSans-101"/>
     <use x="2792.28125" xlink:href="#DejaVuSans-114"/>
     <use x="2833.394531" xlink:href="#DejaVuSans-115"/>
     <use x="2885.494141" xlink:href="#DejaVuSans-32"/>
     <use x="2917.28125" xlink:href="#DejaVuSans-97"/>
     <use x="2978.560547" xlink:href="#DejaVuSans-98"/>
     <use x="3042.037109" xlink:href="#DejaVuSans-115"/>
     <use x="3094.136719" xlink:href="#DejaVuSans-111"/>
     <use x="3155.318359" xlink:href="#DejaVuSans-108"/>
     <use x="3183.101562" xlink:href="#DejaVuSans-117"/>
     <use x="3246.480469" xlink:href="#DejaVuSans-116"/>
     <use x="3285.689453" xlink:href="#DejaVuSans-101"/>
     <use x="3347.212891" xlink:href="#DejaVuSans-108"/>
     <use x="3374.996094" xlink:href="#DejaVuSans-121"/>
     <use x="3434.175781" xlink:href="#DejaVuSans-32"/>
     <use x="3465.962891" xlink:href="#DejaVuSans-100"/>
     <use x="3529.439453" xlink:href="#DejaVuSans-111"/>
     <use x="3590.621094" xlink:href="#DejaVuSans-109"/>
     <use x="3688.033203" xlink:href="#DejaVuSans-105"/>
     <use x="3715.816406" xlink:href="#DejaVuSans-110"/>
     <use x="3779.195312" xlink:href="#DejaVuSans-97"/>
     <use x="3840.474609" xlink:href="#DejaVuSans-116"/>
     <use x="3879.683594" xlink:href="#DejaVuSans-105"/>
     <use x="3907.466797" xlink:href="#DejaVuSans-110"/>
     <use x="3970.845703" xlink:href="#DejaVuSans-103"/>
     <use x="4034.322266" xlink:href="#DejaVuSans-32"/>
     <use x="4066.109375" xlink:href="#DejaVuSans-116"/>
     <use x="4105.318359" xlink:href="#DejaVuSans-104"/>
     <use x="4168.697266" xlink:href="#DejaVuSans-101"/>
     <use x="4230.220703" xlink:href="#DejaVuSans-32"/>
     <use x="4262.007812" xlink:href="#DejaVuSans-112"/>
     <use x="4325.484375" xlink:href="#DejaVuSans-97"/>
     <use x="4386.763672" xlink:href="#DejaVuSans-115"/>
     <use x="4438.863281" xlink:href="#DejaVuSans-115"/>
     <use x="4490.962891" xlink:href="#DejaVuSans-105"/>
     <use x="4518.746094" xlink:href="#DejaVuSans-110"/>
     <use x="4582.125" xlink:href="#DejaVuSans-103"/>
     <use x="4645.601562" xlink:href="#DejaVuSans-32"/>
     <use x="4677.388672" xlink:href="#DejaVuSans-103"/>
     <use x="4740.865234" xlink:href="#DejaVuSans-97"/>
     <use x="4802.144531" xlink:href="#DejaVuSans-109"/>
     <use x="4899.556641" xlink:href="#DejaVuSans-101"/>
     <use x="4961.080078" xlink:href="#DejaVuSans-44"/>
     <use x="4992.867188" xlink:href="#DejaVuSans-32"/>
    </g>
    <!-- with Kansas City Chiefs closely trailing behind... -->
    <defs>
     <path d="M 4.203125 54.6875 
L 13.1875 54.6875 
L 24.421875 12.015625 
L 35.59375 54.6875 
L 46.1875 54.6875 
L 57.421875 12.015625 
L 68.609375 54.6875 
L 77.59375 54.6875 
L 63.28125 0 
L 52.6875 0 
L 40.921875 44.828125 
L 29.109375 0 
L 18.5 0 
z
" id="DejaVuSans-119"/>
     <path d="M 10.6875 12.40625 
L 21 12.40625 
L 21 0 
L 10.6875 0 
z
" id="DejaVuSans-46"/>
    </defs>
    <g style="fill:#ffffff;" transform="translate(98.976973 81.346804)scale(0.085 -0.085)">
     <use xlink:href="#DejaVuSans-119"/>
     <use x="81.787109" xlink:href="#DejaVuSans-105"/>
     <use x="109.570312" xlink:href="#DejaVuSans-116"/>
     <use x="148.779297" xlink:href="#DejaVuSans-104"/>
     <use x="212.158203" xlink:href="#DejaVuSans-32"/>
     <use x="243.945312" xlink:href="#DejaVuSans-75"/>
     <use x="307.771484" xlink:href="#DejaVuSans-97"/>
     <use x="369.050781" xlink:href="#DejaVuSans-110"/>
     <use x="432.429688" xlink:href="#DejaVuSans-115"/>
     <use x="484.529297" xlink:href="#DejaVuSans-97"/>
     <use x="545.808594" xlink:href="#DejaVuSans-115"/>
     <use x="597.908203" xlink:href="#DejaVuSans-32"/>
     <use x="629.695312" xlink:href="#DejaVuSans-67"/>
     <use x="699.519531" xlink:href="#DejaVuSans-105"/>
     <use x="727.302734" xlink:href="#DejaVuSans-116"/>
     <use x="766.511719" xlink:href="#DejaVuSans-121"/>
     <use x="825.691406" xlink:href="#DejaVuSans-32"/>
     <use x="857.478516" xlink:href="#DejaVuSans-67"/>
     <use x="927.302734" xlink:href="#DejaVuSans-104"/>
     <use x="990.681641" xlink:href="#DejaVuSans-105"/>
     <use x="1018.464844" xlink:href="#DejaVuSans-101"/>
     <use x="1079.988281" xlink:href="#DejaVuSans-102"/>
     <use x="1115.193359" xlink:href="#DejaVuSans-115"/>
     <use x="1167.292969" xlink:href="#DejaVuSans-32"/>
     <use x="1199.080078" xlink:href="#DejaVuSans-99"/>
     <use x="1254.060547" xlink:href="#DejaVuSans-108"/>
     <use x="1281.84375" xlink:href="#DejaVuSans-111"/>
     <use x="1343.025391" xlink:href="#DejaVuSans-115"/>
     <use x="1395.125" xlink:href="#DejaVuSans-101"/>
     <use x="1456.648438" xlink:href="#DejaVuSans-108"/>
     <use x="1484.431641" xlink:href="#DejaVuSans-121"/>
     <use x="1543.611328" xlink:href="#DejaVuSans-32"/>
     <use x="1575.398438" xlink:href="#DejaVuSans-116"/>
     <use x="1614.607422" xlink:href="#DejaVuSans-114"/>
     <use x="1655.720703" xlink:href="#DejaVuSans-97"/>
     <use x="1717" xlink:href="#DejaVuSans-105"/>
     <use x="1744.783203" xlink:href="#DejaVuSans-108"/>
     <use x="1772.566406" xlink:href="#DejaVuSans-105"/>
     <use x="1800.349609" xlink:href="#DejaVuSans-110"/>
     <use x="1863.728516" xlink:href="#DejaVuSans-103"/>
     <use x="1927.205078" xlink:href="#DejaVuSans-32"/>
     <use x="1958.992188" xlink:href="#DejaVuSans-98"/>
     <use x="2022.46875" xlink:href="#DejaVuSans-101"/>
     <use x="2083.992188" xlink:href="#DejaVuSans-104"/>
     <use x="2147.371094" xlink:href="#DejaVuSans-105"/>
     <use x="2175.154297" xlink:href="#DejaVuSans-110"/>
     <use x="2238.533203" xlink:href="#DejaVuSans-100"/>
     <use x="2302.009766" xlink:href="#DejaVuSans-46"/>
     <use x="2333.796875" xlink:href="#DejaVuSans-46"/>
     <use x="2365.583984" xlink:href="#DejaVuSans-46"/>
    </g>
   </g>
   <g id="text_41">
    <!-- 5,177 -->
    <defs>
     <path d="M 8.203125 72.90625 
L 55.078125 72.90625 
L 55.078125 68.703125 
L 28.609375 0 
L 18.3125 0 
L 43.21875 64.59375 
L 8.203125 64.59375 
z
" id="DejaVuSans-55"/>
    </defs>
    <g style="fill:#ffa500;" transform="translate(571.21976 101.576375)scale(0.085 -0.085)">
     <use xlink:href="#DejaVuSans-53"/>
     <use x="63.623047" xlink:href="#DejaVuSans-44"/>
     <use x="95.410156" xlink:href="#DejaVuSans-49"/>
     <use x="159.033203" xlink:href="#DejaVuSans-55"/>
     <use x="222.65625" xlink:href="#DejaVuSans-55"/>
    </g>
   </g>
   <g id="text_42">
    <!-- 5,043 -->
    <g style="fill:#ffa500;" transform="translate(571.21976 116.927894)scale(0.085 -0.085)">
     <use xlink:href="#DejaVuSans-53"/>
     <use x="63.623047" xlink:href="#DejaVuSans-44"/>
     <use x="95.410156" xlink:href="#DejaVuSans-48"/>
     <use x="159.033203" xlink:href="#DejaVuSans-52"/>
     <use x="222.65625" xlink:href="#DejaVuSans-51"/>
    </g>
   </g>
   <g id="text_43">
    <!-- 4,740 -->
    <g style="fill:#ffa500;" transform="translate(571.21976 130.270804)scale(0.085 -0.085)">
     <use xlink:href="#DejaVuSans-52"/>
     <use x="63.623047" xlink:href="#DejaVuSans-44"/>
     <use x="95.410156" xlink:href="#DejaVuSans-55"/>
     <use x="159.033203" xlink:href="#DejaVuSans-52"/>
     <use x="222.65625" xlink:href="#DejaVuSans-48"/>
    </g>
   </g>
   <g id="text_44">
    <!--  -->
    <g style="fill:#ffffff;" transform="translate(81 44.88525)scale(0.12 -0.12)"/>
    <!-- Total Passing Yards per Team  -->
    <g style="fill:#ffffff;" transform="translate(81 58.322625)scale(0.12 -0.12)">
     <use xlink:href="#DejaVuSans-84"/>
     <use x="44.083984" xlink:href="#DejaVuSans-111"/>
     <use x="105.265625" xlink:href="#DejaVuSans-116"/>
     <use x="144.474609" xlink:href="#DejaVuSans-97"/>
     <use x="205.753906" xlink:href="#DejaVuSans-108"/>
     <use x="233.537109" xlink:href="#DejaVuSans-32"/>
     <use x="265.324219" xlink:href="#DejaVuSans-80"/>
     <use x="321.126953" xlink:href="#DejaVuSans-97"/>
     <use x="382.40625" xlink:href="#DejaVuSans-115"/>
     <use x="434.505859" xlink:href="#DejaVuSans-115"/>
     <use x="486.605469" xlink:href="#DejaVuSans-105"/>
     <use x="514.388672" xlink:href="#DejaVuSans-110"/>
     <use x="577.767578" xlink:href="#DejaVuSans-103"/>
     <use x="641.244141" xlink:href="#DejaVuSans-32"/>
     <use x="673.03125" xlink:href="#DejaVuSans-89"/>
     <use x="720.365234" xlink:href="#DejaVuSans-97"/>
     <use x="781.644531" xlink:href="#DejaVuSans-114"/>
     <use x="821.007812" xlink:href="#DejaVuSans-100"/>
     <use x="884.484375" xlink:href="#DejaVuSans-115"/>
     <use x="936.583984" xlink:href="#DejaVuSans-32"/>
     <use x="968.371094" xlink:href="#DejaVuSans-112"/>
     <use x="1031.847656" xlink:href="#DejaVuSans-101"/>
     <use x="1093.371094" xlink:href="#DejaVuSans-114"/>
     <use x="1134.484375" xlink:href="#DejaVuSans-32"/>
     <use x="1166.271484" xlink:href="#DejaVuSans-84"/>
     <use x="1210.355469" xlink:href="#DejaVuSans-101"/>
     <use x="1271.878906" xlink:href="#DejaVuSans-97"/>
     <use x="1333.158203" xlink:href="#DejaVuSans-109"/>
     <use x="1430.570312" xlink:href="#DejaVuSans-32"/>
    </g>
    <!--  -->
    <g style="fill:#ffffff;" transform="translate(81 71.76)scale(0.12 -0.12)"/>
   </g>
  </g>
 </g>
 <defs>
  <clipPath id="p894d24ab4a">
   <rect height="489.24" width="502.2" x="81" y="77.76"/>
  </clipPath>
 </defs>
</svg>
