<svg version="1.1" xmlns="http://www.w3.org/2000/svg" xmlns:xlink="http://www.w3.org/1999/xlink" width="800" height="600"><defs><clipPath id="sgDdhPPygDQU"><path fill="none" stroke="none" d="M 34.5 29.5 L 795.5 29.5 L 795.5 573.5 L 34.5 573.5 L 34.5 29.5"/></clipPath><clipPath id="RZGBNVENRvSU"><path fill="none" stroke="none" d="M 34.5 29.5 L 795.5 29.5 L 795.5 573.5 L 34.5 573.5 L 34.5 29.5"/></clipPath><clipPath id="wzlZmpTFiApb"><path fill="none" stroke="none" d="M 34.5 29.5 L 795.5 29.5 L 795.5 573.5 L 34.5 573.5 L 34.5 29.5"/></clipPath><clipPath id="VnsXTGypfizM"><path fill="none" stroke="none" d="M 34.5 29.5 L 795.5 29.5 L 795.5 573.5 L 34.5 573.5 L 34.5 29.5"/></clipPath><clipPath id="fnudwnVUBRag"><path fill="none" stroke="none" d="M 34.5 29.5 L 795.5 29.5 L 795.5 573.5 L 34.5 573.5 L 34.5 29.5"/></clipPath><clipPath id="mPeqlDTIyySR"><path fill="none" stroke="none" d="M 34.5 29.5 L 795.5 29.5 L 795.5 573.5 L 34.5 573.5 L 34.5 29.5"/></clipPath><clipPath id="TaxUTQNeSmeZ"><path fill="none" stroke="none" d="M 34.5 29.5 L 795.5 29.5 L 795.5 573.5 L 34.5 573.5 L 34.5 29.5"/></clipPath><clipPath id="yKbHhSIlpuTw"><path fill="none" stroke="none" d="M 34.5 29.5 L 795.5 29.5 L 795.5 573.5 L 34.5 573.5 L 34.5 29.5"/></clipPath><clipPath id="hLQADvVXvCrm"><path fill="none" stroke="none" d="M 34.5 29.5 L 795.5 29.5 L 795.5 573.5 L 34.5 573.5 L 34.5 29.5"/></clipPath></defs><path fill="rgb(255,255,255)" stroke="none" paint-order="stroke" d="M 0.5 0.5 L 800.5 0.5 L 800.5 600.5 L 0.5 600.5 L 0.5 0.5" fill-opacity="1"/><rect fill="#FFFFFF" stroke="none" x="34" y="29" width="761" height="544" transform="matrix(1, 0, 0, 1, 0.5, 0.5)"/><path fill="rgb(239,239,239)" stroke="none" paint-order="stroke" d="M 34.5 29.5 L 795.5 29.5 L 795.5 573.5 L 34.5 573.5 L 34.5 29.5" fill-opacity="1"/><path fill="none" stroke="rgb(229,229,229)" paint-order="fill" d="M 34.5 29.5 L 795.5 29.5 L 795.5 573.5 L 34.5 573.5 L 34.5 29.5" stroke-opacity="1" stroke-linejoin="bevel" stroke-miterlimit="10" stroke-dasharray=""/><path fill="none" stroke="rgb(255,255,255)" paint-order="fill" d="M 34.5 571.5 L 795.5 571.5 M 34.5 443.5 L 795.5 443.5 M 34.5 315.5 L 795.5 315.5 M 34.5 187.5 L 795.5 187.5 M 34.5 59.5 L 795.5 59.5" stroke-opacity="1" stroke-linejoin="bevel" stroke-miterlimit="10" stroke-width="2" stroke-dasharray="" clip-path="url(#RZGBNVENRvSU)"/><path fill="none" stroke="none"/><path fill="none" stroke="rgb(0,0,0)" paint-order="fill" d="M 52.619049072265625 405.2814025878906 L 52.619049072265625 443.7165832519531" stroke-opacity="1" stroke-linejoin="bevel" stroke-miterlimit="10" stroke-dasharray="" clip-path="url(#wzlZmpTFiApb)"/><path fill="none" stroke="rgb(0,0,0)" paint-order="fill" d="M 88.85713958740234 384.7826232910156 L 88.85713958740234 423.2178039550781" stroke-opacity="1" stroke-linejoin="bevel" stroke-miterlimit="10" stroke-dasharray="" clip-path="url(#wzlZmpTFiApb)"/><path fill="none" stroke="rgb(0,0,0)" paint-order="fill" d="M 125.0952377319336 161.85858154296875 L 125.0952377319336 225.91722106933594" stroke-opacity="1" stroke-linejoin="bevel" stroke-miterlimit="10" stroke-dasharray="" clip-path="url(#wzlZmpTFiApb)"/><path fill="none" stroke="rgb(0,0,0)" paint-order="fill" d="M 161.3333282470703 54.24008560180664 L 161.3333282470703 111.25226593017578" stroke-opacity="1" stroke-linejoin="bevel" stroke-miterlimit="10" stroke-dasharray="" clip-path="url(#wzlZmpTFiApb)"/><path fill="none" stroke="rgb(0,0,0)" paint-order="fill" d="M 197.57142639160156 294.4599609375 L 197.57142639160156 330.973388671875" stroke-opacity="1" stroke-linejoin="bevel" stroke-miterlimit="10" stroke-dasharray="" clip-path="url(#wzlZmpTFiApb)"/><path fill="none" stroke="rgb(0,0,0)" paint-order="fill" d="M 233.8095245361328 374.5332336425781 L 233.8095245361328 415.53076171875" stroke-opacity="1" stroke-linejoin="bevel" stroke-miterlimit="10" stroke-dasharray="" clip-path="url(#wzlZmpTFiApb)"/><path fill="none" stroke="rgb(0,0,0)" paint-order="fill" d="M 270.047607421875 341.2227478027344 L 270.047607421875 392.46966552734375" stroke-opacity="1" stroke-linejoin="bevel" stroke-miterlimit="10" stroke-dasharray="" clip-path="url(#wzlZmpTFiApb)"/><path fill="none" stroke="rgb(0,0,0)" paint-order="fill" d="M 306.28570556640625 297.66290283203125 L 306.28570556640625 336.0980529785156" stroke-opacity="1" stroke-linejoin="bevel" stroke-miterlimit="10" stroke-dasharray="" clip-path="url(#wzlZmpTFiApb)"/><path fill="none" stroke="rgb(0,0,0)" paint-order="fill" d="M 342.5238037109375 405.2814025878906 L 342.5238037109375 418.0931091308594" stroke-opacity="1" stroke-linejoin="bevel" stroke-miterlimit="10" stroke-dasharray="" clip-path="url(#wzlZmpTFiApb)"/><path fill="none" stroke="rgb(0,0,0)" paint-order="fill" d="M 378.76190185546875 238.72894287109375 L 378.76190185546875 315.59930419921875" stroke-opacity="1" stroke-linejoin="bevel" stroke-miterlimit="10" stroke-dasharray="" clip-path="url(#wzlZmpTFiApb)"/><path fill="none" stroke="rgb(0,0,0)" paint-order="fill" d="M 415 289.9758605957031 L 415 312.3963623046875" stroke-opacity="1" stroke-linejoin="bevel" stroke-miterlimit="10" stroke-dasharray="" clip-path="url(#wzlZmpTFiApb)"/><path fill="none" stroke="rgb(0,0,0)" paint-order="fill" d="M 451.23809814453125 289.9758605957031 L 451.23809814453125 328.4110412597656" stroke-opacity="1" stroke-linejoin="bevel" stroke-miterlimit="10" stroke-dasharray="" clip-path="url(#wzlZmpTFiApb)"/><path fill="none" stroke="rgb(0,0,0)" paint-order="fill" d="M 487.4761962890625 141.3598175048828 L 487.4761962890625 141.3598175048828" stroke-opacity="1" stroke-linejoin="bevel" stroke-miterlimit="10" stroke-dasharray="" clip-path="url(#wzlZmpTFiApb)"/><path fill="none" stroke="rgb(0,0,0)" paint-order="fill" d="M 523.7142944335938 225.91722106933594 L 523.7142944335938 302.7875671386719" stroke-opacity="1" stroke-linejoin="bevel" stroke-miterlimit="10" stroke-dasharray="" clip-path="url(#wzlZmpTFiApb)"/><path fill="none" stroke="rgb(0,0,0)" paint-order="fill" d="M 559.952392578125 338.660400390625 L 559.952392578125 387.344970703125" stroke-opacity="1" stroke-linejoin="bevel" stroke-miterlimit="10" stroke-dasharray="" clip-path="url(#wzlZmpTFiApb)"/><path fill="none" stroke="rgb(0,0,0)" paint-order="fill" d="M 596.1904907226562 328.4110412597656 L 596.1904907226562 363.002685546875" stroke-opacity="1" stroke-linejoin="bevel" stroke-miterlimit="10" stroke-dasharray="" clip-path="url(#wzlZmpTFiApb)"/><path fill="none" stroke="rgb(0,0,0)" paint-order="fill" d="M 632.4285888671875 305.9905090332031 L 632.4285888671875 380.9391174316406" stroke-opacity="1" stroke-linejoin="bevel" stroke-miterlimit="10" stroke-dasharray="" clip-path="url(#wzlZmpTFiApb)"/><path fill="none" stroke="rgb(0,0,0)" paint-order="fill" d="M 668.6666870117188 400.1567077636719 L 668.6666870117188 423.2178039550781" stroke-opacity="1" stroke-linejoin="bevel" stroke-miterlimit="10" stroke-dasharray="" clip-path="url(#wzlZmpTFiApb)"/><path fill="none" stroke="rgb(0,0,0)" paint-order="fill" d="M 704.90478515625 392.46966552734375 L 704.90478515625 408.48431396484375" stroke-opacity="1" stroke-linejoin="bevel" stroke-miterlimit="10" stroke-dasharray="" clip-path="url(#wzlZmpTFiApb)"/><path fill="none" stroke="rgb(0,0,0)" paint-order="fill" d="M 741.1428833007812 243.8536376953125 L 741.1428833007812 289.9758605957031" stroke-opacity="1" stroke-linejoin="bevel" stroke-miterlimit="10" stroke-dasharray="" clip-path="url(#wzlZmpTFiApb)"/><path fill="none" stroke="rgb(0,0,0)" paint-order="fill" d="M 777.3809814453125 334.81689453125 L 777.3809814453125 415.53076171875" stroke-opacity="1" stroke-linejoin="bevel" stroke-miterlimit="10" stroke-dasharray="" clip-path="url(#wzlZmpTFiApb)"/><path fill="none" stroke="none"/><path fill="none" stroke="rgb(0,0,0)" paint-order="fill" d="M 52.619049072265625 507.77520751953125 L 52.619049072265625 469.34002685546875" stroke-opacity="1" stroke-linejoin="bevel" stroke-miterlimit="10" stroke-dasharray="" clip-path="url(#VnsXTGypfizM)"/><path fill="none" stroke="rgb(0,0,0)" paint-order="fill" d="M 88.85713958740234 487.27642822265625 L 88.85713958740234 448.84124755859375" stroke-opacity="1" stroke-linejoin="bevel" stroke-miterlimit="10" stroke-dasharray="" clip-path="url(#VnsXTGypfizM)"/><path fill="none" stroke="rgb(0,0,0)" paint-order="fill" d="M 125.0952377319336 354.03448486328125 L 125.0952377319336 297.66290283203125" stroke-opacity="1" stroke-linejoin="bevel" stroke-miterlimit="10" stroke-dasharray="" clip-path="url(#VnsXTGypfizM)"/><path fill="none" stroke="rgb(0,0,0)" paint-order="fill" d="M 161.3333282470703 246.41598510742188 L 161.3333282470703 200.29376220703125" stroke-opacity="1" stroke-linejoin="bevel" stroke-miterlimit="10" stroke-dasharray="" clip-path="url(#VnsXTGypfizM)"/><path fill="none" stroke="rgb(0,0,0)" paint-order="fill" d="M 197.57142639160156 359.1591796875 L 197.57142639160156 355.3156433105469" stroke-opacity="1" stroke-linejoin="bevel" stroke-miterlimit="10" stroke-dasharray="" clip-path="url(#VnsXTGypfizM)"/><path fill="none" stroke="rgb(0,0,0)" paint-order="fill" d="M 233.8095245361328 482.1517639160156 L 233.8095245361328 446.2789001464844" stroke-opacity="1" stroke-linejoin="bevel" stroke-miterlimit="10" stroke-dasharray="" clip-path="url(#VnsXTGypfizM)"/><path fill="none" stroke="rgb(0,0,0)" paint-order="fill" d="M 270.047607421875 443.7165832519531 L 270.047607421875 430.90484619140625" stroke-opacity="1" stroke-linejoin="bevel" stroke-miterlimit="10" stroke-dasharray="" clip-path="url(#VnsXTGypfizM)"/><path fill="none" stroke="rgb(0,0,0)" paint-order="fill" d="M 306.28570556640625 412.9684143066406 L 306.28570556640625 366.8462219238281" stroke-opacity="1" stroke-linejoin="bevel" stroke-miterlimit="10" stroke-dasharray="" clip-path="url(#VnsXTGypfizM)"/><path fill="none" stroke="rgb(0,0,0)" paint-order="fill" d="M 342.5238037109375 475.7458801269531 L 342.5238037109375 441.15423583984375" stroke-opacity="1" stroke-linejoin="bevel" stroke-miterlimit="10" stroke-dasharray="" clip-path="url(#VnsXTGypfizM)"/><path fill="none" stroke="rgb(0,0,0)" paint-order="fill" d="M 378.76190185546875 407.84375 L 378.76190185546875 366.8462219238281" stroke-opacity="1" stroke-linejoin="bevel" stroke-miterlimit="10" stroke-dasharray="" clip-path="url(#VnsXTGypfizM)"/><path fill="none" stroke="rgb(0,0,0)" paint-order="fill" d="M 415 359.1591796875 L 415 354.03448486328125" stroke-opacity="1" stroke-linejoin="bevel" stroke-miterlimit="10" stroke-dasharray="" clip-path="url(#VnsXTGypfizM)"/><path fill="none" stroke="rgb(0,0,0)" paint-order="fill" d="M 451.23809814453125 374.5332336425781 L 451.23809814453125 354.03448486328125" stroke-opacity="1" stroke-linejoin="bevel" stroke-miterlimit="10" stroke-dasharray="" clip-path="url(#VnsXTGypfizM)"/><path fill="none" stroke="rgb(0,0,0)" paint-order="fill" d="M 487.4761962890625 161.85858154296875 L 487.4761962890625 151.6092071533203" stroke-opacity="1" stroke-linejoin="bevel" stroke-miterlimit="10" stroke-dasharray="" clip-path="url(#VnsXTGypfizM)"/><path fill="none" stroke="rgb(0,0,0)" paint-order="fill" d="M 523.7142944335938 405.2814025878906 L 523.7142944335938 354.03448486328125" stroke-opacity="1" stroke-linejoin="bevel" stroke-miterlimit="10" stroke-dasharray="" clip-path="url(#VnsXTGypfizM)"/><path fill="none" stroke="rgb(0,0,0)" paint-order="fill" d="M 559.952392578125 456.5282897949219 L 559.952392578125 423.2178039550781" stroke-opacity="1" stroke-linejoin="bevel" stroke-miterlimit="10" stroke-dasharray="" clip-path="url(#VnsXTGypfizM)"/><path fill="none" stroke="rgb(0,0,0)" paint-order="fill" d="M 596.1904907226562 438.5918884277344 L 596.1904907226562 405.2814025878906" stroke-opacity="1" stroke-linejoin="bevel" stroke-miterlimit="10" stroke-dasharray="" clip-path="url(#VnsXTGypfizM)"/><path fill="none" stroke="rgb(0,0,0)" paint-order="fill" d="M 632.4285888671875 482.1517639160156 L 632.4285888671875 430.90484619140625" stroke-opacity="1" stroke-linejoin="bevel" stroke-miterlimit="10" stroke-dasharray="" clip-path="url(#VnsXTGypfizM)"/><path fill="none" stroke="rgb(0,0,0)" paint-order="fill" d="M 668.6666870117188 474.4647216796875 L 668.6666870117188 443.7165832519531" stroke-opacity="1" stroke-linejoin="bevel" stroke-miterlimit="10" stroke-dasharray="" clip-path="url(#VnsXTGypfizM)"/><path fill="none" stroke="rgb(0,0,0)" paint-order="fill" d="M 704.90478515625 479.58941650390625 L 704.90478515625 438.5918884277344" stroke-opacity="1" stroke-linejoin="bevel" stroke-miterlimit="10" stroke-dasharray="" clip-path="url(#VnsXTGypfizM)"/><path fill="none" stroke="rgb(0,0,0)" paint-order="fill" d="M 741.1428833007812 366.8462219238281 L 741.1428833007812 320.7239990234375" stroke-opacity="1" stroke-linejoin="bevel" stroke-miterlimit="10" stroke-dasharray="" clip-path="url(#VnsXTGypfizM)"/><path fill="none" stroke="rgb(0,0,0)" paint-order="fill" d="M 777.3809814453125 546.2103881835938 L 777.3809814453125 469.34002685546875" stroke-opacity="1" stroke-linejoin="bevel" stroke-miterlimit="10" stroke-dasharray="" clip-path="url(#VnsXTGypfizM)"/><path fill="none" stroke="none"/><path fill="rgb(253,174,97)" stroke="none" paint-order="stroke" d="M 39.93571472167969 461.6529846191406 L 65.30238342285156 461.6529846191406 L 65.30238342285156 443.7165832519531 L 39.93571472167969 443.7165832519531 L 39.93571472167969 461.6529846191406" fill-opacity="0.85" clip-path="url(#fnudwnVUBRag)"/><path fill="none" stroke="rgb(0,0,0)" paint-order="fill" d="M 39.93571472167969 461.6529846191406 L 65.30238342285156 461.6529846191406 L 65.30238342285156 443.7165832519531 L 39.93571472167969 443.7165832519531 L 39.93571472167969 461.6529846191406" stroke-opacity="1" stroke-linejoin="bevel" stroke-miterlimit="10" stroke-dasharray="" clip-path="url(#fnudwnVUBRag)"/><path fill="rgb(253,174,97)" stroke="none" paint-order="stroke" d="M 76.1738052368164 438.5918884277344 L 101.54047393798828 438.5918884277344 L 101.54047393798828 423.2178039550781 L 76.1738052368164 423.2178039550781 L 76.1738052368164 438.5918884277344" fill-opacity="0.85" clip-path="url(#fnudwnVUBRag)"/><path fill="none" stroke="rgb(0,0,0)" paint-order="fill" d="M 76.1738052368164 438.5918884277344 L 101.54047393798828 438.5918884277344 L 101.54047393798828 423.2178039550781 L 76.1738052368164 423.2178039550781 L 76.1738052368164 438.5918884277344" stroke-opacity="1" stroke-linejoin="bevel" stroke-miterlimit="10" stroke-dasharray="" clip-path="url(#fnudwnVUBRag)"/><path fill="rgb(253,174,97)" stroke="none" paint-order="stroke" d="M 112.41191101074219 277.16412353515625 L 137.778564453125 277.16412353515625 L 137.778564453125 225.91722106933594 L 112.41191101074219 225.91722106933594 L 112.41191101074219 277.16412353515625" fill-opacity="0.85" clip-path="url(#fnudwnVUBRag)"/><path fill="none" stroke="rgb(0,0,0)" paint-order="fill" d="M 112.41191101074219 277.16412353515625 L 137.778564453125 277.16412353515625 L 137.778564453125 225.91722106933594 L 112.41191101074219 225.91722106933594 L 112.41191101074219 277.16412353515625" stroke-opacity="1" stroke-linejoin="bevel" stroke-miterlimit="10" stroke-dasharray="" clip-path="url(#fnudwnVUBRag)"/><path fill="rgb(253,174,97)" stroke="none" paint-order="stroke" d="M 148.64999389648438 172.10797119140625 L 174.01666259765625 172.10797119140625 L 174.01666259765625 111.25226593017578 L 148.64999389648438 111.25226593017578 L 148.64999389648438 172.10797119140625" fill-opacity="0.85" clip-path="url(#fnudwnVUBRag)"/><path fill="none" stroke="rgb(0,0,0)" paint-order="fill" d="M 148.64999389648438 172.10797119140625 L 174.01666259765625 172.10797119140625 L 174.01666259765625 111.25226593017578 L 148.64999389648438 111.25226593017578 L 148.64999389648438 172.10797119140625" stroke-opacity="1" stroke-linejoin="bevel" stroke-miterlimit="10" stroke-dasharray="" clip-path="url(#fnudwnVUBRag)"/><path fill="rgb(253,174,97)" stroke="none" paint-order="stroke" d="M 184.88809204101562 341.2227478027344 L 210.2547607421875 341.2227478027344 L 210.2547607421875 330.973388671875 L 184.88809204101562 330.973388671875 L 184.88809204101562 341.2227478027344" fill-opacity="0.85" clip-path="url(#fnudwnVUBRag)"/><path fill="none" stroke="rgb(0,0,0)" paint-order="fill" d="M 184.88809204101562 341.2227478027344 L 210.2547607421875 341.2227478027344 L 210.2547607421875 330.973388671875 L 184.88809204101562 330.973388671875 L 184.88809204101562 341.2227478027344" stroke-opacity="1" stroke-linejoin="bevel" stroke-miterlimit="10" stroke-dasharray="" clip-path="url(#fnudwnVUBRag)"/><path fill="rgb(253,174,97)" stroke="none" paint-order="stroke" d="M 221.12619018554688 430.90484619140625 L 246.49285888671875 430.90484619140625 L 246.49285888671875 415.53076171875 L 221.12619018554688 415.53076171875 L 221.12619018554688 430.90484619140625" fill-opacity="0.85" clip-path="url(#fnudwnVUBRag)"/><path fill="none" stroke="rgb(0,0,0)" paint-order="fill" d="M 221.12619018554688 430.90484619140625 L 246.49285888671875 430.90484619140625 L 246.49285888671875 415.53076171875 L 221.12619018554688 415.53076171875 L 221.12619018554688 430.90484619140625" stroke-opacity="1" stroke-linejoin="bevel" stroke-miterlimit="10" stroke-dasharray="" clip-path="url(#fnudwnVUBRag)"/><path fill="rgb(253,174,97)" stroke="none" paint-order="stroke" d="M 257.3642578125 395.0320129394531 L 282.73095703125 395.0320129394531 L 282.73095703125 392.46966552734375 L 257.3642578125 392.46966552734375 L 257.3642578125 395.0320129394531" fill-opacity="0.85" clip-path="url(#fnudwnVUBRag)"/><path fill="none" stroke="rgb(0,0,0)" paint-order="fill" d="M 257.3642578125 395.0320129394531 L 282.73095703125 395.0320129394531 L 282.73095703125 392.46966552734375 L 257.3642578125 392.46966552734375 L 257.3642578125 395.0320129394531" stroke-opacity="1" stroke-linejoin="bevel" stroke-miterlimit="10" stroke-dasharray="" clip-path="url(#fnudwnVUBRag)"/><path fill="rgb(253,174,97)" stroke="none" paint-order="stroke" d="M 293.60235595703125 348.9097900390625 L 318.96905517578125 348.9097900390625 L 318.96905517578125 336.0980529785156 L 293.60235595703125 336.0980529785156 L 293.60235595703125 348.9097900390625" fill-opacity="0.85" clip-path="url(#fnudwnVUBRag)"/><path fill="none" stroke="rgb(0,0,0)" paint-order="fill" d="M 293.60235595703125 348.9097900390625 L 318.96905517578125 348.9097900390625 L 318.96905517578125 336.0980529785156 L 293.60235595703125 336.0980529785156 L 293.60235595703125 348.9097900390625" stroke-opacity="1" stroke-linejoin="bevel" stroke-miterlimit="10" stroke-dasharray="" clip-path="url(#fnudwnVUBRag)"/><path fill="rgb(253,174,97)" stroke="none" paint-order="stroke" d="M 329.8404541015625 425.7801513671875 L 355.2071533203125 425.7801513671875 L 355.2071533203125 418.0931091308594 L 329.8404541015625 418.0931091308594 L 329.8404541015625 425.7801513671875" fill-opacity="0.85" clip-path="url(#fnudwnVUBRag)"/><path fill="none" stroke="rgb(0,0,0)" paint-order="fill" d="M 329.8404541015625 425.7801513671875 L 355.2071533203125 425.7801513671875 L 355.2071533203125 418.0931091308594 L 329.8404541015625 418.0931091308594 L 329.8404541015625 425.7801513671875" stroke-opacity="1" stroke-linejoin="bevel" stroke-miterlimit="10" stroke-dasharray="" clip-path="url(#fnudwnVUBRag)"/><path fill="rgb(253,174,97)" stroke="none" paint-order="stroke" d="M 366.07855224609375 348.9097900390625 L 391.44525146484375 348.9097900390625 L 391.44525146484375 315.59930419921875 L 366.07855224609375 315.59930419921875 L 366.07855224609375 348.9097900390625" fill-opacity="0.85" clip-path="url(#fnudwnVUBRag)"/><path fill="none" stroke="rgb(0,0,0)" paint-order="fill" d="M 366.07855224609375 348.9097900390625 L 391.44525146484375 348.9097900390625 L 391.44525146484375 315.59930419921875 L 366.07855224609375 315.59930419921875 L 366.07855224609375 348.9097900390625" stroke-opacity="1" stroke-linejoin="bevel" stroke-miterlimit="10" stroke-dasharray="" clip-path="url(#fnudwnVUBRag)"/><path fill="rgb(253,174,97)" stroke="none" paint-order="stroke" d="M 402.316650390625 337.3792419433594 L 427.683349609375 337.3792419433594 L 427.683349609375 312.3963623046875 L 402.316650390625 312.3963623046875 L 402.316650390625 337.3792419433594" fill-opacity="0.85" clip-path="url(#fnudwnVUBRag)"/><path fill="none" stroke="rgb(0,0,0)" paint-order="fill" d="M 402.316650390625 337.3792419433594 L 427.683349609375 337.3792419433594 L 427.683349609375 312.3963623046875 L 402.316650390625 312.3963623046875 L 402.316650390625 337.3792419433594" stroke-opacity="1" stroke-linejoin="bevel" stroke-miterlimit="10" stroke-dasharray="" clip-path="url(#fnudwnVUBRag)"/><path fill="rgb(253,174,97)" stroke="none" paint-order="stroke" d="M 438.55474853515625 346.3474426269531 L 463.92144775390625 346.3474426269531 L 463.92144775390625 328.4110412597656 L 438.55474853515625 328.4110412597656 L 438.55474853515625 346.3474426269531" fill-opacity="0.85" clip-path="url(#fnudwnVUBRag)"/><path fill="none" stroke="rgb(0,0,0)" paint-order="fill" d="M 438.55474853515625 346.3474426269531 L 463.92144775390625 346.3474426269531 L 463.92144775390625 328.4110412597656 L 438.55474853515625 328.4110412597656 L 438.55474853515625 346.3474426269531" stroke-opacity="1" stroke-linejoin="bevel" stroke-miterlimit="10" stroke-dasharray="" clip-path="url(#fnudwnVUBRag)"/><path fill="rgb(253,174,97)" stroke="none" paint-order="stroke" d="M 474.7928466796875 149.04685974121094 L 500.1595458984375 149.04685974121094 L 500.1595458984375 141.3598175048828 L 474.7928466796875 141.3598175048828 L 474.7928466796875 149.04685974121094" fill-opacity="0.85" clip-path="url(#fnudwnVUBRag)"/><path fill="none" stroke="rgb(0,0,0)" paint-order="fill" d="M 474.7928466796875 149.04685974121094 L 500.1595458984375 149.04685974121094 L 500.1595458984375 141.3598175048828 L 474.7928466796875 141.3598175048828 L 474.7928466796875 149.04685974121094" stroke-opacity="1" stroke-linejoin="bevel" stroke-miterlimit="10" stroke-dasharray="" clip-path="url(#fnudwnVUBRag)"/><path fill="rgb(253,174,97)" stroke="none" paint-order="stroke" d="M 511.03094482421875 328.4110412597656 L 536.3976440429688 328.4110412597656 L 536.3976440429688 302.7875671386719 L 511.03094482421875 302.7875671386719 L 511.03094482421875 328.4110412597656" fill-opacity="0.85" clip-path="url(#fnudwnVUBRag)"/><path fill="none" stroke="rgb(0,0,0)" paint-order="fill" d="M 511.03094482421875 328.4110412597656 L 536.3976440429688 328.4110412597656 L 536.3976440429688 302.7875671386719 L 511.03094482421875 302.7875671386719 L 511.03094482421875 328.4110412597656" stroke-opacity="1" stroke-linejoin="bevel" stroke-miterlimit="10" stroke-dasharray="" clip-path="url(#fnudwnVUBRag)"/><path fill="rgb(253,174,97)" stroke="none" paint-order="stroke" d="M 547.26904296875 410.40606689453125 L 572.6357421875 410.40606689453125 L 572.6357421875 387.344970703125 L 547.26904296875 387.344970703125 L 547.26904296875 410.40606689453125" fill-opacity="0.85" clip-path="url(#fnudwnVUBRag)"/><path fill="none" stroke="rgb(0,0,0)" paint-order="fill" d="M 547.26904296875 410.40606689453125 L 572.6357421875 410.40606689453125 L 572.6357421875 387.344970703125 L 547.26904296875 387.344970703125 L 547.26904296875 410.40606689453125" stroke-opacity="1" stroke-linejoin="bevel" stroke-miterlimit="10" stroke-dasharray="" clip-path="url(#fnudwnVUBRag)"/><path fill="rgb(253,174,97)" stroke="none" paint-order="stroke" d="M 583.5071411132812 384.7826232910156 L 608.8738403320312 384.7826232910156 L 608.8738403320312 363.002685546875 L 583.5071411132812 363.002685546875 L 583.5071411132812 384.7826232910156" fill-opacity="0.85" clip-path="url(#fnudwnVUBRag)"/><path fill="none" stroke="rgb(0,0,0)" paint-order="fill" d="M 583.5071411132812 384.7826232910156 L 608.8738403320312 384.7826232910156 L 608.8738403320312 363.002685546875 L 583.5071411132812 363.002685546875 L 583.5071411132812 384.7826232910156" stroke-opacity="1" stroke-linejoin="bevel" stroke-miterlimit="10" stroke-dasharray="" clip-path="url(#fnudwnVUBRag)"/><path fill="rgb(253,174,97)" stroke="none" paint-order="stroke" d="M 619.7452392578125 405.2814025878906 L 645.1119384765625 405.2814025878906 L 645.1119384765625 380.9391174316406 L 619.7452392578125 380.9391174316406 L 619.7452392578125 405.2814025878906" fill-opacity="0.85" clip-path="url(#fnudwnVUBRag)"/><path fill="none" stroke="rgb(0,0,0)" paint-order="fill" d="M 619.7452392578125 405.2814025878906 L 645.1119384765625 405.2814025878906 L 645.1119384765625 380.9391174316406 L 619.7452392578125 380.9391174316406 L 619.7452392578125 405.2814025878906" stroke-opacity="1" stroke-linejoin="bevel" stroke-miterlimit="10" stroke-dasharray="" clip-path="url(#fnudwnVUBRag)"/><path fill="rgb(253,174,97)" stroke="none" paint-order="stroke" d="M 655.9833374023438 443.7165832519531 L 681.3500366210938 443.7165832519531 L 681.3500366210938 423.2178039550781 L 655.9833374023438 423.2178039550781 L 655.9833374023438 443.7165832519531" fill-opacity="0.85" clip-path="url(#fnudwnVUBRag)"/><path fill="none" stroke="rgb(0,0,0)" paint-order="fill" d="M 655.9833374023438 443.7165832519531 L 681.3500366210938 443.7165832519531 L 681.3500366210938 423.2178039550781 L 655.9833374023438 423.2178039550781 L 655.9833374023438 443.7165832519531" stroke-opacity="1" stroke-linejoin="bevel" stroke-miterlimit="10" stroke-dasharray="" clip-path="url(#fnudwnVUBRag)"/><path fill="rgb(253,174,97)" stroke="none" paint-order="stroke" d="M 692.221435546875 421.9366455078125 L 717.588134765625 421.9366455078125 L 717.588134765625 408.48431396484375 L 692.221435546875 408.48431396484375 L 692.221435546875 421.9366455078125" fill-opacity="0.85" clip-path="url(#fnudwnVUBRag)"/><path fill="none" stroke="rgb(0,0,0)" paint-order="fill" d="M 692.221435546875 421.9366455078125 L 717.588134765625 421.9366455078125 L 717.588134765625 408.48431396484375 L 692.221435546875 408.48431396484375 L 692.221435546875 421.9366455078125" stroke-opacity="1" stroke-linejoin="bevel" stroke-miterlimit="10" stroke-dasharray="" clip-path="url(#fnudwnVUBRag)"/><path fill="rgb(253,174,97)" stroke="none" paint-order="stroke" d="M 728.4595336914062 305.34991455078125 L 753.8262329101562 305.34991455078125 L 753.8262329101562 289.9758605957031 L 728.4595336914062 289.9758605957031 L 728.4595336914062 305.34991455078125" fill-opacity="0.85" clip-path="url(#fnudwnVUBRag)"/><path fill="none" stroke="rgb(0,0,0)" paint-order="fill" d="M 728.4595336914062 305.34991455078125 L 753.8262329101562 305.34991455078125 L 753.8262329101562 289.9758605957031 L 728.4595336914062 289.9758605957031 L 728.4595336914062 305.34991455078125" stroke-opacity="1" stroke-linejoin="bevel" stroke-miterlimit="10" stroke-dasharray="" clip-path="url(#fnudwnVUBRag)"/><path fill="rgb(253,174,97)" stroke="none" paint-order="stroke" d="M 764.6976318359375 441.15423583984375 L 790.0643310546875 441.15423583984375 L 790.0643310546875 415.53076171875 L 764.6976318359375 415.53076171875 L 764.6976318359375 441.15423583984375" fill-opacity="0.85" clip-path="url(#fnudwnVUBRag)"/><path fill="none" stroke="rgb(0,0,0)" paint-order="fill" d="M 764.6976318359375 441.15423583984375 L 790.0643310546875 441.15423583984375 L 790.0643310546875 415.53076171875 L 764.6976318359375 415.53076171875 L 764.6976318359375 441.15423583984375" stroke-opacity="1" stroke-linejoin="bevel" stroke-miterlimit="10" stroke-dasharray="" clip-path="url(#fnudwnVUBRag)"/><path fill="none" stroke="none"/><path fill="rgb(43,131,186)" stroke="none" paint-order="stroke" d="M 39.93571472167969 469.34002685546875 L 65.30238342285156 469.34002685546875 L 65.30238342285156 461.6529846191406 L 39.93571472167969 461.6529846191406 L 39.93571472167969 469.34002685546875" fill-opacity="0.75" clip-path="url(#mPeqlDTIyySR)"/><path fill="none" stroke="rgb(0,0,0)" paint-order="fill" d="M 39.93571472167969 469.34002685546875 L 65.30238342285156 469.34002685546875 L 65.30238342285156 461.6529846191406 L 39.93571472167969 461.6529846191406 L 39.93571472167969 469.34002685546875" stroke-opacity="1" stroke-linejoin="bevel" stroke-miterlimit="10" stroke-dasharray="" clip-path="url(#mPeqlDTIyySR)"/><path fill="rgb(43,131,186)" stroke="none" paint-order="stroke" d="M 76.1738052368164 448.84124755859375 L 101.54047393798828 448.84124755859375 L 101.54047393798828 438.5918884277344 L 76.1738052368164 438.5918884277344 L 76.1738052368164 448.84124755859375" fill-opacity="0.75" clip-path="url(#mPeqlDTIyySR)"/><path fill="none" stroke="rgb(0,0,0)" paint-order="fill" d="M 76.1738052368164 448.84124755859375 L 101.54047393798828 448.84124755859375 L 101.54047393798828 438.5918884277344 L 76.1738052368164 438.5918884277344 L 76.1738052368164 448.84124755859375" stroke-opacity="1" stroke-linejoin="bevel" stroke-miterlimit="10" stroke-dasharray="" clip-path="url(#mPeqlDTIyySR)"/><path fill="rgb(43,131,186)" stroke="none" paint-order="stroke" d="M 112.41191101074219 297.66290283203125 L 137.778564453125 297.66290283203125 L 137.778564453125 277.16412353515625 L 112.41191101074219 277.16412353515625 L 112.41191101074219 297.66290283203125" fill-opacity="0.75" clip-path="url(#mPeqlDTIyySR)"/><path fill="none" stroke="rgb(0,0,0)" paint-order="fill" d="M 112.41191101074219 297.66290283203125 L 137.778564453125 297.66290283203125 L 137.778564453125 277.16412353515625 L 112.41191101074219 277.16412353515625 L 112.41191101074219 297.66290283203125" stroke-opacity="1" stroke-linejoin="bevel" stroke-miterlimit="10" stroke-dasharray="" clip-path="url(#mPeqlDTIyySR)"/><path fill="rgb(43,131,186)" stroke="none" paint-order="stroke" d="M 148.64999389648438 200.29376220703125 L 174.01666259765625 200.29376220703125 L 174.01666259765625 172.10797119140625 L 148.64999389648438 172.10797119140625 L 148.64999389648438 200.29376220703125" fill-opacity="0.75" clip-path="url(#mPeqlDTIyySR)"/><path fill="none" stroke="rgb(0,0,0)" paint-order="fill" d="M 148.64999389648438 200.29376220703125 L 174.01666259765625 200.29376220703125 L 174.01666259765625 172.10797119140625 L 148.64999389648438 172.10797119140625 L 148.64999389648438 200.29376220703125" stroke-opacity="1" stroke-linejoin="bevel" stroke-miterlimit="10" stroke-dasharray="" clip-path="url(#mPeqlDTIyySR)"/><path fill="rgb(43,131,186)" stroke="none" paint-order="stroke" d="M 184.88809204101562 355.3156433105469 L 210.2547607421875 355.3156433105469 L 210.2547607421875 341.2227478027344 L 184.88809204101562 341.2227478027344 L 184.88809204101562 355.3156433105469" fill-opacity="0.75" clip-path="url(#mPeqlDTIyySR)"/><path fill="none" stroke="rgb(0,0,0)" paint-order="fill" d="M 184.88809204101562 355.3156433105469 L 210.2547607421875 355.3156433105469 L 210.2547607421875 341.2227478027344 L 184.88809204101562 341.2227478027344 L 184.88809204101562 355.3156433105469" stroke-opacity="1" stroke-linejoin="bevel" stroke-miterlimit="10" stroke-dasharray="" clip-path="url(#mPeqlDTIyySR)"/><path fill="rgb(43,131,186)" stroke="none" paint-order="stroke" d="M 221.12619018554688 446.2789001464844 L 246.49285888671875 446.2789001464844 L 246.49285888671875 430.90484619140625 L 221.12619018554688 430.90484619140625 L 221.12619018554688 446.2789001464844" fill-opacity="0.75" clip-path="url(#mPeqlDTIyySR)"/><path fill="none" stroke="rgb(0,0,0)" paint-order="fill" d="M 221.12619018554688 446.2789001464844 L 246.49285888671875 446.2789001464844 L 246.49285888671875 430.90484619140625 L 221.12619018554688 430.90484619140625 L 221.12619018554688 446.2789001464844" stroke-opacity="1" stroke-linejoin="bevel" stroke-miterlimit="10" stroke-dasharray="" clip-path="url(#mPeqlDTIyySR)"/><path fill="rgb(43,131,186)" stroke="none" paint-order="stroke" d="M 257.3642578125 430.90484619140625 L 282.73095703125 430.90484619140625 L 282.73095703125 395.0320129394531 L 257.3642578125 395.0320129394531 L 257.3642578125 430.90484619140625" fill-opacity="0.75" clip-path="url(#mPeqlDTIyySR)"/><path fill="none" stroke="rgb(0,0,0)" paint-order="fill" d="M 257.3642578125 430.90484619140625 L 282.73095703125 430.90484619140625 L 282.73095703125 395.0320129394531 L 257.3642578125 395.0320129394531 L 257.3642578125 430.90484619140625" stroke-opacity="1" stroke-linejoin="bevel" stroke-miterlimit="10" stroke-dasharray="" clip-path="url(#mPeqlDTIyySR)"/><path fill="rgb(43,131,186)" stroke="none" paint-order="stroke" d="M 293.60235595703125 366.8462219238281 L 318.96905517578125 366.8462219238281 L 318.96905517578125 348.9097900390625 L 293.60235595703125 348.9097900390625 L 293.60235595703125 366.8462219238281" fill-opacity="0.75" clip-path="url(#mPeqlDTIyySR)"/><path fill="none" stroke="rgb(0,0,0)" paint-order="fill" d="M 293.60235595703125 366.8462219238281 L 318.96905517578125 366.8462219238281 L 318.96905517578125 348.9097900390625 L 293.60235595703125 348.9097900390625 L 293.60235595703125 366.8462219238281" stroke-opacity="1" stroke-linejoin="bevel" stroke-miterlimit="10" stroke-dasharray="" clip-path="url(#mPeqlDTIyySR)"/><path fill="rgb(43,131,186)" stroke="none" paint-order="stroke" d="M 329.8404541015625 441.15423583984375 L 355.2071533203125 441.15423583984375 L 355.2071533203125 425.7801513671875 L 329.8404541015625 425.7801513671875 L 329.8404541015625 441.15423583984375" fill-opacity="0.75" clip-path="url(#mPeqlDTIyySR)"/><path fill="none" stroke="rgb(0,0,0)" paint-order="fill" d="M 329.8404541015625 441.15423583984375 L 355.2071533203125 441.15423583984375 L 355.2071533203125 425.7801513671875 L 329.8404541015625 425.7801513671875 L 329.8404541015625 441.15423583984375" stroke-opacity="1" stroke-linejoin="bevel" stroke-miterlimit="10" stroke-dasharray="" clip-path="url(#mPeqlDTIyySR)"/><path fill="rgb(43,131,186)" stroke="none" paint-order="stroke" d="M 366.07855224609375 366.8462219238281 L 391.44525146484375 366.8462219238281 L 391.44525146484375 348.9097900390625 L 366.07855224609375 348.9097900390625 L 366.07855224609375 366.8462219238281" fill-opacity="0.75" clip-path="url(#mPeqlDTIyySR)"/><path fill="none" stroke="rgb(0,0,0)" paint-order="fill" d="M 366.07855224609375 366.8462219238281 L 391.44525146484375 366.8462219238281 L 391.44525146484375 348.9097900390625 L 366.07855224609375 348.9097900390625 L 366.07855224609375 366.8462219238281" stroke-opacity="1" stroke-linejoin="bevel" stroke-miterlimit="10" stroke-dasharray="" clip-path="url(#mPeqlDTIyySR)"/><path fill="rgb(43,131,186)" stroke="none" paint-order="stroke" d="M 402.316650390625 354.03448486328125 L 427.683349609375 354.03448486328125 L 427.683349609375 337.3792419433594 L 402.316650390625 337.3792419433594 L 402.316650390625 354.03448486328125" fill-opacity="0.75" clip-path="url(#mPeqlDTIyySR)"/><path fill="none" stroke="rgb(0,0,0)" paint-order="fill" d="M 402.316650390625 354.03448486328125 L 427.683349609375 354.03448486328125 L 427.683349609375 337.3792419433594 L 402.316650390625 337.3792419433594 L 402.316650390625 354.03448486328125" stroke-opacity="1" stroke-linejoin="bevel" stroke-miterlimit="10" stroke-dasharray="" clip-path="url(#mPeqlDTIyySR)"/><path fill="rgb(43,131,186)" stroke="none" paint-order="stroke" d="M 438.55474853515625 354.03448486328125 L 463.92144775390625 354.03448486328125 L 463.92144775390625 346.3474426269531 L 438.55474853515625 346.3474426269531 L 438.55474853515625 354.03448486328125" fill-opacity="0.75" clip-path="url(#mPeqlDTIyySR)"/><path fill="none" stroke="rgb(0,0,0)" paint-order="fill" d="M 438.55474853515625 354.03448486328125 L 463.92144775390625 354.03448486328125 L 463.92144775390625 346.3474426269531 L 438.55474853515625 346.3474426269531 L 438.55474853515625 354.03448486328125" stroke-opacity="1" stroke-linejoin="bevel" stroke-miterlimit="10" stroke-dasharray="" clip-path="url(#mPeqlDTIyySR)"/><path fill="rgb(43,131,186)" stroke="none" paint-order="stroke" d="M 474.7928466796875 151.6092071533203 L 500.1595458984375 151.6092071533203 L 500.1595458984375 149.04685974121094 L 474.7928466796875 149.04685974121094 L 474.7928466796875 151.6092071533203" fill-opacity="0.75" clip-path="url(#mPeqlDTIyySR)"/><path fill="none" stroke="rgb(0,0,0)" paint-order="fill" d="M 474.7928466796875 151.6092071533203 L 500.1595458984375 151.6092071533203 L 500.1595458984375 149.04685974121094 L 474.7928466796875 149.04685974121094 L 474.7928466796875 151.6092071533203" stroke-opacity="1" stroke-linejoin="bevel" stroke-miterlimit="10" stroke-dasharray="" clip-path="url(#mPeqlDTIyySR)"/><path fill="rgb(43,131,186)" stroke="none" paint-order="stroke" d="M 511.03094482421875 354.03448486328125 L 536.3976440429688 354.03448486328125 L 536.3976440429688 328.4110412597656 L 511.03094482421875 328.4110412597656 L 511.03094482421875 354.03448486328125" fill-opacity="0.75" clip-path="url(#mPeqlDTIyySR)"/><path fill="none" stroke="rgb(0,0,0)" paint-order="fill" d="M 511.03094482421875 354.03448486328125 L 536.3976440429688 354.03448486328125 L 536.3976440429688 328.4110412597656 L 511.03094482421875 328.4110412597656 L 511.03094482421875 354.03448486328125" stroke-opacity="1" stroke-linejoin="bevel" stroke-miterlimit="10" stroke-dasharray="" clip-path="url(#mPeqlDTIyySR)"/><path fill="rgb(43,131,186)" stroke="none" paint-order="stroke" d="M 547.26904296875 423.2178039550781 L 572.6357421875 423.2178039550781 L 572.6357421875 410.40606689453125 L 547.26904296875 410.40606689453125 L 547.26904296875 423.2178039550781" fill-opacity="0.75" clip-path="url(#mPeqlDTIyySR)"/><path fill="none" stroke="rgb(0,0,0)" paint-order="fill" d="M 547.26904296875 423.2178039550781 L 572.6357421875 423.2178039550781 L 572.6357421875 410.40606689453125 L 547.26904296875 410.40606689453125 L 547.26904296875 423.2178039550781" stroke-opacity="1" stroke-linejoin="bevel" stroke-miterlimit="10" stroke-dasharray="" clip-path="url(#mPeqlDTIyySR)"/><path fill="rgb(43,131,186)" stroke="none" paint-order="stroke" d="M 583.5071411132812 405.2814025878906 L 608.8738403320312 405.2814025878906 L 608.8738403320312 384.7826232910156 L 583.5071411132812 384.7826232910156 L 583.5071411132812 405.2814025878906" fill-opacity="0.75" clip-path="url(#mPeqlDTIyySR)"/><path fill="none" stroke="rgb(0,0,0)" paint-order="fill" d="M 583.5071411132812 405.2814025878906 L 608.8738403320312 405.2814025878906 L 608.8738403320312 384.7826232910156 L 583.5071411132812 384.7826232910156 L 583.5071411132812 405.2814025878906" stroke-opacity="1" stroke-linejoin="bevel" stroke-miterlimit="10" stroke-dasharray="" clip-path="url(#mPeqlDTIyySR)"/><path fill="rgb(43,131,186)" stroke="none" paint-order="stroke" d="M 619.7452392578125 430.90484619140625 L 645.1119384765625 430.90484619140625 L 645.1119384765625 405.2814025878906 L 619.7452392578125 405.2814025878906 L 619.7452392578125 430.90484619140625" fill-opacity="0.75" clip-path="url(#mPeqlDTIyySR)"/><path fill="none" stroke="rgb(0,0,0)" paint-order="fill" d="M 619.7452392578125 430.90484619140625 L 645.1119384765625 430.90484619140625 L 645.1119384765625 405.2814025878906 L 619.7452392578125 405.2814025878906 L 619.7452392578125 430.90484619140625" stroke-opacity="1" stroke-linejoin="bevel" stroke-miterlimit="10" stroke-dasharray="" clip-path="url(#mPeqlDTIyySR)"/><path fill="rgb(43,131,186)" stroke="none" paint-order="stroke" d="M 655.9833374023438 443.7165832519531 L 681.3500366210938 443.7165832519531 L 681.3500366210938 443.7165832519531 L 655.9833374023438 443.7165832519531 L 655.9833374023438 443.7165832519531" fill-opacity="0.75" clip-path="url(#mPeqlDTIyySR)"/><path fill="none" stroke="rgb(0,0,0)" paint-order="fill" d="M 655.9833374023438 443.7165832519531 L 681.3500366210938 443.7165832519531 L 681.3500366210938 443.7165832519531 L 655.9833374023438 443.7165832519531 L 655.9833374023438 443.7165832519531" stroke-opacity="1" stroke-linejoin="bevel" stroke-miterlimit="10" stroke-dasharray="" clip-path="url(#mPeqlDTIyySR)"/><path fill="rgb(43,131,186)" stroke="none" paint-order="stroke" d="M 692.221435546875 438.5918884277344 L 717.588134765625 438.5918884277344 L 717.588134765625 421.9366455078125 L 692.221435546875 421.9366455078125 L 692.221435546875 438.5918884277344" fill-opacity="0.75" clip-path="url(#mPeqlDTIyySR)"/><path fill="none" stroke="rgb(0,0,0)" paint-order="fill" d="M 692.221435546875 438.5918884277344 L 717.588134765625 438.5918884277344 L 717.588134765625 421.9366455078125 L 692.221435546875 421.9366455078125 L 692.221435546875 438.5918884277344" stroke-opacity="1" stroke-linejoin="bevel" stroke-miterlimit="10" stroke-dasharray="" clip-path="url(#mPeqlDTIyySR)"/><path fill="rgb(43,131,186)" stroke="none" paint-order="stroke" d="M 728.4595336914062 320.7239990234375 L 753.8262329101562 320.7239990234375 L 753.8262329101562 305.34991455078125 L 728.4595336914062 305.34991455078125 L 728.4595336914062 320.7239990234375" fill-opacity="0.75" clip-path="url(#mPeqlDTIyySR)"/><path fill="none" stroke="rgb(0,0,0)" paint-order="fill" d="M 728.4595336914062 320.7239990234375 L 753.8262329101562 320.7239990234375 L 753.8262329101562 305.34991455078125 L 728.4595336914062 305.34991455078125 L 728.4595336914062 320.7239990234375" stroke-opacity="1" stroke-linejoin="bevel" stroke-miterlimit="10" stroke-dasharray="" clip-path="url(#mPeqlDTIyySR)"/><path fill="rgb(43,131,186)" stroke="none" paint-order="stroke" d="M 764.6976318359375 469.34002685546875 L 790.0643310546875 469.34002685546875 L 790.0643310546875 441.15423583984375 L 764.6976318359375 441.15423583984375 L 764.6976318359375 469.34002685546875" fill-opacity="0.75" clip-path="url(#mPeqlDTIyySR)"/><path fill="none" stroke="rgb(0,0,0)" paint-order="fill" d="M 764.6976318359375 469.34002685546875 L 790.0643310546875 469.34002685546875 L 790.0643310546875 441.15423583984375 L 764.6976318359375 441.15423583984375 L 764.6976318359375 469.34002685546875" stroke-opacity="1" stroke-linejoin="bevel" stroke-miterlimit="10" stroke-dasharray="" clip-path="url(#mPeqlDTIyySR)"/><path fill="none" stroke="none"/><path fill="rgb(31,119,180)" stroke="none" paint-order="stroke" d="M 48.9952392578125 507.76239013671875 L 56.24285888671875 507.76239013671875 L 56.24285888671875 507.78802490234375 L 48.9952392578125 507.78802490234375 L 48.9952392578125 507.76239013671875" fill-opacity="1" clip-path="url(#TaxUTQNeSmeZ)"/><path fill="rgb(31,119,180)" stroke="none" paint-order="stroke" d="M 85.23332977294922 487.2636413574219 L 92.48095703125 487.2636413574219 L 92.48095703125 487.28924560546875 L 85.23332977294922 487.28924560546875 L 85.23332977294922 487.2636413574219" fill-opacity="1" clip-path="url(#TaxUTQNeSmeZ)"/><path fill="rgb(31,119,180)" stroke="none" paint-order="stroke" d="M 121.471435546875 354.02166748046875 L 128.7190399169922 354.02166748046875 L 128.7190399169922 354.04730224609375 L 121.471435546875 354.04730224609375 L 121.471435546875 354.02166748046875" fill-opacity="1" clip-path="url(#TaxUTQNeSmeZ)"/><path fill="rgb(31,119,180)" stroke="none" paint-order="stroke" d="M 157.70953369140625 246.40316772460938 L 164.95713806152344 246.40316772460938 L 164.95713806152344 246.4287872314453 L 157.70953369140625 246.4287872314453 L 157.70953369140625 246.40316772460938" fill-opacity="1" clip-path="url(#TaxUTQNeSmeZ)"/><path fill="rgb(31,119,180)" stroke="none" paint-order="stroke" d="M 193.94761657714844 359.1463623046875 L 201.1952362060547 359.1463623046875 L 201.1952362060547 359.1719970703125 L 193.94761657714844 359.1719970703125 L 193.94761657714844 359.1463623046875" fill-opacity="1" clip-path="url(#TaxUTQNeSmeZ)"/><path fill="rgb(31,119,180)" stroke="none" paint-order="stroke" d="M 230.1857147216797 482.1389465332031 L 237.43333435058594 482.1389465332031 L 237.43333435058594 482.16455078125 L 230.1857147216797 482.16455078125 L 230.1857147216797 482.1389465332031" fill-opacity="1" clip-path="url(#TaxUTQNeSmeZ)"/><path fill="rgb(31,119,180)" stroke="none" paint-order="stroke" d="M 266.423828125 443.7037658691406 L 273.6714172363281 443.7037658691406 L 273.6714172363281 443.7293701171875 L 266.423828125 443.7293701171875 L 266.423828125 443.7037658691406" fill-opacity="1" clip-path="url(#TaxUTQNeSmeZ)"/><path fill="rgb(31,119,180)" stroke="none" paint-order="stroke" d="M 302.6618957519531 412.95562744140625 L 309.9095153808594 412.95562744140625 L 309.9095153808594 412.9812316894531 L 302.6618957519531 412.9812316894531 L 302.6618957519531 412.95562744140625" fill-opacity="1" clip-path="url(#TaxUTQNeSmeZ)"/><path fill="rgb(31,119,180)" stroke="none" paint-order="stroke" d="M 338.8999938964844 475.7330627441406 L 346.14764404296875 475.7330627441406 L 346.14764404296875 475.7586975097656 L 338.8999938964844 475.7586975097656 L 338.8999938964844 475.7330627441406" fill-opacity="1" clip-path="url(#TaxUTQNeSmeZ)"/><path fill="rgb(31,119,180)" stroke="none" paint-order="stroke" d="M 375.1380920410156 407.8309326171875 L 382.3857421875 407.8309326171875 L 382.3857421875 407.8565368652344 L 375.1380920410156 407.8565368652344 L 375.1380920410156 407.8309326171875" fill-opacity="1" clip-path="url(#TaxUTQNeSmeZ)"/><path fill="rgb(31,119,180)" stroke="none" paint-order="stroke" d="M 411.3761901855469 359.1463623046875 L 418.6238098144531 359.1463623046875 L 418.6238098144531 359.1719970703125 L 411.3761901855469 359.1719970703125 L 411.3761901855469 359.1463623046875" fill-opacity="1" clip-path="url(#TaxUTQNeSmeZ)"/><path fill="rgb(31,119,180)" stroke="none" paint-order="stroke" d="M 447.6142578125 374.52044677734375 L 454.8619079589844 374.52044677734375 L 454.8619079589844 374.5460510253906 L 447.6142578125 374.5460510253906 L 447.6142578125 374.52044677734375" fill-opacity="1" clip-path="url(#TaxUTQNeSmeZ)"/><path fill="rgb(31,119,180)" stroke="none" paint-order="stroke" d="M 483.85235595703125 161.8457794189453 L 491.1000061035156 161.8457794189453 L 491.1000061035156 161.87139892578125 L 483.85235595703125 161.87139892578125 L 483.85235595703125 161.8457794189453" fill-opacity="1" clip-path="url(#TaxUTQNeSmeZ)"/><path fill="rgb(31,119,180)" stroke="none" paint-order="stroke" d="M 520.0904541015625 405.2685852050781 L 527.338134765625 405.2685852050781 L 527.338134765625 405.294189453125 L 520.0904541015625 405.294189453125 L 520.0904541015625 405.2685852050781" fill-opacity="1" clip-path="url(#TaxUTQNeSmeZ)"/><path fill="rgb(31,119,180)" stroke="none" paint-order="stroke" d="M 556.3285522460938 456.5154724121094 L 563.5762329101562 456.5154724121094 L 563.5762329101562 456.5411071777344 L 556.3285522460938 456.5411071777344 L 556.3285522460938 456.5154724121094" fill-opacity="1" clip-path="url(#TaxUTQNeSmeZ)"/><path fill="rgb(31,119,180)" stroke="none" paint-order="stroke" d="M 592.566650390625 438.5790710449219 L 599.8142700195312 438.5790710449219 L 599.8142700195312 438.6047058105469 L 592.566650390625 438.6047058105469 L 592.566650390625 438.5790710449219" fill-opacity="1" clip-path="url(#TaxUTQNeSmeZ)"/><path fill="rgb(31,119,180)" stroke="none" paint-order="stroke" d="M 628.8047485351562 482.1389465332031 L 636.0523681640625 482.1389465332031 L 636.0523681640625 482.16455078125 L 628.8047485351562 482.16455078125 L 628.8047485351562 482.1389465332031" fill-opacity="1" clip-path="url(#TaxUTQNeSmeZ)"/><path fill="rgb(31,119,180)" stroke="none" paint-order="stroke" d="M 665.0428466796875 474.451904296875 L 672.2904663085938 474.451904296875 L 672.2904663085938 474.4775390625 L 665.0428466796875 474.4775390625 L 665.0428466796875 474.451904296875" fill-opacity="1" clip-path="url(#TaxUTQNeSmeZ)"/><path fill="rgb(31,119,180)" stroke="none" paint-order="stroke" d="M 701.2809448242188 479.57659912109375 L 708.528564453125 479.57659912109375 L 708.528564453125 479.6022033691406 L 701.2809448242188 479.6022033691406 L 701.2809448242188 479.57659912109375" fill-opacity="1" clip-path="url(#TaxUTQNeSmeZ)"/><path fill="rgb(31,119,180)" stroke="none" paint-order="stroke" d="M 737.51904296875 366.8334045410156 L 744.7666625976562 366.8334045410156 L 744.7666625976562 366.8590087890625 L 737.51904296875 366.8590087890625 L 737.51904296875 366.8334045410156" fill-opacity="1" clip-path="url(#TaxUTQNeSmeZ)"/><path fill="rgb(31,119,180)" stroke="none" paint-order="stroke" d="M 773.7571411132812 546.1975708007812 L 781.0047607421875 546.1975708007812 L 781.0047607421875 546.2232055664062 L 773.7571411132812 546.2232055664062 L 773.7571411132812 546.1975708007812" fill-opacity="1" clip-path="url(#TaxUTQNeSmeZ)"/><path fill="none" stroke="rgb(0,0,0)" paint-order="fill" d="M 48.9952392578125 507.76239013671875 L 56.24285888671875 507.76239013671875 L 56.24285888671875 507.78802490234375 L 48.9952392578125 507.78802490234375 L 48.9952392578125 507.76239013671875" stroke-opacity="1" stroke-linejoin="bevel" stroke-miterlimit="10" stroke-dasharray="" clip-path="url(#TaxUTQNeSmeZ)"/><path fill="none" stroke="rgb(0,0,0)" paint-order="fill" d="M 85.23332977294922 487.2636413574219 L 92.48095703125 487.2636413574219 L 92.48095703125 487.28924560546875 L 85.23332977294922 487.28924560546875 L 85.23332977294922 487.2636413574219" stroke-opacity="1" stroke-linejoin="bevel" stroke-miterlimit="10" stroke-dasharray="" clip-path="url(#TaxUTQNeSmeZ)"/><path fill="none" stroke="rgb(0,0,0)" paint-order="fill" d="M 121.471435546875 354.02166748046875 L 128.7190399169922 354.02166748046875 L 128.7190399169922 354.04730224609375 L 121.471435546875 354.04730224609375 L 121.471435546875 354.02166748046875" stroke-opacity="1" stroke-linejoin="bevel" stroke-miterlimit="10" stroke-dasharray="" clip-path="url(#TaxUTQNeSmeZ)"/><path fill="none" stroke="rgb(0,0,0)" paint-order="fill" d="M 157.70953369140625 246.40316772460938 L 164.95713806152344 246.40316772460938 L 164.95713806152344 246.4287872314453 L 157.70953369140625 246.4287872314453 L 157.70953369140625 246.40316772460938" stroke-opacity="1" stroke-linejoin="bevel" stroke-miterlimit="10" stroke-dasharray="" clip-path="url(#TaxUTQNeSmeZ)"/><path fill="none" stroke="rgb(0,0,0)" paint-order="fill" d="M 193.94761657714844 359.1463623046875 L 201.1952362060547 359.1463623046875 L 201.1952362060547 359.1719970703125 L 193.94761657714844 359.1719970703125 L 193.94761657714844 359.1463623046875" stroke-opacity="1" stroke-linejoin="bevel" stroke-miterlimit="10" stroke-dasharray="" clip-path="url(#TaxUTQNeSmeZ)"/><path fill="none" stroke="rgb(0,0,0)" paint-order="fill" d="M 230.1857147216797 482.1389465332031 L 237.43333435058594 482.1389465332031 L 237.43333435058594 482.16455078125 L 230.1857147216797 482.16455078125 L 230.1857147216797 482.1389465332031" stroke-opacity="1" stroke-linejoin="bevel" stroke-miterlimit="10" stroke-dasharray="" clip-path="url(#TaxUTQNeSmeZ)"/><path fill="none" stroke="rgb(0,0,0)" paint-order="fill" d="M 266.423828125 443.7037658691406 L 273.6714172363281 443.7037658691406 L 273.6714172363281 443.7293701171875 L 266.423828125 443.7293701171875 L 266.423828125 443.7037658691406" stroke-opacity="1" stroke-linejoin="bevel" stroke-miterlimit="10" stroke-dasharray="" clip-path="url(#TaxUTQNeSmeZ)"/><path fill="none" stroke="rgb(0,0,0)" paint-order="fill" d="M 302.6618957519531 412.95562744140625 L 309.9095153808594 412.95562744140625 L 309.9095153808594 412.9812316894531 L 302.6618957519531 412.9812316894531 L 302.6618957519531 412.95562744140625" stroke-opacity="1" stroke-linejoin="bevel" stroke-miterlimit="10" stroke-dasharray="" clip-path="url(#TaxUTQNeSmeZ)"/><path fill="none" stroke="rgb(0,0,0)" paint-order="fill" d="M 338.8999938964844 475.7330627441406 L 346.14764404296875 475.7330627441406 L 346.14764404296875 475.7586975097656 L 338.8999938964844 475.7586975097656 L 338.8999938964844 475.7330627441406" stroke-opacity="1" stroke-linejoin="bevel" stroke-miterlimit="10" stroke-dasharray="" clip-path="url(#TaxUTQNeSmeZ)"/><path fill="none" stroke="rgb(0,0,0)" paint-order="fill" d="M 375.1380920410156 407.8309326171875 L 382.3857421875 407.8309326171875 L 382.3857421875 407.8565368652344 L 375.1380920410156 407.8565368652344 L 375.1380920410156 407.8309326171875" stroke-opacity="1" stroke-linejoin="bevel" stroke-miterlimit="10" stroke-dasharray="" clip-path="url(#TaxUTQNeSmeZ)"/><path fill="none" stroke="rgb(0,0,0)" paint-order="fill" d="M 411.3761901855469 359.1463623046875 L 418.6238098144531 359.1463623046875 L 418.6238098144531 359.1719970703125 L 411.3761901855469 359.1719970703125 L 411.3761901855469 359.1463623046875" stroke-opacity="1" stroke-linejoin="bevel" stroke-miterlimit="10" stroke-dasharray="" clip-path="url(#TaxUTQNeSmeZ)"/><path fill="none" stroke="rgb(0,0,0)" paint-order="fill" d="M 447.6142578125 374.52044677734375 L 454.8619079589844 374.52044677734375 L 454.8619079589844 374.5460510253906 L 447.6142578125 374.5460510253906 L 447.6142578125 374.52044677734375" stroke-opacity="1" stroke-linejoin="bevel" stroke-miterlimit="10" stroke-dasharray="" clip-path="url(#TaxUTQNeSmeZ)"/><path fill="none" stroke="rgb(0,0,0)" paint-order="fill" d="M 483.85235595703125 161.8457794189453 L 491.1000061035156 161.8457794189453 L 491.1000061035156 161.87139892578125 L 483.85235595703125 161.87139892578125 L 483.85235595703125 161.8457794189453" stroke-opacity="1" stroke-linejoin="bevel" stroke-miterlimit="10" stroke-dasharray="" clip-path="url(#TaxUTQNeSmeZ)"/><path fill="none" stroke="rgb(0,0,0)" paint-order="fill" d="M 520.0904541015625 405.2685852050781 L 527.338134765625 405.2685852050781 L 527.338134765625 405.294189453125 L 520.0904541015625 405.294189453125 L 520.0904541015625 405.2685852050781" stroke-opacity="1" stroke-linejoin="bevel" stroke-miterlimit="10" stroke-dasharray="" clip-path="url(#TaxUTQNeSmeZ)"/><path fill="none" stroke="rgb(0,0,0)" paint-order="fill" d="M 556.3285522460938 456.5154724121094 L 563.5762329101562 456.5154724121094 L 563.5762329101562 456.5411071777344 L 556.3285522460938 456.5411071777344 L 556.3285522460938 456.5154724121094" stroke-opacity="1" stroke-linejoin="bevel" stroke-miterlimit="10" stroke-dasharray="" clip-path="url(#TaxUTQNeSmeZ)"/><path fill="none" stroke="rgb(0,0,0)" paint-order="fill" d="M 592.566650390625 438.5790710449219 L 599.8142700195312 438.5790710449219 L 599.8142700195312 438.6047058105469 L 592.566650390625 438.6047058105469 L 592.566650390625 438.5790710449219" stroke-opacity="1" stroke-linejoin="bevel" stroke-miterlimit="10" stroke-dasharray="" clip-path="url(#TaxUTQNeSmeZ)"/><path fill="none" stroke="rgb(0,0,0)" paint-order="fill" d="M 628.8047485351562 482.1389465332031 L 636.0523681640625 482.1389465332031 L 636.0523681640625 482.16455078125 L 628.8047485351562 482.16455078125 L 628.8047485351562 482.1389465332031" stroke-opacity="1" stroke-linejoin="bevel" stroke-miterlimit="10" stroke-dasharray="" clip-path="url(#TaxUTQNeSmeZ)"/><path fill="none" stroke="rgb(0,0,0)" paint-order="fill" d="M 665.0428466796875 474.451904296875 L 672.2904663085938 474.451904296875 L 672.2904663085938 474.4775390625 L 665.0428466796875 474.4775390625 L 665.0428466796875 474.451904296875" stroke-opacity="1" stroke-linejoin="bevel" stroke-miterlimit="10" stroke-dasharray="" clip-path="url(#TaxUTQNeSmeZ)"/><path fill="none" stroke="rgb(0,0,0)" paint-order="fill" d="M 701.2809448242188 479.57659912109375 L 708.528564453125 479.57659912109375 L 708.528564453125 479.6022033691406 L 701.2809448242188 479.6022033691406 L 701.2809448242188 479.57659912109375" stroke-opacity="1" stroke-linejoin="bevel" stroke-miterlimit="10" stroke-dasharray="" clip-path="url(#TaxUTQNeSmeZ)"/><path fill="none" stroke="rgb(0,0,0)" paint-order="fill" d="M 737.51904296875 366.8334045410156 L 744.7666625976562 366.8334045410156 L 744.7666625976562 366.8590087890625 L 737.51904296875 366.8590087890625 L 737.51904296875 366.8334045410156" stroke-opacity="1" stroke-linejoin="bevel" stroke-miterlimit="10" stroke-dasharray="" clip-path="url(#TaxUTQNeSmeZ)"/><path fill="none" stroke="rgb(0,0,0)" paint-order="fill" d="M 773.7571411132812 546.1975708007812 L 781.0047607421875 546.1975708007812 L 781.0047607421875 546.2232055664062 L 773.7571411132812 546.2232055664062 L 773.7571411132812 546.1975708007812" stroke-opacity="1" stroke-linejoin="bevel" stroke-miterlimit="10" stroke-dasharray="" clip-path="url(#TaxUTQNeSmeZ)"/><path fill="none" stroke="rgb(0,0,0)" paint-order="fill" d="" stroke-opacity="1" stroke-linejoin="bevel" stroke-miterlimit="10" stroke-dasharray="" clip-path="url(#TaxUTQNeSmeZ)"/><path fill="none" stroke="none"/><path fill="rgb(31,119,180)" stroke="none" paint-order="stroke" d="M 48.9952392578125 405.2685852050781 L 56.24285888671875 405.2685852050781 L 56.24285888671875 405.294189453125 L 48.9952392578125 405.294189453125 L 48.9952392578125 405.2685852050781" fill-opacity="1" clip-path="url(#yKbHhSIlpuTw)"/><path fill="rgb(31,119,180)" stroke="none" paint-order="stroke" d="M 85.23332977294922 384.7698059082031 L 92.48095703125 384.7698059082031 L 92.48095703125 384.7954406738281 L 85.23332977294922 384.7954406738281 L 85.23332977294922 384.7698059082031" fill-opacity="1" clip-path="url(#yKbHhSIlpuTw)"/><path fill="rgb(31,119,180)" stroke="none" paint-order="stroke" d="M 121.471435546875 161.8457794189453 L 128.7190399169922 161.8457794189453 L 128.7190399169922 161.87139892578125 L 121.471435546875 161.87139892578125 L 121.471435546875 161.8457794189453" fill-opacity="1" clip-path="url(#yKbHhSIlpuTw)"/><path fill="rgb(31,119,180)" stroke="none" paint-order="stroke" d="M 157.70953369140625 54.227272033691406 L 164.95713806152344 54.227272033691406 L 164.95713806152344 54.25289535522461 L 157.70953369140625 54.25289535522461 L 157.70953369140625 54.227272033691406" fill-opacity="1" clip-path="url(#yKbHhSIlpuTw)"/><path fill="rgb(31,119,180)" stroke="none" paint-order="stroke" d="M 193.94761657714844 294.4471435546875 L 201.1952362060547 294.4471435546875 L 201.1952362060547 294.4727783203125 L 193.94761657714844 294.4727783203125 L 193.94761657714844 294.4471435546875" fill-opacity="1" clip-path="url(#yKbHhSIlpuTw)"/><path fill="rgb(31,119,180)" stroke="none" paint-order="stroke" d="M 230.1857147216797 374.52044677734375 L 237.43333435058594 374.52044677734375 L 237.43333435058594 374.5460510253906 L 230.1857147216797 374.5460510253906 L 230.1857147216797 374.52044677734375" fill-opacity="1" clip-path="url(#yKbHhSIlpuTw)"/><path fill="rgb(31,119,180)" stroke="none" paint-order="stroke" d="M 266.423828125 341.2099609375 L 273.6714172363281 341.2099609375 L 273.6714172363281 341.2355651855469 L 266.423828125 341.2355651855469 L 266.423828125 341.2099609375" fill-opacity="1" clip-path="url(#yKbHhSIlpuTw)"/><path fill="rgb(31,119,180)" stroke="none" paint-order="stroke" d="M 302.6618957519531 297.65008544921875 L 309.9095153808594 297.65008544921875 L 309.9095153808594 297.6756896972656 L 302.6618957519531 297.6756896972656 L 302.6618957519531 297.65008544921875" fill-opacity="1" clip-path="url(#yKbHhSIlpuTw)"/><path fill="rgb(31,119,180)" stroke="none" paint-order="stroke" d="M 338.8999938964844 405.2685852050781 L 346.14764404296875 405.2685852050781 L 346.14764404296875 405.294189453125 L 338.8999938964844 405.294189453125 L 338.8999938964844 405.2685852050781" fill-opacity="1" clip-path="url(#yKbHhSIlpuTw)"/><path fill="rgb(31,119,180)" stroke="none" paint-order="stroke" d="M 375.1380920410156 238.7161407470703 L 382.3857421875 238.7161407470703 L 382.3857421875 238.74176025390625 L 375.1380920410156 238.74176025390625 L 375.1380920410156 238.7161407470703" fill-opacity="1" clip-path="url(#yKbHhSIlpuTw)"/><path fill="rgb(31,119,180)" stroke="none" paint-order="stroke" d="M 411.3761901855469 289.9630432128906 L 418.6238098144531 289.9630432128906 L 418.6238098144531 289.9886779785156 L 411.3761901855469 289.9886779785156 L 411.3761901855469 289.9630432128906" fill-opacity="1" clip-path="url(#yKbHhSIlpuTw)"/><path fill="rgb(31,119,180)" stroke="none" paint-order="stroke" d="M 447.6142578125 289.9630432128906 L 454.8619079589844 289.9630432128906 L 454.8619079589844 289.9886779785156 L 447.6142578125 289.9886779785156 L 447.6142578125 289.9630432128906" fill-opacity="1" clip-path="url(#yKbHhSIlpuTw)"/><path fill="rgb(31,119,180)" stroke="none" paint-order="stroke" d="M 483.85235595703125 141.34701538085938 L 491.1000061035156 141.34701538085938 L 491.1000061035156 141.3726348876953 L 483.85235595703125 141.3726348876953 L 483.85235595703125 141.34701538085938" fill-opacity="1" clip-path="url(#yKbHhSIlpuTw)"/><path fill="rgb(31,119,180)" stroke="none" paint-order="stroke" d="M 520.0904541015625 225.90440368652344 L 527.338134765625 225.90440368652344 L 527.338134765625 225.93003845214844 L 520.0904541015625 225.93003845214844 L 520.0904541015625 225.90440368652344" fill-opacity="1" clip-path="url(#yKbHhSIlpuTw)"/><path fill="rgb(31,119,180)" stroke="none" paint-order="stroke" d="M 556.3285522460938 338.6476135253906 L 563.5762329101562 338.6476135253906 L 563.5762329101562 338.6732177734375 L 556.3285522460938 338.6732177734375 L 556.3285522460938 338.6476135253906" fill-opacity="1" clip-path="url(#yKbHhSIlpuTw)"/><path fill="rgb(31,119,180)" stroke="none" paint-order="stroke" d="M 592.566650390625 328.3982238769531 L 599.8142700195312 328.3982238769531 L 599.8142700195312 328.423828125 L 592.566650390625 328.423828125 L 592.566650390625 328.3982238769531" fill-opacity="1" clip-path="url(#yKbHhSIlpuTw)"/><path fill="rgb(31,119,180)" stroke="none" paint-order="stroke" d="M 628.8047485351562 305.9776916503906 L 636.0523681640625 305.9776916503906 L 636.0523681640625 306.0033264160156 L 628.8047485351562 306.0033264160156 L 628.8047485351562 305.9776916503906" fill-opacity="1" clip-path="url(#yKbHhSIlpuTw)"/><path fill="rgb(31,119,180)" stroke="none" paint-order="stroke" d="M 665.0428466796875 400.1438903808594 L 672.2904663085938 400.1438903808594 L 672.2904663085938 400.1695251464844 L 665.0428466796875 400.1695251464844 L 665.0428466796875 400.1438903808594" fill-opacity="1" clip-path="url(#yKbHhSIlpuTw)"/><path fill="rgb(31,119,180)" stroke="none" paint-order="stroke" d="M 701.2809448242188 392.45684814453125 L 708.528564453125 392.45684814453125 L 708.528564453125 392.48248291015625 L 701.2809448242188 392.48248291015625 L 701.2809448242188 392.45684814453125" fill-opacity="1" clip-path="url(#yKbHhSIlpuTw)"/><path fill="rgb(31,119,180)" stroke="none" paint-order="stroke" d="M 737.51904296875 243.8408203125 L 744.7666625976562 243.8408203125 L 744.7666625976562 243.866455078125 L 737.51904296875 243.866455078125 L 737.51904296875 243.8408203125" fill-opacity="1" clip-path="url(#yKbHhSIlpuTw)"/><path fill="rgb(31,119,180)" stroke="none" paint-order="stroke" d="M 773.7571411132812 334.8040771484375 L 781.0047607421875 334.8040771484375 L 781.0047607421875 334.8297119140625 L 773.7571411132812 334.8297119140625 L 773.7571411132812 334.8040771484375" fill-opacity="1" clip-path="url(#yKbHhSIlpuTw)"/><path fill="none" stroke="rgb(0,0,0)" paint-order="fill" d="M 48.9952392578125 405.2685852050781 L 56.24285888671875 405.2685852050781 L 56.24285888671875 405.294189453125 L 48.9952392578125 405.294189453125 L 48.9952392578125 405.2685852050781" stroke-opacity="1" stroke-linejoin="bevel" stroke-miterlimit="10" stroke-dasharray="" clip-path="url(#yKbHhSIlpuTw)"/><path fill="none" stroke="rgb(0,0,0)" paint-order="fill" d="M 85.23332977294922 384.7698059082031 L 92.48095703125 384.7698059082031 L 92.48095703125 384.7954406738281 L 85.23332977294922 384.7954406738281 L 85.23332977294922 384.7698059082031" stroke-opacity="1" stroke-linejoin="bevel" stroke-miterlimit="10" stroke-dasharray="" clip-path="url(#yKbHhSIlpuTw)"/><path fill="none" stroke="rgb(0,0,0)" paint-order="fill" d="M 121.471435546875 161.8457794189453 L 128.7190399169922 161.8457794189453 L 128.7190399169922 161.87139892578125 L 121.471435546875 161.87139892578125 L 121.471435546875 161.8457794189453" stroke-opacity="1" stroke-linejoin="bevel" stroke-miterlimit="10" stroke-dasharray="" clip-path="url(#yKbHhSIlpuTw)"/><path fill="none" stroke="rgb(0,0,0)" paint-order="fill" d="M 157.70953369140625 54.227272033691406 L 164.95713806152344 54.227272033691406 L 164.95713806152344 54.25289535522461 L 157.70953369140625 54.25289535522461 L 157.70953369140625 54.227272033691406" stroke-opacity="1" stroke-linejoin="bevel" stroke-miterlimit="10" stroke-dasharray="" clip-path="url(#yKbHhSIlpuTw)"/><path fill="none" stroke="rgb(0,0,0)" paint-order="fill" d="M 193.94761657714844 294.4471435546875 L 201.1952362060547 294.4471435546875 L 201.1952362060547 294.4727783203125 L 193.94761657714844 294.4727783203125 L 193.94761657714844 294.4471435546875" stroke-opacity="1" stroke-linejoin="bevel" stroke-miterlimit="10" stroke-dasharray="" clip-path="url(#yKbHhSIlpuTw)"/><path fill="none" stroke="rgb(0,0,0)" paint-order="fill" d="M 230.1857147216797 374.52044677734375 L 237.43333435058594 374.52044677734375 L 237.43333435058594 374.5460510253906 L 230.1857147216797 374.5460510253906 L 230.1857147216797 374.52044677734375" stroke-opacity="1" stroke-linejoin="bevel" stroke-miterlimit="10" stroke-dasharray="" clip-path="url(#yKbHhSIlpuTw)"/><path fill="none" stroke="rgb(0,0,0)" paint-order="fill" d="M 266.423828125 341.2099609375 L 273.6714172363281 341.2099609375 L 273.6714172363281 341.2355651855469 L 266.423828125 341.2355651855469 L 266.423828125 341.2099609375" stroke-opacity="1" stroke-linejoin="bevel" stroke-miterlimit="10" stroke-dasharray="" clip-path="url(#yKbHhSIlpuTw)"/><path fill="none" stroke="rgb(0,0,0)" paint-order="fill" d="M 302.6618957519531 297.65008544921875 L 309.9095153808594 297.65008544921875 L 309.9095153808594 297.6756896972656 L 302.6618957519531 297.6756896972656 L 302.6618957519531 297.65008544921875" stroke-opacity="1" stroke-linejoin="bevel" stroke-miterlimit="10" stroke-dasharray="" clip-path="url(#yKbHhSIlpuTw)"/><path fill="none" stroke="rgb(0,0,0)" paint-order="fill" d="M 338.8999938964844 405.2685852050781 L 346.14764404296875 405.2685852050781 L 346.14764404296875 405.294189453125 L 338.8999938964844 405.294189453125 L 338.8999938964844 405.2685852050781" stroke-opacity="1" stroke-linejoin="bevel" stroke-miterlimit="10" stroke-dasharray="" clip-path="url(#yKbHhSIlpuTw)"/><path fill="none" stroke="rgb(0,0,0)" paint-order="fill" d="M 375.1380920410156 238.7161407470703 L 382.3857421875 238.7161407470703 L 382.3857421875 238.74176025390625 L 375.1380920410156 238.74176025390625 L 375.1380920410156 238.7161407470703" stroke-opacity="1" stroke-linejoin="bevel" stroke-miterlimit="10" stroke-dasharray="" clip-path="url(#yKbHhSIlpuTw)"/><path fill="none" stroke="rgb(0,0,0)" paint-order="fill" d="M 411.3761901855469 289.9630432128906 L 418.6238098144531 289.9630432128906 L 418.6238098144531 289.9886779785156 L 411.3761901855469 289.9886779785156 L 411.3761901855469 289.9630432128906" stroke-opacity="1" stroke-linejoin="bevel" stroke-miterlimit="10" stroke-dasharray="" clip-path="url(#yKbHhSIlpuTw)"/><path fill="none" stroke="rgb(0,0,0)" paint-order="fill" d="M 447.6142578125 289.9630432128906 L 454.8619079589844 289.9630432128906 L 454.8619079589844 289.9886779785156 L 447.6142578125 289.9886779785156 L 447.6142578125 289.9630432128906" stroke-opacity="1" stroke-linejoin="bevel" stroke-miterlimit="10" stroke-dasharray="" clip-path="url(#yKbHhSIlpuTw)"/><path fill="none" stroke="rgb(0,0,0)" paint-order="fill" d="M 483.85235595703125 141.34701538085938 L 491.1000061035156 141.34701538085938 L 491.1000061035156 141.3726348876953 L 483.85235595703125 141.3726348876953 L 483.85235595703125 141.34701538085938" stroke-opacity="1" stroke-linejoin="bevel" stroke-miterlimit="10" stroke-dasharray="" clip-path="url(#yKbHhSIlpuTw)"/><path fill="none" stroke="rgb(0,0,0)" paint-order="fill" d="M 520.0904541015625 225.90440368652344 L 527.338134765625 225.90440368652344 L 527.338134765625 225.93003845214844 L 520.0904541015625 225.93003845214844 L 520.0904541015625 225.90440368652344" stroke-opacity="1" stroke-linejoin="bevel" stroke-miterlimit="10" stroke-dasharray="" clip-path="url(#yKbHhSIlpuTw)"/><path fill="none" stroke="rgb(0,0,0)" paint-order="fill" d="M 556.3285522460938 338.6476135253906 L 563.5762329101562 338.6476135253906 L 563.5762329101562 338.6732177734375 L 556.3285522460938 338.6732177734375 L 556.3285522460938 338.6476135253906" stroke-opacity="1" stroke-linejoin="bevel" stroke-miterlimit="10" stroke-dasharray="" clip-path="url(#yKbHhSIlpuTw)"/><path fill="none" stroke="rgb(0,0,0)" paint-order="fill" d="M 592.566650390625 328.3982238769531 L 599.8142700195312 328.3982238769531 L 599.8142700195312 328.423828125 L 592.566650390625 328.423828125 L 592.566650390625 328.3982238769531" stroke-opacity="1" stroke-linejoin="bevel" stroke-miterlimit="10" stroke-dasharray="" clip-path="url(#yKbHhSIlpuTw)"/><path fill="none" stroke="rgb(0,0,0)" paint-order="fill" d="M 628.8047485351562 305.9776916503906 L 636.0523681640625 305.9776916503906 L 636.0523681640625 306.0033264160156 L 628.8047485351562 306.0033264160156 L 628.8047485351562 305.9776916503906" stroke-opacity="1" stroke-linejoin="bevel" stroke-miterlimit="10" stroke-dasharray="" clip-path="url(#yKbHhSIlpuTw)"/><path fill="none" stroke="rgb(0,0,0)" paint-order="fill" d="M 665.0428466796875 400.1438903808594 L 672.2904663085938 400.1438903808594 L 672.2904663085938 400.1695251464844 L 665.0428466796875 400.1695251464844 L 665.0428466796875 400.1438903808594" stroke-opacity="1" stroke-linejoin="bevel" stroke-miterlimit="10" stroke-dasharray="" clip-path="url(#yKbHhSIlpuTw)"/><path fill="none" stroke="rgb(0,0,0)" paint-order="fill" d="M 701.2809448242188 392.45684814453125 L 708.528564453125 392.45684814453125 L 708.528564453125 392.48248291015625 L 701.2809448242188 392.48248291015625 L 701.2809448242188 392.45684814453125" stroke-opacity="1" stroke-linejoin="bevel" stroke-miterlimit="10" stroke-dasharray="" clip-path="url(#yKbHhSIlpuTw)"/><path fill="none" stroke="rgb(0,0,0)" paint-order="fill" d="M 737.51904296875 243.8408203125 L 744.7666625976562 243.8408203125 L 744.7666625976562 243.866455078125 L 737.51904296875 243.866455078125 L 737.51904296875 243.8408203125" stroke-opacity="1" stroke-linejoin="bevel" stroke-miterlimit="10" stroke-dasharray="" clip-path="url(#yKbHhSIlpuTw)"/><path fill="none" stroke="rgb(0,0,0)" paint-order="fill" d="M 773.7571411132812 334.8040771484375 L 781.0047607421875 334.8040771484375 L 781.0047607421875 334.8297119140625 L 773.7571411132812 334.8297119140625 L 773.7571411132812 334.8040771484375" stroke-opacity="1" stroke-linejoin="bevel" stroke-miterlimit="10" stroke-dasharray="" clip-path="url(#yKbHhSIlpuTw)"/><path fill="none" stroke="rgb(0,0,0)" paint-order="fill" d="" stroke-opacity="1" stroke-linejoin="bevel" stroke-miterlimit="10" stroke-dasharray="" clip-path="url(#yKbHhSIlpuTw)"/><path fill="none" stroke="none"/><path fill="rgb(243,134,48)" stroke="rgb(243,134,48)" paint-order="fill" d="M 55.119049072265625 397.5943603515625 A 2.5 2.5 0 1 1 55.11904782226573 397.59186035197916" fill-opacity="0.6" clip-path="url(#hLQADvVXvCrm)" stroke-opacity="1" stroke-linejoin="bevel" stroke-miterlimit="10" stroke-dasharray=""/><path fill="rgb(243,134,48)" stroke="rgb(243,134,48)" paint-order="fill" d="M 55.119049072265625 395.0320129394531 A 2.5 2.5 0 1 1 55.11904782226573 395.0295129398698" fill-opacity="0.6" clip-path="url(#hLQADvVXvCrm)" stroke-opacity="1" stroke-linejoin="bevel" stroke-miterlimit="10" stroke-dasharray=""/><path fill="rgb(243,134,48)" stroke="rgb(243,134,48)" paint-order="fill" d="M 55.119049072265625 548.772705078125 A 2.5 2.5 0 1 1 55.11904782226573 548.7702050785417" fill-opacity="0.6" clip-path="url(#hLQADvVXvCrm)" stroke-opacity="1" stroke-linejoin="bevel" stroke-miterlimit="10" stroke-dasharray=""/><path fill="rgb(243,134,48)" stroke="rgb(243,134,48)" paint-order="fill" d="M 55.119049072265625 402.71905517578125 A 2.5 2.5 0 1 1 55.11904782226573 402.7165551761979" fill-opacity="0.6" clip-path="url(#hLQADvVXvCrm)" stroke-opacity="1" stroke-linejoin="bevel" stroke-miterlimit="10" stroke-dasharray=""/><path fill="rgb(243,134,48)" stroke="rgb(243,134,48)" paint-order="fill" d="M 91.35713958740234 492.401123046875 A 2.5 2.5 0 1 1 91.35713833740245 492.39862304729166" fill-opacity="0.6" clip-path="url(#hLQADvVXvCrm)" stroke-opacity="1" stroke-linejoin="bevel" stroke-miterlimit="10" stroke-dasharray=""/><path fill="rgb(243,134,48)" stroke="rgb(243,134,48)" paint-order="fill" d="M 91.35713958740234 382.22027587890625 A 2.5 2.5 0 1 1 91.35713833740245 382.2177758793229" fill-opacity="0.6" clip-path="url(#hLQADvVXvCrm)" stroke-opacity="1" stroke-linejoin="bevel" stroke-miterlimit="10" stroke-dasharray=""/><path fill="rgb(243,134,48)" stroke="rgb(243,134,48)" paint-order="fill" d="M 91.35713958740234 382.22027587890625 A 2.5 2.5 0 1 1 91.35713833740245 382.2177758793229" fill-opacity="0.6" clip-path="url(#hLQADvVXvCrm)" stroke-opacity="1" stroke-linejoin="bevel" stroke-miterlimit="10" stroke-dasharray=""/><path fill="rgb(243,134,48)" stroke="rgb(243,134,48)" paint-order="fill" d="M 200.07142639160156 159.29623413085938 A 2.5 2.5 0 1 1 200.07142514160168 159.29373413127604" fill-opacity="0.6" clip-path="url(#hLQADvVXvCrm)" stroke-opacity="1" stroke-linejoin="bevel" stroke-miterlimit="10" stroke-dasharray=""/><path fill="rgb(243,134,48)" stroke="rgb(243,134,48)" paint-order="fill" d="M 308.78570556640625 415.53076171875 A 2.5 2.5 0 1 1 308.78570431640634 415.52826171916666" fill-opacity="0.6" clip-path="url(#hLQADvVXvCrm)" stroke-opacity="1" stroke-linejoin="bevel" stroke-miterlimit="10" stroke-dasharray=""/><path fill="rgb(243,134,48)" stroke="rgb(243,134,48)" paint-order="fill" d="M 345.0238037109375 482.1517639160156 A 2.5 2.5 0 1 1 345.0238024609376 482.1492639164323" fill-opacity="0.6" clip-path="url(#hLQADvVXvCrm)" stroke-opacity="1" stroke-linejoin="bevel" stroke-miterlimit="10" stroke-dasharray=""/><path fill="rgb(243,134,48)" stroke="rgb(243,134,48)" paint-order="fill" d="M 381.26190185546875 225.91722106933594 A 2.5 2.5 0 1 1 381.26190060546884 225.9147210697526" fill-opacity="0.6" clip-path="url(#hLQADvVXvCrm)" stroke-opacity="1" stroke-linejoin="bevel" stroke-miterlimit="10" stroke-dasharray=""/><path fill="rgb(243,134,48)" stroke="rgb(243,134,48)" paint-order="fill" d="M 634.9285888671875 302.7875671386719 A 2.5 2.5 0 1 1 634.9285876171876 302.78506713908854" fill-opacity="0.6" clip-path="url(#hLQADvVXvCrm)" stroke-opacity="1" stroke-linejoin="bevel" stroke-miterlimit="10" stroke-dasharray=""/><path fill="rgb(243,134,48)" stroke="rgb(243,134,48)" paint-order="fill" d="M 671.1666870117188 479.58941650390625 A 2.5 2.5 0 1 1 671.1666857617189 479.5869165043229" fill-opacity="0.6" clip-path="url(#hLQADvVXvCrm)" stroke-opacity="1" stroke-linejoin="bevel" stroke-miterlimit="10" stroke-dasharray=""/><path fill="rgb(243,134,48)" stroke="rgb(243,134,48)" paint-order="fill" d="M 743.6428833007812 384.7826232910156 A 2.5 2.5 0 1 1 743.6428820507814 384.7801232914323" fill-opacity="0.6" clip-path="url(#hLQADvVXvCrm)" stroke-opacity="1" stroke-linejoin="bevel" stroke-miterlimit="10" stroke-dasharray=""/><path fill="rgb(243,134,48)" stroke="rgb(243,134,48)" paint-order="fill" d="M 743.6428833007812 238.72894287109375 A 2.5 2.5 0 1 1 743.6428820507814 238.72644287151041" fill-opacity="0.6" clip-path="url(#hLQADvVXvCrm)" stroke-opacity="1" stroke-linejoin="bevel" stroke-miterlimit="10" stroke-dasharray=""/><path fill="rgb(243,134,48)" stroke="rgb(243,134,48)" paint-order="fill" d="M 743.6428833007812 392.46966552734375 A 2.5 2.5 0 1 1 743.6428820507814 392.4671655277604" fill-opacity="0.6" clip-path="url(#hLQADvVXvCrm)" stroke-opacity="1" stroke-linejoin="bevel" stroke-miterlimit="10" stroke-dasharray=""/><path fill="rgb(243,134,48)" stroke="rgb(243,134,48)" paint-order="fill" d="M 779.8809814453125 328.4110412597656 A 2.5 2.5 0 1 1 779.8809801953126 328.4085412601823" fill-opacity="0.6" clip-path="url(#hLQADvVXvCrm)" stroke-opacity="1" stroke-linejoin="bevel" stroke-miterlimit="10" stroke-dasharray=""/><path fill="none" stroke="rgb(0,0,0)" paint-order="fill" d="M 34.5 573.5 L 795.5 573.5" stroke-opacity="1" stroke-linejoin="bevel" stroke-miterlimit="10" stroke-dasharray=""/><path fill="none" stroke="rgb(0,0,0)" paint-order="fill" d="M 52.5 579.5 L 52.5 571.5 M 88.5 579.5 L 88.5 571.5 M 125.5 579.5 L 125.5 571.5 M 161.5 579.5 L 161.5 571.5 M 197.5 579.5 L 197.5 571.5 M 233.5 579.5 L 233.5 571.5 M 270.5 579.5 L 270.5 571.5 M 306.5 579.5 L 306.5 571.5 M 342.5 579.5 L 342.5 571.5 M 378.5 579.5 L 378.5 571.5 M 415.5 579.5 L 415.5 571.5 M 451.5 579.5 L 451.5 571.5 M 487.5 579.5 L 487.5 571.5 M 523.5 579.5 L 523.5 571.5 M 559.5 579.5 L 559.5 571.5 M 596.5 579.5 L 596.5 571.5 M 632.5 579.5 L 632.5 571.5 M 668.5 579.5 L 668.5 571.5 M 704.5 579.5 L 704.5 571.5 M 741.5 579.5 L 741.5 571.5 M 777.5 579.5 L 777.5 571.5" stroke-opacity="1" stroke-linejoin="bevel" stroke-miterlimit="10" stroke-dasharray=""/><path fill="none" stroke="rgb(0,0,0)" paint-order="fill" d="" stroke-opacity="1" stroke-linejoin="bevel" stroke-miterlimit="10" stroke-dasharray=""/><text fill="rgb(68,68,68)" stroke="none" font-family="helvetica" font-size="9pt" font-style="normal" font-weight="normal" text-decoration="normal" x="0" y="0" text-anchor="middle" dominant-baseline="hanging" transform="matrix(1, 0, 0, 1, 52.5, 584.5)" fill-opacity="1">CB</text><text fill="rgb(68,68,68)" stroke="none" font-family="helvetica" font-size="9pt" font-style="normal" font-weight="normal" text-decoration="normal" x="0" y="0" text-anchor="middle" dominant-baseline="hanging" transform="matrix(1, 0, 0, 1, 88.5, 584.5)" fill-opacity="1">DB</text><text fill="rgb(68,68,68)" stroke="none" font-family="helvetica" font-size="9pt" font-style="normal" font-weight="normal" text-decoration="normal" x="0" y="0" text-anchor="middle" dominant-baseline="hanging" transform="matrix(1, 0, 0, 1, 125.5, 584.5)" fill-opacity="1">DE</text><text fill="rgb(68,68,68)" stroke="none" font-family="helvetica" font-size="9pt" font-style="normal" font-weight="normal" text-decoration="normal" x="0" y="0" text-anchor="middle" dominant-baseline="hanging" transform="matrix(1, 0, 0, 1, 161.5, 584.5)" fill-opacity="1">DT</text><text fill="rgb(68,68,68)" stroke="none" font-family="helvetica" font-size="9pt" font-style="normal" font-weight="normal" text-decoration="normal" x="0" y="0" text-anchor="middle" dominant-baseline="hanging" transform="matrix(1, 0, 0, 1, 197.5, 584.5)" fill-opacity="1">FB</text><text fill="rgb(68,68,68)" stroke="none" font-family="helvetica" font-size="9pt" font-style="normal" font-weight="normal" text-decoration="normal" x="0" y="0" text-anchor="middle" dominant-baseline="hanging" transform="matrix(1, 0, 0, 1, 233.5, 584.5)" fill-opacity="1">FS</text><text fill="rgb(68,68,68)" stroke="none" font-family="helvetica" font-size="9pt" font-style="normal" font-weight="normal" text-decoration="normal" x="0" y="0" text-anchor="middle" dominant-baseline="hanging" transform="matrix(1, 0, 0, 1, 270.5, 584.5)" fill-opacity="1">HB</text><text fill="rgb(68,68,68)" stroke="none" font-family="helvetica" font-size="9pt" font-style="normal" font-weight="normal" text-decoration="normal" x="0" y="0" text-anchor="middle" dominant-baseline="hanging" transform="matrix(1, 0, 0, 1, 306.5, 584.5)" fill-opacity="1">ILB</text><text fill="rgb(68,68,68)" stroke="none" font-family="helvetica" font-size="9pt" font-style="normal" font-weight="normal" text-decoration="normal" x="0" y="0" text-anchor="middle" dominant-baseline="hanging" transform="matrix(1, 0, 0, 1, 342.5, 584.5)" fill-opacity="1">K</text><text fill="rgb(68,68,68)" stroke="none" font-family="helvetica" font-size="9pt" font-style="normal" font-weight="normal" text-decoration="normal" x="0" y="0" text-anchor="middle" dominant-baseline="hanging" transform="matrix(1, 0, 0, 1, 378.5, 584.5)" fill-opacity="1">LB</text><text fill="rgb(68,68,68)" stroke="none" font-family="helvetica" font-size="9pt" font-style="normal" font-weight="normal" text-decoration="normal" x="0" y="0" text-anchor="middle" dominant-baseline="hanging" transform="matrix(1, 0, 0, 1, 415.5, 584.5)" fill-opacity="1">LS</text><text fill="rgb(68,68,68)" stroke="none" font-family="helvetica" font-size="9pt" font-style="normal" font-weight="normal" text-decoration="normal" x="0" y="0" text-anchor="middle" dominant-baseline="hanging" transform="matrix(1, 0, 0, 1, 451.5, 584.5)" fill-opacity="1">MLB</text><text fill="rgb(68,68,68)" stroke="none" font-family="helvetica" font-size="9pt" font-style="normal" font-weight="normal" text-decoration="normal" x="0" y="0" text-anchor="middle" dominant-baseline="hanging" transform="matrix(1, 0, 0, 1, 487.5, 584.5)" fill-opacity="1">NT</text><text fill="rgb(68,68,68)" stroke="none" font-family="helvetica" font-size="9pt" font-style="normal" font-weight="normal" text-decoration="normal" x="0" y="0" text-anchor="middle" dominant-baseline="hanging" transform="matrix(1, 0, 0, 1, 523.5, 584.5)" fill-opacity="1">OLB</text><text fill="rgb(68,68,68)" stroke="none" font-family="helvetica" font-size="9pt" font-style="normal" font-weight="normal" text-decoration="normal" x="0" y="0" text-anchor="middle" dominant-baseline="hanging" transform="matrix(1, 0, 0, 1, 559.5, 584.5)" fill-opacity="1">P</text><text fill="rgb(68,68,68)" stroke="none" font-family="helvetica" font-size="9pt" font-style="normal" font-weight="normal" text-decoration="normal" x="0" y="0" text-anchor="middle" dominant-baseline="hanging" transform="matrix(1, 0, 0, 1, 596.5, 584.5)" fill-opacity="1">QB</text><text fill="rgb(68,68,68)" stroke="none" font-family="helvetica" font-size="9pt" font-style="normal" font-weight="normal" text-decoration="normal" x="0" y="0" text-anchor="middle" dominant-baseline="hanging" transform="matrix(1, 0, 0, 1, 632.5, 584.5)" fill-opacity="1">RB</text><text fill="rgb(68,68,68)" stroke="none" font-family="helvetica" font-size="9pt" font-style="normal" font-weight="normal" text-decoration="normal" x="0" y="0" text-anchor="middle" dominant-baseline="hanging" transform="matrix(1, 0, 0, 1, 668.5, 584.5)" fill-opacity="1">S</text><text fill="rgb(68,68,68)" stroke="none" font-family="helvetica" font-size="9pt" font-style="normal" font-weight="normal" text-decoration="normal" x="0" y="0" text-anchor="middle" dominant-baseline="hanging" transform="matrix(1, 0, 0, 1, 704.5, 584.5)" fill-opacity="1">SS</text><text fill="rgb(68,68,68)" stroke="none" font-family="helvetica" font-size="9pt" font-style="normal" font-weight="normal" text-decoration="normal" x="0" y="0" text-anchor="middle" dominant-baseline="hanging" transform="matrix(1, 0, 0, 1, 741.5, 584.5)" fill-opacity="1">TE</text><text fill="rgb(68,68,68)" stroke="none" font-family="helvetica" font-size="9pt" font-style="normal" font-weight="normal" text-decoration="normal" x="0" y="0" text-anchor="middle" dominant-baseline="hanging" transform="matrix(1, 0, 0, 1, 777.5, 584.5)" fill-opacity="1">WR</text><path fill="none" stroke="rgb(0,0,0)" paint-order="fill" d="M 34.5 573.5 L 34.5 29.5" stroke-opacity="1" stroke-linejoin="bevel" stroke-miterlimit="10" stroke-dasharray=""/><path fill="none" stroke="rgb(0,0,0)" paint-order="fill" d="M 28.5 571.5 L 36.5 571.5 M 28.5 443.5 L 36.5 443.5 M 28.5 315.5 L 36.5 315.5 M 28.5 187.5 L 36.5 187.5 M 28.5 59.5 L 36.5 59.5" stroke-opacity="1" stroke-linejoin="bevel" stroke-miterlimit="10" stroke-dasharray=""/><path fill="none" stroke="rgb(0,0,0)" paint-order="fill" d="M 30.5 571.5 L 34.5 571.5 M 30.5 546.5 L 34.5 546.5 M 30.5 520.5 L 34.5 520.5 M 30.5 494.5 L 34.5 494.5 M 30.5 469.5 L 34.5 469.5 M 30.5 443.5 L 34.5 443.5 M 30.5 418.5 L 34.5 418.5 M 30.5 392.5 L 34.5 392.5 M 30.5 366.5 L 34.5 366.5 M 30.5 341.5 L 34.5 341.5 M 30.5 315.5 L 34.5 315.5 M 30.5 289.5 L 34.5 289.5 M 30.5 264.5 L 34.5 264.5 M 30.5 238.5 L 34.5 238.5 M 30.5 213.5 L 34.5 213.5 M 30.5 187.5 L 34.5 187.5 M 30.5 161.5 L 34.5 161.5 M 30.5 136.5 L 34.5 136.5 M 30.5 110.5 L 34.5 110.5 M 30.5 84.5 L 34.5 84.5 M 30.5 59.5 L 34.5 59.5 M 30.5 33.5 L 34.5 33.5" stroke-opacity="1" stroke-linejoin="bevel" stroke-miterlimit="10" stroke-dasharray=""/><text fill="rgb(68,68,68)" stroke="none" font-family="helvetica" font-size="9pt" font-style="normal" font-weight="normal" text-decoration="normal" x="0" y="0" text-anchor="end" dominant-baseline="central" transform="matrix(1, 0, 0, 1, 23.5, 571.5)" fill-opacity="1">150</text><text fill="rgb(68,68,68)" stroke="none" font-family="helvetica" font-size="9pt" font-style="normal" font-weight="normal" text-decoration="normal" x="0" y="0" text-anchor="end" dominant-baseline="central" transform="matrix(1, 0, 0, 1, 23.5, 443.5)" fill-opacity="1">200</text><text fill="rgb(68,68,68)" stroke="none" font-family="helvetica" font-size="9pt" font-style="normal" font-weight="normal" text-decoration="normal" x="0" y="0" text-anchor="end" dominant-baseline="central" transform="matrix(1, 0, 0, 1, 23.5, 315.5)" fill-opacity="1">250</text><text fill="rgb(68,68,68)" stroke="none" font-family="helvetica" font-size="9pt" font-style="normal" font-weight="normal" text-decoration="normal" x="0" y="0" text-anchor="end" dominant-baseline="central" transform="matrix(1, 0, 0, 1, 23.5, 187.5)" fill-opacity="1">300</text><text fill="rgb(68,68,68)" stroke="none" font-family="helvetica" font-size="9pt" font-style="normal" font-weight="normal" text-decoration="normal" x="0" y="0" text-anchor="end" dominant-baseline="central" transform="matrix(1, 0, 0, 1, 23.5, 59.5)" fill-opacity="1">350</text><path fill="none" stroke="none"/><text fill="rgb(0,0,0)" stroke="none" font-family="helvetica" font-size="15px" font-style="normal" font-weight="bold" text-decoration="normal" x="0" y="0" text-anchor="start" dominant-baseline="text-after-edge" transform="matrix(1, 0, 0, 1, 34.5, 24.5)" fill-opacity="1">Player Weight Distribution in lbs (by NFL Position)
</text></svg>