<svg version="1.1" xmlns="http://www.w3.org/2000/svg" xmlns:xlink="http://www.w3.org/1999/xlink" width="800" height="600"><defs><clipPath id="VzbFMhysDTTe"><path fill="none" stroke="none" d="M 26.5 29.5 L 795.5 29.5 L 795.5 573.5 L 26.5 573.5 L 26.5 29.5"/></clipPath><clipPath id="ZsrALhPNKGAz"><path fill="none" stroke="none" d="M 26.5 29.5 L 795.5 29.5 L 795.5 573.5 L 26.5 573.5 L 26.5 29.5"/></clipPath><clipPath id="PJdXTrmfFBld"><path fill="none" stroke="none" d="M 26.5 29.5 L 795.5 29.5 L 795.5 573.5 L 26.5 573.5 L 26.5 29.5"/></clipPath><clipPath id="aSKcvTQRuJlI"><path fill="none" stroke="none" d="M 26.5 29.5 L 795.5 29.5 L 795.5 573.5 L 26.5 573.5 L 26.5 29.5"/></clipPath><clipPath id="QKSmDCaEvLbN"><path fill="none" stroke="none" d="M 26.5 29.5 L 795.5 29.5 L 795.5 573.5 L 26.5 573.5 L 26.5 29.5"/></clipPath><clipPath id="nUuiTQdUoRlE"><path fill="none" stroke="none" d="M 26.5 29.5 L 795.5 29.5 L 795.5 573.5 L 26.5 573.5 L 26.5 29.5"/></clipPath><clipPath id="uPhMuPhKTJVc"><path fill="none" stroke="none" d="M 26.5 29.5 L 795.5 29.5 L 795.5 573.5 L 26.5 573.5 L 26.5 29.5"/></clipPath><clipPath id="VyoJcNDMGVRk"><path fill="none" stroke="none" d="M 26.5 29.5 L 795.5 29.5 L 795.5 573.5 L 26.5 573.5 L 26.5 29.5"/></clipPath><clipPath id="mdZzBFqoyiqa"><path fill="none" stroke="none" d="M 26.5 29.5 L 795.5 29.5 L 795.5 573.5 L 26.5 573.5 L 26.5 29.5"/></clipPath></defs><path fill="rgb(255,255,255)" stroke="none" paint-order="stroke" d="M 0.5 0.5 L 800.5 0.5 L 800.5 600.5 L 0.5 600.5 L 0.5 0.5" fill-opacity="1"/><rect fill="#FFFFFF" stroke="none" x="26" y="29" width="769" height="544" transform="matrix(1, 0, 0, 1, 0.5, 0.5)"/><path fill="rgb(239,239,239)" stroke="none" paint-order="stroke" d="M 26.5 29.5 L 795.5 29.5 L 795.5 573.5 L 26.5 573.5 L 26.5 29.5" fill-opacity="1"/><path fill="none" stroke="rgb(229,229,229)" paint-order="fill" d="M 26.5 29.5 L 795.5 29.5 L 795.5 573.5 L 26.5 573.5 L 26.5 29.5" stroke-opacity="1" stroke-linejoin="bevel" stroke-miterlimit="10" stroke-dasharray=""/><path fill="none" stroke="rgb(255,255,255)" paint-order="fill" d="M 26.5 548.5 L 795.5 548.5 M 26.5 478.5 L 795.5 478.5 M 26.5 407.5 L 795.5 407.5 M 26.5 336.5 L 795.5 336.5 M 26.5 266.5 L 795.5 266.5 M 26.5 195.5 L 795.5 195.5 M 26.5 125.5 L 795.5 125.5 M 26.5 54.5 L 795.5 54.5" stroke-opacity="1" stroke-linejoin="bevel" stroke-miterlimit="10" stroke-width="2" stroke-dasharray="" clip-path="url(#ZsrALhPNKGAz)"/><path fill="none" stroke="none"/><path fill="none" stroke="rgb(0,0,0)" paint-order="fill" d="M 44.80952453613281 230.9641571044922 L 44.80952453613281 301.5882873535156" stroke-opacity="1" stroke-linejoin="bevel" stroke-miterlimit="10" stroke-dasharray="" clip-path="url(#PJdXTrmfFBld)"/><path fill="none" stroke="rgb(0,0,0)" paint-order="fill" d="M 81.42857360839844 195.65208435058594 L 81.42857360839844 301.5882873535156" stroke-opacity="1" stroke-linejoin="bevel" stroke-miterlimit="10" stroke-dasharray="" clip-path="url(#PJdXTrmfFBld)"/><path fill="none" stroke="rgb(0,0,0)" paint-order="fill" d="M 118.04762268066406 54.403831481933594 L 118.04762268066406 160.34002685546875" stroke-opacity="1" stroke-linejoin="bevel" stroke-miterlimit="10" stroke-dasharray="" clip-path="url(#PJdXTrmfFBld)"/><path fill="none" stroke="rgb(0,0,0)" paint-order="fill" d="M 154.6666717529297 142.68399047851562 L 154.6666717529297 195.65208435058594" stroke-opacity="1" stroke-linejoin="bevel" stroke-miterlimit="10" stroke-dasharray="" clip-path="url(#PJdXTrmfFBld)"/><path fill="none" stroke="rgb(0,0,0)" paint-order="fill" d="M 191.2857208251953 248.62017822265625 L 191.2857208251953 301.5882873535156" stroke-opacity="1" stroke-linejoin="bevel" stroke-miterlimit="10" stroke-dasharray="" clip-path="url(#PJdXTrmfFBld)"/><path fill="none" stroke="rgb(0,0,0)" paint-order="fill" d="M 227.90475463867188 195.65208435058594 L 227.90475463867188 301.5882873535156" stroke-opacity="1" stroke-linejoin="bevel" stroke-miterlimit="10" stroke-dasharray="" clip-path="url(#PJdXTrmfFBld)"/><path fill="none" stroke="rgb(0,0,0)" paint-order="fill" d="M 264.5238037109375 195.65208435058594 L 264.5238037109375 301.5882873535156" stroke-opacity="1" stroke-linejoin="bevel" stroke-miterlimit="10" stroke-dasharray="" clip-path="url(#PJdXTrmfFBld)"/><path fill="none" stroke="rgb(0,0,0)" paint-order="fill" d="M 301.1428527832031 213.30812072753906 L 301.1428527832031 266.2762145996094" stroke-opacity="1" stroke-linejoin="bevel" stroke-miterlimit="10" stroke-dasharray="" clip-path="url(#PJdXTrmfFBld)"/><path fill="none" stroke="rgb(0,0,0)" paint-order="fill" d="M 337.76190185546875 195.65208435058594 L 337.76190185546875 266.2762145996094" stroke-opacity="1" stroke-linejoin="bevel" stroke-miterlimit="10" stroke-dasharray="" clip-path="url(#PJdXTrmfFBld)"/><path fill="none" stroke="rgb(0,0,0)" paint-order="fill" d="M 374.3809509277344 160.34002685546875 L 374.3809509277344 230.9641571044922" stroke-opacity="1" stroke-linejoin="bevel" stroke-miterlimit="10" stroke-dasharray="" clip-path="url(#PJdXTrmfFBld)"/><path fill="none" stroke="rgb(0,0,0)" paint-order="fill" d="M 411 195.65208435058594 L 411 195.65208435058594" stroke-opacity="1" stroke-linejoin="bevel" stroke-miterlimit="10" stroke-dasharray="" clip-path="url(#PJdXTrmfFBld)"/><path fill="none" stroke="rgb(0,0,0)" paint-order="fill" d="M 447.6190490722656 230.9641571044922 L 447.6190490722656 266.2762145996094" stroke-opacity="1" stroke-linejoin="bevel" stroke-miterlimit="10" stroke-dasharray="" clip-path="url(#PJdXTrmfFBld)"/><path fill="none" stroke="rgb(0,0,0)" paint-order="fill" d="M 484.23809814453125 195.65208435058594 L 484.23809814453125 195.65208435058594" stroke-opacity="1" stroke-linejoin="bevel" stroke-miterlimit="10" stroke-dasharray="" clip-path="url(#PJdXTrmfFBld)"/><path fill="none" stroke="rgb(0,0,0)" paint-order="fill" d="M 520.8571166992188 89.71589660644531 L 520.8571166992188 195.65208435058594" stroke-opacity="1" stroke-linejoin="bevel" stroke-miterlimit="10" stroke-dasharray="" clip-path="url(#PJdXTrmfFBld)"/><path fill="none" stroke="rgb(0,0,0)" paint-order="fill" d="M 557.4761962890625 125.02796173095703 L 557.4761962890625 160.34002685546875" stroke-opacity="1" stroke-linejoin="bevel" stroke-miterlimit="10" stroke-dasharray="" clip-path="url(#PJdXTrmfFBld)"/><path fill="none" stroke="rgb(0,0,0)" paint-order="fill" d="M 594.09521484375 89.71589660644531 L 594.09521484375 195.65208435058594" stroke-opacity="1" stroke-linejoin="bevel" stroke-miterlimit="10" stroke-dasharray="" clip-path="url(#PJdXTrmfFBld)"/><path fill="none" stroke="rgb(0,0,0)" paint-order="fill" d="M 630.7142944335938 230.9641571044922 L 630.7142944335938 336.90032958984375" stroke-opacity="1" stroke-linejoin="bevel" stroke-miterlimit="10" stroke-dasharray="" clip-path="url(#PJdXTrmfFBld)"/><path fill="none" stroke="rgb(0,0,0)" paint-order="fill" d="M 667.3333129882812 301.5882873535156 L 667.3333129882812 319.24432373046875" stroke-opacity="1" stroke-linejoin="bevel" stroke-miterlimit="10" stroke-dasharray="" clip-path="url(#PJdXTrmfFBld)"/><path fill="none" stroke="rgb(0,0,0)" paint-order="fill" d="M 703.952392578125 195.65208435058594 L 703.952392578125 301.5882873535156" stroke-opacity="1" stroke-linejoin="bevel" stroke-miterlimit="10" stroke-dasharray="" clip-path="url(#PJdXTrmfFBld)"/><path fill="none" stroke="rgb(0,0,0)" paint-order="fill" d="M 740.5714111328125 54.403831481933594 L 740.5714111328125 125.02796173095703" stroke-opacity="1" stroke-linejoin="bevel" stroke-miterlimit="10" stroke-dasharray="" clip-path="url(#PJdXTrmfFBld)"/><path fill="none" stroke="rgb(0,0,0)" paint-order="fill" d="M 777.1904907226562 160.34002685546875 L 777.1904907226562 230.9641571044922" stroke-opacity="1" stroke-linejoin="bevel" stroke-miterlimit="10" stroke-dasharray="" clip-path="url(#PJdXTrmfFBld)"/><path fill="none" stroke="none"/><path fill="none" stroke="rgb(0,0,0)" paint-order="fill" d="M 44.80952453613281 478.1485900878906 L 44.80952453613281 372.21240234375" stroke-opacity="1" stroke-linejoin="bevel" stroke-miterlimit="10" stroke-dasharray="" clip-path="url(#aSKcvTQRuJlI)"/><path fill="none" stroke="rgb(0,0,0)" paint-order="fill" d="M 81.42857360839844 442.8365478515625 L 81.42857360839844 372.21240234375" stroke-opacity="1" stroke-linejoin="bevel" stroke-miterlimit="10" stroke-dasharray="" clip-path="url(#aSKcvTQRuJlI)"/><path fill="none" stroke="rgb(0,0,0)" paint-order="fill" d="M 118.04762268066406 266.2762145996094 L 118.04762268066406 230.9641571044922" stroke-opacity="1" stroke-linejoin="bevel" stroke-miterlimit="10" stroke-dasharray="" clip-path="url(#aSKcvTQRuJlI)"/><path fill="none" stroke="rgb(0,0,0)" paint-order="fill" d="M 154.6666717529297 283.9322509765625 L 154.6666717529297 230.9641571044922" stroke-opacity="1" stroke-linejoin="bevel" stroke-miterlimit="10" stroke-dasharray="" clip-path="url(#aSKcvTQRuJlI)"/><path fill="none" stroke="rgb(0,0,0)" paint-order="fill" d="M 191.2857208251953 389.8684387207031 L 191.2857208251953 336.90032958984375" stroke-opacity="1" stroke-linejoin="bevel" stroke-miterlimit="10" stroke-dasharray="" clip-path="url(#aSKcvTQRuJlI)"/><path fill="none" stroke="rgb(0,0,0)" paint-order="fill" d="M 227.90475463867188 478.1485900878906 L 227.90475463867188 372.21240234375" stroke-opacity="1" stroke-linejoin="bevel" stroke-miterlimit="10" stroke-dasharray="" clip-path="url(#aSKcvTQRuJlI)"/><path fill="none" stroke="rgb(0,0,0)" paint-order="fill" d="M 264.5238037109375 442.8365478515625 L 264.5238037109375 407.52447509765625" stroke-opacity="1" stroke-linejoin="bevel" stroke-miterlimit="10" stroke-dasharray="" clip-path="url(#aSKcvTQRuJlI)"/><path fill="none" stroke="rgb(0,0,0)" paint-order="fill" d="M 301.1428527832031 354.5563659667969 L 301.1428527832031 301.5882873535156" stroke-opacity="1" stroke-linejoin="bevel" stroke-miterlimit="10" stroke-dasharray="" clip-path="url(#aSKcvTQRuJlI)"/><path fill="none" stroke="rgb(0,0,0)" paint-order="fill" d="M 337.76190185546875 407.52447509765625 L 337.76190185546875 336.90032958984375" stroke-opacity="1" stroke-linejoin="bevel" stroke-miterlimit="10" stroke-dasharray="" clip-path="url(#aSKcvTQRuJlI)"/><path fill="none" stroke="rgb(0,0,0)" paint-order="fill" d="M 374.3809509277344 336.90032958984375 L 374.3809509277344 301.5882873535156" stroke-opacity="1" stroke-linejoin="bevel" stroke-miterlimit="10" stroke-dasharray="" clip-path="url(#aSKcvTQRuJlI)"/><path fill="none" stroke="rgb(0,0,0)" paint-order="fill" d="M 411 301.5882873535156 L 411 275.1042175292969" stroke-opacity="1" stroke-linejoin="bevel" stroke-miterlimit="10" stroke-dasharray="" clip-path="url(#aSKcvTQRuJlI)"/><path fill="none" stroke="rgb(0,0,0)" paint-order="fill" d="M 447.6190490722656 336.90032958984375 L 447.6190490722656 336.90032958984375" stroke-opacity="1" stroke-linejoin="bevel" stroke-miterlimit="10" stroke-dasharray="" clip-path="url(#aSKcvTQRuJlI)"/><path fill="none" stroke="rgb(0,0,0)" paint-order="fill" d="M 484.23809814453125 301.5882873535156 L 484.23809814453125 266.2762145996094" stroke-opacity="1" stroke-linejoin="bevel" stroke-miterlimit="10" stroke-dasharray="" clip-path="url(#aSKcvTQRuJlI)"/><path fill="none" stroke="rgb(0,0,0)" paint-order="fill" d="M 520.8571166992188 372.21240234375 L 520.8571166992188 301.5882873535156" stroke-opacity="1" stroke-linejoin="bevel" stroke-miterlimit="10" stroke-dasharray="" clip-path="url(#aSKcvTQRuJlI)"/><path fill="none" stroke="rgb(0,0,0)" paint-order="fill" d="M 557.4761962890625 372.21240234375 L 557.4761962890625 301.5882873535156" stroke-opacity="1" stroke-linejoin="bevel" stroke-miterlimit="10" stroke-dasharray="" clip-path="url(#aSKcvTQRuJlI)"/><path fill="none" stroke="rgb(0,0,0)" paint-order="fill" d="M 594.09521484375 372.21240234375 L 594.09521484375 266.2762145996094" stroke-opacity="1" stroke-linejoin="bevel" stroke-miterlimit="10" stroke-dasharray="" clip-path="url(#aSKcvTQRuJlI)"/><path fill="none" stroke="rgb(0,0,0)" paint-order="fill" d="M 630.7142944335938 513.460693359375 L 630.7142944335938 407.52447509765625" stroke-opacity="1" stroke-linejoin="bevel" stroke-miterlimit="10" stroke-dasharray="" clip-path="url(#aSKcvTQRuJlI)"/><path fill="none" stroke="rgb(0,0,0)" paint-order="fill" d="M 667.3333129882812 407.52447509765625 L 667.3333129882812 354.5563659667969" stroke-opacity="1" stroke-linejoin="bevel" stroke-miterlimit="10" stroke-dasharray="" clip-path="url(#aSKcvTQRuJlI)"/><path fill="none" stroke="rgb(0,0,0)" paint-order="fill" d="M 703.952392578125 442.8365478515625 L 703.952392578125 372.21240234375" stroke-opacity="1" stroke-linejoin="bevel" stroke-miterlimit="10" stroke-dasharray="" clip-path="url(#aSKcvTQRuJlI)"/><path fill="none" stroke="rgb(0,0,0)" paint-order="fill" d="M 740.5714111328125 301.5882873535156 L 740.5714111328125 195.65208435058594" stroke-opacity="1" stroke-linejoin="bevel" stroke-miterlimit="10" stroke-dasharray="" clip-path="url(#aSKcvTQRuJlI)"/><path fill="none" stroke="rgb(0,0,0)" paint-order="fill" d="M 777.1904907226562 513.460693359375 L 777.1904907226562 372.21240234375" stroke-opacity="1" stroke-linejoin="bevel" stroke-miterlimit="10" stroke-dasharray="" clip-path="url(#aSKcvTQRuJlI)"/><path fill="none" stroke="none"/><path fill="rgb(215,25,28)" stroke="none" paint-order="stroke" d="M 31.99285888671875 372.21240234375 L 57.626190185546875 372.21240234375 L 57.626190185546875 301.5882873535156 L 31.99285888671875 301.5882873535156 L 31.99285888671875 372.21240234375" fill-opacity="0.75" clip-path="url(#QKSmDCaEvLbN)"/><path fill="none" stroke="rgb(0,0,0)" paint-order="fill" d="M 31.99285888671875 372.21240234375 L 57.626190185546875 372.21240234375 L 57.626190185546875 301.5882873535156 L 31.99285888671875 301.5882873535156 L 31.99285888671875 372.21240234375" stroke-opacity="1" stroke-linejoin="bevel" stroke-miterlimit="10" stroke-dasharray="" clip-path="url(#QKSmDCaEvLbN)"/><path fill="rgb(215,25,28)" stroke="none" paint-order="stroke" d="M 68.61190795898438 336.90032958984375 L 94.2452392578125 336.90032958984375 L 94.2452392578125 301.5882873535156 L 68.61190795898438 301.5882873535156 L 68.61190795898438 336.90032958984375" fill-opacity="0.75" clip-path="url(#QKSmDCaEvLbN)"/><path fill="none" stroke="rgb(0,0,0)" paint-order="fill" d="M 68.61190795898438 336.90032958984375 L 94.2452392578125 336.90032958984375 L 94.2452392578125 301.5882873535156 L 68.61190795898438 301.5882873535156 L 68.61190795898438 336.90032958984375" stroke-opacity="1" stroke-linejoin="bevel" stroke-miterlimit="10" stroke-dasharray="" clip-path="url(#QKSmDCaEvLbN)"/><path fill="rgb(215,25,28)" stroke="none" paint-order="stroke" d="M 105.23095703125 230.9641571044922 L 130.86428833007812 230.9641571044922 L 130.86428833007812 160.34002685546875 L 105.23095703125 160.34002685546875 L 105.23095703125 230.9641571044922" fill-opacity="0.75" clip-path="url(#QKSmDCaEvLbN)"/><path fill="none" stroke="rgb(0,0,0)" paint-order="fill" d="M 105.23095703125 230.9641571044922 L 130.86428833007812 230.9641571044922 L 130.86428833007812 160.34002685546875 L 105.23095703125 160.34002685546875 L 105.23095703125 230.9641571044922" stroke-opacity="1" stroke-linejoin="bevel" stroke-miterlimit="10" stroke-dasharray="" clip-path="url(#QKSmDCaEvLbN)"/><path fill="rgb(215,25,28)" stroke="none" paint-order="stroke" d="M 141.85000610351562 230.9641571044922 L 167.48333740234375 230.9641571044922 L 167.48333740234375 195.65208435058594 L 141.85000610351562 195.65208435058594 L 141.85000610351562 230.9641571044922" fill-opacity="0.75" clip-path="url(#QKSmDCaEvLbN)"/><path fill="none" stroke="rgb(0,0,0)" paint-order="fill" d="M 141.85000610351562 230.9641571044922 L 167.48333740234375 230.9641571044922 L 167.48333740234375 195.65208435058594 L 141.85000610351562 195.65208435058594 L 141.85000610351562 230.9641571044922" stroke-opacity="1" stroke-linejoin="bevel" stroke-miterlimit="10" stroke-dasharray="" clip-path="url(#QKSmDCaEvLbN)"/><path fill="rgb(215,25,28)" stroke="none" paint-order="stroke" d="M 178.46905517578125 301.5882873535156 L 204.10238647460938 301.5882873535156 L 204.10238647460938 301.5882873535156 L 178.46905517578125 301.5882873535156 L 178.46905517578125 301.5882873535156" fill-opacity="0.75" clip-path="url(#QKSmDCaEvLbN)"/><path fill="none" stroke="rgb(0,0,0)" paint-order="fill" d="M 178.46905517578125 301.5882873535156 L 204.10238647460938 301.5882873535156 L 204.10238647460938 301.5882873535156 L 178.46905517578125 301.5882873535156 L 178.46905517578125 301.5882873535156" stroke-opacity="1" stroke-linejoin="bevel" stroke-miterlimit="10" stroke-dasharray="" clip-path="url(#QKSmDCaEvLbN)"/><path fill="rgb(215,25,28)" stroke="none" paint-order="stroke" d="M 215.08810424804688 336.90032958984375 L 240.72140502929688 336.90032958984375 L 240.72140502929688 301.5882873535156 L 215.08810424804688 301.5882873535156 L 215.08810424804688 336.90032958984375" fill-opacity="0.75" clip-path="url(#QKSmDCaEvLbN)"/><path fill="none" stroke="rgb(0,0,0)" paint-order="fill" d="M 215.08810424804688 336.90032958984375 L 240.72140502929688 336.90032958984375 L 240.72140502929688 301.5882873535156 L 215.08810424804688 301.5882873535156 L 215.08810424804688 336.90032958984375" stroke-opacity="1" stroke-linejoin="bevel" stroke-miterlimit="10" stroke-dasharray="" clip-path="url(#QKSmDCaEvLbN)"/><path fill="rgb(215,25,28)" stroke="none" paint-order="stroke" d="M 251.70713806152344 301.5882873535156 L 277.3404541015625 301.5882873535156 L 277.3404541015625 301.5882873535156 L 251.70713806152344 301.5882873535156 L 251.70713806152344 301.5882873535156" fill-opacity="0.75" clip-path="url(#QKSmDCaEvLbN)"/><path fill="none" stroke="rgb(0,0,0)" paint-order="fill" d="M 251.70713806152344 301.5882873535156 L 277.3404541015625 301.5882873535156 L 277.3404541015625 301.5882873535156 L 251.70713806152344 301.5882873535156 L 251.70713806152344 301.5882873535156" stroke-opacity="1" stroke-linejoin="bevel" stroke-miterlimit="10" stroke-dasharray="" clip-path="url(#QKSmDCaEvLbN)"/><path fill="rgb(215,25,28)" stroke="none" paint-order="stroke" d="M 288.326171875 301.5882873535156 L 313.95953369140625 301.5882873535156 L 313.95953369140625 266.2762145996094 L 288.326171875 266.2762145996094 L 288.326171875 301.5882873535156" fill-opacity="0.75" clip-path="url(#QKSmDCaEvLbN)"/><path fill="none" stroke="rgb(0,0,0)" paint-order="fill" d="M 288.326171875 301.5882873535156 L 313.95953369140625 301.5882873535156 L 313.95953369140625 266.2762145996094 L 288.326171875 266.2762145996094 L 288.326171875 301.5882873535156" stroke-opacity="1" stroke-linejoin="bevel" stroke-miterlimit="10" stroke-dasharray="" clip-path="url(#QKSmDCaEvLbN)"/><path fill="rgb(215,25,28)" stroke="none" paint-order="stroke" d="M 324.9452209472656 301.5882873535156 L 350.5785827636719 301.5882873535156 L 350.5785827636719 266.2762145996094 L 324.9452209472656 266.2762145996094 L 324.9452209472656 301.5882873535156" fill-opacity="0.75" clip-path="url(#QKSmDCaEvLbN)"/><path fill="none" stroke="rgb(0,0,0)" paint-order="fill" d="M 324.9452209472656 301.5882873535156 L 350.5785827636719 301.5882873535156 L 350.5785827636719 266.2762145996094 L 324.9452209472656 266.2762145996094 L 324.9452209472656 301.5882873535156" stroke-opacity="1" stroke-linejoin="bevel" stroke-miterlimit="10" stroke-dasharray="" clip-path="url(#QKSmDCaEvLbN)"/><path fill="rgb(215,25,28)" stroke="none" paint-order="stroke" d="M 361.56427001953125 266.2762145996094 L 387.1976318359375 266.2762145996094 L 387.1976318359375 230.9641571044922 L 361.56427001953125 230.9641571044922 L 361.56427001953125 266.2762145996094" fill-opacity="0.75" clip-path="url(#QKSmDCaEvLbN)"/><path fill="none" stroke="rgb(0,0,0)" paint-order="fill" d="M 361.56427001953125 266.2762145996094 L 387.1976318359375 266.2762145996094 L 387.1976318359375 230.9641571044922 L 361.56427001953125 230.9641571044922 L 361.56427001953125 266.2762145996094" stroke-opacity="1" stroke-linejoin="bevel" stroke-miterlimit="10" stroke-dasharray="" clip-path="url(#QKSmDCaEvLbN)"/><path fill="rgb(215,25,28)" stroke="none" paint-order="stroke" d="M 398.1833190917969 248.62017822265625 L 423.8166809082031 248.62017822265625 L 423.8166809082031 195.65208435058594 L 398.1833190917969 195.65208435058594 L 398.1833190917969 248.62017822265625" fill-opacity="0.75" clip-path="url(#QKSmDCaEvLbN)"/><path fill="none" stroke="rgb(0,0,0)" paint-order="fill" d="M 398.1833190917969 248.62017822265625 L 423.8166809082031 248.62017822265625 L 423.8166809082031 195.65208435058594 L 398.1833190917969 195.65208435058594 L 398.1833190917969 248.62017822265625" stroke-opacity="1" stroke-linejoin="bevel" stroke-miterlimit="10" stroke-dasharray="" clip-path="url(#QKSmDCaEvLbN)"/><path fill="rgb(215,25,28)" stroke="none" paint-order="stroke" d="M 434.8023681640625 301.5882873535156 L 460.43572998046875 301.5882873535156 L 460.43572998046875 266.2762145996094 L 434.8023681640625 266.2762145996094 L 434.8023681640625 301.5882873535156" fill-opacity="0.75" clip-path="url(#QKSmDCaEvLbN)"/><path fill="none" stroke="rgb(0,0,0)" paint-order="fill" d="M 434.8023681640625 301.5882873535156 L 460.43572998046875 301.5882873535156 L 460.43572998046875 266.2762145996094 L 434.8023681640625 266.2762145996094 L 434.8023681640625 301.5882873535156" stroke-opacity="1" stroke-linejoin="bevel" stroke-miterlimit="10" stroke-dasharray="" clip-path="url(#QKSmDCaEvLbN)"/><path fill="rgb(215,25,28)" stroke="none" paint-order="stroke" d="M 471.4214172363281 230.9641571044922 L 497.0547790527344 230.9641571044922 L 497.0547790527344 195.65208435058594 L 471.4214172363281 195.65208435058594 L 471.4214172363281 230.9641571044922" fill-opacity="0.75" clip-path="url(#QKSmDCaEvLbN)"/><path fill="none" stroke="rgb(0,0,0)" paint-order="fill" d="M 471.4214172363281 230.9641571044922 L 497.0547790527344 230.9641571044922 L 497.0547790527344 195.65208435058594 L 471.4214172363281 195.65208435058594 L 471.4214172363281 230.9641571044922" stroke-opacity="1" stroke-linejoin="bevel" stroke-miterlimit="10" stroke-dasharray="" clip-path="url(#QKSmDCaEvLbN)"/><path fill="rgb(215,25,28)" stroke="none" paint-order="stroke" d="M 508.0404357910156 230.9641571044922 L 533.673828125 230.9641571044922 L 533.673828125 195.65208435058594 L 508.0404357910156 195.65208435058594 L 508.0404357910156 230.9641571044922" fill-opacity="0.75" clip-path="url(#QKSmDCaEvLbN)"/><path fill="none" stroke="rgb(0,0,0)" paint-order="fill" d="M 508.0404357910156 230.9641571044922 L 533.673828125 230.9641571044922 L 533.673828125 195.65208435058594 L 508.0404357910156 195.65208435058594 L 508.0404357910156 230.9641571044922" stroke-opacity="1" stroke-linejoin="bevel" stroke-miterlimit="10" stroke-dasharray="" clip-path="url(#QKSmDCaEvLbN)"/><path fill="rgb(215,25,28)" stroke="none" paint-order="stroke" d="M 544.6595458984375 266.2762145996094 L 570.2928466796875 266.2762145996094 L 570.2928466796875 160.34002685546875 L 544.6595458984375 160.34002685546875 L 544.6595458984375 266.2762145996094" fill-opacity="0.75" clip-path="url(#QKSmDCaEvLbN)"/><path fill="none" stroke="rgb(0,0,0)" paint-order="fill" d="M 544.6595458984375 266.2762145996094 L 570.2928466796875 266.2762145996094 L 570.2928466796875 160.34002685546875 L 544.6595458984375 160.34002685546875 L 544.6595458984375 266.2762145996094" stroke-opacity="1" stroke-linejoin="bevel" stroke-miterlimit="10" stroke-dasharray="" clip-path="url(#QKSmDCaEvLbN)"/><path fill="rgb(215,25,28)" stroke="none" paint-order="stroke" d="M 581.278564453125 230.9641571044922 L 606.911865234375 230.9641571044922 L 606.911865234375 195.65208435058594 L 581.278564453125 195.65208435058594 L 581.278564453125 230.9641571044922" fill-opacity="0.75" clip-path="url(#QKSmDCaEvLbN)"/><path fill="none" stroke="rgb(0,0,0)" paint-order="fill" d="M 581.278564453125 230.9641571044922 L 606.911865234375 230.9641571044922 L 606.911865234375 195.65208435058594 L 581.278564453125 195.65208435058594 L 581.278564453125 230.9641571044922" stroke-opacity="1" stroke-linejoin="bevel" stroke-miterlimit="10" stroke-dasharray="" clip-path="url(#QKSmDCaEvLbN)"/><path fill="rgb(215,25,28)" stroke="none" paint-order="stroke" d="M 617.8975830078125 372.21240234375 L 643.531005859375 372.21240234375 L 643.531005859375 336.90032958984375 L 617.8975830078125 336.90032958984375 L 617.8975830078125 372.21240234375" fill-opacity="0.75" clip-path="url(#QKSmDCaEvLbN)"/><path fill="none" stroke="rgb(0,0,0)" paint-order="fill" d="M 617.8975830078125 372.21240234375 L 643.531005859375 372.21240234375 L 643.531005859375 336.90032958984375 L 617.8975830078125 336.90032958984375 L 617.8975830078125 372.21240234375" stroke-opacity="1" stroke-linejoin="bevel" stroke-miterlimit="10" stroke-dasharray="" clip-path="url(#QKSmDCaEvLbN)"/><path fill="rgb(215,25,28)" stroke="none" paint-order="stroke" d="M 654.5166015625 336.90032958984375 L 680.1500244140625 336.90032958984375 L 680.1500244140625 319.24432373046875 L 654.5166015625 319.24432373046875 L 654.5166015625 336.90032958984375" fill-opacity="0.75" clip-path="url(#QKSmDCaEvLbN)"/><path fill="none" stroke="rgb(0,0,0)" paint-order="fill" d="M 654.5166015625 336.90032958984375 L 680.1500244140625 336.90032958984375 L 680.1500244140625 319.24432373046875 L 654.5166015625 319.24432373046875 L 654.5166015625 336.90032958984375" stroke-opacity="1" stroke-linejoin="bevel" stroke-miterlimit="10" stroke-dasharray="" clip-path="url(#QKSmDCaEvLbN)"/><path fill="rgb(215,25,28)" stroke="none" paint-order="stroke" d="M 691.1357421875 336.90032958984375 L 716.76904296875 336.90032958984375 L 716.76904296875 301.5882873535156 L 691.1357421875 301.5882873535156 L 691.1357421875 336.90032958984375" fill-opacity="0.75" clip-path="url(#QKSmDCaEvLbN)"/><path fill="none" stroke="rgb(0,0,0)" paint-order="fill" d="M 691.1357421875 336.90032958984375 L 716.76904296875 336.90032958984375 L 716.76904296875 301.5882873535156 L 691.1357421875 301.5882873535156 L 691.1357421875 336.90032958984375" stroke-opacity="1" stroke-linejoin="bevel" stroke-miterlimit="10" stroke-dasharray="" clip-path="url(#QKSmDCaEvLbN)"/><path fill="rgb(215,25,28)" stroke="none" paint-order="stroke" d="M 727.7547607421875 160.34002685546875 L 753.3880615234375 160.34002685546875 L 753.3880615234375 125.02796173095703 L 727.7547607421875 125.02796173095703 L 727.7547607421875 160.34002685546875" fill-opacity="0.75" clip-path="url(#QKSmDCaEvLbN)"/><path fill="none" stroke="rgb(0,0,0)" paint-order="fill" d="M 727.7547607421875 160.34002685546875 L 753.3880615234375 160.34002685546875 L 753.3880615234375 125.02796173095703 L 727.7547607421875 125.02796173095703 L 727.7547607421875 160.34002685546875" stroke-opacity="1" stroke-linejoin="bevel" stroke-miterlimit="10" stroke-dasharray="" clip-path="url(#QKSmDCaEvLbN)"/><path fill="rgb(215,25,28)" stroke="none" paint-order="stroke" d="M 764.373779296875 301.5882873535156 L 790.0072021484375 301.5882873535156 L 790.0072021484375 230.9641571044922 L 764.373779296875 230.9641571044922 L 764.373779296875 301.5882873535156" fill-opacity="0.75" clip-path="url(#QKSmDCaEvLbN)"/><path fill="none" stroke="rgb(0,0,0)" paint-order="fill" d="M 764.373779296875 301.5882873535156 L 790.0072021484375 301.5882873535156 L 790.0072021484375 230.9641571044922 L 764.373779296875 230.9641571044922 L 764.373779296875 301.5882873535156" stroke-opacity="1" stroke-linejoin="bevel" stroke-miterlimit="10" stroke-dasharray="" clip-path="url(#QKSmDCaEvLbN)"/><path fill="none" stroke="none"/><path fill="rgb(43,131,186)" stroke="none" paint-order="stroke" d="M 31.99285888671875 372.21240234375 L 57.626190185546875 372.21240234375 L 57.626190185546875 372.21240234375 L 31.99285888671875 372.21240234375 L 31.99285888671875 372.21240234375" fill-opacity="0.75" clip-path="url(#nUuiTQdUoRlE)"/><path fill="none" stroke="rgb(0,0,0)" paint-order="fill" d="M 31.99285888671875 372.21240234375 L 57.626190185546875 372.21240234375 L 57.626190185546875 372.21240234375 L 31.99285888671875 372.21240234375 L 31.99285888671875 372.21240234375" stroke-opacity="1" stroke-linejoin="bevel" stroke-miterlimit="10" stroke-dasharray="" clip-path="url(#nUuiTQdUoRlE)"/><path fill="rgb(43,131,186)" stroke="none" paint-order="stroke" d="M 68.61190795898438 372.21240234375 L 94.2452392578125 372.21240234375 L 94.2452392578125 336.90032958984375 L 68.61190795898438 336.90032958984375 L 68.61190795898438 372.21240234375" fill-opacity="0.75" clip-path="url(#nUuiTQdUoRlE)"/><path fill="none" stroke="rgb(0,0,0)" paint-order="fill" d="M 68.61190795898438 372.21240234375 L 94.2452392578125 372.21240234375 L 94.2452392578125 336.90032958984375 L 68.61190795898438 336.90032958984375 L 68.61190795898438 372.21240234375" stroke-opacity="1" stroke-linejoin="bevel" stroke-miterlimit="10" stroke-dasharray="" clip-path="url(#nUuiTQdUoRlE)"/><path fill="rgb(43,131,186)" stroke="none" paint-order="stroke" d="M 105.23095703125 230.9641571044922 L 130.86428833007812 230.9641571044922 L 130.86428833007812 230.9641571044922 L 105.23095703125 230.9641571044922 L 105.23095703125 230.9641571044922" fill-opacity="0.75" clip-path="url(#nUuiTQdUoRlE)"/><path fill="none" stroke="rgb(0,0,0)" paint-order="fill" d="M 105.23095703125 230.9641571044922 L 130.86428833007812 230.9641571044922 L 130.86428833007812 230.9641571044922 L 105.23095703125 230.9641571044922 L 105.23095703125 230.9641571044922" stroke-opacity="1" stroke-linejoin="bevel" stroke-miterlimit="10" stroke-dasharray="" clip-path="url(#nUuiTQdUoRlE)"/><path fill="rgb(43,131,186)" stroke="none" paint-order="stroke" d="M 141.85000610351562 230.9641571044922 L 167.48333740234375 230.9641571044922 L 167.48333740234375 230.9641571044922 L 141.85000610351562 230.9641571044922 L 141.85000610351562 230.9641571044922" fill-opacity="0.75" clip-path="url(#nUuiTQdUoRlE)"/><path fill="none" stroke="rgb(0,0,0)" paint-order="fill" d="M 141.85000610351562 230.9641571044922 L 167.48333740234375 230.9641571044922 L 167.48333740234375 230.9641571044922 L 141.85000610351562 230.9641571044922 L 141.85000610351562 230.9641571044922" stroke-opacity="1" stroke-linejoin="bevel" stroke-miterlimit="10" stroke-dasharray="" clip-path="url(#nUuiTQdUoRlE)"/><path fill="rgb(43,131,186)" stroke="none" paint-order="stroke" d="M 178.46905517578125 336.90032958984375 L 204.10238647460938 336.90032958984375 L 204.10238647460938 301.5882873535156 L 178.46905517578125 301.5882873535156 L 178.46905517578125 336.90032958984375" fill-opacity="0.75" clip-path="url(#nUuiTQdUoRlE)"/><path fill="none" stroke="rgb(0,0,0)" paint-order="fill" d="M 178.46905517578125 336.90032958984375 L 204.10238647460938 336.90032958984375 L 204.10238647460938 301.5882873535156 L 178.46905517578125 301.5882873535156 L 178.46905517578125 336.90032958984375" stroke-opacity="1" stroke-linejoin="bevel" stroke-miterlimit="10" stroke-dasharray="" clip-path="url(#nUuiTQdUoRlE)"/><path fill="rgb(43,131,186)" stroke="none" paint-order="stroke" d="M 215.08810424804688 372.21240234375 L 240.72140502929688 372.21240234375 L 240.72140502929688 336.90032958984375 L 215.08810424804688 336.90032958984375 L 215.08810424804688 372.21240234375" fill-opacity="0.75" clip-path="url(#nUuiTQdUoRlE)"/><path fill="none" stroke="rgb(0,0,0)" paint-order="fill" d="M 215.08810424804688 372.21240234375 L 240.72140502929688 372.21240234375 L 240.72140502929688 336.90032958984375 L 215.08810424804688 336.90032958984375 L 215.08810424804688 372.21240234375" stroke-opacity="1" stroke-linejoin="bevel" stroke-miterlimit="10" stroke-dasharray="" clip-path="url(#nUuiTQdUoRlE)"/><path fill="rgb(43,131,186)" stroke="none" paint-order="stroke" d="M 251.70713806152344 407.52447509765625 L 277.3404541015625 407.52447509765625 L 277.3404541015625 301.5882873535156 L 251.70713806152344 301.5882873535156 L 251.70713806152344 407.52447509765625" fill-opacity="0.75" clip-path="url(#nUuiTQdUoRlE)"/><path fill="none" stroke="rgb(0,0,0)" paint-order="fill" d="M 251.70713806152344 407.52447509765625 L 277.3404541015625 407.52447509765625 L 277.3404541015625 301.5882873535156 L 251.70713806152344 301.5882873535156 L 251.70713806152344 407.52447509765625" stroke-opacity="1" stroke-linejoin="bevel" stroke-miterlimit="10" stroke-dasharray="" clip-path="url(#nUuiTQdUoRlE)"/><path fill="rgb(43,131,186)" stroke="none" paint-order="stroke" d="M 288.326171875 301.5882873535156 L 313.95953369140625 301.5882873535156 L 313.95953369140625 301.5882873535156 L 288.326171875 301.5882873535156 L 288.326171875 301.5882873535156" fill-opacity="0.75" clip-path="url(#nUuiTQdUoRlE)"/><path fill="none" stroke="rgb(0,0,0)" paint-order="fill" d="M 288.326171875 301.5882873535156 L 313.95953369140625 301.5882873535156 L 313.95953369140625 301.5882873535156 L 288.326171875 301.5882873535156 L 288.326171875 301.5882873535156" stroke-opacity="1" stroke-linejoin="bevel" stroke-miterlimit="10" stroke-dasharray="" clip-path="url(#nUuiTQdUoRlE)"/><path fill="rgb(43,131,186)" stroke="none" paint-order="stroke" d="M 324.9452209472656 336.90032958984375 L 350.5785827636719 336.90032958984375 L 350.5785827636719 301.5882873535156 L 324.9452209472656 301.5882873535156 L 324.9452209472656 336.90032958984375" fill-opacity="0.75" clip-path="url(#nUuiTQdUoRlE)"/><path fill="none" stroke="rgb(0,0,0)" paint-order="fill" d="M 324.9452209472656 336.90032958984375 L 350.5785827636719 336.90032958984375 L 350.5785827636719 301.5882873535156 L 324.9452209472656 301.5882873535156 L 324.9452209472656 336.90032958984375" stroke-opacity="1" stroke-linejoin="bevel" stroke-miterlimit="10" stroke-dasharray="" clip-path="url(#nUuiTQdUoRlE)"/><path fill="rgb(43,131,186)" stroke="none" paint-order="stroke" d="M 361.56427001953125 301.5882873535156 L 387.1976318359375 301.5882873535156 L 387.1976318359375 266.2762145996094 L 361.56427001953125 266.2762145996094 L 361.56427001953125 301.5882873535156" fill-opacity="0.75" clip-path="url(#nUuiTQdUoRlE)"/><path fill="none" stroke="rgb(0,0,0)" paint-order="fill" d="M 361.56427001953125 301.5882873535156 L 387.1976318359375 301.5882873535156 L 387.1976318359375 266.2762145996094 L 361.56427001953125 266.2762145996094 L 361.56427001953125 301.5882873535156" stroke-opacity="1" stroke-linejoin="bevel" stroke-miterlimit="10" stroke-dasharray="" clip-path="url(#nUuiTQdUoRlE)"/><path fill="rgb(43,131,186)" stroke="none" paint-order="stroke" d="M 398.1833190917969 275.1042175292969 L 423.8166809082031 275.1042175292969 L 423.8166809082031 248.62017822265625 L 398.1833190917969 248.62017822265625 L 398.1833190917969 275.1042175292969" fill-opacity="0.75" clip-path="url(#nUuiTQdUoRlE)"/><path fill="none" stroke="rgb(0,0,0)" paint-order="fill" d="M 398.1833190917969 275.1042175292969 L 423.8166809082031 275.1042175292969 L 423.8166809082031 248.62017822265625 L 398.1833190917969 248.62017822265625 L 398.1833190917969 275.1042175292969" stroke-opacity="1" stroke-linejoin="bevel" stroke-miterlimit="10" stroke-dasharray="" clip-path="url(#nUuiTQdUoRlE)"/><path fill="rgb(43,131,186)" stroke="none" paint-order="stroke" d="M 434.8023681640625 336.90032958984375 L 460.43572998046875 336.90032958984375 L 460.43572998046875 301.5882873535156 L 434.8023681640625 301.5882873535156 L 434.8023681640625 336.90032958984375" fill-opacity="0.75" clip-path="url(#nUuiTQdUoRlE)"/><path fill="none" stroke="rgb(0,0,0)" paint-order="fill" d="M 434.8023681640625 336.90032958984375 L 460.43572998046875 336.90032958984375 L 460.43572998046875 301.5882873535156 L 434.8023681640625 301.5882873535156 L 434.8023681640625 336.90032958984375" stroke-opacity="1" stroke-linejoin="bevel" stroke-miterlimit="10" stroke-dasharray="" clip-path="url(#nUuiTQdUoRlE)"/><path fill="rgb(43,131,186)" stroke="none" paint-order="stroke" d="M 471.4214172363281 266.2762145996094 L 497.0547790527344 266.2762145996094 L 497.0547790527344 230.9641571044922 L 471.4214172363281 230.9641571044922 L 471.4214172363281 266.2762145996094" fill-opacity="0.75" clip-path="url(#nUuiTQdUoRlE)"/><path fill="none" stroke="rgb(0,0,0)" paint-order="fill" d="M 471.4214172363281 266.2762145996094 L 497.0547790527344 266.2762145996094 L 497.0547790527344 230.9641571044922 L 471.4214172363281 230.9641571044922 L 471.4214172363281 266.2762145996094" stroke-opacity="1" stroke-linejoin="bevel" stroke-miterlimit="10" stroke-dasharray="" clip-path="url(#nUuiTQdUoRlE)"/><path fill="rgb(43,131,186)" stroke="none" paint-order="stroke" d="M 508.0404357910156 301.5882873535156 L 533.673828125 301.5882873535156 L 533.673828125 230.9641571044922 L 508.0404357910156 230.9641571044922 L 508.0404357910156 301.5882873535156" fill-opacity="0.75" clip-path="url(#nUuiTQdUoRlE)"/><path fill="none" stroke="rgb(0,0,0)" paint-order="fill" d="M 508.0404357910156 301.5882873535156 L 533.673828125 301.5882873535156 L 533.673828125 230.9641571044922 L 508.0404357910156 230.9641571044922 L 508.0404357910156 301.5882873535156" stroke-opacity="1" stroke-linejoin="bevel" stroke-miterlimit="10" stroke-dasharray="" clip-path="url(#nUuiTQdUoRlE)"/><path fill="rgb(43,131,186)" stroke="none" paint-order="stroke" d="M 544.6595458984375 301.5882873535156 L 570.2928466796875 301.5882873535156 L 570.2928466796875 266.2762145996094 L 544.6595458984375 266.2762145996094 L 544.6595458984375 301.5882873535156" fill-opacity="0.75" clip-path="url(#nUuiTQdUoRlE)"/><path fill="none" stroke="rgb(0,0,0)" paint-order="fill" d="M 544.6595458984375 301.5882873535156 L 570.2928466796875 301.5882873535156 L 570.2928466796875 266.2762145996094 L 544.6595458984375 266.2762145996094 L 544.6595458984375 301.5882873535156" stroke-opacity="1" stroke-linejoin="bevel" stroke-miterlimit="10" stroke-dasharray="" clip-path="url(#nUuiTQdUoRlE)"/><path fill="rgb(43,131,186)" stroke="none" paint-order="stroke" d="M 581.278564453125 266.2762145996094 L 606.911865234375 266.2762145996094 L 606.911865234375 230.9641571044922 L 581.278564453125 230.9641571044922 L 581.278564453125 266.2762145996094" fill-opacity="0.75" clip-path="url(#nUuiTQdUoRlE)"/><path fill="none" stroke="rgb(0,0,0)" paint-order="fill" d="M 581.278564453125 266.2762145996094 L 606.911865234375 266.2762145996094 L 606.911865234375 230.9641571044922 L 581.278564453125 230.9641571044922 L 581.278564453125 266.2762145996094" stroke-opacity="1" stroke-linejoin="bevel" stroke-miterlimit="10" stroke-dasharray="" clip-path="url(#nUuiTQdUoRlE)"/><path fill="rgb(43,131,186)" stroke="none" paint-order="stroke" d="M 617.8975830078125 407.52447509765625 L 643.531005859375 407.52447509765625 L 643.531005859375 372.21240234375 L 617.8975830078125 372.21240234375 L 617.8975830078125 407.52447509765625" fill-opacity="0.75" clip-path="url(#nUuiTQdUoRlE)"/><path fill="none" stroke="rgb(0,0,0)" paint-order="fill" d="M 617.8975830078125 407.52447509765625 L 643.531005859375 407.52447509765625 L 643.531005859375 372.21240234375 L 617.8975830078125 372.21240234375 L 617.8975830078125 407.52447509765625" stroke-opacity="1" stroke-linejoin="bevel" stroke-miterlimit="10" stroke-dasharray="" clip-path="url(#nUuiTQdUoRlE)"/><path fill="rgb(43,131,186)" stroke="none" paint-order="stroke" d="M 654.5166015625 354.5563659667969 L 680.1500244140625 354.5563659667969 L 680.1500244140625 336.90032958984375 L 654.5166015625 336.90032958984375 L 654.5166015625 354.5563659667969" fill-opacity="0.75" clip-path="url(#nUuiTQdUoRlE)"/><path fill="none" stroke="rgb(0,0,0)" paint-order="fill" d="M 654.5166015625 354.5563659667969 L 680.1500244140625 354.5563659667969 L 680.1500244140625 336.90032958984375 L 654.5166015625 336.90032958984375 L 654.5166015625 354.5563659667969" stroke-opacity="1" stroke-linejoin="bevel" stroke-miterlimit="10" stroke-dasharray="" clip-path="url(#nUuiTQdUoRlE)"/><path fill="rgb(43,131,186)" stroke="none" paint-order="stroke" d="M 691.1357421875 372.21240234375 L 716.76904296875 372.21240234375 L 716.76904296875 336.90032958984375 L 691.1357421875 336.90032958984375 L 691.1357421875 372.21240234375" fill-opacity="0.75" clip-path="url(#nUuiTQdUoRlE)"/><path fill="none" stroke="rgb(0,0,0)" paint-order="fill" d="M 691.1357421875 372.21240234375 L 716.76904296875 372.21240234375 L 716.76904296875 336.90032958984375 L 691.1357421875 336.90032958984375 L 691.1357421875 372.21240234375" stroke-opacity="1" stroke-linejoin="bevel" stroke-miterlimit="10" stroke-dasharray="" clip-path="url(#nUuiTQdUoRlE)"/><path fill="rgb(43,131,186)" stroke="none" paint-order="stroke" d="M 727.7547607421875 195.65208435058594 L 753.3880615234375 195.65208435058594 L 753.3880615234375 160.34002685546875 L 727.7547607421875 160.34002685546875 L 727.7547607421875 195.65208435058594" fill-opacity="0.75" clip-path="url(#nUuiTQdUoRlE)"/><path fill="none" stroke="rgb(0,0,0)" paint-order="fill" d="M 727.7547607421875 195.65208435058594 L 753.3880615234375 195.65208435058594 L 753.3880615234375 160.34002685546875 L 727.7547607421875 160.34002685546875 L 727.7547607421875 195.65208435058594" stroke-opacity="1" stroke-linejoin="bevel" stroke-miterlimit="10" stroke-dasharray="" clip-path="url(#nUuiTQdUoRlE)"/><path fill="rgb(43,131,186)" stroke="none" paint-order="stroke" d="M 764.373779296875 372.21240234375 L 790.0072021484375 372.21240234375 L 790.0072021484375 301.5882873535156 L 764.373779296875 301.5882873535156 L 764.373779296875 372.21240234375" fill-opacity="0.75" clip-path="url(#nUuiTQdUoRlE)"/><path fill="none" stroke="rgb(0,0,0)" paint-order="fill" d="M 764.373779296875 372.21240234375 L 790.0072021484375 372.21240234375 L 790.0072021484375 301.5882873535156 L 764.373779296875 301.5882873535156 L 764.373779296875 372.21240234375" stroke-opacity="1" stroke-linejoin="bevel" stroke-miterlimit="10" stroke-dasharray="" clip-path="url(#nUuiTQdUoRlE)"/><path fill="none" stroke="none"/><path fill="rgb(31,119,180)" stroke="none" paint-order="stroke" d="M 41.147621154785156 477.9720458984375 L 48.47142791748047 477.9720458984375 L 48.47142791748047 478.3251647949219 L 41.147621154785156 478.3251647949219 L 41.147621154785156 477.9720458984375" fill-opacity="1" clip-path="url(#uPhMuPhKTJVc)"/><path fill="rgb(31,119,180)" stroke="none" paint-order="stroke" d="M 77.76666259765625 442.65997314453125 L 85.0904769897461 442.65997314453125 L 85.0904769897461 443.0130920410156 L 77.76666259765625 443.0130920410156 L 77.76666259765625 442.65997314453125" fill-opacity="1" clip-path="url(#uPhMuPhKTJVc)"/><path fill="rgb(31,119,180)" stroke="none" paint-order="stroke" d="M 114.3857192993164 266.09967041015625 L 121.70951843261719 266.09967041015625 L 121.70951843261719 266.4527893066406 L 114.3857192993164 266.4527893066406 L 114.3857192993164 266.09967041015625" fill-opacity="1" clip-path="url(#uPhMuPhKTJVc)"/><path fill="rgb(31,119,180)" stroke="none" paint-order="stroke" d="M 151.0047607421875 283.75567626953125 L 158.3285675048828 283.75567626953125 L 158.3285675048828 284.1087951660156 L 151.0047607421875 284.1087951660156 L 151.0047607421875 283.75567626953125" fill-opacity="1" clip-path="url(#uPhMuPhKTJVc)"/><path fill="rgb(31,119,180)" stroke="none" paint-order="stroke" d="M 187.62380981445312 389.69189453125 L 194.94761657714844 389.69189453125 L 194.94761657714844 390.0450134277344 L 187.62380981445312 390.0450134277344 L 187.62380981445312 389.69189453125" fill-opacity="1" clip-path="url(#uPhMuPhKTJVc)"/><path fill="rgb(31,119,180)" stroke="none" paint-order="stroke" d="M 224.24285888671875 477.9720458984375 L 231.56666564941406 477.9720458984375 L 231.56666564941406 478.3251647949219 L 224.24285888671875 478.3251647949219 L 224.24285888671875 477.9720458984375" fill-opacity="1" clip-path="url(#uPhMuPhKTJVc)"/><path fill="rgb(31,119,180)" stroke="none" paint-order="stroke" d="M 260.8619079589844 442.65997314453125 L 268.1856994628906 442.65997314453125 L 268.1856994628906 443.0130920410156 L 260.8619079589844 443.0130920410156 L 260.8619079589844 442.65997314453125" fill-opacity="1" clip-path="url(#uPhMuPhKTJVc)"/><path fill="rgb(31,119,180)" stroke="none" paint-order="stroke" d="M 297.48095703125 354.37982177734375 L 304.80474853515625 354.37982177734375 L 304.80474853515625 354.7329406738281 L 297.48095703125 354.7329406738281 L 297.48095703125 354.37982177734375" fill-opacity="1" clip-path="url(#uPhMuPhKTJVc)"/><path fill="rgb(31,119,180)" stroke="none" paint-order="stroke" d="M 334.0999755859375 407.347900390625 L 341.423828125 407.347900390625 L 341.423828125 407.7010192871094 L 334.0999755859375 407.7010192871094 L 334.0999755859375 407.347900390625" fill-opacity="1" clip-path="url(#uPhMuPhKTJVc)"/><path fill="rgb(31,119,180)" stroke="none" paint-order="stroke" d="M 370.7190246582031 336.7237854003906 L 378.0428771972656 336.7237854003906 L 378.0428771972656 337.076904296875 L 370.7190246582031 337.076904296875 L 370.7190246582031 336.7237854003906" fill-opacity="1" clip-path="url(#uPhMuPhKTJVc)"/><path fill="rgb(31,119,180)" stroke="none" paint-order="stroke" d="M 407.33807373046875 301.4117126464844 L 414.66192626953125 301.4117126464844 L 414.66192626953125 301.76483154296875 L 407.33807373046875 301.76483154296875 L 407.33807373046875 301.4117126464844" fill-opacity="1" clip-path="url(#uPhMuPhKTJVc)"/><path fill="rgb(31,119,180)" stroke="none" paint-order="stroke" d="M 443.9571228027344 336.7237854003906 L 451.2809753417969 336.7237854003906 L 451.2809753417969 337.076904296875 L 443.9571228027344 337.076904296875 L 443.9571228027344 336.7237854003906" fill-opacity="1" clip-path="url(#uPhMuPhKTJVc)"/><path fill="rgb(31,119,180)" stroke="none" paint-order="stroke" d="M 480.576171875 301.4117126464844 L 487.9000244140625 301.4117126464844 L 487.9000244140625 301.76483154296875 L 480.576171875 301.76483154296875 L 480.576171875 301.4117126464844" fill-opacity="1" clip-path="url(#uPhMuPhKTJVc)"/><path fill="rgb(31,119,180)" stroke="none" paint-order="stroke" d="M 517.1952514648438 372.0358581542969 L 524.51904296875 372.0358581542969 L 524.51904296875 372.38897705078125 L 517.1952514648438 372.38897705078125 L 517.1952514648438 372.0358581542969" fill-opacity="1" clip-path="url(#uPhMuPhKTJVc)"/><path fill="rgb(31,119,180)" stroke="none" paint-order="stroke" d="M 553.8142700195312 372.0358581542969 L 561.1381225585938 372.0358581542969 L 561.1381225585938 372.38897705078125 L 553.8142700195312 372.38897705078125 L 553.8142700195312 372.0358581542969" fill-opacity="1" clip-path="url(#uPhMuPhKTJVc)"/><path fill="rgb(31,119,180)" stroke="none" paint-order="stroke" d="M 590.433349609375 372.0358581542969 L 597.7571411132812 372.0358581542969 L 597.7571411132812 372.38897705078125 L 590.433349609375 372.38897705078125 L 590.433349609375 372.0358581542969" fill-opacity="1" clip-path="url(#uPhMuPhKTJVc)"/><path fill="rgb(31,119,180)" stroke="none" paint-order="stroke" d="M 627.0523681640625 513.2841186523438 L 634.376220703125 513.2841186523438 L 634.376220703125 513.63720703125 L 627.0523681640625 513.63720703125 L 627.0523681640625 513.2841186523438" fill-opacity="1" clip-path="url(#uPhMuPhKTJVc)"/><path fill="rgb(31,119,180)" stroke="none" paint-order="stroke" d="M 663.67138671875 407.347900390625 L 670.9952392578125 407.347900390625 L 670.9952392578125 407.7010192871094 L 663.67138671875 407.7010192871094 L 663.67138671875 407.347900390625" fill-opacity="1" clip-path="url(#uPhMuPhKTJVc)"/><path fill="rgb(31,119,180)" stroke="none" paint-order="stroke" d="M 700.2904663085938 442.65997314453125 L 707.6143188476562 442.65997314453125 L 707.6143188476562 443.0130920410156 L 700.2904663085938 443.0130920410156 L 700.2904663085938 442.65997314453125" fill-opacity="1" clip-path="url(#uPhMuPhKTJVc)"/><path fill="rgb(31,119,180)" stroke="none" paint-order="stroke" d="M 736.9094848632812 301.4117126464844 L 744.2333374023438 301.4117126464844 L 744.2333374023438 301.76483154296875 L 736.9094848632812 301.76483154296875 L 736.9094848632812 301.4117126464844" fill-opacity="1" clip-path="url(#uPhMuPhKTJVc)"/><path fill="rgb(31,119,180)" stroke="none" paint-order="stroke" d="M 773.528564453125 513.2841186523438 L 780.8524169921875 513.2841186523438 L 780.8524169921875 513.63720703125 L 773.528564453125 513.63720703125 L 773.528564453125 513.2841186523438" fill-opacity="1" clip-path="url(#uPhMuPhKTJVc)"/><path fill="none" stroke="rgb(0,0,0)" paint-order="fill" d="M 41.147621154785156 477.9720458984375 L 48.47142791748047 477.9720458984375 L 48.47142791748047 478.3251647949219 L 41.147621154785156 478.3251647949219 L 41.147621154785156 477.9720458984375" stroke-opacity="1" stroke-linejoin="bevel" stroke-miterlimit="10" stroke-dasharray="" clip-path="url(#uPhMuPhKTJVc)"/><path fill="none" stroke="rgb(0,0,0)" paint-order="fill" d="M 77.76666259765625 442.65997314453125 L 85.0904769897461 442.65997314453125 L 85.0904769897461 443.0130920410156 L 77.76666259765625 443.0130920410156 L 77.76666259765625 442.65997314453125" stroke-opacity="1" stroke-linejoin="bevel" stroke-miterlimit="10" stroke-dasharray="" clip-path="url(#uPhMuPhKTJVc)"/><path fill="none" stroke="rgb(0,0,0)" paint-order="fill" d="M 114.3857192993164 266.09967041015625 L 121.70951843261719 266.09967041015625 L 121.70951843261719 266.4527893066406 L 114.3857192993164 266.4527893066406 L 114.3857192993164 266.09967041015625" stroke-opacity="1" stroke-linejoin="bevel" stroke-miterlimit="10" stroke-dasharray="" clip-path="url(#uPhMuPhKTJVc)"/><path fill="none" stroke="rgb(0,0,0)" paint-order="fill" d="M 151.0047607421875 283.75567626953125 L 158.3285675048828 283.75567626953125 L 158.3285675048828 284.1087951660156 L 151.0047607421875 284.1087951660156 L 151.0047607421875 283.75567626953125" stroke-opacity="1" stroke-linejoin="bevel" stroke-miterlimit="10" stroke-dasharray="" clip-path="url(#uPhMuPhKTJVc)"/><path fill="none" stroke="rgb(0,0,0)" paint-order="fill" d="M 187.62380981445312 389.69189453125 L 194.94761657714844 389.69189453125 L 194.94761657714844 390.0450134277344 L 187.62380981445312 390.0450134277344 L 187.62380981445312 389.69189453125" stroke-opacity="1" stroke-linejoin="bevel" stroke-miterlimit="10" stroke-dasharray="" clip-path="url(#uPhMuPhKTJVc)"/><path fill="none" stroke="rgb(0,0,0)" paint-order="fill" d="M 224.24285888671875 477.9720458984375 L 231.56666564941406 477.9720458984375 L 231.56666564941406 478.3251647949219 L 224.24285888671875 478.3251647949219 L 224.24285888671875 477.9720458984375" stroke-opacity="1" stroke-linejoin="bevel" stroke-miterlimit="10" stroke-dasharray="" clip-path="url(#uPhMuPhKTJVc)"/><path fill="none" stroke="rgb(0,0,0)" paint-order="fill" d="M 260.8619079589844 442.65997314453125 L 268.1856994628906 442.65997314453125 L 268.1856994628906 443.0130920410156 L 260.8619079589844 443.0130920410156 L 260.8619079589844 442.65997314453125" stroke-opacity="1" stroke-linejoin="bevel" stroke-miterlimit="10" stroke-dasharray="" clip-path="url(#uPhMuPhKTJVc)"/><path fill="none" stroke="rgb(0,0,0)" paint-order="fill" d="M 297.48095703125 354.37982177734375 L 304.80474853515625 354.37982177734375 L 304.80474853515625 354.7329406738281 L 297.48095703125 354.7329406738281 L 297.48095703125 354.37982177734375" stroke-opacity="1" stroke-linejoin="bevel" stroke-miterlimit="10" stroke-dasharray="" clip-path="url(#uPhMuPhKTJVc)"/><path fill="none" stroke="rgb(0,0,0)" paint-order="fill" d="M 334.0999755859375 407.347900390625 L 341.423828125 407.347900390625 L 341.423828125 407.7010192871094 L 334.0999755859375 407.7010192871094 L 334.0999755859375 407.347900390625" stroke-opacity="1" stroke-linejoin="bevel" stroke-miterlimit="10" stroke-dasharray="" clip-path="url(#uPhMuPhKTJVc)"/><path fill="none" stroke="rgb(0,0,0)" paint-order="fill" d="M 370.7190246582031 336.7237854003906 L 378.0428771972656 336.7237854003906 L 378.0428771972656 337.076904296875 L 370.7190246582031 337.076904296875 L 370.7190246582031 336.7237854003906" stroke-opacity="1" stroke-linejoin="bevel" stroke-miterlimit="10" stroke-dasharray="" clip-path="url(#uPhMuPhKTJVc)"/><path fill="none" stroke="rgb(0,0,0)" paint-order="fill" d="M 407.33807373046875 301.4117126464844 L 414.66192626953125 301.4117126464844 L 414.66192626953125 301.76483154296875 L 407.33807373046875 301.76483154296875 L 407.33807373046875 301.4117126464844" stroke-opacity="1" stroke-linejoin="bevel" stroke-miterlimit="10" stroke-dasharray="" clip-path="url(#uPhMuPhKTJVc)"/><path fill="none" stroke="rgb(0,0,0)" paint-order="fill" d="M 443.9571228027344 336.7237854003906 L 451.2809753417969 336.7237854003906 L 451.2809753417969 337.076904296875 L 443.9571228027344 337.076904296875 L 443.9571228027344 336.7237854003906" stroke-opacity="1" stroke-linejoin="bevel" stroke-miterlimit="10" stroke-dasharray="" clip-path="url(#uPhMuPhKTJVc)"/><path fill="none" stroke="rgb(0,0,0)" paint-order="fill" d="M 480.576171875 301.4117126464844 L 487.9000244140625 301.4117126464844 L 487.9000244140625 301.76483154296875 L 480.576171875 301.76483154296875 L 480.576171875 301.4117126464844" stroke-opacity="1" stroke-linejoin="bevel" stroke-miterlimit="10" stroke-dasharray="" clip-path="url(#uPhMuPhKTJVc)"/><path fill="none" stroke="rgb(0,0,0)" paint-order="fill" d="M 517.1952514648438 372.0358581542969 L 524.51904296875 372.0358581542969 L 524.51904296875 372.38897705078125 L 517.1952514648438 372.38897705078125 L 517.1952514648438 372.0358581542969" stroke-opacity="1" stroke-linejoin="bevel" stroke-miterlimit="10" stroke-dasharray="" clip-path="url(#uPhMuPhKTJVc)"/><path fill="none" stroke="rgb(0,0,0)" paint-order="fill" d="M 553.8142700195312 372.0358581542969 L 561.1381225585938 372.0358581542969 L 561.1381225585938 372.38897705078125 L 553.8142700195312 372.38897705078125 L 553.8142700195312 372.0358581542969" stroke-opacity="1" stroke-linejoin="bevel" stroke-miterlimit="10" stroke-dasharray="" clip-path="url(#uPhMuPhKTJVc)"/><path fill="none" stroke="rgb(0,0,0)" paint-order="fill" d="M 590.433349609375 372.0358581542969 L 597.7571411132812 372.0358581542969 L 597.7571411132812 372.38897705078125 L 590.433349609375 372.38897705078125 L 590.433349609375 372.0358581542969" stroke-opacity="1" stroke-linejoin="bevel" stroke-miterlimit="10" stroke-dasharray="" clip-path="url(#uPhMuPhKTJVc)"/><path fill="none" stroke="rgb(0,0,0)" paint-order="fill" d="M 627.0523681640625 513.2841186523438 L 634.376220703125 513.2841186523438 L 634.376220703125 513.63720703125 L 627.0523681640625 513.63720703125 L 627.0523681640625 513.2841186523438" stroke-opacity="1" stroke-linejoin="bevel" stroke-miterlimit="10" stroke-dasharray="" clip-path="url(#uPhMuPhKTJVc)"/><path fill="none" stroke="rgb(0,0,0)" paint-order="fill" d="M 663.67138671875 407.347900390625 L 670.9952392578125 407.347900390625 L 670.9952392578125 407.7010192871094 L 663.67138671875 407.7010192871094 L 663.67138671875 407.347900390625" stroke-opacity="1" stroke-linejoin="bevel" stroke-miterlimit="10" stroke-dasharray="" clip-path="url(#uPhMuPhKTJVc)"/><path fill="none" stroke="rgb(0,0,0)" paint-order="fill" d="M 700.2904663085938 442.65997314453125 L 707.6143188476562 442.65997314453125 L 707.6143188476562 443.0130920410156 L 700.2904663085938 443.0130920410156 L 700.2904663085938 442.65997314453125" stroke-opacity="1" stroke-linejoin="bevel" stroke-miterlimit="10" stroke-dasharray="" clip-path="url(#uPhMuPhKTJVc)"/><path fill="none" stroke="rgb(0,0,0)" paint-order="fill" d="M 736.9094848632812 301.4117126464844 L 744.2333374023438 301.4117126464844 L 744.2333374023438 301.76483154296875 L 736.9094848632812 301.76483154296875 L 736.9094848632812 301.4117126464844" stroke-opacity="1" stroke-linejoin="bevel" stroke-miterlimit="10" stroke-dasharray="" clip-path="url(#uPhMuPhKTJVc)"/><path fill="none" stroke="rgb(0,0,0)" paint-order="fill" d="M 773.528564453125 513.2841186523438 L 780.8524169921875 513.2841186523438 L 780.8524169921875 513.63720703125 L 773.528564453125 513.63720703125 L 773.528564453125 513.2841186523438" stroke-opacity="1" stroke-linejoin="bevel" stroke-miterlimit="10" stroke-dasharray="" clip-path="url(#uPhMuPhKTJVc)"/><path fill="none" stroke="rgb(0,0,0)" paint-order="fill" d="" stroke-opacity="1" stroke-linejoin="bevel" stroke-miterlimit="10" stroke-dasharray="" clip-path="url(#uPhMuPhKTJVc)"/><path fill="none" stroke="none"/><path fill="rgb(31,119,180)" stroke="none" paint-order="stroke" d="M 41.147621154785156 230.78759765625 L 48.47142791748047 230.78759765625 L 48.47142791748047 231.14071655273438 L 41.147621154785156 231.14071655273438 L 41.147621154785156 230.78759765625" fill-opacity="1" clip-path="url(#VyoJcNDMGVRk)"/><path fill="rgb(31,119,180)" stroke="none" paint-order="stroke" d="M 77.76666259765625 195.47552490234375 L 85.0904769897461 195.47552490234375 L 85.0904769897461 195.82864379882812 L 77.76666259765625 195.82864379882812 L 77.76666259765625 195.47552490234375" fill-opacity="1" clip-path="url(#VyoJcNDMGVRk)"/><path fill="rgb(31,119,180)" stroke="none" paint-order="stroke" d="M 114.3857192993164 54.227272033691406 L 121.70951843261719 54.227272033691406 L 121.70951843261719 54.58039474487305 L 114.3857192993164 54.58039474487305 L 114.3857192993164 54.227272033691406" fill-opacity="1" clip-path="url(#VyoJcNDMGVRk)"/><path fill="rgb(31,119,180)" stroke="none" paint-order="stroke" d="M 151.0047607421875 142.50743103027344 L 158.3285675048828 142.50743103027344 L 158.3285675048828 142.8605499267578 L 151.0047607421875 142.8605499267578 L 151.0047607421875 142.50743103027344" fill-opacity="1" clip-path="url(#VyoJcNDMGVRk)"/><path fill="rgb(31,119,180)" stroke="none" paint-order="stroke" d="M 187.62380981445312 248.44361877441406 L 194.94761657714844 248.44361877441406 L 194.94761657714844 248.79673767089844 L 187.62380981445312 248.79673767089844 L 187.62380981445312 248.44361877441406" fill-opacity="1" clip-path="url(#VyoJcNDMGVRk)"/><path fill="rgb(31,119,180)" stroke="none" paint-order="stroke" d="M 224.24285888671875 195.47552490234375 L 231.56666564941406 195.47552490234375 L 231.56666564941406 195.82864379882812 L 224.24285888671875 195.82864379882812 L 224.24285888671875 195.47552490234375" fill-opacity="1" clip-path="url(#VyoJcNDMGVRk)"/><path fill="rgb(31,119,180)" stroke="none" paint-order="stroke" d="M 260.8619079589844 195.47552490234375 L 268.1856994628906 195.47552490234375 L 268.1856994628906 195.82864379882812 L 260.8619079589844 195.82864379882812 L 260.8619079589844 195.47552490234375" fill-opacity="1" clip-path="url(#VyoJcNDMGVRk)"/><path fill="rgb(31,119,180)" stroke="none" paint-order="stroke" d="M 297.48095703125 213.13156127929688 L 304.80474853515625 213.13156127929688 L 304.80474853515625 213.48468017578125 L 297.48095703125 213.48468017578125 L 297.48095703125 213.13156127929688" fill-opacity="1" clip-path="url(#VyoJcNDMGVRk)"/><path fill="rgb(31,119,180)" stroke="none" paint-order="stroke" d="M 334.0999755859375 195.47552490234375 L 341.423828125 195.47552490234375 L 341.423828125 195.82864379882812 L 334.0999755859375 195.82864379882812 L 334.0999755859375 195.47552490234375" fill-opacity="1" clip-path="url(#VyoJcNDMGVRk)"/><path fill="rgb(31,119,180)" stroke="none" paint-order="stroke" d="M 370.7190246582031 160.16346740722656 L 378.0428771972656 160.16346740722656 L 378.0428771972656 160.51658630371094 L 370.7190246582031 160.51658630371094 L 370.7190246582031 160.16346740722656" fill-opacity="1" clip-path="url(#VyoJcNDMGVRk)"/><path fill="rgb(31,119,180)" stroke="none" paint-order="stroke" d="M 407.33807373046875 195.47552490234375 L 414.66192626953125 195.47552490234375 L 414.66192626953125 195.82864379882812 L 407.33807373046875 195.82864379882812 L 407.33807373046875 195.47552490234375" fill-opacity="1" clip-path="url(#VyoJcNDMGVRk)"/><path fill="rgb(31,119,180)" stroke="none" paint-order="stroke" d="M 443.9571228027344 230.78759765625 L 451.2809753417969 230.78759765625 L 451.2809753417969 231.14071655273438 L 443.9571228027344 231.14071655273438 L 443.9571228027344 230.78759765625" fill-opacity="1" clip-path="url(#VyoJcNDMGVRk)"/><path fill="rgb(31,119,180)" stroke="none" paint-order="stroke" d="M 480.576171875 195.47552490234375 L 487.9000244140625 195.47552490234375 L 487.9000244140625 195.82864379882812 L 480.576171875 195.82864379882812 L 480.576171875 195.47552490234375" fill-opacity="1" clip-path="url(#VyoJcNDMGVRk)"/><path fill="rgb(31,119,180)" stroke="none" paint-order="stroke" d="M 517.1952514648438 89.53933715820312 L 524.51904296875 89.53933715820312 L 524.51904296875 89.8924560546875 L 517.1952514648438 89.8924560546875 L 517.1952514648438 89.53933715820312" fill-opacity="1" clip-path="url(#VyoJcNDMGVRk)"/><path fill="rgb(31,119,180)" stroke="none" paint-order="stroke" d="M 553.8142700195312 124.85140228271484 L 561.1381225585938 124.85140228271484 L 561.1381225585938 125.20452117919922 L 553.8142700195312 125.20452117919922 L 553.8142700195312 124.85140228271484" fill-opacity="1" clip-path="url(#VyoJcNDMGVRk)"/><path fill="rgb(31,119,180)" stroke="none" paint-order="stroke" d="M 590.433349609375 89.53933715820312 L 597.7571411132812 89.53933715820312 L 597.7571411132812 89.8924560546875 L 590.433349609375 89.8924560546875 L 590.433349609375 89.53933715820312" fill-opacity="1" clip-path="url(#VyoJcNDMGVRk)"/><path fill="rgb(31,119,180)" stroke="none" paint-order="stroke" d="M 627.0523681640625 230.78759765625 L 634.376220703125 230.78759765625 L 634.376220703125 231.14071655273438 L 627.0523681640625 231.14071655273438 L 627.0523681640625 230.78759765625" fill-opacity="1" clip-path="url(#VyoJcNDMGVRk)"/><path fill="rgb(31,119,180)" stroke="none" paint-order="stroke" d="M 663.67138671875 301.4117126464844 L 670.9952392578125 301.4117126464844 L 670.9952392578125 301.76483154296875 L 663.67138671875 301.76483154296875 L 663.67138671875 301.4117126464844" fill-opacity="1" clip-path="url(#VyoJcNDMGVRk)"/><path fill="rgb(31,119,180)" stroke="none" paint-order="stroke" d="M 700.2904663085938 195.47552490234375 L 707.6143188476562 195.47552490234375 L 707.6143188476562 195.82864379882812 L 700.2904663085938 195.82864379882812 L 700.2904663085938 195.47552490234375" fill-opacity="1" clip-path="url(#VyoJcNDMGVRk)"/><path fill="rgb(31,119,180)" stroke="none" paint-order="stroke" d="M 736.9094848632812 54.227272033691406 L 744.2333374023438 54.227272033691406 L 744.2333374023438 54.58039474487305 L 736.9094848632812 54.58039474487305 L 736.9094848632812 54.227272033691406" fill-opacity="1" clip-path="url(#VyoJcNDMGVRk)"/><path fill="rgb(31,119,180)" stroke="none" paint-order="stroke" d="M 773.528564453125 160.16346740722656 L 780.8524169921875 160.16346740722656 L 780.8524169921875 160.51658630371094 L 773.528564453125 160.51658630371094 L 773.528564453125 160.16346740722656" fill-opacity="1" clip-path="url(#VyoJcNDMGVRk)"/><path fill="none" stroke="rgb(0,0,0)" paint-order="fill" d="M 41.147621154785156 230.78759765625 L 48.47142791748047 230.78759765625 L 48.47142791748047 231.14071655273438 L 41.147621154785156 231.14071655273438 L 41.147621154785156 230.78759765625" stroke-opacity="1" stroke-linejoin="bevel" stroke-miterlimit="10" stroke-dasharray="" clip-path="url(#VyoJcNDMGVRk)"/><path fill="none" stroke="rgb(0,0,0)" paint-order="fill" d="M 77.76666259765625 195.47552490234375 L 85.0904769897461 195.47552490234375 L 85.0904769897461 195.82864379882812 L 77.76666259765625 195.82864379882812 L 77.76666259765625 195.47552490234375" stroke-opacity="1" stroke-linejoin="bevel" stroke-miterlimit="10" stroke-dasharray="" clip-path="url(#VyoJcNDMGVRk)"/><path fill="none" stroke="rgb(0,0,0)" paint-order="fill" d="M 114.3857192993164 54.227272033691406 L 121.70951843261719 54.227272033691406 L 121.70951843261719 54.58039474487305 L 114.3857192993164 54.58039474487305 L 114.3857192993164 54.227272033691406" stroke-opacity="1" stroke-linejoin="bevel" stroke-miterlimit="10" stroke-dasharray="" clip-path="url(#VyoJcNDMGVRk)"/><path fill="none" stroke="rgb(0,0,0)" paint-order="fill" d="M 151.0047607421875 142.50743103027344 L 158.3285675048828 142.50743103027344 L 158.3285675048828 142.8605499267578 L 151.0047607421875 142.8605499267578 L 151.0047607421875 142.50743103027344" stroke-opacity="1" stroke-linejoin="bevel" stroke-miterlimit="10" stroke-dasharray="" clip-path="url(#VyoJcNDMGVRk)"/><path fill="none" stroke="rgb(0,0,0)" paint-order="fill" d="M 187.62380981445312 248.44361877441406 L 194.94761657714844 248.44361877441406 L 194.94761657714844 248.79673767089844 L 187.62380981445312 248.79673767089844 L 187.62380981445312 248.44361877441406" stroke-opacity="1" stroke-linejoin="bevel" stroke-miterlimit="10" stroke-dasharray="" clip-path="url(#VyoJcNDMGVRk)"/><path fill="none" stroke="rgb(0,0,0)" paint-order="fill" d="M 224.24285888671875 195.47552490234375 L 231.56666564941406 195.47552490234375 L 231.56666564941406 195.82864379882812 L 224.24285888671875 195.82864379882812 L 224.24285888671875 195.47552490234375" stroke-opacity="1" stroke-linejoin="bevel" stroke-miterlimit="10" stroke-dasharray="" clip-path="url(#VyoJcNDMGVRk)"/><path fill="none" stroke="rgb(0,0,0)" paint-order="fill" d="M 260.8619079589844 195.47552490234375 L 268.1856994628906 195.47552490234375 L 268.1856994628906 195.82864379882812 L 260.8619079589844 195.82864379882812 L 260.8619079589844 195.47552490234375" stroke-opacity="1" stroke-linejoin="bevel" stroke-miterlimit="10" stroke-dasharray="" clip-path="url(#VyoJcNDMGVRk)"/><path fill="none" stroke="rgb(0,0,0)" paint-order="fill" d="M 297.48095703125 213.13156127929688 L 304.80474853515625 213.13156127929688 L 304.80474853515625 213.48468017578125 L 297.48095703125 213.48468017578125 L 297.48095703125 213.13156127929688" stroke-opacity="1" stroke-linejoin="bevel" stroke-miterlimit="10" stroke-dasharray="" clip-path="url(#VyoJcNDMGVRk)"/><path fill="none" stroke="rgb(0,0,0)" paint-order="fill" d="M 334.0999755859375 195.47552490234375 L 341.423828125 195.47552490234375 L 341.423828125 195.82864379882812 L 334.0999755859375 195.82864379882812 L 334.0999755859375 195.47552490234375" stroke-opacity="1" stroke-linejoin="bevel" stroke-miterlimit="10" stroke-dasharray="" clip-path="url(#VyoJcNDMGVRk)"/><path fill="none" stroke="rgb(0,0,0)" paint-order="fill" d="M 370.7190246582031 160.16346740722656 L 378.0428771972656 160.16346740722656 L 378.0428771972656 160.51658630371094 L 370.7190246582031 160.51658630371094 L 370.7190246582031 160.16346740722656" stroke-opacity="1" stroke-linejoin="bevel" stroke-miterlimit="10" stroke-dasharray="" clip-path="url(#VyoJcNDMGVRk)"/><path fill="none" stroke="rgb(0,0,0)" paint-order="fill" d="M 407.33807373046875 195.47552490234375 L 414.66192626953125 195.47552490234375 L 414.66192626953125 195.82864379882812 L 407.33807373046875 195.82864379882812 L 407.33807373046875 195.47552490234375" stroke-opacity="1" stroke-linejoin="bevel" stroke-miterlimit="10" stroke-dasharray="" clip-path="url(#VyoJcNDMGVRk)"/><path fill="none" stroke="rgb(0,0,0)" paint-order="fill" d="M 443.9571228027344 230.78759765625 L 451.2809753417969 230.78759765625 L 451.2809753417969 231.14071655273438 L 443.9571228027344 231.14071655273438 L 443.9571228027344 230.78759765625" stroke-opacity="1" stroke-linejoin="bevel" stroke-miterlimit="10" stroke-dasharray="" clip-path="url(#VyoJcNDMGVRk)"/><path fill="none" stroke="rgb(0,0,0)" paint-order="fill" d="M 480.576171875 195.47552490234375 L 487.9000244140625 195.47552490234375 L 487.9000244140625 195.82864379882812 L 480.576171875 195.82864379882812 L 480.576171875 195.47552490234375" stroke-opacity="1" stroke-linejoin="bevel" stroke-miterlimit="10" stroke-dasharray="" clip-path="url(#VyoJcNDMGVRk)"/><path fill="none" stroke="rgb(0,0,0)" paint-order="fill" d="M 517.1952514648438 89.53933715820312 L 524.51904296875 89.53933715820312 L 524.51904296875 89.8924560546875 L 517.1952514648438 89.8924560546875 L 517.1952514648438 89.53933715820312" stroke-opacity="1" stroke-linejoin="bevel" stroke-miterlimit="10" stroke-dasharray="" clip-path="url(#VyoJcNDMGVRk)"/><path fill="none" stroke="rgb(0,0,0)" paint-order="fill" d="M 553.8142700195312 124.85140228271484 L 561.1381225585938 124.85140228271484 L 561.1381225585938 125.20452117919922 L 553.8142700195312 125.20452117919922 L 553.8142700195312 124.85140228271484" stroke-opacity="1" stroke-linejoin="bevel" stroke-miterlimit="10" stroke-dasharray="" clip-path="url(#VyoJcNDMGVRk)"/><path fill="none" stroke="rgb(0,0,0)" paint-order="fill" d="M 590.433349609375 89.53933715820312 L 597.7571411132812 89.53933715820312 L 597.7571411132812 89.8924560546875 L 590.433349609375 89.8924560546875 L 590.433349609375 89.53933715820312" stroke-opacity="1" stroke-linejoin="bevel" stroke-miterlimit="10" stroke-dasharray="" clip-path="url(#VyoJcNDMGVRk)"/><path fill="none" stroke="rgb(0,0,0)" paint-order="fill" d="M 627.0523681640625 230.78759765625 L 634.376220703125 230.78759765625 L 634.376220703125 231.14071655273438 L 627.0523681640625 231.14071655273438 L 627.0523681640625 230.78759765625" stroke-opacity="1" stroke-linejoin="bevel" stroke-miterlimit="10" stroke-dasharray="" clip-path="url(#VyoJcNDMGVRk)"/><path fill="none" stroke="rgb(0,0,0)" paint-order="fill" d="M 663.67138671875 301.4117126464844 L 670.9952392578125 301.4117126464844 L 670.9952392578125 301.76483154296875 L 663.67138671875 301.76483154296875 L 663.67138671875 301.4117126464844" stroke-opacity="1" stroke-linejoin="bevel" stroke-miterlimit="10" stroke-dasharray="" clip-path="url(#VyoJcNDMGVRk)"/><path fill="none" stroke="rgb(0,0,0)" paint-order="fill" d="M 700.2904663085938 195.47552490234375 L 707.6143188476562 195.47552490234375 L 707.6143188476562 195.82864379882812 L 700.2904663085938 195.82864379882812 L 700.2904663085938 195.47552490234375" stroke-opacity="1" stroke-linejoin="bevel" stroke-miterlimit="10" stroke-dasharray="" clip-path="url(#VyoJcNDMGVRk)"/><path fill="none" stroke="rgb(0,0,0)" paint-order="fill" d="M 736.9094848632812 54.227272033691406 L 744.2333374023438 54.227272033691406 L 744.2333374023438 54.58039474487305 L 736.9094848632812 54.58039474487305 L 736.9094848632812 54.227272033691406" stroke-opacity="1" stroke-linejoin="bevel" stroke-miterlimit="10" stroke-dasharray="" clip-path="url(#VyoJcNDMGVRk)"/><path fill="none" stroke="rgb(0,0,0)" paint-order="fill" d="M 773.528564453125 160.16346740722656 L 780.8524169921875 160.16346740722656 L 780.8524169921875 160.51658630371094 L 773.528564453125 160.51658630371094 L 773.528564453125 160.16346740722656" stroke-opacity="1" stroke-linejoin="bevel" stroke-miterlimit="10" stroke-dasharray="" clip-path="url(#VyoJcNDMGVRk)"/><path fill="none" stroke="rgb(0,0,0)" paint-order="fill" d="" stroke-opacity="1" stroke-linejoin="bevel" stroke-miterlimit="10" stroke-dasharray="" clip-path="url(#VyoJcNDMGVRk)"/><path fill="none" stroke="none"/><path fill="rgb(215,25,28)" stroke="rgb(215,25,28)" paint-order="fill" d="M 157.1666717529297 336.90032958984375 A 2.5 2.5 0 1 1 157.1666705029298 336.8978295902604" fill-opacity="0.6" clip-path="url(#mdZzBFqoyiqa)" stroke-opacity="1" stroke-linejoin="bevel" stroke-miterlimit="10" stroke-dasharray=""/><path fill="rgb(215,25,28)" stroke="rgb(215,25,28)" paint-order="fill" d="M 157.1666717529297 301.5882873535156 A 2.5 2.5 0 1 1 157.1666705029298 301.5857873539323" fill-opacity="0.6" clip-path="url(#mdZzBFqoyiqa)" stroke-opacity="1" stroke-linejoin="bevel" stroke-miterlimit="10" stroke-dasharray=""/><path fill="rgb(215,25,28)" stroke="rgb(215,25,28)" paint-order="fill" d="M 157.1666717529297 54.403831481933594 A 2.5 2.5 0 1 1 157.1666705029298 54.40133148235026" fill-opacity="0.6" clip-path="url(#mdZzBFqoyiqa)" stroke-opacity="1" stroke-linejoin="bevel" stroke-miterlimit="10" stroke-dasharray=""/><path fill="rgb(215,25,28)" stroke="rgb(215,25,28)" paint-order="fill" d="M 157.1666717529297 301.5882873535156 A 2.5 2.5 0 1 1 157.1666705029298 301.5857873539323" fill-opacity="0.6" clip-path="url(#mdZzBFqoyiqa)" stroke-opacity="1" stroke-linejoin="bevel" stroke-miterlimit="10" stroke-dasharray=""/><path fill="rgb(215,25,28)" stroke="rgb(215,25,28)" paint-order="fill" d="M 193.7857208251953 230.9641571044922 A 2.5 2.5 0 1 1 193.78571957519543 230.96165710490885" fill-opacity="0.6" clip-path="url(#mdZzBFqoyiqa)" stroke-opacity="1" stroke-linejoin="bevel" stroke-miterlimit="10" stroke-dasharray=""/><path fill="rgb(215,25,28)" stroke="rgb(215,25,28)" paint-order="fill" d="M 193.7857208251953 230.9641571044922 A 2.5 2.5 0 1 1 193.78571957519543 230.96165710490885" fill-opacity="0.6" clip-path="url(#mdZzBFqoyiqa)" stroke-opacity="1" stroke-linejoin="bevel" stroke-miterlimit="10" stroke-dasharray=""/><path fill="rgb(215,25,28)" stroke="rgb(215,25,28)" paint-order="fill" d="M 193.7857208251953 407.52447509765625 A 2.5 2.5 0 1 1 193.78571957519543 407.5219750980729" fill-opacity="0.6" clip-path="url(#mdZzBFqoyiqa)" stroke-opacity="1" stroke-linejoin="bevel" stroke-miterlimit="10" stroke-dasharray=""/><path fill="rgb(215,25,28)" stroke="rgb(215,25,28)" paint-order="fill" d="M 303.6428527832031 372.21240234375 A 2.5 2.5 0 1 1 303.6428515332032 372.20990234416666" fill-opacity="0.6" clip-path="url(#mdZzBFqoyiqa)" stroke-opacity="1" stroke-linejoin="bevel" stroke-miterlimit="10" stroke-dasharray=""/><path fill="rgb(215,25,28)" stroke="rgb(215,25,28)" paint-order="fill" d="M 303.6428527832031 195.65208435058594 A 2.5 2.5 0 1 1 303.6428515332032 195.6495843510026" fill-opacity="0.6" clip-path="url(#mdZzBFqoyiqa)" stroke-opacity="1" stroke-linejoin="bevel" stroke-miterlimit="10" stroke-dasharray=""/><path fill="rgb(215,25,28)" stroke="rgb(215,25,28)" paint-order="fill" d="M 303.6428527832031 195.65208435058594 A 2.5 2.5 0 1 1 303.6428515332032 195.6495843510026" fill-opacity="0.6" clip-path="url(#mdZzBFqoyiqa)" stroke-opacity="1" stroke-linejoin="bevel" stroke-miterlimit="10" stroke-dasharray=""/><path fill="rgb(215,25,28)" stroke="rgb(215,25,28)" paint-order="fill" d="M 303.6428527832031 372.21240234375 A 2.5 2.5 0 1 1 303.6428515332032 372.20990234416666" fill-opacity="0.6" clip-path="url(#mdZzBFqoyiqa)" stroke-opacity="1" stroke-linejoin="bevel" stroke-miterlimit="10" stroke-dasharray=""/><path fill="rgb(215,25,28)" stroke="rgb(215,25,28)" paint-order="fill" d="M 303.6428527832031 195.65208435058594 A 2.5 2.5 0 1 1 303.6428515332032 195.6495843510026" fill-opacity="0.6" clip-path="url(#mdZzBFqoyiqa)" stroke-opacity="1" stroke-linejoin="bevel" stroke-miterlimit="10" stroke-dasharray=""/><path fill="rgb(215,25,28)" stroke="rgb(215,25,28)" paint-order="fill" d="M 633.2142944335938 548.772705078125 A 2.5 2.5 0 1 1 633.2142931835939 548.7702050785417" fill-opacity="0.6" clip-path="url(#mdZzBFqoyiqa)" stroke-opacity="1" stroke-linejoin="bevel" stroke-miterlimit="10" stroke-dasharray=""/><path fill="rgb(215,25,28)" stroke="rgb(215,25,28)" paint-order="fill" d="M 633.2142944335938 548.772705078125 A 2.5 2.5 0 1 1 633.2142931835939 548.7702050785417" fill-opacity="0.6" clip-path="url(#mdZzBFqoyiqa)" stroke-opacity="1" stroke-linejoin="bevel" stroke-miterlimit="10" stroke-dasharray=""/><path fill="rgb(215,25,28)" stroke="rgb(215,25,28)" paint-order="fill" d="M 633.2142944335938 548.772705078125 A 2.5 2.5 0 1 1 633.2142931835939 548.7702050785417" fill-opacity="0.6" clip-path="url(#mdZzBFqoyiqa)" stroke-opacity="1" stroke-linejoin="bevel" stroke-miterlimit="10" stroke-dasharray=""/><path fill="none" stroke="rgb(0,0,0)" paint-order="fill" d="M 26.5 573.5 L 795.5 573.5" stroke-opacity="1" stroke-linejoin="bevel" stroke-miterlimit="10" stroke-dasharray=""/><path fill="none" stroke="rgb(0,0,0)" paint-order="fill" d="M 44.5 579.5 L 44.5 571.5 M 81.5 579.5 L 81.5 571.5 M 118.5 579.5 L 118.5 571.5 M 154.5 579.5 L 154.5 571.5 M 191.5 579.5 L 191.5 571.5 M 227.5 579.5 L 227.5 571.5 M 264.5 579.5 L 264.5 571.5 M 301.5 579.5 L 301.5 571.5 M 337.5 579.5 L 337.5 571.5 M 374.5 579.5 L 374.5 571.5 M 411.5 579.5 L 411.5 571.5 M 447.5 579.5 L 447.5 571.5 M 484.5 579.5 L 484.5 571.5 M 520.5 579.5 L 520.5 571.5 M 557.5 579.5 L 557.5 571.5 M 594.5 579.5 L 594.5 571.5 M 630.5 579.5 L 630.5 571.5 M 667.5 579.5 L 667.5 571.5 M 703.5 579.5 L 703.5 571.5 M 740.5 579.5 L 740.5 571.5 M 777.5 579.5 L 777.5 571.5" stroke-opacity="1" stroke-linejoin="bevel" stroke-miterlimit="10" stroke-dasharray=""/><path fill="none" stroke="rgb(0,0,0)" paint-order="fill" d="" stroke-opacity="1" stroke-linejoin="bevel" stroke-miterlimit="10" stroke-dasharray=""/><text fill="rgb(68,68,68)" stroke="none" font-family="helvetica" font-size="9pt" font-style="normal" font-weight="normal" text-decoration="normal" x="0" y="0" text-anchor="middle" dominant-baseline="hanging" transform="matrix(1, 0, 0, 1, 44.5, 584.5)" fill-opacity="1">CB</text><text fill="rgb(68,68,68)" stroke="none" font-family="helvetica" font-size="9pt" font-style="normal" font-weight="normal" text-decoration="normal" x="0" y="0" text-anchor="middle" dominant-baseline="hanging" transform="matrix(1, 0, 0, 1, 81.5, 584.5)" fill-opacity="1">DB</text><text fill="rgb(68,68,68)" stroke="none" font-family="helvetica" font-size="9pt" font-style="normal" font-weight="normal" text-decoration="normal" x="0" y="0" text-anchor="middle" dominant-baseline="hanging" transform="matrix(1, 0, 0, 1, 118.5, 584.5)" fill-opacity="1">DE</text><text fill="rgb(68,68,68)" stroke="none" font-family="helvetica" font-size="9pt" font-style="normal" font-weight="normal" text-decoration="normal" x="0" y="0" text-anchor="middle" dominant-baseline="hanging" transform="matrix(1, 0, 0, 1, 154.5, 584.5)" fill-opacity="1">DT</text><text fill="rgb(68,68,68)" stroke="none" font-family="helvetica" font-size="9pt" font-style="normal" font-weight="normal" text-decoration="normal" x="0" y="0" text-anchor="middle" dominant-baseline="hanging" transform="matrix(1, 0, 0, 1, 191.5, 584.5)" fill-opacity="1">FB</text><text fill="rgb(68,68,68)" stroke="none" font-family="helvetica" font-size="9pt" font-style="normal" font-weight="normal" text-decoration="normal" x="0" y="0" text-anchor="middle" dominant-baseline="hanging" transform="matrix(1, 0, 0, 1, 227.5, 584.5)" fill-opacity="1">FS</text><text fill="rgb(68,68,68)" stroke="none" font-family="helvetica" font-size="9pt" font-style="normal" font-weight="normal" text-decoration="normal" x="0" y="0" text-anchor="middle" dominant-baseline="hanging" transform="matrix(1, 0, 0, 1, 264.5, 584.5)" fill-opacity="1">HB</text><text fill="rgb(68,68,68)" stroke="none" font-family="helvetica" font-size="9pt" font-style="normal" font-weight="normal" text-decoration="normal" x="0" y="0" text-anchor="middle" dominant-baseline="hanging" transform="matrix(1, 0, 0, 1, 301.5, 584.5)" fill-opacity="1">ILB</text><text fill="rgb(68,68,68)" stroke="none" font-family="helvetica" font-size="9pt" font-style="normal" font-weight="normal" text-decoration="normal" x="0" y="0" text-anchor="middle" dominant-baseline="hanging" transform="matrix(1, 0, 0, 1, 337.5, 584.5)" fill-opacity="1">K</text><text fill="rgb(68,68,68)" stroke="none" font-family="helvetica" font-size="9pt" font-style="normal" font-weight="normal" text-decoration="normal" x="0" y="0" text-anchor="middle" dominant-baseline="hanging" transform="matrix(1, 0, 0, 1, 374.5, 584.5)" fill-opacity="1">LB</text><text fill="rgb(68,68,68)" stroke="none" font-family="helvetica" font-size="9pt" font-style="normal" font-weight="normal" text-decoration="normal" x="0" y="0" text-anchor="middle" dominant-baseline="hanging" transform="matrix(1, 0, 0, 1, 411.5, 584.5)" fill-opacity="1">LS</text><text fill="rgb(68,68,68)" stroke="none" font-family="helvetica" font-size="9pt" font-style="normal" font-weight="normal" text-decoration="normal" x="0" y="0" text-anchor="middle" dominant-baseline="hanging" transform="matrix(1, 0, 0, 1, 447.5, 584.5)" fill-opacity="1">MLB</text><text fill="rgb(68,68,68)" stroke="none" font-family="helvetica" font-size="9pt" font-style="normal" font-weight="normal" text-decoration="normal" x="0" y="0" text-anchor="middle" dominant-baseline="hanging" transform="matrix(1, 0, 0, 1, 484.5, 584.5)" fill-opacity="1">NT</text><text fill="rgb(68,68,68)" stroke="none" font-family="helvetica" font-size="9pt" font-style="normal" font-weight="normal" text-decoration="normal" x="0" y="0" text-anchor="middle" dominant-baseline="hanging" transform="matrix(1, 0, 0, 1, 520.5, 584.5)" fill-opacity="1">OLB</text><text fill="rgb(68,68,68)" stroke="none" font-family="helvetica" font-size="9pt" font-style="normal" font-weight="normal" text-decoration="normal" x="0" y="0" text-anchor="middle" dominant-baseline="hanging" transform="matrix(1, 0, 0, 1, 557.5, 584.5)" fill-opacity="1">P</text><text fill="rgb(68,68,68)" stroke="none" font-family="helvetica" font-size="9pt" font-style="normal" font-weight="normal" text-decoration="normal" x="0" y="0" text-anchor="middle" dominant-baseline="hanging" transform="matrix(1, 0, 0, 1, 594.5, 584.5)" fill-opacity="1">QB</text><text fill="rgb(68,68,68)" stroke="none" font-family="helvetica" font-size="9pt" font-style="normal" font-weight="normal" text-decoration="normal" x="0" y="0" text-anchor="middle" dominant-baseline="hanging" transform="matrix(1, 0, 0, 1, 630.5, 584.5)" fill-opacity="1">RB</text><text fill="rgb(68,68,68)" stroke="none" font-family="helvetica" font-size="9pt" font-style="normal" font-weight="normal" text-decoration="normal" x="0" y="0" text-anchor="middle" dominant-baseline="hanging" transform="matrix(1, 0, 0, 1, 667.5, 584.5)" fill-opacity="1">S</text><text fill="rgb(68,68,68)" stroke="none" font-family="helvetica" font-size="9pt" font-style="normal" font-weight="normal" text-decoration="normal" x="0" y="0" text-anchor="middle" dominant-baseline="hanging" transform="matrix(1, 0, 0, 1, 703.5, 584.5)" fill-opacity="1">SS</text><text fill="rgb(68,68,68)" stroke="none" font-family="helvetica" font-size="9pt" font-style="normal" font-weight="normal" text-decoration="normal" x="0" y="0" text-anchor="middle" dominant-baseline="hanging" transform="matrix(1, 0, 0, 1, 740.5, 584.5)" fill-opacity="1">TE</text><text fill="rgb(68,68,68)" stroke="none" font-family="helvetica" font-size="9pt" font-style="normal" font-weight="normal" text-decoration="normal" x="0" y="0" text-anchor="middle" dominant-baseline="hanging" transform="matrix(1, 0, 0, 1, 777.5, 584.5)" fill-opacity="1">WR</text><path fill="none" stroke="rgb(0,0,0)" paint-order="fill" d="M 26.5 573.5 L 26.5 29.5" stroke-opacity="1" stroke-linejoin="bevel" stroke-miterlimit="10" stroke-dasharray=""/><path fill="none" stroke="rgb(0,0,0)" paint-order="fill" d="M 20.5 548.5 L 28.5 548.5 M 20.5 478.5 L 28.5 478.5 M 20.5 407.5 L 28.5 407.5 M 20.5 336.5 L 28.5 336.5 M 20.5 266.5 L 28.5 266.5 M 20.5 195.5 L 28.5 195.5 M 20.5 125.5 L 28.5 125.5 M 20.5 54.5 L 28.5 54.5" stroke-opacity="1" stroke-linejoin="bevel" stroke-miterlimit="10" stroke-dasharray=""/><path fill="none" stroke="rgb(0,0,0)" paint-order="fill" d="M 22.5 562.5 L 26.5 562.5 M 22.5 548.5 L 26.5 548.5 M 22.5 534.5 L 26.5 534.5 M 22.5 520.5 L 26.5 520.5 M 22.5 506.5 L 26.5 506.5 M 22.5 492.5 L 26.5 492.5 M 22.5 478.5 L 26.5 478.5 M 22.5 464.5 L 26.5 464.5 M 22.5 449.5 L 26.5 449.5 M 22.5 435.5 L 26.5 435.5 M 22.5 421.5 L 26.5 421.5 M 22.5 407.5 L 26.5 407.5 M 22.5 393.5 L 26.5 393.5 M 22.5 379.5 L 26.5 379.5 M 22.5 365.5 L 26.5 365.5 M 22.5 351.5 L 26.5 351.5 M 22.5 336.5 L 26.5 336.5 M 22.5 322.5 L 26.5 322.5 M 22.5 308.5 L 26.5 308.5 M 22.5 294.5 L 26.5 294.5 M 22.5 280.5 L 26.5 280.5 M 22.5 266.5 L 26.5 266.5 M 22.5 252.5 L 26.5 252.5 M 22.5 238.5 L 26.5 238.5 M 22.5 223.5 L 26.5 223.5 M 22.5 209.5 L 26.5 209.5 M 22.5 195.5 L 26.5 195.5 M 22.5 181.5 L 26.5 181.5 M 22.5 167.5 L 26.5 167.5 M 22.5 153.5 L 26.5 153.5 M 22.5 139.5 L 26.5 139.5 M 22.5 125.5 L 26.5 125.5 M 22.5 110.5 L 26.5 110.5 M 22.5 96.5 L 26.5 96.5 M 22.5 82.5 L 26.5 82.5 M 22.5 68.5 L 26.5 68.5 M 22.5 54.5 L 26.5 54.5 M 22.5 40.5 L 26.5 40.5" stroke-opacity="1" stroke-linejoin="bevel" stroke-miterlimit="10" stroke-dasharray=""/><text fill="rgb(68,68,68)" stroke="none" font-family="helvetica" font-size="9pt" font-style="normal" font-weight="normal" text-decoration="normal" x="0" y="0" text-anchor="end" dominant-baseline="central" transform="matrix(1, 0, 0, 1, 15.5, 548.5)" fill-opacity="1">66</text><text fill="rgb(68,68,68)" stroke="none" font-family="helvetica" font-size="9pt" font-style="normal" font-weight="normal" text-decoration="normal" x="0" y="0" text-anchor="end" dominant-baseline="central" transform="matrix(1, 0, 0, 1, 15.5, 478.5)" fill-opacity="1">68</text><text fill="rgb(68,68,68)" stroke="none" font-family="helvetica" font-size="9pt" font-style="normal" font-weight="normal" text-decoration="normal" x="0" y="0" text-anchor="end" dominant-baseline="central" transform="matrix(1, 0, 0, 1, 15.5, 407.5)" fill-opacity="1">70</text><text fill="rgb(68,68,68)" stroke="none" font-family="helvetica" font-size="9pt" font-style="normal" font-weight="normal" text-decoration="normal" x="0" y="0" text-anchor="end" dominant-baseline="central" transform="matrix(1, 0, 0, 1, 15.5, 336.5)" fill-opacity="1">72</text><text fill="rgb(68,68,68)" stroke="none" font-family="helvetica" font-size="9pt" font-style="normal" font-weight="normal" text-decoration="normal" x="0" y="0" text-anchor="end" dominant-baseline="central" transform="matrix(1, 0, 0, 1, 15.5, 266.5)" fill-opacity="1">74</text><text fill="rgb(68,68,68)" stroke="none" font-family="helvetica" font-size="9pt" font-style="normal" font-weight="normal" text-decoration="normal" x="0" y="0" text-anchor="end" dominant-baseline="central" transform="matrix(1, 0, 0, 1, 15.5, 195.5)" fill-opacity="1">76</text><text fill="rgb(68,68,68)" stroke="none" font-family="helvetica" font-size="9pt" font-style="normal" font-weight="normal" text-decoration="normal" x="0" y="0" text-anchor="end" dominant-baseline="central" transform="matrix(1, 0, 0, 1, 15.5, 125.5)" fill-opacity="1">78</text><text fill="rgb(68,68,68)" stroke="none" font-family="helvetica" font-size="9pt" font-style="normal" font-weight="normal" text-decoration="normal" x="0" y="0" text-anchor="end" dominant-baseline="central" transform="matrix(1, 0, 0, 1, 15.5, 54.5)" fill-opacity="1">80</text><path fill="none" stroke="none"/><text fill="rgb(128,128,128)" stroke="none" font-family="helvetica" font-size="15px" font-style="normal" font-weight="bold" text-decoration="normal" x="0" y="0" text-anchor="start" dominant-baseline="text-after-edge" transform="matrix(1, 0, 0, 1, 26.5, 24.5)" fill-opacity="1">Player Height Distribution (by NFL Position)
</text></svg>