<?xml version="1.0" encoding="utf-8" standalone="no"?>
<!DOCTYPE svg PUBLIC "-//W3C//DTD SVG 1.1//EN"
  "http://www.w3.org/Graphics/SVG/1.1/DTD/svg11.dtd">
<!-- Created with matplotlib (https://matplotlib.org/) -->
<svg height="432pt" version="1.1" viewBox="0 0 648 432" width="648pt" xmlns="http://www.w3.org/2000/svg" xmlns:xlink="http://www.w3.org/1999/xlink">
 <metadata>
  <rdf:RDF xmlns:cc="http://creativecommons.org/ns#" xmlns:dc="http://purl.org/dc/elements/1.1/" xmlns:rdf="http://www.w3.org/1999/02/22-rdf-syntax-ns#">
   <cc:Work>
    <dc:type rdf:resource="http://purl.org/dc/dcmitype/StillImage"/>
    <dc:date>2020-10-31T15:36:37.982800</dc:date>
    <dc:format>image/svg+xml</dc:format>
    <dc:creator>
     <cc:Agent>
      <dc:title>Matplotlib v3.3.2, https://matplotlib.org/</dc:title>
     </cc:Agent>
    </dc:creator>
   </cc:Work>
  </rdf:RDF>
 </metadata>
 <defs>
  <style type="text/css">*{stroke-linecap:butt;stroke-linejoin:round;}</style>
 </defs>
 <g id="figure_1">
  <g id="patch_1">
   <path d="M 0 432 
L 648 432 
L 648 0 
L 0 0 
z
" style="fill:#ffffff;"/>
  </g>
  <g id="axes_1">
   <g id="LineCollection_1">
    <path clip-path="url(#p76aded19ce)" d="M 618.545455 216 
L 612.885855 254.308628 
" style="fill:none;stroke:#ff0000;stroke-width:0.3;"/>
    <path clip-path="url(#p76aded19ce)" d="M 618.545455 216 
L 436.717716 397.416327 
" style="fill:none;stroke:#ff0000;stroke-width:0.3;"/>
    <path clip-path="url(#p76aded19ce)" d="M 618.545455 216 
L 487.64069 52.729607 
" style="fill:none;stroke:#ff0000;stroke-width:0.3;"/>
    <path clip-path="url(#p76aded19ce)" d="M 618.545455 216 
L 532.275067 354.85008 
" style="fill:none;stroke:#ff0000;stroke-width:0.3;"/>
    <path clip-path="url(#p76aded19ce)" d="M 618.545455 216 
L 487.640638 379.270417 
" style="fill:none;stroke:#ff0000;stroke-width:0.3;"/>
    <path clip-path="url(#p76aded19ce)" d="M 618.545455 216 
L 35.114145 254.308631 
" style="fill:none;stroke:#ff0000;stroke-width:0.3;"/>
    <path clip-path="url(#p76aded19ce)" d="M 618.545455 216 
L 266.537032 23.409442 
" style="fill:none;stroke:#ff0000;stroke-width:0.3;"/>
    <path clip-path="url(#p76aded19ce)" d="M 618.545455 216 
L 35.114145 177.691358 
" style="fill:none;stroke:#ff0000;stroke-width:0.3;"/>
    <path clip-path="url(#p76aded19ce)" d="M 618.545455 216 
L 211.282292 397.416339 
" style="fill:none;stroke:#ff0000;stroke-width:0.3;"/>
    <path clip-path="url(#p76aded19ce)" d="M 618.545455 216 
L 381.462994 408.590558 
" style="fill:none;stroke:#ff0000;stroke-width:0.3;"/>
    <path clip-path="url(#p76aded19ce)" d="M 618.545455 216 
L 160.359327 52.729595 
" style="fill:none;stroke:#ff0000;stroke-width:0.3;"/>
    <path clip-path="url(#p76aded19ce)" d="M 618.545455 216 
L 211.282345 34.583649 
" style="fill:none;stroke:#ff0000;stroke-width:0.3;"/>
    <path clip-path="url(#p76aded19ce)" d="M 618.545455 216 
L 612.885837 177.691355 
" style="fill:none;stroke:#ff0000;stroke-width:0.3;"/>
    <path clip-path="url(#p76aded19ce)" d="M 612.885837 177.691355 
L 266.537014 408.590558 
" style="fill:none;stroke:#ff0000;stroke-width:0.3;"/>
    <path clip-path="url(#p76aded19ce)" d="M 612.885837 177.691355 
L 532.275085 77.149944 
" style="fill:none;stroke:#ff0000;stroke-width:0.3;"/>
    <path clip-path="url(#p76aded19ce)" d="M 612.885837 177.691355 
L 79.094428 325.093805 
" style="fill:none;stroke:#ff0000;stroke-width:0.3;"/>
    <path clip-path="url(#p76aded19ce)" d="M 612.885837 177.691355 
L 436.717664 34.583661 
" style="fill:none;stroke:#ff0000;stroke-width:0.3;"/>
    <path clip-path="url(#p76aded19ce)" d="M 612.885837 177.691355 
L 324.000004 412.363636 
" style="fill:none;stroke:#ff0000;stroke-width:0.3;"/>
    <path clip-path="url(#p76aded19ce)" d="M 612.885837 177.691355 
L 568.90559 325.093805 
" style="fill:none;stroke:#ff0000;stroke-width:0.3;"/>
    <path clip-path="url(#p76aded19ce)" d="M 612.885837 177.691355 
L 115.724898 354.850045 
" style="fill:none;stroke:#ff0000;stroke-width:0.3;"/>
    <path clip-path="url(#p76aded19ce)" d="M 612.885837 177.691355 
L 612.885855 254.308628 
" style="fill:none;stroke:#ff0000;stroke-width:0.3;"/>
    <path clip-path="url(#p76aded19ce)" d="M 612.885837 177.691355 
L 381.462977 23.409442 
" style="fill:none;stroke:#ff0000;stroke-width:0.3;"/>
    <path clip-path="url(#p76aded19ce)" d="M 612.885837 177.691355 
L 323.999987 19.636364 
" style="fill:none;stroke:#ff0000;stroke-width:0.3;"/>
    <path clip-path="url(#p76aded19ce)" d="M 612.885837 177.691355 
L 596.124509 140.854885 
" style="fill:none;stroke:#ff0000;stroke-width:0.3;"/>
    <path clip-path="url(#p76aded19ce)" d="M 612.885837 177.691355 
L 160.359327 52.729595 
" style="fill:none;stroke:#ff0000;stroke-width:0.3;"/>
    <path clip-path="url(#p76aded19ce)" d="M 596.124509 140.854885 
L 568.90559 106.906206 
" style="fill:none;stroke:#ff0000;stroke-width:0.3;"/>
    <path clip-path="url(#p76aded19ce)" d="M 596.124509 140.854885 
L 436.717664 34.583661 
" style="fill:none;stroke:#ff0000;stroke-width:0.3;"/>
    <path clip-path="url(#p76aded19ce)" d="M 596.124509 140.854885 
L 266.537032 23.409442 
" style="fill:none;stroke:#ff0000;stroke-width:0.3;"/>
    <path clip-path="url(#p76aded19ce)" d="M 596.124509 140.854885 
L 324.000004 412.363636 
" style="fill:none;stroke:#ff0000;stroke-width:0.3;"/>
    <path clip-path="url(#p76aded19ce)" d="M 596.124509 140.854885 
L 381.462977 23.409442 
" style="fill:none;stroke:#ff0000;stroke-width:0.3;"/>
    <path clip-path="url(#p76aded19ce)" d="M 596.124509 140.854885 
L 596.124526 291.145109 
" style="fill:none;stroke:#ff0000;stroke-width:0.3;"/>
    <path clip-path="url(#p76aded19ce)" d="M 596.124509 140.854885 
L 79.094428 325.093805 
" style="fill:none;stroke:#ff0000;stroke-width:0.3;"/>
    <path clip-path="url(#p76aded19ce)" d="M 596.124509 140.854885 
L 532.275085 77.149944 
" style="fill:none;stroke:#ff0000;stroke-width:0.3;"/>
    <path clip-path="url(#p76aded19ce)" d="M 596.124509 140.854885 
L 211.282292 397.416339 
" style="fill:none;stroke:#ff0000;stroke-width:0.3;"/>
    <path clip-path="url(#p76aded19ce)" d="M 596.124509 140.854885 
L 35.114145 177.691358 
" style="fill:none;stroke:#ff0000;stroke-width:0.3;"/>
    <path clip-path="url(#p76aded19ce)" d="M 596.124509 140.854885 
L 568.90559 325.093805 
" style="fill:none;stroke:#ff0000;stroke-width:0.3;"/>
    <path clip-path="url(#p76aded19ce)" d="M 596.124509 140.854885 
L 381.462994 408.590558 
" style="fill:none;stroke:#ff0000;stroke-width:0.3;"/>
    <path clip-path="url(#p76aded19ce)" d="M 568.90559 106.906206 
L 381.462994 408.590558 
" style="fill:none;stroke:#ff0000;stroke-width:0.3;"/>
    <path clip-path="url(#p76aded19ce)" d="M 568.90559 106.906206 
L 35.114145 254.308631 
" style="fill:none;stroke:#ff0000;stroke-width:0.3;"/>
    <path clip-path="url(#p76aded19ce)" d="M 568.90559 106.906206 
L 160.359327 52.729595 
" style="fill:none;stroke:#ff0000;stroke-width:0.3;"/>
    <path clip-path="url(#p76aded19ce)" d="M 568.90559 106.906206 
L 596.124526 291.145109 
" style="fill:none;stroke:#ff0000;stroke-width:0.3;"/>
    <path clip-path="url(#p76aded19ce)" d="M 568.90559 106.906206 
L 115.724915 77.149944 
" style="fill:none;stroke:#ff0000;stroke-width:0.3;"/>
    <path clip-path="url(#p76aded19ce)" d="M 568.90559 106.906206 
L 79.094393 106.906218 
" style="fill:none;stroke:#ff0000;stroke-width:0.3;"/>
    <path clip-path="url(#p76aded19ce)" d="M 568.90559 106.906206 
L 51.875491 291.145109 
" style="fill:none;stroke:#ff0000;stroke-width:0.3;"/>
    <path clip-path="url(#p76aded19ce)" d="M 568.90559 106.906206 
L 487.64069 52.729607 
" style="fill:none;stroke:#ff0000;stroke-width:0.3;"/>
    <path clip-path="url(#p76aded19ce)" d="M 568.90559 106.906206 
L 160.359257 379.27037 
" style="fill:none;stroke:#ff0000;stroke-width:0.3;"/>
    <path clip-path="url(#p76aded19ce)" d="M 568.90559 106.906206 
L 51.875491 140.854879 
" style="fill:none;stroke:#ff0000;stroke-width:0.3;"/>
    <path clip-path="url(#p76aded19ce)" d="M 568.90559 106.906206 
L 29.454545 216.000017 
" style="fill:none;stroke:#ff0000;stroke-width:0.3;"/>
    <path clip-path="url(#p76aded19ce)" d="M 568.90559 106.906206 
L 211.282345 34.583649 
" style="fill:none;stroke:#ff0000;stroke-width:0.3;"/>
    <path clip-path="url(#p76aded19ce)" d="M 532.275085 77.149944 
L 487.64069 52.729607 
" style="fill:none;stroke:#ff0000;stroke-width:0.3;"/>
    <path clip-path="url(#p76aded19ce)" d="M 532.275085 77.149944 
L 323.999987 19.636364 
" style="fill:none;stroke:#ff0000;stroke-width:0.3;"/>
    <path clip-path="url(#p76aded19ce)" d="M 532.275085 77.149944 
L 436.717664 34.583661 
" style="fill:none;stroke:#ff0000;stroke-width:0.3;"/>
    <path clip-path="url(#p76aded19ce)" d="M 532.275085 77.149944 
L 115.724898 354.850045 
" style="fill:none;stroke:#ff0000;stroke-width:0.3;"/>
    <path clip-path="url(#p76aded19ce)" d="M 532.275085 77.149944 
L 612.885855 254.308628 
" style="fill:none;stroke:#ff0000;stroke-width:0.3;"/>
    <path clip-path="url(#p76aded19ce)" d="M 532.275085 77.149944 
L 266.537014 408.590558 
" style="fill:none;stroke:#ff0000;stroke-width:0.3;"/>
    <path clip-path="url(#p76aded19ce)" d="M 532.275085 77.149944 
L 568.90559 325.093805 
" style="fill:none;stroke:#ff0000;stroke-width:0.3;"/>
    <path clip-path="url(#p76aded19ce)" d="M 532.275085 77.149944 
L 324.000004 412.363636 
" style="fill:none;stroke:#ff0000;stroke-width:0.3;"/>
    <path clip-path="url(#p76aded19ce)" d="M 532.275085 77.149944 
L 211.282345 34.583649 
" style="fill:none;stroke:#ff0000;stroke-width:0.3;"/>
    <path clip-path="url(#p76aded19ce)" d="M 532.275085 77.149944 
L 532.275067 354.85008 
" style="fill:none;stroke:#ff0000;stroke-width:0.3;"/>
    <path clip-path="url(#p76aded19ce)" d="M 532.275085 77.149944 
L 381.462977 23.409442 
" style="fill:none;stroke:#ff0000;stroke-width:0.3;"/>
    <path clip-path="url(#p76aded19ce)" d="M 532.275085 77.149944 
L 79.094428 325.093805 
" style="fill:none;stroke:#ff0000;stroke-width:0.3;"/>
    <path clip-path="url(#p76aded19ce)" d="M 487.64069 52.729607 
L 160.359327 52.729595 
" style="fill:none;stroke:#ff0000;stroke-width:0.3;"/>
    <path clip-path="url(#p76aded19ce)" d="M 487.64069 52.729607 
L 532.275067 354.85008 
" style="fill:none;stroke:#ff0000;stroke-width:0.3;"/>
    <path clip-path="url(#p76aded19ce)" d="M 487.64069 52.729607 
L 568.90559 325.093805 
" style="fill:none;stroke:#ff0000;stroke-width:0.3;"/>
    <path clip-path="url(#p76aded19ce)" d="M 487.64069 52.729607 
L 29.454545 216.000017 
" style="fill:none;stroke:#ff0000;stroke-width:0.3;"/>
    <path clip-path="url(#p76aded19ce)" d="M 487.64069 52.729607 
L 51.875491 291.145109 
" style="fill:none;stroke:#ff0000;stroke-width:0.3;"/>
    <path clip-path="url(#p76aded19ce)" d="M 487.64069 52.729607 
L 160.359257 379.27037 
" style="fill:none;stroke:#ff0000;stroke-width:0.3;"/>
    <path clip-path="url(#p76aded19ce)" d="M 487.64069 52.729607 
L 211.282345 34.583649 
" style="fill:none;stroke:#ff0000;stroke-width:0.3;"/>
    <path clip-path="url(#p76aded19ce)" d="M 487.64069 52.729607 
L 35.114145 254.308631 
" style="fill:none;stroke:#ff0000;stroke-width:0.3;"/>
    <path clip-path="url(#p76aded19ce)" d="M 487.64069 52.729607 
L 115.724898 354.850045 
" style="fill:none;stroke:#ff0000;stroke-width:0.3;"/>
    <path clip-path="url(#p76aded19ce)" d="M 487.64069 52.729607 
L 436.717716 397.416327 
" style="fill:none;stroke:#ff0000;stroke-width:0.3;"/>
    <path clip-path="url(#p76aded19ce)" d="M 487.64069 52.729607 
L 487.640638 379.270417 
" style="fill:none;stroke:#ff0000;stroke-width:0.3;"/>
    <path clip-path="url(#p76aded19ce)" d="M 436.717664 34.583661 
L 79.094393 106.906218 
" style="fill:none;stroke:#ff0000;stroke-width:0.3;"/>
    <path clip-path="url(#p76aded19ce)" d="M 436.717664 34.583661 
L 29.454545 216.000017 
" style="fill:none;stroke:#ff0000;stroke-width:0.3;"/>
    <path clip-path="url(#p76aded19ce)" d="M 436.717664 34.583661 
L 324.000004 412.363636 
" style="fill:none;stroke:#ff0000;stroke-width:0.3;"/>
    <path clip-path="url(#p76aded19ce)" d="M 436.717664 34.583661 
L 35.114145 177.691358 
" style="fill:none;stroke:#ff0000;stroke-width:0.3;"/>
    <path clip-path="url(#p76aded19ce)" d="M 436.717664 34.583661 
L 568.90559 325.093805 
" style="fill:none;stroke:#ff0000;stroke-width:0.3;"/>
    <path clip-path="url(#p76aded19ce)" d="M 436.717664 34.583661 
L 79.094428 325.093805 
" style="fill:none;stroke:#ff0000;stroke-width:0.3;"/>
    <path clip-path="url(#p76aded19ce)" d="M 436.717664 34.583661 
L 381.462977 23.409442 
" style="fill:none;stroke:#ff0000;stroke-width:0.3;"/>
    <path clip-path="url(#p76aded19ce)" d="M 436.717664 34.583661 
L 266.537032 23.409442 
" style="fill:none;stroke:#ff0000;stroke-width:0.3;"/>
    <path clip-path="url(#p76aded19ce)" d="M 436.717664 34.583661 
L 381.462994 408.590558 
" style="fill:none;stroke:#ff0000;stroke-width:0.3;"/>
    <path clip-path="url(#p76aded19ce)" d="M 436.717664 34.583661 
L 211.282292 397.416339 
" style="fill:none;stroke:#ff0000;stroke-width:0.3;"/>
    <path clip-path="url(#p76aded19ce)" d="M 381.462977 23.409442 
L 324.000004 412.363636 
" style="fill:none;stroke:#ff0000;stroke-width:0.3;"/>
    <path clip-path="url(#p76aded19ce)" d="M 381.462977 23.409442 
L 79.094428 325.093805 
" style="fill:none;stroke:#ff0000;stroke-width:0.3;"/>
    <path clip-path="url(#p76aded19ce)" d="M 381.462977 23.409442 
L 160.359257 379.27037 
" style="fill:none;stroke:#ff0000;stroke-width:0.3;"/>
    <path clip-path="url(#p76aded19ce)" d="M 381.462977 23.409442 
L 211.282292 397.416339 
" style="fill:none;stroke:#ff0000;stroke-width:0.3;"/>
    <path clip-path="url(#p76aded19ce)" d="M 381.462977 23.409442 
L 381.462994 408.590558 
" style="fill:none;stroke:#ff0000;stroke-width:0.3;"/>
    <path clip-path="url(#p76aded19ce)" d="M 381.462977 23.409442 
L 568.90559 325.093805 
" style="fill:none;stroke:#ff0000;stroke-width:0.3;"/>
    <path clip-path="url(#p76aded19ce)" d="M 381.462977 23.409442 
L 35.114145 177.691358 
" style="fill:none;stroke:#ff0000;stroke-width:0.3;"/>
    <path clip-path="url(#p76aded19ce)" d="M 381.462977 23.409442 
L 115.724915 77.149944 
" style="fill:none;stroke:#ff0000;stroke-width:0.3;"/>
    <path clip-path="url(#p76aded19ce)" d="M 381.462977 23.409442 
L 266.537032 23.409442 
" style="fill:none;stroke:#ff0000;stroke-width:0.3;"/>
    <path clip-path="url(#p76aded19ce)" d="M 323.999987 19.636364 
L 115.724898 354.850045 
" style="fill:none;stroke:#ff0000;stroke-width:0.3;"/>
    <path clip-path="url(#p76aded19ce)" d="M 323.999987 19.636364 
L 532.275067 354.85008 
" style="fill:none;stroke:#ff0000;stroke-width:0.3;"/>
    <path clip-path="url(#p76aded19ce)" d="M 323.999987 19.636364 
L 211.282345 34.583649 
" style="fill:none;stroke:#ff0000;stroke-width:0.3;"/>
    <path clip-path="url(#p76aded19ce)" d="M 323.999987 19.636364 
L 115.724915 77.149944 
" style="fill:none;stroke:#ff0000;stroke-width:0.3;"/>
    <path clip-path="url(#p76aded19ce)" d="M 323.999987 19.636364 
L 51.875491 140.854879 
" style="fill:none;stroke:#ff0000;stroke-width:0.3;"/>
    <path clip-path="url(#p76aded19ce)" d="M 323.999987 19.636364 
L 612.885855 254.308628 
" style="fill:none;stroke:#ff0000;stroke-width:0.3;"/>
    <path clip-path="url(#p76aded19ce)" d="M 323.999987 19.636364 
L 596.124526 291.145109 
" style="fill:none;stroke:#ff0000;stroke-width:0.3;"/>
    <path clip-path="url(#p76aded19ce)" d="M 323.999987 19.636364 
L 266.537014 408.590558 
" style="fill:none;stroke:#ff0000;stroke-width:0.3;"/>
    <path clip-path="url(#p76aded19ce)" d="M 323.999987 19.636364 
L 79.094428 325.093805 
" style="fill:none;stroke:#ff0000;stroke-width:0.3;"/>
    <path clip-path="url(#p76aded19ce)" d="M 323.999987 19.636364 
L 79.094393 106.906218 
" style="fill:none;stroke:#ff0000;stroke-width:0.3;"/>
    <path clip-path="url(#p76aded19ce)" d="M 323.999987 19.636364 
L 568.90559 325.093805 
" style="fill:none;stroke:#ff0000;stroke-width:0.3;"/>
    <path clip-path="url(#p76aded19ce)" d="M 266.537032 23.409442 
L 211.282292 397.416339 
" style="fill:none;stroke:#ff0000;stroke-width:0.3;"/>
    <path clip-path="url(#p76aded19ce)" d="M 266.537032 23.409442 
L 35.114145 177.691358 
" style="fill:none;stroke:#ff0000;stroke-width:0.3;"/>
    <path clip-path="url(#p76aded19ce)" d="M 266.537032 23.409442 
L 160.359257 379.27037 
" style="fill:none;stroke:#ff0000;stroke-width:0.3;"/>
    <path clip-path="url(#p76aded19ce)" d="M 266.537032 23.409442 
L 436.717716 397.416327 
" style="fill:none;stroke:#ff0000;stroke-width:0.3;"/>
    <path clip-path="url(#p76aded19ce)" d="M 266.537032 23.409442 
L 115.724915 77.149944 
" style="fill:none;stroke:#ff0000;stroke-width:0.3;"/>
    <path clip-path="url(#p76aded19ce)" d="M 266.537032 23.409442 
L 381.462994 408.590558 
" style="fill:none;stroke:#ff0000;stroke-width:0.3;"/>
    <path clip-path="url(#p76aded19ce)" d="M 266.537032 23.409442 
L 324.000004 412.363636 
" style="fill:none;stroke:#ff0000;stroke-width:0.3;"/>
    <path clip-path="url(#p76aded19ce)" d="M 266.537032 23.409442 
L 487.640638 379.270417 
" style="fill:none;stroke:#ff0000;stroke-width:0.3;"/>
    <path clip-path="url(#p76aded19ce)" d="M 211.282345 34.583649 
L 160.359257 379.27037 
" style="fill:none;stroke:#ff0000;stroke-width:0.3;"/>
    <path clip-path="url(#p76aded19ce)" d="M 211.282345 34.583649 
L 487.640638 379.270417 
" style="fill:none;stroke:#ff0000;stroke-width:0.3;"/>
    <path clip-path="url(#p76aded19ce)" d="M 211.282345 34.583649 
L 51.875491 291.145109 
" style="fill:none;stroke:#ff0000;stroke-width:0.3;"/>
    <path clip-path="url(#p76aded19ce)" d="M 211.282345 34.583649 
L 160.359327 52.729595 
" style="fill:none;stroke:#ff0000;stroke-width:0.3;"/>
    <path clip-path="url(#p76aded19ce)" d="M 211.282345 34.583649 
L 29.454545 216.000017 
" style="fill:none;stroke:#ff0000;stroke-width:0.3;"/>
    <path clip-path="url(#p76aded19ce)" d="M 211.282345 34.583649 
L 532.275067 354.85008 
" style="fill:none;stroke:#ff0000;stroke-width:0.3;"/>
    <path clip-path="url(#p76aded19ce)" d="M 211.282345 34.583649 
L 35.114145 254.308631 
" style="fill:none;stroke:#ff0000;stroke-width:0.3;"/>
    <path clip-path="url(#p76aded19ce)" d="M 211.282345 34.583649 
L 436.717716 397.416327 
" style="fill:none;stroke:#ff0000;stroke-width:0.3;"/>
    <path clip-path="url(#p76aded19ce)" d="M 160.359327 52.729595 
L 35.114145 254.308631 
" style="fill:none;stroke:#ff0000;stroke-width:0.3;"/>
    <path clip-path="url(#p76aded19ce)" d="M 160.359327 52.729595 
L 612.885855 254.308628 
" style="fill:none;stroke:#ff0000;stroke-width:0.3;"/>
    <path clip-path="url(#p76aded19ce)" d="M 160.359327 52.729595 
L 487.640638 379.270417 
" style="fill:none;stroke:#ff0000;stroke-width:0.3;"/>
    <path clip-path="url(#p76aded19ce)" d="M 160.359327 52.729595 
L 436.717716 397.416327 
" style="fill:none;stroke:#ff0000;stroke-width:0.3;"/>
    <path clip-path="url(#p76aded19ce)" d="M 160.359327 52.729595 
L 51.875491 291.145109 
" style="fill:none;stroke:#ff0000;stroke-width:0.3;"/>
    <path clip-path="url(#p76aded19ce)" d="M 160.359327 52.729595 
L 29.454545 216.000017 
" style="fill:none;stroke:#ff0000;stroke-width:0.3;"/>
    <path clip-path="url(#p76aded19ce)" d="M 160.359327 52.729595 
L 532.275067 354.85008 
" style="fill:none;stroke:#ff0000;stroke-width:0.3;"/>
    <path clip-path="url(#p76aded19ce)" d="M 160.359327 52.729595 
L 160.359257 379.27037 
" style="fill:none;stroke:#ff0000;stroke-width:0.3;"/>
    <path clip-path="url(#p76aded19ce)" d="M 115.724915 77.149944 
L 51.875491 291.145109 
" style="fill:none;stroke:#ff0000;stroke-width:0.3;"/>
    <path clip-path="url(#p76aded19ce)" d="M 115.724915 77.149944 
L 596.124526 291.145109 
" style="fill:none;stroke:#ff0000;stroke-width:0.3;"/>
    <path clip-path="url(#p76aded19ce)" d="M 115.724915 77.149944 
L 115.724898 354.850045 
" style="fill:none;stroke:#ff0000;stroke-width:0.3;"/>
    <path clip-path="url(#p76aded19ce)" d="M 115.724915 77.149944 
L 79.094393 106.906218 
" style="fill:none;stroke:#ff0000;stroke-width:0.3;"/>
    <path clip-path="url(#p76aded19ce)" d="M 115.724915 77.149944 
L 51.875491 140.854879 
" style="fill:none;stroke:#ff0000;stroke-width:0.3;"/>
    <path clip-path="url(#p76aded19ce)" d="M 115.724915 77.149944 
L 29.454545 216.000017 
" style="fill:none;stroke:#ff0000;stroke-width:0.3;"/>
    <path clip-path="url(#p76aded19ce)" d="M 115.724915 77.149944 
L 612.885855 254.308628 
" style="fill:none;stroke:#ff0000;stroke-width:0.3;"/>
    <path clip-path="url(#p76aded19ce)" d="M 115.724915 77.149944 
L 160.359257 379.27037 
" style="fill:none;stroke:#ff0000;stroke-width:0.3;"/>
    <path clip-path="url(#p76aded19ce)" d="M 115.724915 77.149944 
L 266.537014 408.590558 
" style="fill:none;stroke:#ff0000;stroke-width:0.3;"/>
    <path clip-path="url(#p76aded19ce)" d="M 79.094393 106.906218 
L 612.885855 254.308628 
" style="fill:none;stroke:#ff0000;stroke-width:0.3;"/>
    <path clip-path="url(#p76aded19ce)" d="M 79.094393 106.906218 
L 266.537014 408.590558 
" style="fill:none;stroke:#ff0000;stroke-width:0.3;"/>
    <path clip-path="url(#p76aded19ce)" d="M 79.094393 106.906218 
L 51.875491 291.145109 
" style="fill:none;stroke:#ff0000;stroke-width:0.3;"/>
    <path clip-path="url(#p76aded19ce)" d="M 79.094393 106.906218 
L 160.359257 379.27037 
" style="fill:none;stroke:#ff0000;stroke-width:0.3;"/>
    <path clip-path="url(#p76aded19ce)" d="M 79.094393 106.906218 
L 211.282292 397.416339 
" style="fill:none;stroke:#ff0000;stroke-width:0.3;"/>
    <path clip-path="url(#p76aded19ce)" d="M 79.094393 106.906218 
L 51.875491 140.854879 
" style="fill:none;stroke:#ff0000;stroke-width:0.3;"/>
    <path clip-path="url(#p76aded19ce)" d="M 79.094393 106.906218 
L 596.124526 291.145109 
" style="fill:none;stroke:#ff0000;stroke-width:0.3;"/>
    <path clip-path="url(#p76aded19ce)" d="M 79.094393 106.906218 
L 29.454545 216.000017 
" style="fill:none;stroke:#ff0000;stroke-width:0.3;"/>
    <path clip-path="url(#p76aded19ce)" d="M 79.094393 106.906218 
L 115.724898 354.850045 
" style="fill:none;stroke:#ff0000;stroke-width:0.3;"/>
    <path clip-path="url(#p76aded19ce)" d="M 51.875491 140.854879 
L 115.724898 354.850045 
" style="fill:none;stroke:#ff0000;stroke-width:0.3;"/>
    <path clip-path="url(#p76aded19ce)" d="M 51.875491 140.854879 
L 51.875491 291.145109 
" style="fill:none;stroke:#ff0000;stroke-width:0.3;"/>
    <path clip-path="url(#p76aded19ce)" d="M 51.875491 140.854879 
L 596.124526 291.145109 
" style="fill:none;stroke:#ff0000;stroke-width:0.3;"/>
    <path clip-path="url(#p76aded19ce)" d="M 51.875491 140.854879 
L 160.359257 379.27037 
" style="fill:none;stroke:#ff0000;stroke-width:0.3;"/>
    <path clip-path="url(#p76aded19ce)" d="M 51.875491 140.854879 
L 35.114145 177.691358 
" style="fill:none;stroke:#ff0000;stroke-width:0.3;"/>
    <path clip-path="url(#p76aded19ce)" d="M 51.875491 140.854879 
L 266.537014 408.590558 
" style="fill:none;stroke:#ff0000;stroke-width:0.3;"/>
    <path clip-path="url(#p76aded19ce)" d="M 51.875491 140.854879 
L 324.000004 412.363636 
" style="fill:none;stroke:#ff0000;stroke-width:0.3;"/>
    <path clip-path="url(#p76aded19ce)" d="M 51.875491 140.854879 
L 612.885855 254.308628 
" style="fill:none;stroke:#ff0000;stroke-width:0.3;"/>
    <path clip-path="url(#p76aded19ce)" d="M 51.875491 140.854879 
L 29.454545 216.000017 
" style="fill:none;stroke:#ff0000;stroke-width:0.3;"/>
    <path clip-path="url(#p76aded19ce)" d="M 35.114145 177.691358 
L 324.000004 412.363636 
" style="fill:none;stroke:#ff0000;stroke-width:0.3;"/>
    <path clip-path="url(#p76aded19ce)" d="M 35.114145 177.691358 
L 487.640638 379.270417 
" style="fill:none;stroke:#ff0000;stroke-width:0.3;"/>
    <path clip-path="url(#p76aded19ce)" d="M 35.114145 177.691358 
L 51.875491 291.145109 
" style="fill:none;stroke:#ff0000;stroke-width:0.3;"/>
    <path clip-path="url(#p76aded19ce)" d="M 35.114145 177.691358 
L 436.717716 397.416327 
" style="fill:none;stroke:#ff0000;stroke-width:0.3;"/>
    <path clip-path="url(#p76aded19ce)" d="M 35.114145 177.691358 
L 211.282292 397.416339 
" style="fill:none;stroke:#ff0000;stroke-width:0.3;"/>
    <path clip-path="url(#p76aded19ce)" d="M 35.114145 177.691358 
L 381.462994 408.590558 
" style="fill:none;stroke:#ff0000;stroke-width:0.3;"/>
    <path clip-path="url(#p76aded19ce)" d="M 35.114145 177.691358 
L 532.275067 354.85008 
" style="fill:none;stroke:#ff0000;stroke-width:0.3;"/>
    <path clip-path="url(#p76aded19ce)" d="M 29.454545 216.000017 
L 596.124526 291.145109 
" style="fill:none;stroke:#ff0000;stroke-width:0.3;"/>
    <path clip-path="url(#p76aded19ce)" d="M 29.454545 216.000017 
L 160.359257 379.27037 
" style="fill:none;stroke:#ff0000;stroke-width:0.3;"/>
    <path clip-path="url(#p76aded19ce)" d="M 29.454545 216.000017 
L 211.282292 397.416339 
" style="fill:none;stroke:#ff0000;stroke-width:0.3;"/>
    <path clip-path="url(#p76aded19ce)" d="M 29.454545 216.000017 
L 51.875491 291.145109 
" style="fill:none;stroke:#ff0000;stroke-width:0.3;"/>
    <path clip-path="url(#p76aded19ce)" d="M 29.454545 216.000017 
L 35.114145 254.308631 
" style="fill:none;stroke:#ff0000;stroke-width:0.3;"/>
    <path clip-path="url(#p76aded19ce)" d="M 35.114145 254.308631 
L 436.717716 397.416327 
" style="fill:none;stroke:#ff0000;stroke-width:0.3;"/>
    <path clip-path="url(#p76aded19ce)" d="M 35.114145 254.308631 
L 266.537014 408.590558 
" style="fill:none;stroke:#ff0000;stroke-width:0.3;"/>
    <path clip-path="url(#p76aded19ce)" d="M 35.114145 254.308631 
L 160.359257 379.27037 
" style="fill:none;stroke:#ff0000;stroke-width:0.3;"/>
    <path clip-path="url(#p76aded19ce)" d="M 35.114145 254.308631 
L 79.094428 325.093805 
" style="fill:none;stroke:#ff0000;stroke-width:0.3;"/>
    <path clip-path="url(#p76aded19ce)" d="M 35.114145 254.308631 
L 51.875491 291.145109 
" style="fill:none;stroke:#ff0000;stroke-width:0.3;"/>
    <path clip-path="url(#p76aded19ce)" d="M 35.114145 254.308631 
L 532.275067 354.85008 
" style="fill:none;stroke:#ff0000;stroke-width:0.3;"/>
    <path clip-path="url(#p76aded19ce)" d="M 51.875491 291.145109 
L 596.124526 291.145109 
" style="fill:none;stroke:#ff0000;stroke-width:0.3;"/>
    <path clip-path="url(#p76aded19ce)" d="M 51.875491 291.145109 
L 160.359257 379.27037 
" style="fill:none;stroke:#ff0000;stroke-width:0.3;"/>
    <path clip-path="url(#p76aded19ce)" d="M 51.875491 291.145109 
L 324.000004 412.363636 
" style="fill:none;stroke:#ff0000;stroke-width:0.3;"/>
    <path clip-path="url(#p76aded19ce)" d="M 79.094428 325.093805 
L 568.90559 325.093805 
" style="fill:none;stroke:#ff0000;stroke-width:0.3;"/>
    <path clip-path="url(#p76aded19ce)" d="M 79.094428 325.093805 
L 115.724898 354.850045 
" style="fill:none;stroke:#ff0000;stroke-width:0.3;"/>
    <path clip-path="url(#p76aded19ce)" d="M 79.094428 325.093805 
L 612.885855 254.308628 
" style="fill:none;stroke:#ff0000;stroke-width:0.3;"/>
    <path clip-path="url(#p76aded19ce)" d="M 79.094428 325.093805 
L 436.717716 397.416327 
" style="fill:none;stroke:#ff0000;stroke-width:0.3;"/>
    <path clip-path="url(#p76aded19ce)" d="M 79.094428 325.093805 
L 266.537014 408.590558 
" style="fill:none;stroke:#ff0000;stroke-width:0.3;"/>
    <path clip-path="url(#p76aded19ce)" d="M 79.094428 325.093805 
L 324.000004 412.363636 
" style="fill:none;stroke:#ff0000;stroke-width:0.3;"/>
    <path clip-path="url(#p76aded19ce)" d="M 115.724898 354.850045 
L 266.537014 408.590558 
" style="fill:none;stroke:#ff0000;stroke-width:0.3;"/>
    <path clip-path="url(#p76aded19ce)" d="M 115.724898 354.850045 
L 612.885855 254.308628 
" style="fill:none;stroke:#ff0000;stroke-width:0.3;"/>
    <path clip-path="url(#p76aded19ce)" d="M 115.724898 354.850045 
L 487.640638 379.270417 
" style="fill:none;stroke:#ff0000;stroke-width:0.3;"/>
    <path clip-path="url(#p76aded19ce)" d="M 115.724898 354.850045 
L 568.90559 325.093805 
" style="fill:none;stroke:#ff0000;stroke-width:0.3;"/>
    <path clip-path="url(#p76aded19ce)" d="M 115.724898 354.850045 
L 596.124526 291.145109 
" style="fill:none;stroke:#ff0000;stroke-width:0.3;"/>
    <path clip-path="url(#p76aded19ce)" d="M 160.359257 379.27037 
L 596.124526 291.145109 
" style="fill:none;stroke:#ff0000;stroke-width:0.3;"/>
    <path clip-path="url(#p76aded19ce)" d="M 211.282292 397.416339 
L 436.717716 397.416327 
" style="fill:none;stroke:#ff0000;stroke-width:0.3;"/>
    <path clip-path="url(#p76aded19ce)" d="M 211.282292 397.416339 
L 381.462994 408.590558 
" style="fill:none;stroke:#ff0000;stroke-width:0.3;"/>
    <path clip-path="url(#p76aded19ce)" d="M 211.282292 397.416339 
L 532.275067 354.85008 
" style="fill:none;stroke:#ff0000;stroke-width:0.3;"/>
    <path clip-path="url(#p76aded19ce)" d="M 211.282292 397.416339 
L 487.640638 379.270417 
" style="fill:none;stroke:#ff0000;stroke-width:0.3;"/>
    <path clip-path="url(#p76aded19ce)" d="M 211.282292 397.416339 
L 324.000004 412.363636 
" style="fill:none;stroke:#ff0000;stroke-width:0.3;"/>
    <path clip-path="url(#p76aded19ce)" d="M 266.537014 408.590558 
L 568.90559 325.093805 
" style="fill:none;stroke:#ff0000;stroke-width:0.3;"/>
    <path clip-path="url(#p76aded19ce)" d="M 266.537014 408.590558 
L 596.124526 291.145109 
" style="fill:none;stroke:#ff0000;stroke-width:0.3;"/>
    <path clip-path="url(#p76aded19ce)" d="M 266.537014 408.590558 
L 612.885855 254.308628 
" style="fill:none;stroke:#ff0000;stroke-width:0.3;"/>
    <path clip-path="url(#p76aded19ce)" d="M 266.537014 408.590558 
L 436.717716 397.416327 
" style="fill:none;stroke:#ff0000;stroke-width:0.3;"/>
    <path clip-path="url(#p76aded19ce)" d="M 324.000004 412.363636 
L 568.90559 325.093805 
" style="fill:none;stroke:#ff0000;stroke-width:0.3;"/>
    <path clip-path="url(#p76aded19ce)" d="M 324.000004 412.363636 
L 381.462994 408.590558 
" style="fill:none;stroke:#ff0000;stroke-width:0.3;"/>
    <path clip-path="url(#p76aded19ce)" d="M 381.462994 408.590558 
L 436.717716 397.416327 
" style="fill:none;stroke:#ff0000;stroke-width:0.3;"/>
    <path clip-path="url(#p76aded19ce)" d="M 381.462994 408.590558 
L 487.640638 379.270417 
" style="fill:none;stroke:#ff0000;stroke-width:0.3;"/>
    <path clip-path="url(#p76aded19ce)" d="M 381.462994 408.590558 
L 596.124526 291.145109 
" style="fill:none;stroke:#ff0000;stroke-width:0.3;"/>
    <path clip-path="url(#p76aded19ce)" d="M 381.462994 408.590558 
L 532.275067 354.85008 
" style="fill:none;stroke:#ff0000;stroke-width:0.3;"/>
    <path clip-path="url(#p76aded19ce)" d="M 436.717716 397.416327 
L 532.275067 354.85008 
" style="fill:none;stroke:#ff0000;stroke-width:0.3;"/>
    <path clip-path="url(#p76aded19ce)" d="M 436.717716 397.416327 
L 487.640638 379.270417 
" style="fill:none;stroke:#ff0000;stroke-width:0.3;"/>
    <path clip-path="url(#p76aded19ce)" d="M 487.640638 379.270417 
L 568.90559 325.093805 
" style="fill:none;stroke:#ff0000;stroke-width:0.3;"/>
    <path clip-path="url(#p76aded19ce)" d="M 487.640638 379.270417 
L 532.275067 354.85008 
" style="fill:none;stroke:#ff0000;stroke-width:0.3;"/>
    <path clip-path="url(#p76aded19ce)" d="M 568.90559 325.093805 
L 612.885855 254.308628 
" style="fill:none;stroke:#ff0000;stroke-width:0.3;"/>
    <path clip-path="url(#p76aded19ce)" d="M 596.124526 291.145109 
L 612.885855 254.308628 
" style="fill:none;stroke:#ff0000;stroke-width:0.3;"/>
   </g>
   <g id="PathCollection_1">
    <defs>
     <path d="M 0 8.660254 
C 2.296726 8.660254 4.499694 7.747755 6.123724 6.123724 
C 7.747755 4.499694 8.660254 2.296726 8.660254 0 
C 8.660254 -2.296726 7.747755 -4.499694 6.123724 -6.123724 
C 4.499694 -7.747755 2.296726 -8.660254 0 -8.660254 
C -2.296726 -8.660254 -4.499694 -7.747755 -6.123724 -6.123724 
C -7.747755 -4.499694 -8.660254 -2.296726 -8.660254 0 
C -8.660254 2.296726 -7.747755 4.499694 -6.123724 6.123724 
C -4.499694 7.747755 -2.296726 8.660254 0 8.660254 
z
" id="mc5e8a43101"/>
    </defs>
    <g clip-path="url(#p76aded19ce)">
     <use style="fill:#808080;" x="618.545455" xlink:href="#mc5e8a43101" y="216"/>
     <use style="fill:#808080;" x="612.885837" xlink:href="#mc5e8a43101" y="177.691355"/>
     <use style="fill:#808080;" x="596.124509" xlink:href="#mc5e8a43101" y="140.854885"/>
     <use style="fill:#808080;" x="568.90559" xlink:href="#mc5e8a43101" y="106.906206"/>
     <use style="fill:#808080;" x="532.275085" xlink:href="#mc5e8a43101" y="77.149944"/>
     <use style="fill:#808080;" x="487.64069" xlink:href="#mc5e8a43101" y="52.729607"/>
     <use style="fill:#808080;" x="436.717664" xlink:href="#mc5e8a43101" y="34.583661"/>
     <use style="fill:#808080;" x="381.462977" xlink:href="#mc5e8a43101" y="23.409442"/>
     <use style="fill:#808080;" x="323.999987" xlink:href="#mc5e8a43101" y="19.636364"/>
     <use style="fill:#808080;" x="266.537032" xlink:href="#mc5e8a43101" y="23.409442"/>
     <use style="fill:#808080;" x="211.282345" xlink:href="#mc5e8a43101" y="34.583649"/>
     <use style="fill:#808080;" x="160.359327" xlink:href="#mc5e8a43101" y="52.729595"/>
     <use style="fill:#808080;" x="115.724915" xlink:href="#mc5e8a43101" y="77.149944"/>
     <use style="fill:#808080;" x="79.094393" xlink:href="#mc5e8a43101" y="106.906218"/>
     <use style="fill:#808080;" x="51.875491" xlink:href="#mc5e8a43101" y="140.854879"/>
     <use style="fill:#808080;" x="35.114145" xlink:href="#mc5e8a43101" y="177.691358"/>
     <use style="fill:#808080;" x="29.454545" xlink:href="#mc5e8a43101" y="216.000017"/>
     <use style="fill:#808080;" x="35.114145" xlink:href="#mc5e8a43101" y="254.308631"/>
     <use style="fill:#808080;" x="51.875491" xlink:href="#mc5e8a43101" y="291.145109"/>
     <use style="fill:#808080;" x="79.094428" xlink:href="#mc5e8a43101" y="325.093805"/>
     <use style="fill:#808080;" x="115.724898" xlink:href="#mc5e8a43101" y="354.850045"/>
     <use style="fill:#808080;" x="160.359257" xlink:href="#mc5e8a43101" y="379.27037"/>
     <use style="fill:#808080;" x="211.282292" xlink:href="#mc5e8a43101" y="397.416339"/>
     <use style="fill:#808080;" x="266.537014" xlink:href="#mc5e8a43101" y="408.590558"/>
     <use style="fill:#808080;" x="324.000004" xlink:href="#mc5e8a43101" y="412.363636"/>
     <use style="fill:#808080;" x="381.462994" xlink:href="#mc5e8a43101" y="408.590558"/>
     <use style="fill:#808080;" x="436.717716" xlink:href="#mc5e8a43101" y="397.416327"/>
     <use style="fill:#808080;" x="487.640638" xlink:href="#mc5e8a43101" y="379.270417"/>
     <use style="fill:#808080;" x="532.275067" xlink:href="#mc5e8a43101" y="354.85008"/>
     <use style="fill:#808080;" x="568.90559" xlink:href="#mc5e8a43101" y="325.093805"/>
     <use style="fill:#808080;" x="596.124526" xlink:href="#mc5e8a43101" y="291.145109"/>
     <use style="fill:#808080;" x="612.885855" xlink:href="#mc5e8a43101" y="254.308628"/>
    </g>
   </g>
   <g id="text_1">
    <g clip-path="url(#p76aded19ce)">
     <!-- ARI -->
     <g style="fill:#ffffff;" transform="translate(613.544361 217.551094)scale(0.06 -0.06)">
      <defs>
       <path d="M -0.140625 0 
L 27.34375 71.578125 
L 37.546875 71.578125 
L 66.84375 0 
L 56.0625 0 
L 47.703125 21.6875 
L 17.78125 21.6875 
L 9.90625 0 
z
M 20.515625 29.390625 
L 44.78125 29.390625 
L 37.3125 49.21875 
Q 33.890625 58.25 32.234375 64.0625 
Q 30.859375 57.171875 28.375 50.390625 
z
" id="ArialMT-65"/>
       <path d="M 7.859375 0 
L 7.859375 71.578125 
L 39.59375 71.578125 
Q 49.171875 71.578125 54.140625 69.640625 
Q 59.125 67.71875 62.109375 62.828125 
Q 65.09375 57.953125 65.09375 52.046875 
Q 65.09375 44.4375 60.15625 39.203125 
Q 55.21875 33.984375 44.921875 32.5625 
Q 48.6875 30.765625 50.640625 29 
Q 54.78125 25.203125 58.5 19.484375 
L 70.953125 0 
L 59.03125 0 
L 49.5625 14.890625 
Q 45.40625 21.34375 42.71875 24.75 
Q 40.046875 28.171875 37.921875 29.53125 
Q 35.796875 30.90625 33.59375 31.453125 
Q 31.984375 31.78125 28.328125 31.78125 
L 17.328125 31.78125 
L 17.328125 0 
z
M 17.328125 39.984375 
L 37.703125 39.984375 
Q 44.1875 39.984375 47.84375 41.328125 
Q 51.515625 42.671875 53.421875 45.625 
Q 55.328125 48.578125 55.328125 52.046875 
Q 55.328125 57.125 51.640625 60.390625 
Q 47.953125 63.671875 39.984375 63.671875 
L 17.328125 63.671875 
z
" id="ArialMT-82"/>
       <path d="M 9.328125 0 
L 9.328125 71.578125 
L 18.796875 71.578125 
L 18.796875 0 
z
" id="ArialMT-73"/>
      </defs>
      <use xlink:href="#ArialMT-65"/>
      <use x="66.699219" xlink:href="#ArialMT-82"/>
      <use x="138.916016" xlink:href="#ArialMT-73"/>
     </g>
    </g>
   </g>
   <g id="text_2">
    <g clip-path="url(#p76aded19ce)">
     <!-- ATL -->
     <g style="fill:#ffffff;" transform="translate(607.605369 179.242448)scale(0.06 -0.06)">
      <defs>
       <path d="M 25.921875 0 
L 25.921875 63.140625 
L 2.34375 63.140625 
L 2.34375 71.578125 
L 59.078125 71.578125 
L 59.078125 63.140625 
L 35.40625 63.140625 
L 35.40625 0 
z
" id="ArialMT-84"/>
       <path d="M 7.328125 0 
L 7.328125 71.578125 
L 16.796875 71.578125 
L 16.796875 8.453125 
L 52.046875 8.453125 
L 52.046875 0 
z
" id="ArialMT-76"/>
      </defs>
      <use xlink:href="#ArialMT-65"/>
      <use x="59.324219" xlink:href="#ArialMT-84"/>
      <use x="120.408203" xlink:href="#ArialMT-76"/>
     </g>
    </g>
   </g>
   <g id="text_3">
    <g clip-path="url(#p76aded19ce)">
     <!-- BAL -->
     <g style="fill:#ffffff;" transform="translate(590.45404 142.405979)scale(0.06 -0.06)">
      <defs>
       <path d="M 7.328125 0 
L 7.328125 71.578125 
L 34.1875 71.578125 
Q 42.390625 71.578125 47.34375 69.40625 
Q 52.296875 67.234375 55.09375 62.71875 
Q 57.90625 58.203125 57.90625 53.265625 
Q 57.90625 48.6875 55.421875 44.625 
Q 52.9375 40.578125 47.90625 38.09375 
Q 54.390625 36.1875 57.875 31.59375 
Q 61.375 27 61.375 20.75 
Q 61.375 15.71875 59.25 11.390625 
Q 57.125 7.078125 54 4.734375 
Q 50.875 2.390625 46.15625 1.1875 
Q 41.453125 0 34.625 0 
z
M 16.796875 41.5 
L 32.28125 41.5 
Q 38.578125 41.5 41.3125 42.328125 
Q 44.921875 43.40625 46.75 45.890625 
Q 48.578125 48.390625 48.578125 52.15625 
Q 48.578125 55.71875 46.875 58.421875 
Q 45.171875 61.140625 41.984375 62.140625 
Q 38.8125 63.140625 31.109375 63.140625 
L 16.796875 63.140625 
z
M 16.796875 8.453125 
L 34.625 8.453125 
Q 39.203125 8.453125 41.0625 8.796875 
Q 44.34375 9.375 46.53125 10.734375 
Q 48.734375 12.109375 50.140625 14.71875 
Q 51.5625 17.328125 51.5625 20.75 
Q 51.5625 24.75 49.515625 27.703125 
Q 47.46875 30.671875 43.828125 31.859375 
Q 40.1875 33.0625 33.34375 33.0625 
L 16.796875 33.0625 
z
" id="ArialMT-66"/>
      </defs>
      <use xlink:href="#ArialMT-66"/>
      <use x="66.699219" xlink:href="#ArialMT-65"/>
      <use x="133.398438" xlink:href="#ArialMT-76"/>
     </g>
    </g>
   </g>
   <g id="text_4">
    <g clip-path="url(#p76aded19ce)">
     <!-- BUF -->
     <g style="fill:#ffffff;" transform="translate(562.90559 108.4573)scale(0.06 -0.06)">
      <defs>
       <path d="M 54.6875 71.578125 
L 64.15625 71.578125 
L 64.15625 30.21875 
Q 64.15625 19.4375 61.71875 13.078125 
Q 59.28125 6.734375 52.90625 2.75 
Q 46.53125 -1.21875 36.1875 -1.21875 
Q 26.125 -1.21875 19.71875 2.25 
Q 13.328125 5.71875 10.59375 12.28125 
Q 7.859375 18.84375 7.859375 30.21875 
L 7.859375 71.578125 
L 17.328125 71.578125 
L 17.328125 30.28125 
Q 17.328125 20.953125 19.0625 16.53125 
Q 20.796875 12.109375 25.015625 9.71875 
Q 29.25 7.328125 35.359375 7.328125 
Q 45.796875 7.328125 50.234375 12.0625 
Q 54.6875 16.796875 54.6875 30.28125 
z
" id="ArialMT-85"/>
       <path d="M 8.203125 0 
L 8.203125 71.578125 
L 56.5 71.578125 
L 56.5 63.140625 
L 17.671875 63.140625 
L 17.671875 40.96875 
L 51.265625 40.96875 
L 51.265625 32.515625 
L 17.671875 32.515625 
L 17.671875 0 
z
" id="ArialMT-70"/>
      </defs>
      <use xlink:href="#ArialMT-66"/>
      <use x="66.699219" xlink:href="#ArialMT-85"/>
      <use x="138.916016" xlink:href="#ArialMT-70"/>
     </g>
    </g>
   </g>
   <g id="text_5">
    <g clip-path="url(#p76aded19ce)">
     <!-- CAR -->
     <g style="fill:#ffffff;" transform="translate(525.940866 78.701037)scale(0.06 -0.06)">
      <defs>
       <path d="M 58.796875 25.09375 
L 68.265625 22.703125 
Q 65.28125 11.03125 57.546875 4.90625 
Q 49.8125 -1.21875 38.625 -1.21875 
Q 27.046875 -1.21875 19.796875 3.484375 
Q 12.546875 8.203125 8.765625 17.140625 
Q 4.984375 26.078125 4.984375 36.328125 
Q 4.984375 47.515625 9.25 55.828125 
Q 13.53125 64.15625 21.40625 68.46875 
Q 29.296875 72.796875 38.765625 72.796875 
Q 49.515625 72.796875 56.828125 67.328125 
Q 64.15625 61.859375 67.046875 51.953125 
L 57.71875 49.75 
Q 55.21875 57.5625 50.484375 61.125 
Q 45.75 64.703125 38.578125 64.703125 
Q 30.328125 64.703125 24.78125 60.734375 
Q 19.234375 56.78125 16.984375 50.109375 
Q 14.75 43.453125 14.75 36.375 
Q 14.75 27.25 17.40625 20.4375 
Q 20.0625 13.625 25.671875 10.25 
Q 31.296875 6.890625 37.84375 6.890625 
Q 45.796875 6.890625 51.3125 11.46875 
Q 56.84375 16.0625 58.796875 25.09375 
z
" id="ArialMT-67"/>
      </defs>
      <use xlink:href="#ArialMT-67"/>
      <use x="72.216797" xlink:href="#ArialMT-65"/>
      <use x="138.916016" xlink:href="#ArialMT-82"/>
     </g>
    </g>
   </g>
   <g id="text_6">
    <g clip-path="url(#p76aded19ce)">
     <!-- CHI -->
     <g style="fill:#ffffff;" transform="translate(482.474128 54.2807)scale(0.06 -0.06)">
      <defs>
       <path d="M 8.015625 0 
L 8.015625 71.578125 
L 17.484375 71.578125 
L 17.484375 42.1875 
L 54.6875 42.1875 
L 54.6875 71.578125 
L 64.15625 71.578125 
L 64.15625 0 
L 54.6875 0 
L 54.6875 33.734375 
L 17.484375 33.734375 
L 17.484375 0 
z
" id="ArialMT-72"/>
      </defs>
      <use xlink:href="#ArialMT-67"/>
      <use x="72.216797" xlink:href="#ArialMT-72"/>
      <use x="144.433594" xlink:href="#ArialMT-73"/>
     </g>
    </g>
   </g>
   <g id="text_7">
    <g clip-path="url(#p76aded19ce)">
     <!-- CIN -->
     <g style="fill:#ffffff;" transform="translate(431.551101 36.134755)scale(0.06 -0.06)">
      <defs>
       <path d="M 7.625 0 
L 7.625 71.578125 
L 17.328125 71.578125 
L 54.9375 15.375 
L 54.9375 71.578125 
L 64.015625 71.578125 
L 64.015625 0 
L 54.296875 0 
L 16.703125 56.25 
L 16.703125 0 
z
" id="ArialMT-78"/>
      </defs>
      <use xlink:href="#ArialMT-67"/>
      <use x="72.216797" xlink:href="#ArialMT-73"/>
      <use x="100" xlink:href="#ArialMT-78"/>
     </g>
    </g>
   </g>
   <g id="text_8">
    <g clip-path="url(#p76aded19ce)">
     <!-- CLE -->
     <g style="fill:#ffffff;" transform="translate(375.627039 24.960535)scale(0.06 -0.06)">
      <defs>
       <path d="M 7.90625 0 
L 7.90625 71.578125 
L 59.671875 71.578125 
L 59.671875 63.140625 
L 17.390625 63.140625 
L 17.390625 41.21875 
L 56.984375 41.21875 
L 56.984375 32.8125 
L 17.390625 32.8125 
L 17.390625 8.453125 
L 61.328125 8.453125 
L 61.328125 0 
z
" id="ArialMT-69"/>
      </defs>
      <use xlink:href="#ArialMT-67"/>
      <use x="72.216797" xlink:href="#ArialMT-76"/>
      <use x="127.832031" xlink:href="#ArialMT-69"/>
     </g>
    </g>
   </g>
   <g id="text_9">
    <g clip-path="url(#p76aded19ce)">
     <!-- DAL -->
     <g style="fill:#ffffff;" transform="translate(318.16405 21.187457)scale(0.06 -0.06)">
      <defs>
       <path d="M 7.71875 0 
L 7.71875 71.578125 
L 32.375 71.578125 
Q 40.71875 71.578125 45.125 70.5625 
Q 51.265625 69.140625 55.609375 65.4375 
Q 61.28125 60.640625 64.078125 53.1875 
Q 66.890625 45.75 66.890625 36.1875 
Q 66.890625 28.03125 64.984375 21.734375 
Q 63.09375 15.4375 60.109375 11.296875 
Q 57.125 7.171875 53.578125 4.796875 
Q 50.046875 2.4375 45.046875 1.21875 
Q 40.046875 0 33.546875 0 
z
M 17.1875 8.453125 
L 32.46875 8.453125 
Q 39.546875 8.453125 43.578125 9.765625 
Q 47.609375 11.078125 50 13.484375 
Q 53.375 16.84375 55.25 22.53125 
Q 57.125 28.21875 57.125 36.328125 
Q 57.125 47.5625 53.4375 53.59375 
Q 49.75 59.625 44.484375 61.671875 
Q 40.671875 63.140625 32.234375 63.140625 
L 17.1875 63.140625 
z
" id="ArialMT-68"/>
      </defs>
      <use xlink:href="#ArialMT-68"/>
      <use x="72.216797" xlink:href="#ArialMT-65"/>
      <use x="138.916016" xlink:href="#ArialMT-76"/>
     </g>
    </g>
   </g>
   <g id="text_10">
    <g clip-path="url(#p76aded19ce)">
     <!-- DEN -->
     <g style="fill:#ffffff;" transform="translate(260.202813 24.960535)scale(0.06 -0.06)">
      <use xlink:href="#ArialMT-68"/>
      <use x="72.216797" xlink:href="#ArialMT-69"/>
      <use x="138.916016" xlink:href="#ArialMT-78"/>
     </g>
    </g>
   </g>
   <g id="text_11">
    <g clip-path="url(#p76aded19ce)">
     <!-- DET -->
     <g style="fill:#ffffff;" transform="translate(205.282345 36.134743)scale(0.06 -0.06)">
      <use xlink:href="#ArialMT-68"/>
      <use x="72.216797" xlink:href="#ArialMT-69"/>
      <use x="138.916016" xlink:href="#ArialMT-84"/>
     </g>
    </g>
   </g>
   <g id="text_12">
    <g clip-path="url(#p76aded19ce)">
     <!-- GB -->
     <g style="fill:#ffffff;" transform="translate(156.024796 54.280689)scale(0.06 -0.06)">
      <defs>
       <path d="M 41.21875 28.078125 
L 41.21875 36.46875 
L 71.53125 36.53125 
L 71.53125 9.96875 
Q 64.546875 4.390625 57.125 1.578125 
Q 49.703125 -1.21875 41.890625 -1.21875 
Q 31.34375 -1.21875 22.71875 3.296875 
Q 14.109375 7.8125 9.71875 16.359375 
Q 5.328125 24.90625 5.328125 35.453125 
Q 5.328125 45.90625 9.6875 54.953125 
Q 14.0625 64.015625 22.265625 68.40625 
Q 30.46875 72.796875 41.15625 72.796875 
Q 48.921875 72.796875 55.1875 70.28125 
Q 61.46875 67.78125 65.03125 63.28125 
Q 68.609375 58.796875 70.453125 51.5625 
L 61.921875 49.21875 
Q 60.296875 54.6875 57.90625 57.8125 
Q 55.515625 60.9375 51.0625 62.8125 
Q 46.625 64.703125 41.21875 64.703125 
Q 34.71875 64.703125 29.984375 62.71875 
Q 25.25 60.75 22.34375 57.515625 
Q 19.4375 54.296875 17.828125 50.4375 
Q 15.09375 43.796875 15.09375 36.03125 
Q 15.09375 26.46875 18.390625 20.015625 
Q 21.6875 13.578125 27.984375 10.453125 
Q 34.28125 7.328125 41.359375 7.328125 
Q 47.515625 7.328125 53.375 9.6875 
Q 59.234375 12.0625 62.25 14.75 
L 62.25 28.078125 
z
" id="ArialMT-71"/>
      </defs>
      <use xlink:href="#ArialMT-71"/>
      <use x="77.783203" xlink:href="#ArialMT-66"/>
     </g>
    </g>
   </g>
   <g id="text_13">
    <g clip-path="url(#p76aded19ce)">
     <!-- HOU -->
     <g style="fill:#ffffff;" transform="translate(109.058353 78.701037)scale(0.06 -0.06)">
      <defs>
       <path d="M 4.828125 34.859375 
Q 4.828125 52.6875 14.390625 62.765625 
Q 23.96875 72.859375 39.109375 72.859375 
Q 49.03125 72.859375 56.984375 68.109375 
Q 64.9375 63.375 69.109375 54.90625 
Q 73.296875 46.4375 73.296875 35.6875 
Q 73.296875 24.8125 68.890625 16.21875 
Q 64.5 7.625 56.4375 3.203125 
Q 48.390625 -1.21875 39.0625 -1.21875 
Q 28.953125 -1.21875 20.984375 3.65625 
Q 13.03125 8.546875 8.921875 16.984375 
Q 4.828125 25.4375 4.828125 34.859375 
z
M 14.59375 34.71875 
Q 14.59375 21.78125 21.546875 14.328125 
Q 28.515625 6.890625 39.015625 6.890625 
Q 49.703125 6.890625 56.609375 14.40625 
Q 63.53125 21.921875 63.53125 35.75 
Q 63.53125 44.484375 60.578125 51 
Q 57.625 57.515625 51.921875 61.109375 
Q 46.234375 64.703125 39.15625 64.703125 
Q 29.109375 64.703125 21.84375 57.78125 
Q 14.59375 50.875 14.59375 34.71875 
z
" id="ArialMT-79"/>
      </defs>
      <use xlink:href="#ArialMT-72"/>
      <use x="72.216797" xlink:href="#ArialMT-79"/>
      <use x="150" xlink:href="#ArialMT-85"/>
     </g>
    </g>
   </g>
   <g id="text_14">
    <g clip-path="url(#p76aded19ce)">
     <!-- IND -->
     <g style="fill:#ffffff;" transform="translate(73.92783 108.457312)scale(0.06 -0.06)">
      <use xlink:href="#ArialMT-73"/>
      <use x="27.783203" xlink:href="#ArialMT-78"/>
      <use x="100" xlink:href="#ArialMT-68"/>
     </g>
    </g>
   </g>
   <g id="text_15">
    <g clip-path="url(#p76aded19ce)">
     <!-- JAX -->
     <g style="fill:#ffffff;" transform="translate(46.373304 142.405973)scale(0.06 -0.06)">
      <defs>
       <path d="M 2.875 20.3125 
L 11.421875 21.484375 
Q 11.765625 13.28125 14.5 10.25 
Q 17.234375 7.234375 22.078125 7.234375 
Q 25.640625 7.234375 28.21875 8.859375 
Q 30.8125 10.5 31.78125 13.296875 
Q 32.765625 16.109375 32.765625 22.265625 
L 32.765625 71.578125 
L 42.234375 71.578125 
L 42.234375 22.796875 
Q 42.234375 13.8125 40.0625 8.875 
Q 37.890625 3.953125 33.171875 1.359375 
Q 28.46875 -1.21875 22.125 -1.21875 
Q 12.703125 -1.21875 7.6875 4.203125 
Q 2.6875 9.625 2.875 20.3125 
z
" id="ArialMT-74"/>
       <path d="M 0.4375 0 
L 28.125 37.3125 
L 3.71875 71.578125 
L 14.984375 71.578125 
L 27.984375 53.21875 
Q 32.03125 47.515625 33.734375 44.4375 
Q 36.140625 48.34375 39.40625 52.59375 
L 53.8125 71.578125 
L 64.109375 71.578125 
L 38.96875 37.84375 
L 66.0625 0 
L 54.34375 0 
L 36.328125 25.53125 
Q 34.8125 27.734375 33.203125 30.328125 
Q 30.8125 26.421875 29.78125 24.953125 
L 11.8125 0 
z
" id="ArialMT-88"/>
      </defs>
      <use xlink:href="#ArialMT-74"/>
      <use x="50" xlink:href="#ArialMT-65"/>
      <use x="116.699219" xlink:href="#ArialMT-88"/>
     </g>
    </g>
   </g>
   <g id="text_16">
    <g clip-path="url(#p76aded19ce)">
     <!-- KC -->
     <g style="fill:#ffffff;" transform="translate(30.946489 179.242451)scale(0.06 -0.06)">
      <defs>
       <path d="M 7.328125 0 
L 7.328125 71.578125 
L 16.796875 71.578125 
L 16.796875 36.078125 
L 52.34375 71.578125 
L 65.1875 71.578125 
L 35.15625 42.578125 
L 66.5 0 
L 54 0 
L 28.515625 36.234375 
L 16.796875 24.8125 
L 16.796875 0 
z
" id="ArialMT-75"/>
      </defs>
      <use xlink:href="#ArialMT-75"/>
      <use x="66.699219" xlink:href="#ArialMT-67"/>
     </g>
    </g>
   </g>
   <g id="text_17">
    <g clip-path="url(#p76aded19ce)">
     <!-- MIA -->
     <g style="fill:#ffffff;" transform="translate(24.121108 217.551111)scale(0.06 -0.06)">
      <defs>
       <path d="M 7.421875 0 
L 7.421875 71.578125 
L 21.6875 71.578125 
L 38.625 20.90625 
Q 40.96875 13.8125 42.046875 10.296875 
Q 43.265625 14.203125 45.84375 21.78125 
L 62.984375 71.578125 
L 75.734375 71.578125 
L 75.734375 0 
L 66.609375 0 
L 66.609375 59.90625 
L 45.796875 0 
L 37.25 0 
L 16.546875 60.9375 
L 16.546875 0 
z
" id="ArialMT-77"/>
      </defs>
      <use xlink:href="#ArialMT-77"/>
      <use x="83.300781" xlink:href="#ArialMT-73"/>
      <use x="111.083984" xlink:href="#ArialMT-65"/>
     </g>
    </g>
   </g>
   <g id="text_18">
    <g clip-path="url(#p76aded19ce)">
     <!-- MIN -->
     <g style="fill:#ffffff;" transform="translate(29.615239 255.859724)scale(0.06 -0.06)">
      <use xlink:href="#ArialMT-77"/>
      <use x="83.300781" xlink:href="#ArialMT-73"/>
      <use x="111.083984" xlink:href="#ArialMT-78"/>
     </g>
    </g>
   </g>
   <g id="text_19">
    <g clip-path="url(#p76aded19ce)">
     <!-- NE -->
     <g style="fill:#ffffff;" transform="translate(47.707835 292.696203)scale(0.06 -0.06)">
      <use xlink:href="#ArialMT-78"/>
      <use x="72.216797" xlink:href="#ArialMT-69"/>
     </g>
    </g>
   </g>
   <g id="text_20">
    <g clip-path="url(#p76aded19ce)">
     <!-- NO -->
     <g style="fill:#ffffff;" transform="translate(74.594428 326.644899)scale(0.06 -0.06)">
      <use xlink:href="#ArialMT-78"/>
      <use x="72.216797" xlink:href="#ArialMT-79"/>
     </g>
    </g>
   </g>
   <g id="text_21">
    <g clip-path="url(#p76aded19ce)">
     <!-- NYG -->
     <g style="fill:#ffffff;" transform="translate(109.223804 356.401139)scale(0.06 -0.06)">
      <defs>
       <path d="M 27.875 0 
L 27.875 30.328125 
L 0.296875 71.578125 
L 11.8125 71.578125 
L 25.921875 50 
Q 29.828125 43.953125 33.203125 37.890625 
Q 36.421875 43.5 41.015625 50.53125 
L 54.890625 71.578125 
L 65.921875 71.578125 
L 37.359375 30.328125 
L 37.359375 0 
z
" id="ArialMT-89"/>
      </defs>
      <use xlink:href="#ArialMT-78"/>
      <use x="72.216797" xlink:href="#ArialMT-89"/>
      <use x="138.916016" xlink:href="#ArialMT-71"/>
     </g>
    </g>
   </g>
   <g id="text_22">
    <g clip-path="url(#p76aded19ce)">
     <!-- NYJ -->
     <g style="fill:#ffffff;" transform="translate(154.691601 380.821464)scale(0.06 -0.06)">
      <use xlink:href="#ArialMT-78"/>
      <use x="72.216797" xlink:href="#ArialMT-89"/>
      <use x="138.916016" xlink:href="#ArialMT-74"/>
     </g>
    </g>
   </g>
   <g id="text_23">
    <g clip-path="url(#p76aded19ce)">
     <!-- OAK -->
     <g style="fill:#ffffff;" transform="translate(204.946667 398.967433)scale(0.06 -0.06)">
      <use xlink:href="#ArialMT-79"/>
      <use x="77.783203" xlink:href="#ArialMT-65"/>
      <use x="144.482422" xlink:href="#ArialMT-75"/>
     </g>
    </g>
   </g>
   <g id="text_24">
    <g clip-path="url(#p76aded19ce)">
     <!-- PHI -->
     <g style="fill:#ffffff;" transform="translate(261.535921 410.141652)scale(0.06 -0.06)">
      <defs>
       <path d="M 7.71875 0 
L 7.71875 71.578125 
L 34.71875 71.578125 
Q 41.84375 71.578125 45.609375 70.90625 
Q 50.875 70.015625 54.4375 67.546875 
Q 58.015625 65.09375 60.1875 60.640625 
Q 62.359375 56.203125 62.359375 50.875 
Q 62.359375 41.75 56.546875 35.421875 
Q 50.734375 29.109375 35.546875 29.109375 
L 17.1875 29.109375 
L 17.1875 0 
z
M 17.1875 37.546875 
L 35.6875 37.546875 
Q 44.875 37.546875 48.734375 40.96875 
Q 52.59375 44.390625 52.59375 50.59375 
Q 52.59375 55.078125 50.3125 58.265625 
Q 48.046875 61.46875 44.34375 62.5 
Q 41.9375 63.140625 35.5 63.140625 
L 17.1875 63.140625 
z
" id="ArialMT-80"/>
      </defs>
      <use xlink:href="#ArialMT-80"/>
      <use x="66.699219" xlink:href="#ArialMT-72"/>
      <use x="138.916016" xlink:href="#ArialMT-73"/>
     </g>
    </g>
   </g>
   <g id="text_25">
    <g clip-path="url(#p76aded19ce)">
     <!-- PIT -->
     <g style="fill:#ffffff;" transform="translate(319.333129 413.91473)scale(0.06 -0.06)">
      <use xlink:href="#ArialMT-80"/>
      <use x="66.699219" xlink:href="#ArialMT-73"/>
      <use x="94.482422" xlink:href="#ArialMT-84"/>
     </g>
    </g>
   </g>
   <g id="text_26">
    <g clip-path="url(#p76aded19ce)">
     <!-- LAC -->
     <g style="fill:#ffffff;" transform="translate(375.627057 410.141652)scale(0.06 -0.06)">
      <use xlink:href="#ArialMT-76"/>
      <use x="55.615234" xlink:href="#ArialMT-65"/>
      <use x="122.314453" xlink:href="#ArialMT-67"/>
     </g>
    </g>
   </g>
   <g id="text_27">
    <g clip-path="url(#p76aded19ce)">
     <!-- LA -->
     <g style="fill:#ffffff;" transform="translate(433.048341 398.967421)scale(0.06 -0.06)">
      <use xlink:href="#ArialMT-76"/>
      <use x="55.615234" xlink:href="#ArialMT-65"/>
     </g>
    </g>
   </g>
   <g id="text_28">
    <g clip-path="url(#p76aded19ce)">
     <!-- SF -->
     <g style="fill:#ffffff;" transform="translate(483.8072 380.82151)scale(0.06 -0.06)">
      <defs>
       <path d="M 4.5 23 
L 13.421875 23.78125 
Q 14.0625 18.40625 16.375 14.96875 
Q 18.703125 11.53125 23.578125 9.40625 
Q 28.46875 7.28125 34.578125 7.28125 
Q 39.984375 7.28125 44.140625 8.890625 
Q 48.296875 10.5 50.3125 13.296875 
Q 52.34375 16.109375 52.34375 19.4375 
Q 52.34375 22.796875 50.390625 25.3125 
Q 48.4375 27.828125 43.953125 29.546875 
Q 41.0625 30.671875 31.203125 33.03125 
Q 21.34375 35.40625 17.390625 37.5 
Q 12.25 40.1875 9.734375 44.15625 
Q 7.234375 48.140625 7.234375 53.078125 
Q 7.234375 58.5 10.296875 63.203125 
Q 13.375 67.921875 19.28125 70.359375 
Q 25.203125 72.796875 32.421875 72.796875 
Q 40.375 72.796875 46.453125 70.234375 
Q 52.546875 67.671875 55.8125 62.6875 
Q 59.078125 57.71875 59.328125 51.421875 
L 50.25 50.734375 
Q 49.515625 57.515625 45.28125 60.984375 
Q 41.0625 64.453125 32.8125 64.453125 
Q 24.21875 64.453125 20.28125 61.296875 
Q 16.359375 58.15625 16.359375 53.71875 
Q 16.359375 49.859375 19.140625 47.359375 
Q 21.875 44.875 33.421875 42.265625 
Q 44.96875 39.65625 49.265625 37.703125 
Q 55.515625 34.8125 58.484375 30.390625 
Q 61.46875 25.984375 61.46875 20.21875 
Q 61.46875 14.5 58.203125 9.4375 
Q 54.9375 4.390625 48.796875 1.578125 
Q 42.671875 -1.21875 35.015625 -1.21875 
Q 25.296875 -1.21875 18.71875 1.609375 
Q 12.15625 4.4375 8.421875 10.125 
Q 4.6875 15.828125 4.5 23 
z
" id="ArialMT-83"/>
      </defs>
      <use xlink:href="#ArialMT-83"/>
      <use x="66.699219" xlink:href="#ArialMT-70"/>
     </g>
    </g>
   </g>
   <g id="text_29">
    <g clip-path="url(#p76aded19ce)">
     <!-- SEA -->
     <g style="fill:#ffffff;" transform="translate(526.271786 356.401174)scale(0.06 -0.06)">
      <use xlink:href="#ArialMT-83"/>
      <use x="66.699219" xlink:href="#ArialMT-69"/>
      <use x="133.398438" xlink:href="#ArialMT-65"/>
     </g>
    </g>
   </g>
   <g id="text_30">
    <g clip-path="url(#p76aded19ce)">
     <!-- TB -->
     <g style="fill:#ffffff;" transform="translate(565.072152 326.644899)scale(0.06 -0.06)">
      <use xlink:href="#ArialMT-84"/>
      <use x="61.083984" xlink:href="#ArialMT-66"/>
     </g>
    </g>
   </g>
   <g id="text_31">
    <g clip-path="url(#p76aded19ce)">
     <!-- TEN -->
     <g style="fill:#ffffff;" transform="translate(590.124526 292.696203)scale(0.06 -0.06)">
      <use xlink:href="#ArialMT-84"/>
      <use x="61.083984" xlink:href="#ArialMT-69"/>
      <use x="127.783203" xlink:href="#ArialMT-78"/>
     </g>
    </g>
   </g>
   <g id="text_32">
    <g clip-path="url(#p76aded19ce)">
     <!-- WAS -->
     <g style="fill:#ffffff;" transform="translate(606.164449 255.859722)scale(0.06 -0.06)">
      <defs>
       <path d="M 20.21875 0 
L 1.21875 71.578125 
L 10.9375 71.578125 
L 21.828125 24.65625 
Q 23.578125 17.28125 24.859375 10.015625 
Q 27.59375 21.484375 28.078125 23.25 
L 41.703125 71.578125 
L 53.125 71.578125 
L 63.375 35.359375 
Q 67.234375 21.875 68.953125 10.015625 
Q 70.3125 16.796875 72.515625 25.59375 
L 83.734375 71.578125 
L 93.265625 71.578125 
L 73.640625 0 
L 64.5 0 
L 49.421875 54.546875 
Q 47.515625 61.375 47.171875 62.9375 
Q 46.046875 58.015625 45.0625 54.546875 
L 29.890625 0 
z
" id="ArialMT-87"/>
      </defs>
      <use xlink:href="#ArialMT-87"/>
      <use x="90.634766" xlink:href="#ArialMT-65"/>
      <use x="157.333984" xlink:href="#ArialMT-83"/>
     </g>
    </g>
   </g>
  </g>
 </g>
 <defs>
  <clipPath id="p76aded19ce">
   <rect height="432" width="648" x="0" y="0"/>
  </clipPath>
 </defs>
</svg>
