<?xml version="1.0" encoding="utf-8" standalone="no"?>
<!DOCTYPE svg PUBLIC "-//W3C//DTD SVG 1.1//EN"
  "http://www.w3.org/Graphics/SVG/1.1/DTD/svg11.dtd">
<!-- Created with matplotlib (https://matplotlib.org/) -->
<svg height="288pt" version="1.1" viewBox="0 0 432 288" width="432pt" xmlns="http://www.w3.org/2000/svg" xmlns:xlink="http://www.w3.org/1999/xlink">
 <metadata>
  <rdf:RDF xmlns:cc="http://creativecommons.org/ns#" xmlns:dc="http://purl.org/dc/elements/1.1/" xmlns:rdf="http://www.w3.org/1999/02/22-rdf-syntax-ns#">
   <cc:Work>
    <dc:type rdf:resource="http://purl.org/dc/dcmitype/StillImage"/>
    <dc:date>2020-10-31T15:04:30.959154</dc:date>
    <dc:format>image/svg+xml</dc:format>
    <dc:creator>
     <cc:Agent>
      <dc:title>Matplotlib v3.3.2, https://matplotlib.org/</dc:title>
     </cc:Agent>
    </dc:creator>
   </cc:Work>
  </rdf:RDF>
 </metadata>
 <defs>
  <style type="text/css">*{stroke-linecap:butt;stroke-linejoin:round;}</style>
 </defs>
 <g id="figure_1">
  <g id="patch_1">
   <path d="M 0 288 
L 432 288 
L 432 0 
L 0 0 
z
" style="fill:#ffffff;"/>
  </g>
  <g id="axes_1">
   <g id="LineCollection_1">
    <path clip-path="url(#paf42411d54)" d="M 412.363636 144 
L 408.59057 169.539085 
" style="fill:none;stroke:#ff0000;stroke-width:0.3;"/>
    <path clip-path="url(#paf42411d54)" d="M 412.363636 144 
L 291.145144 264.944218 
" style="fill:none;stroke:#ff0000;stroke-width:0.3;"/>
    <path clip-path="url(#paf42411d54)" d="M 412.363636 144 
L 325.093794 35.153071 
" style="fill:none;stroke:#ff0000;stroke-width:0.3;"/>
    <path clip-path="url(#paf42411d54)" d="M 412.363636 144 
L 354.850045 236.56672 
" style="fill:none;stroke:#ff0000;stroke-width:0.3;"/>
    <path clip-path="url(#paf42411d54)" d="M 412.363636 144 
L 325.093758 252.846944 
" style="fill:none;stroke:#ff0000;stroke-width:0.3;"/>
    <path clip-path="url(#paf42411d54)" d="M 412.363636 144 
L 23.40943 169.539087 
" style="fill:none;stroke:#ff0000;stroke-width:0.3;"/>
    <path clip-path="url(#paf42411d54)" d="M 412.363636 144 
L 177.691355 15.606294 
" style="fill:none;stroke:#ff0000;stroke-width:0.3;"/>
    <path clip-path="url(#paf42411d54)" d="M 412.363636 144 
L 23.40943 118.460905 
" style="fill:none;stroke:#ff0000;stroke-width:0.3;"/>
    <path clip-path="url(#paf42411d54)" d="M 412.363636 144 
L 140.854862 264.944226 
" style="fill:none;stroke:#ff0000;stroke-width:0.3;"/>
    <path clip-path="url(#paf42411d54)" d="M 412.363636 144 
L 254.308663 272.393706 
" style="fill:none;stroke:#ff0000;stroke-width:0.3;"/>
    <path clip-path="url(#paf42411d54)" d="M 412.363636 144 
L 106.906218 35.153063 
" style="fill:none;stroke:#ff0000;stroke-width:0.3;"/>
    <path clip-path="url(#paf42411d54)" d="M 412.363636 144 
L 140.854897 23.055766 
" style="fill:none;stroke:#ff0000;stroke-width:0.3;"/>
    <path clip-path="url(#paf42411d54)" d="M 412.363636 144 
L 408.590558 118.460903 
" style="fill:none;stroke:#ff0000;stroke-width:0.3;"/>
    <path clip-path="url(#paf42411d54)" d="M 408.590558 118.460903 
L 177.691343 272.393706 
" style="fill:none;stroke:#ff0000;stroke-width:0.3;"/>
    <path clip-path="url(#paf42411d54)" d="M 408.590558 118.460903 
L 354.850056 51.433296 
" style="fill:none;stroke:#ff0000;stroke-width:0.3;"/>
    <path clip-path="url(#paf42411d54)" d="M 408.590558 118.460903 
L 52.729618 216.729203 
" style="fill:none;stroke:#ff0000;stroke-width:0.3;"/>
    <path clip-path="url(#paf42411d54)" d="M 408.590558 118.460903 
L 291.145109 23.055774 
" style="fill:none;stroke:#ff0000;stroke-width:0.3;"/>
    <path clip-path="url(#paf42411d54)" d="M 408.590558 118.460903 
L 216.000002 274.909091 
" style="fill:none;stroke:#ff0000;stroke-width:0.3;"/>
    <path clip-path="url(#paf42411d54)" d="M 408.590558 118.460903 
L 379.270393 216.729203 
" style="fill:none;stroke:#ff0000;stroke-width:0.3;"/>
    <path clip-path="url(#paf42411d54)" d="M 408.590558 118.460903 
L 77.149932 236.566697 
" style="fill:none;stroke:#ff0000;stroke-width:0.3;"/>
    <path clip-path="url(#paf42411d54)" d="M 408.590558 118.460903 
L 408.59057 169.539085 
" style="fill:none;stroke:#ff0000;stroke-width:0.3;"/>
    <path clip-path="url(#paf42411d54)" d="M 408.590558 118.460903 
L 254.308651 15.606294 
" style="fill:none;stroke:#ff0000;stroke-width:0.3;"/>
    <path clip-path="url(#paf42411d54)" d="M 408.590558 118.460903 
L 215.999991 13.090909 
" style="fill:none;stroke:#ff0000;stroke-width:0.3;"/>
    <path clip-path="url(#paf42411d54)" d="M 408.590558 118.460903 
L 397.416339 93.903257 
" style="fill:none;stroke:#ff0000;stroke-width:0.3;"/>
    <path clip-path="url(#paf42411d54)" d="M 408.590558 118.460903 
L 106.906218 35.153063 
" style="fill:none;stroke:#ff0000;stroke-width:0.3;"/>
    <path clip-path="url(#paf42411d54)" d="M 397.416339 93.903257 
L 379.270393 71.270804 
" style="fill:none;stroke:#ff0000;stroke-width:0.3;"/>
    <path clip-path="url(#paf42411d54)" d="M 397.416339 93.903257 
L 291.145109 23.055774 
" style="fill:none;stroke:#ff0000;stroke-width:0.3;"/>
    <path clip-path="url(#paf42411d54)" d="M 397.416339 93.903257 
L 177.691355 15.606294 
" style="fill:none;stroke:#ff0000;stroke-width:0.3;"/>
    <path clip-path="url(#paf42411d54)" d="M 397.416339 93.903257 
L 216.000002 274.909091 
" style="fill:none;stroke:#ff0000;stroke-width:0.3;"/>
    <path clip-path="url(#paf42411d54)" d="M 397.416339 93.903257 
L 254.308651 15.606294 
" style="fill:none;stroke:#ff0000;stroke-width:0.3;"/>
    <path clip-path="url(#paf42411d54)" d="M 397.416339 93.903257 
L 397.416351 194.096739 
" style="fill:none;stroke:#ff0000;stroke-width:0.3;"/>
    <path clip-path="url(#paf42411d54)" d="M 397.416339 93.903257 
L 52.729618 216.729203 
" style="fill:none;stroke:#ff0000;stroke-width:0.3;"/>
    <path clip-path="url(#paf42411d54)" d="M 397.416339 93.903257 
L 354.850056 51.433296 
" style="fill:none;stroke:#ff0000;stroke-width:0.3;"/>
    <path clip-path="url(#paf42411d54)" d="M 397.416339 93.903257 
L 140.854862 264.944226 
" style="fill:none;stroke:#ff0000;stroke-width:0.3;"/>
    <path clip-path="url(#paf42411d54)" d="M 397.416339 93.903257 
L 23.40943 118.460905 
" style="fill:none;stroke:#ff0000;stroke-width:0.3;"/>
    <path clip-path="url(#paf42411d54)" d="M 397.416339 93.903257 
L 379.270393 216.729203 
" style="fill:none;stroke:#ff0000;stroke-width:0.3;"/>
    <path clip-path="url(#paf42411d54)" d="M 397.416339 93.903257 
L 254.308663 272.393706 
" style="fill:none;stroke:#ff0000;stroke-width:0.3;"/>
    <path clip-path="url(#paf42411d54)" d="M 379.270393 71.270804 
L 254.308663 272.393706 
" style="fill:none;stroke:#ff0000;stroke-width:0.3;"/>
    <path clip-path="url(#paf42411d54)" d="M 379.270393 71.270804 
L 23.40943 169.539087 
" style="fill:none;stroke:#ff0000;stroke-width:0.3;"/>
    <path clip-path="url(#paf42411d54)" d="M 379.270393 71.270804 
L 106.906218 35.153063 
" style="fill:none;stroke:#ff0000;stroke-width:0.3;"/>
    <path clip-path="url(#paf42411d54)" d="M 379.270393 71.270804 
L 397.416351 194.096739 
" style="fill:none;stroke:#ff0000;stroke-width:0.3;"/>
    <path clip-path="url(#paf42411d54)" d="M 379.270393 71.270804 
L 77.149944 51.433296 
" style="fill:none;stroke:#ff0000;stroke-width:0.3;"/>
    <path clip-path="url(#paf42411d54)" d="M 379.270393 71.270804 
L 52.729595 71.270812 
" style="fill:none;stroke:#ff0000;stroke-width:0.3;"/>
    <path clip-path="url(#paf42411d54)" d="M 379.270393 71.270804 
L 34.583661 194.096739 
" style="fill:none;stroke:#ff0000;stroke-width:0.3;"/>
    <path clip-path="url(#paf42411d54)" d="M 379.270393 71.270804 
L 325.093794 35.153071 
" style="fill:none;stroke:#ff0000;stroke-width:0.3;"/>
    <path clip-path="url(#paf42411d54)" d="M 379.270393 71.270804 
L 106.906171 252.846913 
" style="fill:none;stroke:#ff0000;stroke-width:0.3;"/>
    <path clip-path="url(#paf42411d54)" d="M 379.270393 71.270804 
L 34.583661 93.903253 
" style="fill:none;stroke:#ff0000;stroke-width:0.3;"/>
    <path clip-path="url(#paf42411d54)" d="M 379.270393 71.270804 
L 19.636364 144.000011 
" style="fill:none;stroke:#ff0000;stroke-width:0.3;"/>
    <path clip-path="url(#paf42411d54)" d="M 379.270393 71.270804 
L 140.854897 23.055766 
" style="fill:none;stroke:#ff0000;stroke-width:0.3;"/>
    <path clip-path="url(#paf42411d54)" d="M 354.850056 51.433296 
L 325.093794 35.153071 
" style="fill:none;stroke:#ff0000;stroke-width:0.3;"/>
    <path clip-path="url(#paf42411d54)" d="M 354.850056 51.433296 
L 215.999991 13.090909 
" style="fill:none;stroke:#ff0000;stroke-width:0.3;"/>
    <path clip-path="url(#paf42411d54)" d="M 354.850056 51.433296 
L 291.145109 23.055774 
" style="fill:none;stroke:#ff0000;stroke-width:0.3;"/>
    <path clip-path="url(#paf42411d54)" d="M 354.850056 51.433296 
L 77.149932 236.566697 
" style="fill:none;stroke:#ff0000;stroke-width:0.3;"/>
    <path clip-path="url(#paf42411d54)" d="M 354.850056 51.433296 
L 408.59057 169.539085 
" style="fill:none;stroke:#ff0000;stroke-width:0.3;"/>
    <path clip-path="url(#paf42411d54)" d="M 354.850056 51.433296 
L 177.691343 272.393706 
" style="fill:none;stroke:#ff0000;stroke-width:0.3;"/>
    <path clip-path="url(#paf42411d54)" d="M 354.850056 51.433296 
L 379.270393 216.729203 
" style="fill:none;stroke:#ff0000;stroke-width:0.3;"/>
    <path clip-path="url(#paf42411d54)" d="M 354.850056 51.433296 
L 216.000002 274.909091 
" style="fill:none;stroke:#ff0000;stroke-width:0.3;"/>
    <path clip-path="url(#paf42411d54)" d="M 354.850056 51.433296 
L 140.854897 23.055766 
" style="fill:none;stroke:#ff0000;stroke-width:0.3;"/>
    <path clip-path="url(#paf42411d54)" d="M 354.850056 51.433296 
L 354.850045 236.56672 
" style="fill:none;stroke:#ff0000;stroke-width:0.3;"/>
    <path clip-path="url(#paf42411d54)" d="M 354.850056 51.433296 
L 254.308651 15.606294 
" style="fill:none;stroke:#ff0000;stroke-width:0.3;"/>
    <path clip-path="url(#paf42411d54)" d="M 354.850056 51.433296 
L 52.729618 216.729203 
" style="fill:none;stroke:#ff0000;stroke-width:0.3;"/>
    <path clip-path="url(#paf42411d54)" d="M 325.093794 35.153071 
L 106.906218 35.153063 
" style="fill:none;stroke:#ff0000;stroke-width:0.3;"/>
    <path clip-path="url(#paf42411d54)" d="M 325.093794 35.153071 
L 354.850045 236.56672 
" style="fill:none;stroke:#ff0000;stroke-width:0.3;"/>
    <path clip-path="url(#paf42411d54)" d="M 325.093794 35.153071 
L 379.270393 216.729203 
" style="fill:none;stroke:#ff0000;stroke-width:0.3;"/>
    <path clip-path="url(#paf42411d54)" d="M 325.093794 35.153071 
L 19.636364 144.000011 
" style="fill:none;stroke:#ff0000;stroke-width:0.3;"/>
    <path clip-path="url(#paf42411d54)" d="M 325.093794 35.153071 
L 34.583661 194.096739 
" style="fill:none;stroke:#ff0000;stroke-width:0.3;"/>
    <path clip-path="url(#paf42411d54)" d="M 325.093794 35.153071 
L 106.906171 252.846913 
" style="fill:none;stroke:#ff0000;stroke-width:0.3;"/>
    <path clip-path="url(#paf42411d54)" d="M 325.093794 35.153071 
L 140.854897 23.055766 
" style="fill:none;stroke:#ff0000;stroke-width:0.3;"/>
    <path clip-path="url(#paf42411d54)" d="M 325.093794 35.153071 
L 23.40943 169.539087 
" style="fill:none;stroke:#ff0000;stroke-width:0.3;"/>
    <path clip-path="url(#paf42411d54)" d="M 325.093794 35.153071 
L 77.149932 236.566697 
" style="fill:none;stroke:#ff0000;stroke-width:0.3;"/>
    <path clip-path="url(#paf42411d54)" d="M 325.093794 35.153071 
L 291.145144 264.944218 
" style="fill:none;stroke:#ff0000;stroke-width:0.3;"/>
    <path clip-path="url(#paf42411d54)" d="M 325.093794 35.153071 
L 325.093758 252.846944 
" style="fill:none;stroke:#ff0000;stroke-width:0.3;"/>
    <path clip-path="url(#paf42411d54)" d="M 291.145109 23.055774 
L 52.729595 71.270812 
" style="fill:none;stroke:#ff0000;stroke-width:0.3;"/>
    <path clip-path="url(#paf42411d54)" d="M 291.145109 23.055774 
L 19.636364 144.000011 
" style="fill:none;stroke:#ff0000;stroke-width:0.3;"/>
    <path clip-path="url(#paf42411d54)" d="M 291.145109 23.055774 
L 216.000002 274.909091 
" style="fill:none;stroke:#ff0000;stroke-width:0.3;"/>
    <path clip-path="url(#paf42411d54)" d="M 291.145109 23.055774 
L 23.40943 118.460905 
" style="fill:none;stroke:#ff0000;stroke-width:0.3;"/>
    <path clip-path="url(#paf42411d54)" d="M 291.145109 23.055774 
L 379.270393 216.729203 
" style="fill:none;stroke:#ff0000;stroke-width:0.3;"/>
    <path clip-path="url(#paf42411d54)" d="M 291.145109 23.055774 
L 52.729618 216.729203 
" style="fill:none;stroke:#ff0000;stroke-width:0.3;"/>
    <path clip-path="url(#paf42411d54)" d="M 291.145109 23.055774 
L 254.308651 15.606294 
" style="fill:none;stroke:#ff0000;stroke-width:0.3;"/>
    <path clip-path="url(#paf42411d54)" d="M 291.145109 23.055774 
L 177.691355 15.606294 
" style="fill:none;stroke:#ff0000;stroke-width:0.3;"/>
    <path clip-path="url(#paf42411d54)" d="M 291.145109 23.055774 
L 254.308663 272.393706 
" style="fill:none;stroke:#ff0000;stroke-width:0.3;"/>
    <path clip-path="url(#paf42411d54)" d="M 291.145109 23.055774 
L 140.854862 264.944226 
" style="fill:none;stroke:#ff0000;stroke-width:0.3;"/>
    <path clip-path="url(#paf42411d54)" d="M 254.308651 15.606294 
L 216.000002 274.909091 
" style="fill:none;stroke:#ff0000;stroke-width:0.3;"/>
    <path clip-path="url(#paf42411d54)" d="M 254.308651 15.606294 
L 52.729618 216.729203 
" style="fill:none;stroke:#ff0000;stroke-width:0.3;"/>
    <path clip-path="url(#paf42411d54)" d="M 254.308651 15.606294 
L 106.906171 252.846913 
" style="fill:none;stroke:#ff0000;stroke-width:0.3;"/>
    <path clip-path="url(#paf42411d54)" d="M 254.308651 15.606294 
L 140.854862 264.944226 
" style="fill:none;stroke:#ff0000;stroke-width:0.3;"/>
    <path clip-path="url(#paf42411d54)" d="M 254.308651 15.606294 
L 254.308663 272.393706 
" style="fill:none;stroke:#ff0000;stroke-width:0.3;"/>
    <path clip-path="url(#paf42411d54)" d="M 254.308651 15.606294 
L 379.270393 216.729203 
" style="fill:none;stroke:#ff0000;stroke-width:0.3;"/>
    <path clip-path="url(#paf42411d54)" d="M 254.308651 15.606294 
L 23.40943 118.460905 
" style="fill:none;stroke:#ff0000;stroke-width:0.3;"/>
    <path clip-path="url(#paf42411d54)" d="M 254.308651 15.606294 
L 77.149944 51.433296 
" style="fill:none;stroke:#ff0000;stroke-width:0.3;"/>
    <path clip-path="url(#paf42411d54)" d="M 254.308651 15.606294 
L 177.691355 15.606294 
" style="fill:none;stroke:#ff0000;stroke-width:0.3;"/>
    <path clip-path="url(#paf42411d54)" d="M 215.999991 13.090909 
L 77.149932 236.566697 
" style="fill:none;stroke:#ff0000;stroke-width:0.3;"/>
    <path clip-path="url(#paf42411d54)" d="M 215.999991 13.090909 
L 354.850045 236.56672 
" style="fill:none;stroke:#ff0000;stroke-width:0.3;"/>
    <path clip-path="url(#paf42411d54)" d="M 215.999991 13.090909 
L 140.854897 23.055766 
" style="fill:none;stroke:#ff0000;stroke-width:0.3;"/>
    <path clip-path="url(#paf42411d54)" d="M 215.999991 13.090909 
L 77.149944 51.433296 
" style="fill:none;stroke:#ff0000;stroke-width:0.3;"/>
    <path clip-path="url(#paf42411d54)" d="M 215.999991 13.090909 
L 34.583661 93.903253 
" style="fill:none;stroke:#ff0000;stroke-width:0.3;"/>
    <path clip-path="url(#paf42411d54)" d="M 215.999991 13.090909 
L 408.59057 169.539085 
" style="fill:none;stroke:#ff0000;stroke-width:0.3;"/>
    <path clip-path="url(#paf42411d54)" d="M 215.999991 13.090909 
L 397.416351 194.096739 
" style="fill:none;stroke:#ff0000;stroke-width:0.3;"/>
    <path clip-path="url(#paf42411d54)" d="M 215.999991 13.090909 
L 177.691343 272.393706 
" style="fill:none;stroke:#ff0000;stroke-width:0.3;"/>
    <path clip-path="url(#paf42411d54)" d="M 215.999991 13.090909 
L 52.729618 216.729203 
" style="fill:none;stroke:#ff0000;stroke-width:0.3;"/>
    <path clip-path="url(#paf42411d54)" d="M 215.999991 13.090909 
L 52.729595 71.270812 
" style="fill:none;stroke:#ff0000;stroke-width:0.3;"/>
    <path clip-path="url(#paf42411d54)" d="M 215.999991 13.090909 
L 379.270393 216.729203 
" style="fill:none;stroke:#ff0000;stroke-width:0.3;"/>
    <path clip-path="url(#paf42411d54)" d="M 177.691355 15.606294 
L 140.854862 264.944226 
" style="fill:none;stroke:#ff0000;stroke-width:0.3;"/>
    <path clip-path="url(#paf42411d54)" d="M 177.691355 15.606294 
L 23.40943 118.460905 
" style="fill:none;stroke:#ff0000;stroke-width:0.3;"/>
    <path clip-path="url(#paf42411d54)" d="M 177.691355 15.606294 
L 106.906171 252.846913 
" style="fill:none;stroke:#ff0000;stroke-width:0.3;"/>
    <path clip-path="url(#paf42411d54)" d="M 177.691355 15.606294 
L 291.145144 264.944218 
" style="fill:none;stroke:#ff0000;stroke-width:0.3;"/>
    <path clip-path="url(#paf42411d54)" d="M 177.691355 15.606294 
L 77.149944 51.433296 
" style="fill:none;stroke:#ff0000;stroke-width:0.3;"/>
    <path clip-path="url(#paf42411d54)" d="M 177.691355 15.606294 
L 254.308663 272.393706 
" style="fill:none;stroke:#ff0000;stroke-width:0.3;"/>
    <path clip-path="url(#paf42411d54)" d="M 177.691355 15.606294 
L 216.000002 274.909091 
" style="fill:none;stroke:#ff0000;stroke-width:0.3;"/>
    <path clip-path="url(#paf42411d54)" d="M 177.691355 15.606294 
L 325.093758 252.846944 
" style="fill:none;stroke:#ff0000;stroke-width:0.3;"/>
    <path clip-path="url(#paf42411d54)" d="M 140.854897 23.055766 
L 106.906171 252.846913 
" style="fill:none;stroke:#ff0000;stroke-width:0.3;"/>
    <path clip-path="url(#paf42411d54)" d="M 140.854897 23.055766 
L 325.093758 252.846944 
" style="fill:none;stroke:#ff0000;stroke-width:0.3;"/>
    <path clip-path="url(#paf42411d54)" d="M 140.854897 23.055766 
L 34.583661 194.096739 
" style="fill:none;stroke:#ff0000;stroke-width:0.3;"/>
    <path clip-path="url(#paf42411d54)" d="M 140.854897 23.055766 
L 106.906218 35.153063 
" style="fill:none;stroke:#ff0000;stroke-width:0.3;"/>
    <path clip-path="url(#paf42411d54)" d="M 140.854897 23.055766 
L 19.636364 144.000011 
" style="fill:none;stroke:#ff0000;stroke-width:0.3;"/>
    <path clip-path="url(#paf42411d54)" d="M 140.854897 23.055766 
L 354.850045 236.56672 
" style="fill:none;stroke:#ff0000;stroke-width:0.3;"/>
    <path clip-path="url(#paf42411d54)" d="M 140.854897 23.055766 
L 23.40943 169.539087 
" style="fill:none;stroke:#ff0000;stroke-width:0.3;"/>
    <path clip-path="url(#paf42411d54)" d="M 140.854897 23.055766 
L 291.145144 264.944218 
" style="fill:none;stroke:#ff0000;stroke-width:0.3;"/>
    <path clip-path="url(#paf42411d54)" d="M 106.906218 35.153063 
L 23.40943 169.539087 
" style="fill:none;stroke:#ff0000;stroke-width:0.3;"/>
    <path clip-path="url(#paf42411d54)" d="M 106.906218 35.153063 
L 408.59057 169.539085 
" style="fill:none;stroke:#ff0000;stroke-width:0.3;"/>
    <path clip-path="url(#paf42411d54)" d="M 106.906218 35.153063 
L 325.093758 252.846944 
" style="fill:none;stroke:#ff0000;stroke-width:0.3;"/>
    <path clip-path="url(#paf42411d54)" d="M 106.906218 35.153063 
L 291.145144 264.944218 
" style="fill:none;stroke:#ff0000;stroke-width:0.3;"/>
    <path clip-path="url(#paf42411d54)" d="M 106.906218 35.153063 
L 34.583661 194.096739 
" style="fill:none;stroke:#ff0000;stroke-width:0.3;"/>
    <path clip-path="url(#paf42411d54)" d="M 106.906218 35.153063 
L 19.636364 144.000011 
" style="fill:none;stroke:#ff0000;stroke-width:0.3;"/>
    <path clip-path="url(#paf42411d54)" d="M 106.906218 35.153063 
L 354.850045 236.56672 
" style="fill:none;stroke:#ff0000;stroke-width:0.3;"/>
    <path clip-path="url(#paf42411d54)" d="M 106.906218 35.153063 
L 106.906171 252.846913 
" style="fill:none;stroke:#ff0000;stroke-width:0.3;"/>
    <path clip-path="url(#paf42411d54)" d="M 77.149944 51.433296 
L 34.583661 194.096739 
" style="fill:none;stroke:#ff0000;stroke-width:0.3;"/>
    <path clip-path="url(#paf42411d54)" d="M 77.149944 51.433296 
L 397.416351 194.096739 
" style="fill:none;stroke:#ff0000;stroke-width:0.3;"/>
    <path clip-path="url(#paf42411d54)" d="M 77.149944 51.433296 
L 77.149932 236.566697 
" style="fill:none;stroke:#ff0000;stroke-width:0.3;"/>
    <path clip-path="url(#paf42411d54)" d="M 77.149944 51.433296 
L 52.729595 71.270812 
" style="fill:none;stroke:#ff0000;stroke-width:0.3;"/>
    <path clip-path="url(#paf42411d54)" d="M 77.149944 51.433296 
L 34.583661 93.903253 
" style="fill:none;stroke:#ff0000;stroke-width:0.3;"/>
    <path clip-path="url(#paf42411d54)" d="M 77.149944 51.433296 
L 19.636364 144.000011 
" style="fill:none;stroke:#ff0000;stroke-width:0.3;"/>
    <path clip-path="url(#paf42411d54)" d="M 77.149944 51.433296 
L 408.59057 169.539085 
" style="fill:none;stroke:#ff0000;stroke-width:0.3;"/>
    <path clip-path="url(#paf42411d54)" d="M 77.149944 51.433296 
L 106.906171 252.846913 
" style="fill:none;stroke:#ff0000;stroke-width:0.3;"/>
    <path clip-path="url(#paf42411d54)" d="M 77.149944 51.433296 
L 177.691343 272.393706 
" style="fill:none;stroke:#ff0000;stroke-width:0.3;"/>
    <path clip-path="url(#paf42411d54)" d="M 52.729595 71.270812 
L 408.59057 169.539085 
" style="fill:none;stroke:#ff0000;stroke-width:0.3;"/>
    <path clip-path="url(#paf42411d54)" d="M 52.729595 71.270812 
L 177.691343 272.393706 
" style="fill:none;stroke:#ff0000;stroke-width:0.3;"/>
    <path clip-path="url(#paf42411d54)" d="M 52.729595 71.270812 
L 34.583661 194.096739 
" style="fill:none;stroke:#ff0000;stroke-width:0.3;"/>
    <path clip-path="url(#paf42411d54)" d="M 52.729595 71.270812 
L 106.906171 252.846913 
" style="fill:none;stroke:#ff0000;stroke-width:0.3;"/>
    <path clip-path="url(#paf42411d54)" d="M 52.729595 71.270812 
L 140.854862 264.944226 
" style="fill:none;stroke:#ff0000;stroke-width:0.3;"/>
    <path clip-path="url(#paf42411d54)" d="M 52.729595 71.270812 
L 34.583661 93.903253 
" style="fill:none;stroke:#ff0000;stroke-width:0.3;"/>
    <path clip-path="url(#paf42411d54)" d="M 52.729595 71.270812 
L 397.416351 194.096739 
" style="fill:none;stroke:#ff0000;stroke-width:0.3;"/>
    <path clip-path="url(#paf42411d54)" d="M 52.729595 71.270812 
L 19.636364 144.000011 
" style="fill:none;stroke:#ff0000;stroke-width:0.3;"/>
    <path clip-path="url(#paf42411d54)" d="M 52.729595 71.270812 
L 77.149932 236.566697 
" style="fill:none;stroke:#ff0000;stroke-width:0.3;"/>
    <path clip-path="url(#paf42411d54)" d="M 34.583661 93.903253 
L 77.149932 236.566697 
" style="fill:none;stroke:#ff0000;stroke-width:0.3;"/>
    <path clip-path="url(#paf42411d54)" d="M 34.583661 93.903253 
L 34.583661 194.096739 
" style="fill:none;stroke:#ff0000;stroke-width:0.3;"/>
    <path clip-path="url(#paf42411d54)" d="M 34.583661 93.903253 
L 397.416351 194.096739 
" style="fill:none;stroke:#ff0000;stroke-width:0.3;"/>
    <path clip-path="url(#paf42411d54)" d="M 34.583661 93.903253 
L 106.906171 252.846913 
" style="fill:none;stroke:#ff0000;stroke-width:0.3;"/>
    <path clip-path="url(#paf42411d54)" d="M 34.583661 93.903253 
L 23.40943 118.460905 
" style="fill:none;stroke:#ff0000;stroke-width:0.3;"/>
    <path clip-path="url(#paf42411d54)" d="M 34.583661 93.903253 
L 177.691343 272.393706 
" style="fill:none;stroke:#ff0000;stroke-width:0.3;"/>
    <path clip-path="url(#paf42411d54)" d="M 34.583661 93.903253 
L 216.000002 274.909091 
" style="fill:none;stroke:#ff0000;stroke-width:0.3;"/>
    <path clip-path="url(#paf42411d54)" d="M 34.583661 93.903253 
L 408.59057 169.539085 
" style="fill:none;stroke:#ff0000;stroke-width:0.3;"/>
    <path clip-path="url(#paf42411d54)" d="M 34.583661 93.903253 
L 19.636364 144.000011 
" style="fill:none;stroke:#ff0000;stroke-width:0.3;"/>
    <path clip-path="url(#paf42411d54)" d="M 23.40943 118.460905 
L 216.000002 274.909091 
" style="fill:none;stroke:#ff0000;stroke-width:0.3;"/>
    <path clip-path="url(#paf42411d54)" d="M 23.40943 118.460905 
L 325.093758 252.846944 
" style="fill:none;stroke:#ff0000;stroke-width:0.3;"/>
    <path clip-path="url(#paf42411d54)" d="M 23.40943 118.460905 
L 34.583661 194.096739 
" style="fill:none;stroke:#ff0000;stroke-width:0.3;"/>
    <path clip-path="url(#paf42411d54)" d="M 23.40943 118.460905 
L 291.145144 264.944218 
" style="fill:none;stroke:#ff0000;stroke-width:0.3;"/>
    <path clip-path="url(#paf42411d54)" d="M 23.40943 118.460905 
L 140.854862 264.944226 
" style="fill:none;stroke:#ff0000;stroke-width:0.3;"/>
    <path clip-path="url(#paf42411d54)" d="M 23.40943 118.460905 
L 254.308663 272.393706 
" style="fill:none;stroke:#ff0000;stroke-width:0.3;"/>
    <path clip-path="url(#paf42411d54)" d="M 23.40943 118.460905 
L 354.850045 236.56672 
" style="fill:none;stroke:#ff0000;stroke-width:0.3;"/>
    <path clip-path="url(#paf42411d54)" d="M 19.636364 144.000011 
L 397.416351 194.096739 
" style="fill:none;stroke:#ff0000;stroke-width:0.3;"/>
    <path clip-path="url(#paf42411d54)" d="M 19.636364 144.000011 
L 106.906171 252.846913 
" style="fill:none;stroke:#ff0000;stroke-width:0.3;"/>
    <path clip-path="url(#paf42411d54)" d="M 19.636364 144.000011 
L 140.854862 264.944226 
" style="fill:none;stroke:#ff0000;stroke-width:0.3;"/>
    <path clip-path="url(#paf42411d54)" d="M 19.636364 144.000011 
L 34.583661 194.096739 
" style="fill:none;stroke:#ff0000;stroke-width:0.3;"/>
    <path clip-path="url(#paf42411d54)" d="M 19.636364 144.000011 
L 23.40943 169.539087 
" style="fill:none;stroke:#ff0000;stroke-width:0.3;"/>
    <path clip-path="url(#paf42411d54)" d="M 23.40943 169.539087 
L 291.145144 264.944218 
" style="fill:none;stroke:#ff0000;stroke-width:0.3;"/>
    <path clip-path="url(#paf42411d54)" d="M 23.40943 169.539087 
L 177.691343 272.393706 
" style="fill:none;stroke:#ff0000;stroke-width:0.3;"/>
    <path clip-path="url(#paf42411d54)" d="M 23.40943 169.539087 
L 106.906171 252.846913 
" style="fill:none;stroke:#ff0000;stroke-width:0.3;"/>
    <path clip-path="url(#paf42411d54)" d="M 23.40943 169.539087 
L 52.729618 216.729203 
" style="fill:none;stroke:#ff0000;stroke-width:0.3;"/>
    <path clip-path="url(#paf42411d54)" d="M 23.40943 169.539087 
L 34.583661 194.096739 
" style="fill:none;stroke:#ff0000;stroke-width:0.3;"/>
    <path clip-path="url(#paf42411d54)" d="M 23.40943 169.539087 
L 354.850045 236.56672 
" style="fill:none;stroke:#ff0000;stroke-width:0.3;"/>
    <path clip-path="url(#paf42411d54)" d="M 34.583661 194.096739 
L 397.416351 194.096739 
" style="fill:none;stroke:#ff0000;stroke-width:0.3;"/>
    <path clip-path="url(#paf42411d54)" d="M 34.583661 194.096739 
L 106.906171 252.846913 
" style="fill:none;stroke:#ff0000;stroke-width:0.3;"/>
    <path clip-path="url(#paf42411d54)" d="M 34.583661 194.096739 
L 216.000002 274.909091 
" style="fill:none;stroke:#ff0000;stroke-width:0.3;"/>
    <path clip-path="url(#paf42411d54)" d="M 52.729618 216.729203 
L 379.270393 216.729203 
" style="fill:none;stroke:#ff0000;stroke-width:0.3;"/>
    <path clip-path="url(#paf42411d54)" d="M 52.729618 216.729203 
L 77.149932 236.566697 
" style="fill:none;stroke:#ff0000;stroke-width:0.3;"/>
    <path clip-path="url(#paf42411d54)" d="M 52.729618 216.729203 
L 408.59057 169.539085 
" style="fill:none;stroke:#ff0000;stroke-width:0.3;"/>
    <path clip-path="url(#paf42411d54)" d="M 52.729618 216.729203 
L 291.145144 264.944218 
" style="fill:none;stroke:#ff0000;stroke-width:0.3;"/>
    <path clip-path="url(#paf42411d54)" d="M 52.729618 216.729203 
L 177.691343 272.393706 
" style="fill:none;stroke:#ff0000;stroke-width:0.3;"/>
    <path clip-path="url(#paf42411d54)" d="M 52.729618 216.729203 
L 216.000002 274.909091 
" style="fill:none;stroke:#ff0000;stroke-width:0.3;"/>
    <path clip-path="url(#paf42411d54)" d="M 77.149932 236.566697 
L 177.691343 272.393706 
" style="fill:none;stroke:#ff0000;stroke-width:0.3;"/>
    <path clip-path="url(#paf42411d54)" d="M 77.149932 236.566697 
L 408.59057 169.539085 
" style="fill:none;stroke:#ff0000;stroke-width:0.3;"/>
    <path clip-path="url(#paf42411d54)" d="M 77.149932 236.566697 
L 325.093758 252.846944 
" style="fill:none;stroke:#ff0000;stroke-width:0.3;"/>
    <path clip-path="url(#paf42411d54)" d="M 77.149932 236.566697 
L 379.270393 216.729203 
" style="fill:none;stroke:#ff0000;stroke-width:0.3;"/>
    <path clip-path="url(#paf42411d54)" d="M 77.149932 236.566697 
L 397.416351 194.096739 
" style="fill:none;stroke:#ff0000;stroke-width:0.3;"/>
    <path clip-path="url(#paf42411d54)" d="M 106.906171 252.846913 
L 397.416351 194.096739 
" style="fill:none;stroke:#ff0000;stroke-width:0.3;"/>
    <path clip-path="url(#paf42411d54)" d="M 140.854862 264.944226 
L 291.145144 264.944218 
" style="fill:none;stroke:#ff0000;stroke-width:0.3;"/>
    <path clip-path="url(#paf42411d54)" d="M 140.854862 264.944226 
L 254.308663 272.393706 
" style="fill:none;stroke:#ff0000;stroke-width:0.3;"/>
    <path clip-path="url(#paf42411d54)" d="M 140.854862 264.944226 
L 354.850045 236.56672 
" style="fill:none;stroke:#ff0000;stroke-width:0.3;"/>
    <path clip-path="url(#paf42411d54)" d="M 140.854862 264.944226 
L 325.093758 252.846944 
" style="fill:none;stroke:#ff0000;stroke-width:0.3;"/>
    <path clip-path="url(#paf42411d54)" d="M 140.854862 264.944226 
L 216.000002 274.909091 
" style="fill:none;stroke:#ff0000;stroke-width:0.3;"/>
    <path clip-path="url(#paf42411d54)" d="M 177.691343 272.393706 
L 379.270393 216.729203 
" style="fill:none;stroke:#ff0000;stroke-width:0.3;"/>
    <path clip-path="url(#paf42411d54)" d="M 177.691343 272.393706 
L 397.416351 194.096739 
" style="fill:none;stroke:#ff0000;stroke-width:0.3;"/>
    <path clip-path="url(#paf42411d54)" d="M 177.691343 272.393706 
L 408.59057 169.539085 
" style="fill:none;stroke:#ff0000;stroke-width:0.3;"/>
    <path clip-path="url(#paf42411d54)" d="M 177.691343 272.393706 
L 291.145144 264.944218 
" style="fill:none;stroke:#ff0000;stroke-width:0.3;"/>
    <path clip-path="url(#paf42411d54)" d="M 216.000002 274.909091 
L 379.270393 216.729203 
" style="fill:none;stroke:#ff0000;stroke-width:0.3;"/>
    <path clip-path="url(#paf42411d54)" d="M 216.000002 274.909091 
L 254.308663 272.393706 
" style="fill:none;stroke:#ff0000;stroke-width:0.3;"/>
    <path clip-path="url(#paf42411d54)" d="M 254.308663 272.393706 
L 291.145144 264.944218 
" style="fill:none;stroke:#ff0000;stroke-width:0.3;"/>
    <path clip-path="url(#paf42411d54)" d="M 254.308663 272.393706 
L 325.093758 252.846944 
" style="fill:none;stroke:#ff0000;stroke-width:0.3;"/>
    <path clip-path="url(#paf42411d54)" d="M 254.308663 272.393706 
L 397.416351 194.096739 
" style="fill:none;stroke:#ff0000;stroke-width:0.3;"/>
    <path clip-path="url(#paf42411d54)" d="M 254.308663 272.393706 
L 354.850045 236.56672 
" style="fill:none;stroke:#ff0000;stroke-width:0.3;"/>
    <path clip-path="url(#paf42411d54)" d="M 291.145144 264.944218 
L 354.850045 236.56672 
" style="fill:none;stroke:#ff0000;stroke-width:0.3;"/>
    <path clip-path="url(#paf42411d54)" d="M 291.145144 264.944218 
L 325.093758 252.846944 
" style="fill:none;stroke:#ff0000;stroke-width:0.3;"/>
    <path clip-path="url(#paf42411d54)" d="M 325.093758 252.846944 
L 379.270393 216.729203 
" style="fill:none;stroke:#ff0000;stroke-width:0.3;"/>
    <path clip-path="url(#paf42411d54)" d="M 325.093758 252.846944 
L 354.850045 236.56672 
" style="fill:none;stroke:#ff0000;stroke-width:0.3;"/>
    <path clip-path="url(#paf42411d54)" d="M 379.270393 216.729203 
L 408.59057 169.539085 
" style="fill:none;stroke:#ff0000;stroke-width:0.3;"/>
    <path clip-path="url(#paf42411d54)" d="M 397.416351 194.096739 
L 408.59057 169.539085 
" style="fill:none;stroke:#ff0000;stroke-width:0.3;"/>
   </g>
   <g id="PathCollection_1">
    <defs>
     <path d="M 0 8.660254 
C 2.296726 8.660254 4.499694 7.747755 6.123724 6.123724 
C 7.747755 4.499694 8.660254 2.296726 8.660254 0 
C 8.660254 -2.296726 7.747755 -4.499694 6.123724 -6.123724 
C 4.499694 -7.747755 2.296726 -8.660254 0 -8.660254 
C -2.296726 -8.660254 -4.499694 -7.747755 -6.123724 -6.123724 
C -7.747755 -4.499694 -8.660254 -2.296726 -8.660254 0 
C -8.660254 2.296726 -7.747755 4.499694 -6.123724 6.123724 
C -4.499694 7.747755 -2.296726 8.660254 0 8.660254 
z
" id="m2d2ff582d3"/>
    </defs>
    <g clip-path="url(#paf42411d54)">
     <use style="fill:#808080;" x="412.363636" xlink:href="#m2d2ff582d3" y="144"/>
     <use style="fill:#808080;" x="408.590558" xlink:href="#m2d2ff582d3" y="118.460903"/>
     <use style="fill:#808080;" x="397.416339" xlink:href="#m2d2ff582d3" y="93.903257"/>
     <use style="fill:#808080;" x="379.270393" xlink:href="#m2d2ff582d3" y="71.270804"/>
     <use style="fill:#808080;" x="354.850056" xlink:href="#m2d2ff582d3" y="51.433296"/>
     <use style="fill:#808080;" x="325.093794" xlink:href="#m2d2ff582d3" y="35.153071"/>
     <use style="fill:#808080;" x="291.145109" xlink:href="#m2d2ff582d3" y="23.055774"/>
     <use style="fill:#808080;" x="254.308651" xlink:href="#m2d2ff582d3" y="15.606294"/>
     <use style="fill:#808080;" x="215.999991" xlink:href="#m2d2ff582d3" y="13.090909"/>
     <use style="fill:#808080;" x="177.691355" xlink:href="#m2d2ff582d3" y="15.606294"/>
     <use style="fill:#808080;" x="140.854897" xlink:href="#m2d2ff582d3" y="23.055766"/>
     <use style="fill:#808080;" x="106.906218" xlink:href="#m2d2ff582d3" y="35.153063"/>
     <use style="fill:#808080;" x="77.149944" xlink:href="#m2d2ff582d3" y="51.433296"/>
     <use style="fill:#808080;" x="52.729595" xlink:href="#m2d2ff582d3" y="71.270812"/>
     <use style="fill:#808080;" x="34.583661" xlink:href="#m2d2ff582d3" y="93.903253"/>
     <use style="fill:#808080;" x="23.40943" xlink:href="#m2d2ff582d3" y="118.460905"/>
     <use style="fill:#808080;" x="19.636364" xlink:href="#m2d2ff582d3" y="144.000011"/>
     <use style="fill:#808080;" x="23.40943" xlink:href="#m2d2ff582d3" y="169.539087"/>
     <use style="fill:#808080;" x="34.583661" xlink:href="#m2d2ff582d3" y="194.096739"/>
     <use style="fill:#808080;" x="52.729618" xlink:href="#m2d2ff582d3" y="216.729203"/>
     <use style="fill:#808080;" x="77.149932" xlink:href="#m2d2ff582d3" y="236.566697"/>
     <use style="fill:#808080;" x="106.906171" xlink:href="#m2d2ff582d3" y="252.846913"/>
     <use style="fill:#808080;" x="140.854862" xlink:href="#m2d2ff582d3" y="264.944226"/>
     <use style="fill:#808080;" x="177.691343" xlink:href="#m2d2ff582d3" y="272.393706"/>
     <use style="fill:#808080;" x="216.000002" xlink:href="#m2d2ff582d3" y="274.909091"/>
     <use style="fill:#808080;" x="254.308663" xlink:href="#m2d2ff582d3" y="272.393706"/>
     <use style="fill:#808080;" x="291.145144" xlink:href="#m2d2ff582d3" y="264.944218"/>
     <use style="fill:#808080;" x="325.093758" xlink:href="#m2d2ff582d3" y="252.846944"/>
     <use style="fill:#808080;" x="354.850045" xlink:href="#m2d2ff582d3" y="236.56672"/>
     <use style="fill:#808080;" x="379.270393" xlink:href="#m2d2ff582d3" y="216.729203"/>
     <use style="fill:#808080;" x="397.416351" xlink:href="#m2d2ff582d3" y="194.096739"/>
     <use style="fill:#808080;" x="408.59057" xlink:href="#m2d2ff582d3" y="169.539085"/>
    </g>
   </g>
   <g id="text_1">
    <g clip-path="url(#paf42411d54)">
     <!-- ARI -->
     <g style="fill:#ffffff;" transform="translate(407.362543 145.551094)scale(0.06 -0.06)">
      <defs>
       <path d="M -0.140625 0 
L 27.34375 71.578125 
L 37.546875 71.578125 
L 66.84375 0 
L 56.0625 0 
L 47.703125 21.6875 
L 17.78125 21.6875 
L 9.90625 0 
z
M 20.515625 29.390625 
L 44.78125 29.390625 
L 37.3125 49.21875 
Q 33.890625 58.25 32.234375 64.0625 
Q 30.859375 57.171875 28.375 50.390625 
z
" id="ArialMT-65"/>
       <path d="M 7.859375 0 
L 7.859375 71.578125 
L 39.59375 71.578125 
Q 49.171875 71.578125 54.140625 69.640625 
Q 59.125 67.71875 62.109375 62.828125 
Q 65.09375 57.953125 65.09375 52.046875 
Q 65.09375 44.4375 60.15625 39.203125 
Q 55.21875 33.984375 44.921875 32.5625 
Q 48.6875 30.765625 50.640625 29 
Q 54.78125 25.203125 58.5 19.484375 
L 70.953125 0 
L 59.03125 0 
L 49.5625 14.890625 
Q 45.40625 21.34375 42.71875 24.75 
Q 40.046875 28.171875 37.921875 29.53125 
Q 35.796875 30.90625 33.59375 31.453125 
Q 31.984375 31.78125 28.328125 31.78125 
L 17.328125 31.78125 
L 17.328125 0 
z
M 17.328125 39.984375 
L 37.703125 39.984375 
Q 44.1875 39.984375 47.84375 41.328125 
Q 51.515625 42.671875 53.421875 45.625 
Q 55.328125 48.578125 55.328125 52.046875 
Q 55.328125 57.125 51.640625 60.390625 
Q 47.953125 63.671875 39.984375 63.671875 
L 17.328125 63.671875 
z
" id="ArialMT-82"/>
       <path d="M 9.328125 0 
L 9.328125 71.578125 
L 18.796875 71.578125 
L 18.796875 0 
z
" id="ArialMT-73"/>
      </defs>
      <use xlink:href="#ArialMT-65"/>
      <use x="66.699219" xlink:href="#ArialMT-82"/>
      <use x="138.916016" xlink:href="#ArialMT-73"/>
     </g>
    </g>
   </g>
   <g id="text_2">
    <g clip-path="url(#paf42411d54)">
     <!-- ATL -->
     <g style="fill:#ffffff;" transform="translate(403.31009 120.011997)scale(0.06 -0.06)">
      <defs>
       <path d="M 25.921875 0 
L 25.921875 63.140625 
L 2.34375 63.140625 
L 2.34375 71.578125 
L 59.078125 71.578125 
L 59.078125 63.140625 
L 35.40625 63.140625 
L 35.40625 0 
z
" id="ArialMT-84"/>
       <path d="M 7.328125 0 
L 7.328125 71.578125 
L 16.796875 71.578125 
L 16.796875 8.453125 
L 52.046875 8.453125 
L 52.046875 0 
z
" id="ArialMT-76"/>
      </defs>
      <use xlink:href="#ArialMT-65"/>
      <use x="59.324219" xlink:href="#ArialMT-84"/>
      <use x="120.408203" xlink:href="#ArialMT-76"/>
     </g>
    </g>
   </g>
   <g id="text_3">
    <g clip-path="url(#paf42411d54)">
     <!-- BAL -->
     <g style="fill:#ffffff;" transform="translate(391.74587 95.45435)scale(0.06 -0.06)">
      <defs>
       <path d="M 7.328125 0 
L 7.328125 71.578125 
L 34.1875 71.578125 
Q 42.390625 71.578125 47.34375 69.40625 
Q 52.296875 67.234375 55.09375 62.71875 
Q 57.90625 58.203125 57.90625 53.265625 
Q 57.90625 48.6875 55.421875 44.625 
Q 52.9375 40.578125 47.90625 38.09375 
Q 54.390625 36.1875 57.875 31.59375 
Q 61.375 27 61.375 20.75 
Q 61.375 15.71875 59.25 11.390625 
Q 57.125 7.078125 54 4.734375 
Q 50.875 2.390625 46.15625 1.1875 
Q 41.453125 0 34.625 0 
z
M 16.796875 41.5 
L 32.28125 41.5 
Q 38.578125 41.5 41.3125 42.328125 
Q 44.921875 43.40625 46.75 45.890625 
Q 48.578125 48.390625 48.578125 52.15625 
Q 48.578125 55.71875 46.875 58.421875 
Q 45.171875 61.140625 41.984375 62.140625 
Q 38.8125 63.140625 31.109375 63.140625 
L 16.796875 63.140625 
z
M 16.796875 8.453125 
L 34.625 8.453125 
Q 39.203125 8.453125 41.0625 8.796875 
Q 44.34375 9.375 46.53125 10.734375 
Q 48.734375 12.109375 50.140625 14.71875 
Q 51.5625 17.328125 51.5625 20.75 
Q 51.5625 24.75 49.515625 27.703125 
Q 47.46875 30.671875 43.828125 31.859375 
Q 40.1875 33.0625 33.34375 33.0625 
L 16.796875 33.0625 
z
" id="ArialMT-66"/>
      </defs>
      <use xlink:href="#ArialMT-66"/>
      <use x="66.699219" xlink:href="#ArialMT-65"/>
      <use x="133.398438" xlink:href="#ArialMT-76"/>
     </g>
    </g>
   </g>
   <g id="text_4">
    <g clip-path="url(#paf42411d54)">
     <!-- BUF -->
     <g style="fill:#ffffff;" transform="translate(373.270393 72.821898)scale(0.06 -0.06)">
      <defs>
       <path d="M 54.6875 71.578125 
L 64.15625 71.578125 
L 64.15625 30.21875 
Q 64.15625 19.4375 61.71875 13.078125 
Q 59.28125 6.734375 52.90625 2.75 
Q 46.53125 -1.21875 36.1875 -1.21875 
Q 26.125 -1.21875 19.71875 2.25 
Q 13.328125 5.71875 10.59375 12.28125 
Q 7.859375 18.84375 7.859375 30.21875 
L 7.859375 71.578125 
L 17.328125 71.578125 
L 17.328125 30.28125 
Q 17.328125 20.953125 19.0625 16.53125 
Q 20.796875 12.109375 25.015625 9.71875 
Q 29.25 7.328125 35.359375 7.328125 
Q 45.796875 7.328125 50.234375 12.0625 
Q 54.6875 16.796875 54.6875 30.28125 
z
" id="ArialMT-85"/>
       <path d="M 8.203125 0 
L 8.203125 71.578125 
L 56.5 71.578125 
L 56.5 63.140625 
L 17.671875 63.140625 
L 17.671875 40.96875 
L 51.265625 40.96875 
L 51.265625 32.515625 
L 17.671875 32.515625 
L 17.671875 0 
z
" id="ArialMT-70"/>
      </defs>
      <use xlink:href="#ArialMT-66"/>
      <use x="66.699219" xlink:href="#ArialMT-85"/>
      <use x="138.916016" xlink:href="#ArialMT-70"/>
     </g>
    </g>
   </g>
   <g id="text_5">
    <g clip-path="url(#paf42411d54)">
     <!-- CAR -->
     <g style="fill:#ffffff;" transform="translate(348.515838 52.984389)scale(0.06 -0.06)">
      <defs>
       <path d="M 58.796875 25.09375 
L 68.265625 22.703125 
Q 65.28125 11.03125 57.546875 4.90625 
Q 49.8125 -1.21875 38.625 -1.21875 
Q 27.046875 -1.21875 19.796875 3.484375 
Q 12.546875 8.203125 8.765625 17.140625 
Q 4.984375 26.078125 4.984375 36.328125 
Q 4.984375 47.515625 9.25 55.828125 
Q 13.53125 64.15625 21.40625 68.46875 
Q 29.296875 72.796875 38.765625 72.796875 
Q 49.515625 72.796875 56.828125 67.328125 
Q 64.15625 61.859375 67.046875 51.953125 
L 57.71875 49.75 
Q 55.21875 57.5625 50.484375 61.125 
Q 45.75 64.703125 38.578125 64.703125 
Q 30.328125 64.703125 24.78125 60.734375 
Q 19.234375 56.78125 16.984375 50.109375 
Q 14.75 43.453125 14.75 36.375 
Q 14.75 27.25 17.40625 20.4375 
Q 20.0625 13.625 25.671875 10.25 
Q 31.296875 6.890625 37.84375 6.890625 
Q 45.796875 6.890625 51.3125 11.46875 
Q 56.84375 16.0625 58.796875 25.09375 
z
" id="ArialMT-67"/>
      </defs>
      <use xlink:href="#ArialMT-67"/>
      <use x="72.216797" xlink:href="#ArialMT-65"/>
      <use x="138.916016" xlink:href="#ArialMT-82"/>
     </g>
    </g>
   </g>
   <g id="text_6">
    <g clip-path="url(#paf42411d54)">
     <!-- CHI -->
     <g style="fill:#ffffff;" transform="translate(319.927231 36.704165)scale(0.06 -0.06)">
      <defs>
       <path d="M 8.015625 0 
L 8.015625 71.578125 
L 17.484375 71.578125 
L 17.484375 42.1875 
L 54.6875 42.1875 
L 54.6875 71.578125 
L 64.15625 71.578125 
L 64.15625 0 
L 54.6875 0 
L 54.6875 33.734375 
L 17.484375 33.734375 
L 17.484375 0 
z
" id="ArialMT-72"/>
      </defs>
      <use xlink:href="#ArialMT-67"/>
      <use x="72.216797" xlink:href="#ArialMT-72"/>
      <use x="144.433594" xlink:href="#ArialMT-73"/>
     </g>
    </g>
   </g>
   <g id="text_7">
    <g clip-path="url(#paf42411d54)">
     <!-- CIN -->
     <g style="fill:#ffffff;" transform="translate(285.978547 24.606868)scale(0.06 -0.06)">
      <defs>
       <path d="M 7.625 0 
L 7.625 71.578125 
L 17.328125 71.578125 
L 54.9375 15.375 
L 54.9375 71.578125 
L 64.015625 71.578125 
L 64.015625 0 
L 54.296875 0 
L 16.703125 56.25 
L 16.703125 0 
z
" id="ArialMT-78"/>
      </defs>
      <use xlink:href="#ArialMT-67"/>
      <use x="72.216797" xlink:href="#ArialMT-73"/>
      <use x="100" xlink:href="#ArialMT-78"/>
     </g>
    </g>
   </g>
   <g id="text_8">
    <g clip-path="url(#paf42411d54)">
     <!-- CLE -->
     <g style="fill:#ffffff;" transform="translate(248.472714 17.157388)scale(0.06 -0.06)">
      <defs>
       <path d="M 7.90625 0 
L 7.90625 71.578125 
L 59.671875 71.578125 
L 59.671875 63.140625 
L 17.390625 63.140625 
L 17.390625 41.21875 
L 56.984375 41.21875 
L 56.984375 32.8125 
L 17.390625 32.8125 
L 17.390625 8.453125 
L 61.328125 8.453125 
L 61.328125 0 
z
" id="ArialMT-69"/>
      </defs>
      <use xlink:href="#ArialMT-67"/>
      <use x="72.216797" xlink:href="#ArialMT-76"/>
      <use x="127.832031" xlink:href="#ArialMT-69"/>
     </g>
    </g>
   </g>
   <g id="text_9">
    <g clip-path="url(#paf42411d54)">
     <!-- DAL -->
     <g style="fill:#ffffff;" transform="translate(210.164054 14.642003)scale(0.06 -0.06)">
      <defs>
       <path d="M 7.71875 0 
L 7.71875 71.578125 
L 32.375 71.578125 
Q 40.71875 71.578125 45.125 70.5625 
Q 51.265625 69.140625 55.609375 65.4375 
Q 61.28125 60.640625 64.078125 53.1875 
Q 66.890625 45.75 66.890625 36.1875 
Q 66.890625 28.03125 64.984375 21.734375 
Q 63.09375 15.4375 60.109375 11.296875 
Q 57.125 7.171875 53.578125 4.796875 
Q 50.046875 2.4375 45.046875 1.21875 
Q 40.046875 0 33.546875 0 
z
M 17.1875 8.453125 
L 32.46875 8.453125 
Q 39.546875 8.453125 43.578125 9.765625 
Q 47.609375 11.078125 50 13.484375 
Q 53.375 16.84375 55.25 22.53125 
Q 57.125 28.21875 57.125 36.328125 
Q 57.125 47.5625 53.4375 53.59375 
Q 49.75 59.625 44.484375 61.671875 
Q 40.671875 63.140625 32.234375 63.140625 
L 17.1875 63.140625 
z
" id="ArialMT-68"/>
      </defs>
      <use xlink:href="#ArialMT-68"/>
      <use x="72.216797" xlink:href="#ArialMT-65"/>
      <use x="138.916016" xlink:href="#ArialMT-76"/>
     </g>
    </g>
   </g>
   <g id="text_10">
    <g clip-path="url(#paf42411d54)">
     <!-- DEN -->
     <g style="fill:#ffffff;" transform="translate(171.357136 17.157388)scale(0.06 -0.06)">
      <use xlink:href="#ArialMT-68"/>
      <use x="72.216797" xlink:href="#ArialMT-69"/>
      <use x="138.916016" xlink:href="#ArialMT-78"/>
     </g>
    </g>
   </g>
   <g id="text_11">
    <g clip-path="url(#paf42411d54)">
     <!-- DET -->
     <g style="fill:#ffffff;" transform="translate(134.854897 24.60686)scale(0.06 -0.06)">
      <use xlink:href="#ArialMT-68"/>
      <use x="72.216797" xlink:href="#ArialMT-69"/>
      <use x="138.916016" xlink:href="#ArialMT-84"/>
     </g>
    </g>
   </g>
   <g id="text_12">
    <g clip-path="url(#paf42411d54)">
     <!-- GB -->
     <g style="fill:#ffffff;" transform="translate(102.571687 36.704157)scale(0.06 -0.06)">
      <defs>
       <path d="M 41.21875 28.078125 
L 41.21875 36.46875 
L 71.53125 36.53125 
L 71.53125 9.96875 
Q 64.546875 4.390625 57.125 1.578125 
Q 49.703125 -1.21875 41.890625 -1.21875 
Q 31.34375 -1.21875 22.71875 3.296875 
Q 14.109375 7.8125 9.71875 16.359375 
Q 5.328125 24.90625 5.328125 35.453125 
Q 5.328125 45.90625 9.6875 54.953125 
Q 14.0625 64.015625 22.265625 68.40625 
Q 30.46875 72.796875 41.15625 72.796875 
Q 48.921875 72.796875 55.1875 70.28125 
Q 61.46875 67.78125 65.03125 63.28125 
Q 68.609375 58.796875 70.453125 51.5625 
L 61.921875 49.21875 
Q 60.296875 54.6875 57.90625 57.8125 
Q 55.515625 60.9375 51.0625 62.8125 
Q 46.625 64.703125 41.21875 64.703125 
Q 34.71875 64.703125 29.984375 62.71875 
Q 25.25 60.75 22.34375 57.515625 
Q 19.4375 54.296875 17.828125 50.4375 
Q 15.09375 43.796875 15.09375 36.03125 
Q 15.09375 26.46875 18.390625 20.015625 
Q 21.6875 13.578125 27.984375 10.453125 
Q 34.28125 7.328125 41.359375 7.328125 
Q 47.515625 7.328125 53.375 9.6875 
Q 59.234375 12.0625 62.25 14.75 
L 62.25 28.078125 
z
" id="ArialMT-71"/>
      </defs>
      <use xlink:href="#ArialMT-71"/>
      <use x="77.783203" xlink:href="#ArialMT-66"/>
     </g>
    </g>
   </g>
   <g id="text_13">
    <g clip-path="url(#paf42411d54)">
     <!-- HOU -->
     <g style="fill:#ffffff;" transform="translate(70.483381 52.984389)scale(0.06 -0.06)">
      <defs>
       <path d="M 4.828125 34.859375 
Q 4.828125 52.6875 14.390625 62.765625 
Q 23.96875 72.859375 39.109375 72.859375 
Q 49.03125 72.859375 56.984375 68.109375 
Q 64.9375 63.375 69.109375 54.90625 
Q 73.296875 46.4375 73.296875 35.6875 
Q 73.296875 24.8125 68.890625 16.21875 
Q 64.5 7.625 56.4375 3.203125 
Q 48.390625 -1.21875 39.0625 -1.21875 
Q 28.953125 -1.21875 20.984375 3.65625 
Q 13.03125 8.546875 8.921875 16.984375 
Q 4.828125 25.4375 4.828125 34.859375 
z
M 14.59375 34.71875 
Q 14.59375 21.78125 21.546875 14.328125 
Q 28.515625 6.890625 39.015625 6.890625 
Q 49.703125 6.890625 56.609375 14.40625 
Q 63.53125 21.921875 63.53125 35.75 
Q 63.53125 44.484375 60.578125 51 
Q 57.625 57.515625 51.921875 61.109375 
Q 46.234375 64.703125 39.15625 64.703125 
Q 29.109375 64.703125 21.84375 57.78125 
Q 14.59375 50.875 14.59375 34.71875 
z
" id="ArialMT-79"/>
      </defs>
      <use xlink:href="#ArialMT-72"/>
      <use x="72.216797" xlink:href="#ArialMT-79"/>
      <use x="150" xlink:href="#ArialMT-85"/>
     </g>
    </g>
   </g>
   <g id="text_14">
    <g clip-path="url(#paf42411d54)">
     <!-- IND -->
     <g style="fill:#ffffff;" transform="translate(47.563033 72.821906)scale(0.06 -0.06)">
      <use xlink:href="#ArialMT-73"/>
      <use x="27.783203" xlink:href="#ArialMT-78"/>
      <use x="100" xlink:href="#ArialMT-68"/>
     </g>
    </g>
   </g>
   <g id="text_15">
    <g clip-path="url(#paf42411d54)">
     <!-- JAX -->
     <g style="fill:#ffffff;" transform="translate(29.081473 95.454347)scale(0.06 -0.06)">
      <defs>
       <path d="M 2.875 20.3125 
L 11.421875 21.484375 
Q 11.765625 13.28125 14.5 10.25 
Q 17.234375 7.234375 22.078125 7.234375 
Q 25.640625 7.234375 28.21875 8.859375 
Q 30.8125 10.5 31.78125 13.296875 
Q 32.765625 16.109375 32.765625 22.265625 
L 32.765625 71.578125 
L 42.234375 71.578125 
L 42.234375 22.796875 
Q 42.234375 13.8125 40.0625 8.875 
Q 37.890625 3.953125 33.171875 1.359375 
Q 28.46875 -1.21875 22.125 -1.21875 
Q 12.703125 -1.21875 7.6875 4.203125 
Q 2.6875 9.625 2.875 20.3125 
z
" id="ArialMT-74"/>
       <path d="M 0.4375 0 
L 28.125 37.3125 
L 3.71875 71.578125 
L 14.984375 71.578125 
L 27.984375 53.21875 
Q 32.03125 47.515625 33.734375 44.4375 
Q 36.140625 48.34375 39.40625 52.59375 
L 53.8125 71.578125 
L 64.109375 71.578125 
L 38.96875 37.84375 
L 66.0625 0 
L 54.34375 0 
L 36.328125 25.53125 
Q 34.8125 27.734375 33.203125 30.328125 
Q 30.8125 26.421875 29.78125 24.953125 
L 11.8125 0 
z
" id="ArialMT-88"/>
      </defs>
      <use xlink:href="#ArialMT-74"/>
      <use x="50" xlink:href="#ArialMT-65"/>
      <use x="116.699219" xlink:href="#ArialMT-88"/>
     </g>
    </g>
   </g>
   <g id="text_16">
    <g clip-path="url(#paf42411d54)">
     <!-- KC -->
     <g style="fill:#ffffff;" transform="translate(19.241774 120.011999)scale(0.06 -0.06)">
      <defs>
       <path d="M 7.328125 0 
L 7.328125 71.578125 
L 16.796875 71.578125 
L 16.796875 36.078125 
L 52.34375 71.578125 
L 65.1875 71.578125 
L 35.15625 42.578125 
L 66.5 0 
L 54 0 
L 28.515625 36.234375 
L 16.796875 24.8125 
L 16.796875 0 
z
" id="ArialMT-75"/>
      </defs>
      <use xlink:href="#ArialMT-75"/>
      <use x="66.699219" xlink:href="#ArialMT-67"/>
     </g>
    </g>
   </g>
   <g id="text_17">
    <g clip-path="url(#paf42411d54)">
     <!-- MIA -->
     <g style="fill:#ffffff;" transform="translate(14.302926 145.551105)scale(0.06 -0.06)">
      <defs>
       <path d="M 7.421875 0 
L 7.421875 71.578125 
L 21.6875 71.578125 
L 38.625 20.90625 
Q 40.96875 13.8125 42.046875 10.296875 
Q 43.265625 14.203125 45.84375 21.78125 
L 62.984375 71.578125 
L 75.734375 71.578125 
L 75.734375 0 
L 66.609375 0 
L 66.609375 59.90625 
L 45.796875 0 
L 37.25 0 
L 16.546875 60.9375 
L 16.546875 0 
z
" id="ArialMT-77"/>
      </defs>
      <use xlink:href="#ArialMT-77"/>
      <use x="83.300781" xlink:href="#ArialMT-73"/>
      <use x="111.083984" xlink:href="#ArialMT-65"/>
     </g>
    </g>
   </g>
   <g id="text_18">
    <g clip-path="url(#paf42411d54)">
     <!-- MIN -->
     <g style="fill:#ffffff;" transform="translate(17.910524 171.090181)scale(0.06 -0.06)">
      <use xlink:href="#ArialMT-77"/>
      <use x="83.300781" xlink:href="#ArialMT-73"/>
      <use x="111.083984" xlink:href="#ArialMT-78"/>
     </g>
    </g>
   </g>
   <g id="text_19">
    <g clip-path="url(#paf42411d54)">
     <!-- NE -->
     <g style="fill:#ffffff;" transform="translate(30.416005 195.647833)scale(0.06 -0.06)">
      <use xlink:href="#ArialMT-78"/>
      <use x="72.216797" xlink:href="#ArialMT-69"/>
     </g>
    </g>
   </g>
   <g id="text_20">
    <g clip-path="url(#paf42411d54)">
     <!-- NO -->
     <g style="fill:#ffffff;" transform="translate(48.229618 218.280297)scale(0.06 -0.06)">
      <use xlink:href="#ArialMT-78"/>
      <use x="72.216797" xlink:href="#ArialMT-79"/>
     </g>
    </g>
   </g>
   <g id="text_21">
    <g clip-path="url(#paf42411d54)">
     <!-- NYG -->
     <g style="fill:#ffffff;" transform="translate(70.648838 238.11779)scale(0.06 -0.06)">
      <defs>
       <path d="M 27.875 0 
L 27.875 30.328125 
L 0.296875 71.578125 
L 11.8125 71.578125 
L 25.921875 50 
Q 29.828125 43.953125 33.203125 37.890625 
Q 36.421875 43.5 41.015625 50.53125 
L 54.890625 71.578125 
L 65.921875 71.578125 
L 37.359375 30.328125 
L 37.359375 0 
z
" id="ArialMT-89"/>
      </defs>
      <use xlink:href="#ArialMT-78"/>
      <use x="72.216797" xlink:href="#ArialMT-89"/>
      <use x="138.916016" xlink:href="#ArialMT-71"/>
     </g>
    </g>
   </g>
   <g id="text_22">
    <g clip-path="url(#paf42411d54)">
     <!-- NYJ -->
     <g style="fill:#ffffff;" transform="translate(101.238515 254.398007)scale(0.06 -0.06)">
      <use xlink:href="#ArialMT-78"/>
      <use x="72.216797" xlink:href="#ArialMT-89"/>
      <use x="138.916016" xlink:href="#ArialMT-74"/>
     </g>
    </g>
   </g>
   <g id="text_23">
    <g clip-path="url(#paf42411d54)">
     <!-- OAK -->
     <g style="fill:#ffffff;" transform="translate(134.519237 266.49532)scale(0.06 -0.06)">
      <use xlink:href="#ArialMT-79"/>
      <use x="77.783203" xlink:href="#ArialMT-65"/>
      <use x="144.482422" xlink:href="#ArialMT-75"/>
     </g>
    </g>
   </g>
   <g id="text_24">
    <g clip-path="url(#paf42411d54)">
     <!-- PHI -->
     <g style="fill:#ffffff;" transform="translate(172.690249 273.944799)scale(0.06 -0.06)">
      <defs>
       <path d="M 7.71875 0 
L 7.71875 71.578125 
L 34.71875 71.578125 
Q 41.84375 71.578125 45.609375 70.90625 
Q 50.875 70.015625 54.4375 67.546875 
Q 58.015625 65.09375 60.1875 60.640625 
Q 62.359375 56.203125 62.359375 50.875 
Q 62.359375 41.75 56.546875 35.421875 
Q 50.734375 29.109375 35.546875 29.109375 
L 17.1875 29.109375 
L 17.1875 0 
z
M 17.1875 37.546875 
L 35.6875 37.546875 
Q 44.875 37.546875 48.734375 40.96875 
Q 52.59375 44.390625 52.59375 50.59375 
Q 52.59375 55.078125 50.3125 58.265625 
Q 48.046875 61.46875 44.34375 62.5 
Q 41.9375 63.140625 35.5 63.140625 
L 17.1875 63.140625 
z
" id="ArialMT-80"/>
      </defs>
      <use xlink:href="#ArialMT-80"/>
      <use x="66.699219" xlink:href="#ArialMT-72"/>
      <use x="138.916016" xlink:href="#ArialMT-73"/>
     </g>
    </g>
   </g>
   <g id="text_25">
    <g clip-path="url(#paf42411d54)">
     <!-- PIT -->
     <g style="fill:#ffffff;" transform="translate(211.333127 276.460185)scale(0.06 -0.06)">
      <use xlink:href="#ArialMT-80"/>
      <use x="66.699219" xlink:href="#ArialMT-73"/>
      <use x="94.482422" xlink:href="#ArialMT-84"/>
     </g>
    </g>
   </g>
   <g id="text_26">
    <g clip-path="url(#paf42411d54)">
     <!-- LAC -->
     <g style="fill:#ffffff;" transform="translate(248.472725 273.944799)scale(0.06 -0.06)">
      <use xlink:href="#ArialMT-76"/>
      <use x="55.615234" xlink:href="#ArialMT-65"/>
      <use x="122.314453" xlink:href="#ArialMT-67"/>
     </g>
    </g>
   </g>
   <g id="text_27">
    <g clip-path="url(#paf42411d54)">
     <!-- LA -->
     <g style="fill:#ffffff;" transform="translate(287.475769 266.495312)scale(0.06 -0.06)">
      <use xlink:href="#ArialMT-76"/>
      <use x="55.615234" xlink:href="#ArialMT-65"/>
     </g>
    </g>
   </g>
   <g id="text_28">
    <g clip-path="url(#paf42411d54)">
     <!-- SF -->
     <g style="fill:#ffffff;" transform="translate(321.260321 254.398038)scale(0.06 -0.06)">
      <defs>
       <path d="M 4.5 23 
L 13.421875 23.78125 
Q 14.0625 18.40625 16.375 14.96875 
Q 18.703125 11.53125 23.578125 9.40625 
Q 28.46875 7.28125 34.578125 7.28125 
Q 39.984375 7.28125 44.140625 8.890625 
Q 48.296875 10.5 50.3125 13.296875 
Q 52.34375 16.109375 52.34375 19.4375 
Q 52.34375 22.796875 50.390625 25.3125 
Q 48.4375 27.828125 43.953125 29.546875 
Q 41.0625 30.671875 31.203125 33.03125 
Q 21.34375 35.40625 17.390625 37.5 
Q 12.25 40.1875 9.734375 44.15625 
Q 7.234375 48.140625 7.234375 53.078125 
Q 7.234375 58.5 10.296875 63.203125 
Q 13.375 67.921875 19.28125 70.359375 
Q 25.203125 72.796875 32.421875 72.796875 
Q 40.375 72.796875 46.453125 70.234375 
Q 52.546875 67.671875 55.8125 62.6875 
Q 59.078125 57.71875 59.328125 51.421875 
L 50.25 50.734375 
Q 49.515625 57.515625 45.28125 60.984375 
Q 41.0625 64.453125 32.8125 64.453125 
Q 24.21875 64.453125 20.28125 61.296875 
Q 16.359375 58.15625 16.359375 53.71875 
Q 16.359375 49.859375 19.140625 47.359375 
Q 21.875 44.875 33.421875 42.265625 
Q 44.96875 39.65625 49.265625 37.703125 
Q 55.515625 34.8125 58.484375 30.390625 
Q 61.46875 25.984375 61.46875 20.21875 
Q 61.46875 14.5 58.203125 9.4375 
Q 54.9375 4.390625 48.796875 1.578125 
Q 42.671875 -1.21875 35.015625 -1.21875 
Q 25.296875 -1.21875 18.71875 1.609375 
Q 12.15625 4.4375 8.421875 10.125 
Q 4.6875 15.828125 4.5 23 
z
" id="ArialMT-83"/>
      </defs>
      <use xlink:href="#ArialMT-83"/>
      <use x="66.699219" xlink:href="#ArialMT-70"/>
     </g>
    </g>
   </g>
   <g id="text_29">
    <g clip-path="url(#paf42411d54)">
     <!-- SEA -->
     <g style="fill:#ffffff;" transform="translate(348.846764 238.117814)scale(0.06 -0.06)">
      <use xlink:href="#ArialMT-83"/>
      <use x="66.699219" xlink:href="#ArialMT-69"/>
      <use x="133.398438" xlink:href="#ArialMT-65"/>
     </g>
    </g>
   </g>
   <g id="text_30">
    <g clip-path="url(#paf42411d54)">
     <!-- TB -->
     <g style="fill:#ffffff;" transform="translate(375.436956 218.280297)scale(0.06 -0.06)">
      <use xlink:href="#ArialMT-84"/>
      <use x="61.083984" xlink:href="#ArialMT-66"/>
     </g>
    </g>
   </g>
   <g id="text_31">
    <g clip-path="url(#paf42411d54)">
     <!-- TEN -->
     <g style="fill:#ffffff;" transform="translate(391.416351 195.647833)scale(0.06 -0.06)">
      <use xlink:href="#ArialMT-84"/>
      <use x="61.083984" xlink:href="#ArialMT-69"/>
      <use x="127.783203" xlink:href="#ArialMT-78"/>
     </g>
    </g>
   </g>
   <g id="text_32">
    <g clip-path="url(#paf42411d54)">
     <!-- WAS -->
     <g style="fill:#ffffff;" transform="translate(401.869164 171.090179)scale(0.06 -0.06)">
      <defs>
       <path d="M 20.21875 0 
L 1.21875 71.578125 
L 10.9375 71.578125 
L 21.828125 24.65625 
Q 23.578125 17.28125 24.859375 10.015625 
Q 27.59375 21.484375 28.078125 23.25 
L 41.703125 71.578125 
L 53.125 71.578125 
L 63.375 35.359375 
Q 67.234375 21.875 68.953125 10.015625 
Q 70.3125 16.796875 72.515625 25.59375 
L 83.734375 71.578125 
L 93.265625 71.578125 
L 73.640625 0 
L 64.5 0 
L 49.421875 54.546875 
Q 47.515625 61.375 47.171875 62.9375 
Q 46.046875 58.015625 45.0625 54.546875 
L 29.890625 0 
z
" id="ArialMT-87"/>
      </defs>
      <use xlink:href="#ArialMT-87"/>
      <use x="90.634766" xlink:href="#ArialMT-65"/>
      <use x="157.333984" xlink:href="#ArialMT-83"/>
     </g>
    </g>
   </g>
  </g>
 </g>
 <defs>
  <clipPath id="paf42411d54">
   <rect height="288" width="432" x="0" y="0"/>
  </clipPath>
 </defs>
</svg>
